<svg id="Layer_1" data-name="Layer 1" xmlns="http://www.w3.org/2000/svg" xmlns:xlink="http://www.w3.org/1999/xlink" viewBox="0 0 420.7892 70.35178"><defs><clipPath id="clip-path" transform="translate(-211.20689 -263.86761)"><rect width="841.89001" height="595.276" style="fill:none"/></clipPath></defs><title>DrososLogoPrint</title><g style="clip-path:url(#clip-path)"><path d="M259.16989,321.12964l-18.488,1.09-.563-.528v-3.449l-.262-.074a15.89157,15.89157,0,0,1-4.962,3.469,14.60087,14.60087,0,0,1-6.309,1.48,15.82448,15.82448,0,0,1-12.473-5.625q-4.9065-5.625-4.906-14.551a18.82676,18.82676,0,0,1,5.486-13.574,17.81708,17.81708,0,0,1,13.278-5.662,23.14464,23.14464,0,0,1,5.767.693,17.24539,17.24539,0,0,1,4.307,1.633v-12.263a6.14836,6.14836,0,0,0-.563-2.606,4.70335,4.70335,0,0,0-1.5-1.894,7.61778,7.61778,0,0,0-2.906-1.182,30.70438,30.70438,0,0,0-3.506-.506v-2.736l20.286-.977.564.602v49.16a5.57269,5.57269,0,0,0,.465,2.402,3.38779,3.38779,0,0,0,1.512,1.535,6.83349,6.83349,0,0,0,2.293.602c1.007.125,1.834.203,2.48.227Zm-19.125-6.672v-21.189a16.68865,16.68865,0,0,0-.729-1.913,7.93057,7.93057,0,0,0-1.291-1.988,6.81582,6.81582,0,0,0-2.001-1.387,6.4647,6.4647,0,0,0-2.825-.599q-3.741,0-6.134,4.236-2.394,4.239-2.395,11.965a31.26839,31.26839,0,0,0,.43,5.453,14.40774,14.40774,0,0,0,1.515,4.406,8.53113,8.53113,0,0,0,2.787,3.114,7.26051,7.26051,0,0,0,4.096,1.125,7.3697,7.3697,0,0,0,3.779-.879,11.26255,11.26255,0,0,0,2.768-2.344" transform="translate(-211.20689 -263.86761)" style="fill:#006da9"/><path d="M298.99609,291.58069a7.67342,7.67342,0,0,1-1.764,5.006,5.70178,5.70178,0,0,1-4.648,2.156,7.64433,7.64433,0,0,1-4.633-1.381,4.71918,4.71918,0,0,1-1.893-4.07,8.57621,8.57621,0,0,1,.188-2.035c.125-.485.236-.94.338-1.364a7.99044,7.99044,0,0,0-3.639,1.19,11.939,11.939,0,0,0-3.375,2.973v20.589a5.02067,5.02067,0,0,0,.412,2.172,2.90753,2.90753,0,0,0,1.389,1.352,9.72711,9.72711,0,0,0,2.682.695q1.854.282,2.679.317v2.738h-25.086v-2.738c.623-.051,1.256-.118,1.893-.207a8.81414,8.81414,0,0,0,1.631-.356,2.74412,2.74412,0,0,0,1.65-1.273,4.85088,4.85088,0,0,0,.451-2.25v-21.826a4.62417,4.62417,0,0,0-.638-2.418,5.54436,5.54436,0,0,0-1.537-1.708,6.32611,6.32611,0,0,0-1.707-.75,12.11551,12.11551,0,0,0-2.268-.412v-2.738l17.887-.975.562.563v5.437h.151a22.058,22.058,0,0,1,5.494-4.705,11.78763,11.78763,0,0,1,6.056-1.707,7.50336,7.50336,0,0,1,5.606,2.157,7.61139,7.61139,0,0,1,2.119,5.568" transform="translate(-211.20689 -263.86761)" style="fill:#006da9"/><path d="M339.87149,289.14349a17.19611,17.19611,0,0,1,4.236,6.187,20.49865,20.49865,0,0,1,1.463,7.799,21.37755,21.37755,0,0,1-1.444,7.859,17.16,17.16,0,0,1-4.218,6.317,20.131,20.131,0,0,1-7.069,4.312,27.28245,27.28245,0,0,1-9.394,1.5,25.89506,25.89506,0,0,1-8.418-1.312,19.7951,19.7951,0,0,1-6.807-3.938,17.83239,17.83239,0,0,1-4.5-6.207,20.06311,20.06311,0,0,1-1.65-8.265,20.91808,20.91808,0,0,1,1.443-8.008,17.97515,17.97515,0,0,1,4.332-6.244,19.10141,19.10141,0,0,1,6.844-4.069,29.85029,29.85029,0,0,1,18.338,0,20.02465,20.02465,0,0,1,6.844,4.069m-9.6,25.986a21.91179,21.91179,0,0,0,1.219-5.098,54.85513,54.85513,0,0,0,.017-12.976,22.13853,22.13853,0,0,0-1.125-5.324,8.87783,8.87783,0,0,0-2.494-3.713,6.80916,6.80916,0,0,0-8.287.113,9.51642,9.51642,0,0,0-2.455,3.787,20.74688,20.74688,0,0,0-1.088,5.006,57.26869,57.26869,0,0,0-.301,5.982q0,4.0845.264,6.77a21.21814,21.21814,0,0,0,1.273,5.379,8.54665,8.54665,0,0,0,2.477,3.676,6.70858,6.70858,0,0,0,7.949.093,8.33686,8.33686,0,0,0,2.551-3.695" transform="translate(-211.20689 -263.86761)" style="fill:#006da9"/><path d="M367.7695,323.192a24.04015,24.04015,0,0,1-7.105-1.066,23.27667,23.27667,0,0,1-5.381-2.27l-1.125,2.551h-2.926l-.488-13.988h2.738a18.52063,18.52063,0,0,0,1.875,3.804,20.95236,20.95236,0,0,0,3,3.809,16.91328,16.91328,0,0,0,4.031,2.847,10.4615,10.4615,0,0,0,4.856,1.165,8.082,8.082,0,0,0,5.082-1.332,4.9355,4.9355,0,0,0,1.668-4.106,3.95325,3.95325,0,0,0-.75-2.477,6.45524,6.45524,0,0,0-2.063-1.687,19.094,19.094,0,0,0-3.205-1.273q-1.743-.528-4.295-1.274a41.55,41.55,0,0,1-4.367-1.519,14.90177,14.90177,0,0,1-3.77-2.418,10.611,10.611,0,0,1-3.713-8.44,10.12853,10.12853,0,0,1,4.444-8.549q4.44452-3.26247,11.644-3.263a26.786,26.786,0,0,1,6.282.693,31.76192,31.76192,0,0,1,4.818,1.52l.787-2.213h2.852l.599,12.787h-2.625a15.50287,15.50287,0,0,0-4.5-6.731,10.17125,10.17125,0,0,0-6.863-2.832,7.57466,7.57466,0,0,0-4.537,1.201,3.89721,3.89721,0,0,0-1.651,3.338,4.3245,4.3245,0,0,0,2.417,4.125,32.276,32.276,0,0,0,6.755,2.399q6.70051,1.728,9.809,4.707a10.06716,10.06716,0,0,1,3.107,7.594,10.95114,10.95114,0,0,1-4.818,9.523q-4.81947,3.375-12.582,3.375" transform="translate(-211.20689 -263.86761)" style="fill:#006da9"/><path d="M428.07068,289.14349a17.25107,17.25107,0,0,1,4.238,6.187,20.51651,20.51651,0,0,1,1.461,7.799,21.35742,21.35742,0,0,1-1.445,7.859,17.12534,17.12534,0,0,1-4.219,6.317,20.08636,20.08636,0,0,1-7.067,4.312,27.28247,27.28247,0,0,1-9.394,1.5,25.89514,25.89514,0,0,1-8.418-1.312,19.79506,19.79506,0,0,1-6.807-3.938,17.83214,17.83214,0,0,1-4.5-6.207,20.06311,20.06311,0,0,1-1.65-8.265,20.91808,20.91808,0,0,1,1.443-8.008,17.97515,17.97515,0,0,1,4.332-6.244,19.10132,19.10132,0,0,1,6.844-4.069,29.85026,29.85026,0,0,1,18.338,0,20.06263,20.06263,0,0,1,6.844,4.069m-9.6,25.986a21.9123,21.9123,0,0,0,1.219-5.098,54.85513,54.85513,0,0,0,.017-12.976,22.13853,22.13853,0,0,0-1.125-5.324,8.87783,8.87783,0,0,0-2.494-3.713,6.80916,6.80916,0,0,0-8.287.113,9.51642,9.51642,0,0,0-2.455,3.787,20.74688,20.74688,0,0,0-1.088,5.006,57.26869,57.26869,0,0,0-.301,5.982q0,4.0845.264,6.77a21.21771,21.21771,0,0,0,1.273,5.379,8.54656,8.54656,0,0,0,2.477,3.676,6.70858,6.70858,0,0,0,7.949.093,8.33686,8.33686,0,0,0,2.551-3.695" transform="translate(-211.20689 -263.86761)" style="fill:#006da9"/><path d="M455.96881,323.192a24.03029,24.03029,0,0,1-7.105-1.066,23.29666,23.29666,0,0,1-5.383-2.27l-1.125,2.551h-2.922l-.492-13.988h2.742a18.52063,18.52063,0,0,0,1.875,3.804,20.95236,20.95236,0,0,0,3,3.809,16.79378,16.79378,0,0,0,4.031,2.847,10.4397,10.4397,0,0,0,4.852,1.165,8.09885,8.09885,0,0,0,5.086-1.332,4.93926,4.93926,0,0,0,1.664-4.106,3.95325,3.95325,0,0,0-.75-2.477,6.45537,6.45537,0,0,0-2.063-1.687,18.93606,18.93606,0,0,0-3.203-1.273q-1.746-.528-4.297-1.274a41.878,41.878,0,0,1-4.367-1.519,14.88546,14.88546,0,0,1-3.766-2.418,10.58759,10.58759,0,0,1-3.715-8.44,10.12665,10.12665,0,0,1,4.442-8.549q4.4475-3.26247,11.648-3.263a26.81051,26.81051,0,0,1,6.282.693,31.87666,31.87666,0,0,1,4.816,1.52l.785-2.213h2.852l.601,12.787h-2.625a15.50287,15.50287,0,0,0-4.5-6.731,10.175,10.175,0,0,0-6.863-2.832,7.56381,7.56381,0,0,0-4.535,1.201,3.894,3.894,0,0,0-1.653,3.338,4.32369,4.32369,0,0,0,2.418,4.125,32.28541,32.28541,0,0,0,6.754,2.399q6.6975,1.728,9.809,4.707a10.07608,10.07608,0,0,1,3.109,7.594,10.95279,10.95279,0,0,1-4.82,9.523q-4.8165,3.375-12.582,3.375" transform="translate(-211.20689 -263.86761)" style="fill:#006da9"/><path d="M527.10553,334.21939a33.26518,33.26518,0,0,1-10.07-3.039,28.13641,28.13641,0,0,1-8.789-6.637,32.45048,32.45048,0,0,1-6.266-10.519,46.86218,46.86218,0,0,1,0-29.362,32.45069,32.45069,0,0,1,6.266-10.519,28.72968,28.72968,0,0,1,8.789-6.619,32.968,32.968,0,0,1,10.07-3.055v3.375q-7.09058,1.3125-10.875,9.131-3.78452,7.81953-3.789,22.369,0,14.54852,3.789,22.367,3.78442,7.82249,10.875,9.133Z" transform="translate(-211.20689 -263.86761)" style="fill:#006da9"/><path d="M549.41742,315.9928a6.65169,6.65169,0,0,1-2.117,4.949,7.243,7.243,0,0,1-10.125,0,6.86674,6.86674,0,0,1,0-9.918,7.19584,7.19584,0,0,1,10.125,0,6.714,6.714,0,0,1,2.117,4.969m24.114,0a6.65551,6.65551,0,0,1-2.121,4.949,7.24292,7.24292,0,0,1-10.125,0,6.8643,6.8643,0,0,1,0-9.918,7.19578,7.19578,0,0,1,10.125,0,6.71788,6.71788,0,0,1,2.121,4.969m24.113,0a6.6666,6.6666,0,0,1-2.117,4.949,7.243,7.243,0,0,1-10.125,0,6.85758,6.85758,0,0,1,0-9.918,7.19584,7.19584,0,0,1,10.125,0,6.72916,6.72916,0,0,1,2.117,4.969" transform="translate(-211.20689 -263.86761)" style="fill:#006da9"/><path d="M631.99609,299.34439a41.43067,41.43067,0,0,1-2.363,14.68,32.46244,32.46244,0,0,1-6.262,10.519,28.77107,28.77107,0,0,1-8.79705,6.617,32.785,32.785,0,0,1-10.066,3.059v-3.375q7.083-1.3185,10.875-9.133,3.78451-7.8165,3.785-22.367,0-14.55148-3.785-22.369-3.792-7.81951-10.875-9.131v-3.375a32.887,32.887,0,0,1,10.066,3.055,28.80956,28.80956,0,0,1,8.79705,6.619,32.46265,32.46265,0,0,1,6.262,10.519,41.44967,41.44967,0,0,1,2.363,14.682" transform="translate(-211.20689 -263.86761)" style="fill:#006da9"/></g></svg>