<?xml version="1.0" standalone="no"?>
<!DOCTYPE svg PUBLIC "-//W3C//DTD SVG 20010904//EN"
 "http://www.w3.org/TR/2001/REC-SVG-20010904/DTD/svg10.dtd">
<svg version="1.0" xmlns="http://www.w3.org/2000/svg"
 width="653.000000pt" height="814.000000pt" viewBox="0 0 653.000000 814.000000"
 preserveAspectRatio="xMidYMid meet">

<g transform="translate(0.000000,814.000000) scale(0.100000,-0.100000)"
fill="#000000" stroke="none">
<path d="M1950 7795 c-157 -157 -288 -285 -292 -285 -4 0 -56 64 -116 143 -60
78 -124 154 -143 168 -206 157 -488 91 -601 -139 -31 -62 -33 -74 -33 -167 0
-167 40 -228 254 -394 69 -53 129 -99 135 -103 7 -5 -161 -179 -414 -433
l-425 -425 344 -344 343 -343 -145 -111 c-184 -141 -229 -201 -247 -335 -35
-248 167 -463 417 -444 143 11 218 65 374 271 l94 125 363 -362 362 -362 356
356 356 356 -75 59 c-97 77 -141 131 -188 229 -103 215 -59 458 115 630 122
121 251 171 421 163 174 -9 311 -81 423 -225 36 -46 68 -83 71 -83 4 0 105 99
226 220 l220 220 -248 248 c-136 136 -247 250 -247 254 0 3 73 63 163 131 202
156 244 211 266 346 39 245 -170 471 -415 448 -149 -14 -210 -57 -365 -258
-67 -86 -125 -162 -130 -170 -7 -11 -118 95 -466 444 -251 251 -459 457 -462
457 -4 0 -134 -128 -291 -285z"/>
<path d="M3975 5770 c-208 -208 -292 -286 -301 -279 -6 5 -58 70 -114 145
-117 154 -175 202 -275 229 -315 86 -591 -218 -473 -520 31 -80 77 -129 232
-249 l144 -113 -419 -419 c-230 -230 -419 -423 -419 -429 0 -6 151 -161 335
-345 184 -184 335 -338 335 -341 0 -4 -64 -56 -143 -117 -145 -111 -178 -147
-219 -237 -19 -42 -23 -67 -23 -150 0 -93 2 -105 33 -167 77 -157 243 -244
415 -217 116 18 193 70 287 195 25 32 69 90 99 128 l54 68 371 -371 371 -371
385 385 c234 234 381 388 375 393 -6 5 -53 43 -105 84 -119 94 -160 139 -199
220 -116 244 -12 532 236 650 74 36 94 41 176 46 70 3 108 0 152 -13 133 -38
199 -89 317 -242 l81 -105 253 253 254 254 -261 261 -261 261 164 126 c174
133 203 163 246 255 23 49 27 70 27 152 0 86 -3 101 -32 162 -39 83 -108 154
-188 194 -55 27 -69 29 -170 29 -104 0 -113 -2 -170 -31 -76 -41 -112 -77
-242 -247 -58 -75 -110 -140 -115 -143 -6 -4 -216 199 -467 450 l-456 456
-290 -290z"/>
<path d="M2070 3685 c-129 -129 -238 -235 -241 -235 -4 0 -26 26 -50 57 -24
32 -82 107 -129 167 -130 168 -217 214 -388 204 -323 -19 -478 -417 -254 -651
20 -22 102 -89 182 -149 80 -61 147 -113 150 -115 2 -2 -203 -211 -455 -463
l-460 -460 292 -292 293 -293 -129 -98 c-201 -153 -251 -215 -272 -347 -27
-167 60 -332 216 -413 81 -41 210 -50 297 -19 94 33 140 73 253 220 59 75 110
144 115 152 7 12 104 -79 435 -410 l425 -425 343 343 343 343 107 -140 c58
-76 123 -153 144 -170 161 -133 394 -115 538 41 74 79 99 146 99 263 0 167
-50 241 -281 415 l-113 85 353 353 352 352 -348 348 -348 347 -27 -35 c-52
-68 -146 -160 -194 -191 -124 -80 -318 -105 -458 -60 -149 47 -280 159 -344
293 -119 252 -48 529 181 705 l74 57 -228 228 c-125 125 -230 228 -233 228 -3
0 -111 -106 -240 -235z"/>
</g>
</svg>
