<svg xmlns="http://www.w3.org/2000/svg" xmlns:xlink="http://www.w3.org/1999/xlink" width="578" height="153.208" viewBox="0 0 578 153.208">
  <defs>
    <clipPath id="clip-path">
      <rect id="Rectangle_5" data-name="Rectangle 5" width="428.82" height="6.129" transform="translate(2.879 201.48)" fill="none"/>
    </clipPath>
    <linearGradient id="linear-gradient" x1="0.097" y1="1.067" x2="0.1" y2="1.067" gradientUnits="objectBoundingBox">
      <stop offset="0" stop-color="#f9c60e"/>
      <stop offset="0.008" stop-color="#f9c60e"/>
      <stop offset="0.016" stop-color="#f9c50e"/>
      <stop offset="0.023" stop-color="#f9c40e"/>
      <stop offset="0.031" stop-color="#f9c30e"/>
      <stop offset="0.039" stop-color="#f9c30e"/>
      <stop offset="0.047" stop-color="#f9c20e"/>
      <stop offset="0.055" stop-color="#f9c10e"/>
      <stop offset="0.063" stop-color="#f9c00d"/>
      <stop offset="0.07" stop-color="#f9c00d"/>
      <stop offset="0.078" stop-color="#f9bf0d"/>
      <stop offset="0.086" stop-color="#f9be0d"/>
      <stop offset="0.094" stop-color="#f9bd0d"/>
      <stop offset="0.102" stop-color="#f9bd0d"/>
      <stop offset="0.109" stop-color="#f9bc0d"/>
      <stop offset="0.117" stop-color="#f9bb0d"/>
      <stop offset="0.125" stop-color="#f9ba0d"/>
      <stop offset="0.133" stop-color="#fab90d"/>
      <stop offset="0.141" stop-color="#fab90d"/>
      <stop offset="0.148" stop-color="#fab80d"/>
      <stop offset="0.156" stop-color="#fab70d"/>
      <stop offset="0.164" stop-color="#fab60d"/>
      <stop offset="0.172" stop-color="#fab60c"/>
      <stop offset="0.18" stop-color="#fab50c"/>
      <stop offset="0.188" stop-color="#fab40c"/>
      <stop offset="0.195" stop-color="#fab30c"/>
      <stop offset="0.203" stop-color="#fab30c"/>
      <stop offset="0.211" stop-color="#fab20c"/>
      <stop offset="0.219" stop-color="#fab10c"/>
      <stop offset="0.227" stop-color="#fab00c"/>
      <stop offset="0.234" stop-color="#fab00c"/>
      <stop offset="0.242" stop-color="#faaf0c"/>
      <stop offset="0.25" stop-color="#faae0c"/>
      <stop offset="0.258" stop-color="#faad0c"/>
      <stop offset="0.266" stop-color="#faad0c"/>
      <stop offset="0.273" stop-color="#faac0c"/>
      <stop offset="0.281" stop-color="#faab0c"/>
      <stop offset="0.289" stop-color="#faaa0b"/>
      <stop offset="0.297" stop-color="#faaa0b"/>
      <stop offset="0.305" stop-color="#faa90b"/>
      <stop offset="0.313" stop-color="#faa80b"/>
      <stop offset="0.32" stop-color="#faa70b"/>
      <stop offset="0.328" stop-color="#faa70b"/>
      <stop offset="0.336" stop-color="#faa60b"/>
      <stop offset="0.344" stop-color="#faa50b"/>
      <stop offset="0.352" stop-color="#faa40b"/>
      <stop offset="0.359" stop-color="#faa40b"/>
      <stop offset="0.367" stop-color="#faa30b"/>
      <stop offset="0.375" stop-color="#faa20b"/>
      <stop offset="0.383" stop-color="#fba10b"/>
      <stop offset="0.391" stop-color="#fba00b"/>
      <stop offset="0.398" stop-color="#fba00a"/>
      <stop offset="0.406" stop-color="#fb9f0a"/>
      <stop offset="0.414" stop-color="#fb9e0a"/>
      <stop offset="0.422" stop-color="#fb9d0a"/>
      <stop offset="0.43" stop-color="#fb9d0a"/>
      <stop offset="0.438" stop-color="#fb9c0a"/>
      <stop offset="0.445" stop-color="#fb9b0a"/>
      <stop offset="0.453" stop-color="#fb9a0a"/>
      <stop offset="0.461" stop-color="#fb9a0a"/>
      <stop offset="0.469" stop-color="#fb990a"/>
      <stop offset="0.477" stop-color="#fb980a"/>
      <stop offset="0.484" stop-color="#fb970a"/>
      <stop offset="0.492" stop-color="#fb970a"/>
      <stop offset="0.5" stop-color="#fb960a"/>
      <stop offset="0.508" stop-color="#fb9509"/>
      <stop offset="0.516" stop-color="#fb9409"/>
      <stop offset="0.523" stop-color="#fb9409"/>
      <stop offset="0.531" stop-color="#fb9309"/>
      <stop offset="0.539" stop-color="#fb9209"/>
      <stop offset="0.547" stop-color="#fb9109"/>
      <stop offset="0.555" stop-color="#fb9109"/>
      <stop offset="0.563" stop-color="#fb9009"/>
      <stop offset="0.57" stop-color="#fb8f09"/>
      <stop offset="0.578" stop-color="#fb8e09"/>
      <stop offset="0.586" stop-color="#fb8e09"/>
      <stop offset="0.594" stop-color="#fb8d09"/>
      <stop offset="0.602" stop-color="#fb8c09"/>
      <stop offset="0.609" stop-color="#fb8b09"/>
      <stop offset="0.617" stop-color="#fb8b08"/>
      <stop offset="0.625" stop-color="#fb8a08"/>
      <stop offset="0.633" stop-color="#fc8908"/>
      <stop offset="0.641" stop-color="#fc8808"/>
      <stop offset="0.648" stop-color="#fc8708"/>
      <stop offset="0.656" stop-color="#fc8708"/>
      <stop offset="0.664" stop-color="#fc8608"/>
      <stop offset="0.672" stop-color="#fc8508"/>
      <stop offset="0.68" stop-color="#fc8408"/>
      <stop offset="0.688" stop-color="#fc8408"/>
      <stop offset="0.695" stop-color="#fc8308"/>
      <stop offset="0.703" stop-color="#fc8208"/>
      <stop offset="0.711" stop-color="#fc8108"/>
      <stop offset="0.719" stop-color="#fc8108"/>
      <stop offset="0.727" stop-color="#fc8007"/>
      <stop offset="0.734" stop-color="#fc7f07"/>
      <stop offset="0.742" stop-color="#fc7e07"/>
      <stop offset="0.75" stop-color="#fc7e07"/>
      <stop offset="0.758" stop-color="#fc7d07"/>
      <stop offset="0.766" stop-color="#fc7c07"/>
      <stop offset="0.773" stop-color="#fc7b07"/>
      <stop offset="0.781" stop-color="#fc7b07"/>
      <stop offset="0.789" stop-color="#fc7a07"/>
      <stop offset="0.797" stop-color="#fc7907"/>
      <stop offset="0.805" stop-color="#fc7807"/>
      <stop offset="0.813" stop-color="#fc7807"/>
      <stop offset="0.82" stop-color="#fc7707"/>
      <stop offset="0.828" stop-color="#fc7607"/>
      <stop offset="0.836" stop-color="#fc7507"/>
      <stop offset="0.844" stop-color="#fc7506"/>
      <stop offset="0.852" stop-color="#fc7406"/>
      <stop offset="0.859" stop-color="#fc7306"/>
      <stop offset="0.867" stop-color="#fc7206"/>
      <stop offset="0.875" stop-color="#fc7206"/>
      <stop offset="0.883" stop-color="#fd7106"/>
      <stop offset="0.891" stop-color="#fd7006"/>
      <stop offset="0.898" stop-color="#fd6f06"/>
      <stop offset="0.906" stop-color="#fd6e06"/>
      <stop offset="0.914" stop-color="#fd6e06"/>
      <stop offset="0.922" stop-color="#fd6d06"/>
      <stop offset="0.93" stop-color="#fd6c06"/>
      <stop offset="0.938" stop-color="#fd6b06"/>
      <stop offset="0.945" stop-color="#fd6b06"/>
      <stop offset="0.953" stop-color="#fd6a05"/>
      <stop offset="0.961" stop-color="#fd6905"/>
      <stop offset="0.969" stop-color="#fd6805"/>
      <stop offset="0.977" stop-color="#fd6805"/>
      <stop offset="0.984" stop-color="#fd6705"/>
      <stop offset="0.992" stop-color="#fd6605"/>
      <stop offset="1" stop-color="#fd6505"/>
    </linearGradient>
    <clipPath id="clip-path-2">
      <rect id="Rectangle_6" data-name="Rectangle 6" width="73" height="42" transform="translate(476.879 143.859)" fill="none"/>
    </clipPath>
    <clipPath id="clip-path-3">
      <path id="Path_46" data-name="Path 46" d="M543.773,35.039q-27.9,0-55.789,0c-3.766,0-7.539.02-11.309,0-.969-.008-1.418.223-1.566,1.355a35.066,35.066,0,0,0,2.246,17.559A35.527,35.527,0,0,0,516.3,76.3c14.109-2.359,23.719-10.672,28.531-24.25a34.559,34.559,0,0,0,1.316-17.016Z" transform="translate(2.879 108.859)" fill="none"/>
    </clipPath>
    <clipPath id="clip-path-4">
      <path id="Path_45" data-name="Path 45" d="M543.773,35.039q-27.9,0-55.789,0c-3.766,0-7.539.02-11.309,0-.969-.008-1.418.223-1.566,1.355a35.066,35.066,0,0,0,2.246,17.559A35.527,35.527,0,0,0,516.3,76.3c14.109-2.359,23.719-10.672,28.531-24.25a34.559,34.559,0,0,0,1.316-17.016" transform="translate(2.879 108.859)" fill="none"/>
    </clipPath>
    <linearGradient id="linear-gradient-2" x1="-3.615" y1="2.89" x2="-3.604" y2="2.89" gradientUnits="objectBoundingBox">
      <stop offset="0" stop-color="#f9c60e"/>
      <stop offset="0.016" stop-color="#f9c60e"/>
      <stop offset="0.023" stop-color="#f9c50e"/>
      <stop offset="0.031" stop-color="#f9c40e"/>
      <stop offset="0.039" stop-color="#f9c30e"/>
      <stop offset="0.047" stop-color="#f9c20e"/>
      <stop offset="0.055" stop-color="#f9c10e"/>
      <stop offset="0.063" stop-color="#f9c00d"/>
      <stop offset="0.07" stop-color="#f9bf0d"/>
      <stop offset="0.078" stop-color="#f9be0d"/>
      <stop offset="0.086" stop-color="#f9bd0d"/>
      <stop offset="0.094" stop-color="#f9bc0d"/>
      <stop offset="0.102" stop-color="#f9bb0d"/>
      <stop offset="0.109" stop-color="#f9ba0d"/>
      <stop offset="0.117" stop-color="#fab90d"/>
      <stop offset="0.125" stop-color="#fab80d"/>
      <stop offset="0.133" stop-color="#fab70d"/>
      <stop offset="0.141" stop-color="#fab70d"/>
      <stop offset="0.148" stop-color="#fab60c"/>
      <stop offset="0.156" stop-color="#fab50c"/>
      <stop offset="0.164" stop-color="#fab40c"/>
      <stop offset="0.172" stop-color="#fab30c"/>
      <stop offset="0.18" stop-color="#fab20c"/>
      <stop offset="0.188" stop-color="#fab10c"/>
      <stop offset="0.195" stop-color="#fab00c"/>
      <stop offset="0.203" stop-color="#faaf0c"/>
      <stop offset="0.211" stop-color="#faae0c"/>
      <stop offset="0.219" stop-color="#faad0c"/>
      <stop offset="0.227" stop-color="#faac0c"/>
      <stop offset="0.234" stop-color="#faab0b"/>
      <stop offset="0.242" stop-color="#faaa0b"/>
      <stop offset="0.25" stop-color="#faa90b"/>
      <stop offset="0.258" stop-color="#faa80b"/>
      <stop offset="0.266" stop-color="#faa70b"/>
      <stop offset="0.273" stop-color="#faa60b"/>
      <stop offset="0.281" stop-color="#faa50b"/>
      <stop offset="0.289" stop-color="#faa40b"/>
      <stop offset="0.297" stop-color="#faa30b"/>
      <stop offset="0.305" stop-color="#faa20b"/>
      <stop offset="0.313" stop-color="#fba10b"/>
      <stop offset="0.32" stop-color="#fba00a"/>
      <stop offset="0.328" stop-color="#fb9f0a"/>
      <stop offset="0.336" stop-color="#fb9e0a"/>
      <stop offset="0.344" stop-color="#fb9d0a"/>
      <stop offset="0.352" stop-color="#fb9c0a"/>
      <stop offset="0.359" stop-color="#fb9b0a"/>
      <stop offset="0.367" stop-color="#fb9a0a"/>
      <stop offset="0.375" stop-color="#fb990a"/>
      <stop offset="0.383" stop-color="#fb980a"/>
      <stop offset="0.391" stop-color="#fb970a"/>
      <stop offset="0.398" stop-color="#fb970a"/>
      <stop offset="0.406" stop-color="#fb960a"/>
      <stop offset="0.414" stop-color="#fb9509"/>
      <stop offset="0.422" stop-color="#fb9409"/>
      <stop offset="0.43" stop-color="#fb9309"/>
      <stop offset="0.438" stop-color="#fb9209"/>
      <stop offset="0.445" stop-color="#fb9109"/>
      <stop offset="0.453" stop-color="#fb9009"/>
      <stop offset="0.461" stop-color="#fb8f09"/>
      <stop offset="0.469" stop-color="#fb8e09"/>
      <stop offset="0.477" stop-color="#fb8d09"/>
      <stop offset="0.484" stop-color="#fb8c09"/>
      <stop offset="0.492" stop-color="#fb8b09"/>
      <stop offset="0.5" stop-color="#fb8a08"/>
      <stop offset="0.508" stop-color="#fc8908"/>
      <stop offset="0.516" stop-color="#fc8808"/>
      <stop offset="0.523" stop-color="#fc8708"/>
      <stop offset="0.531" stop-color="#fc8608"/>
      <stop offset="0.539" stop-color="#fc8508"/>
      <stop offset="0.547" stop-color="#fc8408"/>
      <stop offset="0.555" stop-color="#fc8308"/>
      <stop offset="0.563" stop-color="#fc8208"/>
      <stop offset="0.57" stop-color="#fc8108"/>
      <stop offset="0.578" stop-color="#fc8008"/>
      <stop offset="0.586" stop-color="#fc7f07"/>
      <stop offset="0.594" stop-color="#fc7e07"/>
      <stop offset="0.602" stop-color="#fc7d07"/>
      <stop offset="0.609" stop-color="#fc7c07"/>
      <stop offset="0.617" stop-color="#fc7b07"/>
      <stop offset="0.625" stop-color="#fc7a07"/>
      <stop offset="0.633" stop-color="#fc7907"/>
      <stop offset="0.641" stop-color="#fc7807"/>
      <stop offset="0.648" stop-color="#fc7707"/>
      <stop offset="0.656" stop-color="#fc7707"/>
      <stop offset="0.664" stop-color="#fc7607"/>
      <stop offset="0.672" stop-color="#fc7506"/>
      <stop offset="0.68" stop-color="#fc7406"/>
      <stop offset="0.688" stop-color="#fc7306"/>
      <stop offset="0.695" stop-color="#fc7206"/>
      <stop offset="0.703" stop-color="#fd7106"/>
      <stop offset="0.711" stop-color="#fd7006"/>
      <stop offset="0.719" stop-color="#fd6f06"/>
      <stop offset="0.727" stop-color="#fd6e06"/>
      <stop offset="0.734" stop-color="#fd6d06"/>
      <stop offset="0.742" stop-color="#fd6c06"/>
      <stop offset="0.75" stop-color="#fd6b06"/>
      <stop offset="0.758" stop-color="#fd6a05"/>
      <stop offset="0.766" stop-color="#fd6905"/>
      <stop offset="0.773" stop-color="#fd6805"/>
      <stop offset="0.781" stop-color="#fd6705"/>
      <stop offset="0.789" stop-color="#fd6605"/>
      <stop offset="0.797" stop-color="#fd6505"/>
      <stop offset="0.813" stop-color="#fd6505"/>
      <stop offset="0.875" stop-color="#fd6505"/>
      <stop offset="1" stop-color="#fd6505"/>
    </linearGradient>
    <clipPath id="clip-path-5">
      <path id="Path_49" data-name="Path 49" d="M502.6,88.711h16.3v64.4H502.6Zm.4,64.4h15.9v.1H503Z" transform="translate(2.879 108.859)" fill="none"/>
    </clipPath>
    <clipPath id="clip-path-6">
      <path id="Path_48" data-name="Path 48" d="M502.633,88.723V153.07c.7.059,1.191.133,1.691.133,4.785.008,9.566.008,14.523.008V88.723Z" transform="translate(2.879 108.859)" fill="none"/>
    </clipPath>
    <linearGradient id="linear-gradient-3" x1="-5.617" y1="3.07" x2="-5.604" y2="3.07" xlink:href="#linear-gradient"/>
    <clipPath id="clip-path-7">
      <rect id="Rectangle_7" data-name="Rectangle 7" width="17" height="65.211" transform="translate(532.879 196.859)" fill="none"/>
    </clipPath>
    <clipPath id="clip-path-8">
      <path id="Path_52" data-name="Path 52" d="M530.078,88.7v64.32c9.582,1.227,16.324-4.664,16.328-14.082q.006-24.07-.008-48.141c0-.676-.059-1.352-.094-2.1Z" transform="translate(2.879 108.859)" fill="none"/>
    </clipPath>
    <clipPath id="clip-path-9">
      <path id="Path_51" data-name="Path 51" d="M530.078,88.7v64.32c9.582,1.227,16.324-4.664,16.328-14.082q.006-24.07-.008-48.141c0-.676-.059-1.352-.094-2.1" transform="translate(2.879 108.859)" fill="none"/>
    </clipPath>
    <linearGradient id="linear-gradient-4" x1="-5.961" y1="3.064" x2="-5.947" y2="3.064" gradientUnits="objectBoundingBox">
      <stop offset="0" stop-color="#f9c60e"/>
      <stop offset="0.008" stop-color="#f9c60e"/>
      <stop offset="0.016" stop-color="#f9c50e"/>
      <stop offset="0.023" stop-color="#f9c40e"/>
      <stop offset="0.031" stop-color="#f9c30e"/>
      <stop offset="0.039" stop-color="#f9c20e"/>
      <stop offset="0.047" stop-color="#f9c10e"/>
      <stop offset="0.055" stop-color="#f9c10d"/>
      <stop offset="0.063" stop-color="#f9c00d"/>
      <stop offset="0.07" stop-color="#f9bf0d"/>
      <stop offset="0.078" stop-color="#f9be0d"/>
      <stop offset="0.086" stop-color="#f9bd0d"/>
      <stop offset="0.094" stop-color="#f9bc0d"/>
      <stop offset="0.102" stop-color="#f9bc0d"/>
      <stop offset="0.109" stop-color="#f9bb0d"/>
      <stop offset="0.117" stop-color="#f9ba0d"/>
      <stop offset="0.125" stop-color="#fab90d"/>
      <stop offset="0.133" stop-color="#fab80d"/>
      <stop offset="0.141" stop-color="#fab80d"/>
      <stop offset="0.148" stop-color="#fab70d"/>
      <stop offset="0.156" stop-color="#fab60d"/>
      <stop offset="0.164" stop-color="#fab50c"/>
      <stop offset="0.172" stop-color="#fab40c"/>
      <stop offset="0.18" stop-color="#fab30c"/>
      <stop offset="0.188" stop-color="#fab30c"/>
      <stop offset="0.195" stop-color="#fab20c"/>
      <stop offset="0.203" stop-color="#fab10c"/>
      <stop offset="0.211" stop-color="#fab00c"/>
      <stop offset="0.219" stop-color="#faaf0c"/>
      <stop offset="0.227" stop-color="#faae0c"/>
      <stop offset="0.234" stop-color="#faae0c"/>
      <stop offset="0.242" stop-color="#faad0c"/>
      <stop offset="0.25" stop-color="#faac0c"/>
      <stop offset="0.258" stop-color="#faab0c"/>
      <stop offset="0.266" stop-color="#faaa0b"/>
      <stop offset="0.273" stop-color="#faa90b"/>
      <stop offset="0.281" stop-color="#faa90b"/>
      <stop offset="0.289" stop-color="#faa80b"/>
      <stop offset="0.297" stop-color="#faa70b"/>
      <stop offset="0.305" stop-color="#faa60b"/>
      <stop offset="0.313" stop-color="#faa50b"/>
      <stop offset="0.32" stop-color="#faa40b"/>
      <stop offset="0.328" stop-color="#faa40b"/>
      <stop offset="0.336" stop-color="#faa30b"/>
      <stop offset="0.344" stop-color="#faa20b"/>
      <stop offset="0.352" stop-color="#fba10b"/>
      <stop offset="0.359" stop-color="#fba00b"/>
      <stop offset="0.367" stop-color="#fba00a"/>
      <stop offset="0.375" stop-color="#fb9f0a"/>
      <stop offset="0.383" stop-color="#fb9e0a"/>
      <stop offset="0.391" stop-color="#fb9d0a"/>
      <stop offset="0.398" stop-color="#fb9c0a"/>
      <stop offset="0.406" stop-color="#fb9b0a"/>
      <stop offset="0.414" stop-color="#fb9b0a"/>
      <stop offset="0.422" stop-color="#fb9a0a"/>
      <stop offset="0.43" stop-color="#fb990a"/>
      <stop offset="0.438" stop-color="#fb980a"/>
      <stop offset="0.445" stop-color="#fb970a"/>
      <stop offset="0.453" stop-color="#fb960a"/>
      <stop offset="0.461" stop-color="#fb960a"/>
      <stop offset="0.469" stop-color="#fb9509"/>
      <stop offset="0.477" stop-color="#fb9409"/>
      <stop offset="0.484" stop-color="#fb9309"/>
      <stop offset="0.492" stop-color="#fb9209"/>
      <stop offset="0.5" stop-color="#fb9109"/>
      <stop offset="0.508" stop-color="#fb9109"/>
      <stop offset="0.516" stop-color="#fb9009"/>
      <stop offset="0.523" stop-color="#fb8f09"/>
      <stop offset="0.531" stop-color="#fb8e09"/>
      <stop offset="0.539" stop-color="#fb8d09"/>
      <stop offset="0.547" stop-color="#fb8d09"/>
      <stop offset="0.555" stop-color="#fb8c09"/>
      <stop offset="0.563" stop-color="#fb8b09"/>
      <stop offset="0.57" stop-color="#fb8a08"/>
      <stop offset="0.578" stop-color="#fc8908"/>
      <stop offset="0.586" stop-color="#fc8808"/>
      <stop offset="0.594" stop-color="#fc8808"/>
      <stop offset="0.602" stop-color="#fc8708"/>
      <stop offset="0.609" stop-color="#fc8608"/>
      <stop offset="0.617" stop-color="#fc8508"/>
      <stop offset="0.625" stop-color="#fc8408"/>
      <stop offset="0.633" stop-color="#fc8308"/>
      <stop offset="0.641" stop-color="#fc8308"/>
      <stop offset="0.648" stop-color="#fc8208"/>
      <stop offset="0.656" stop-color="#fc8108"/>
      <stop offset="0.664" stop-color="#fc8008"/>
      <stop offset="0.672" stop-color="#fc7f07"/>
      <stop offset="0.68" stop-color="#fc7e07"/>
      <stop offset="0.688" stop-color="#fc7e07"/>
      <stop offset="0.695" stop-color="#fc7d07"/>
      <stop offset="0.703" stop-color="#fc7c07"/>
      <stop offset="0.711" stop-color="#fc7b07"/>
      <stop offset="0.719" stop-color="#fc7a07"/>
      <stop offset="0.727" stop-color="#fc7907"/>
      <stop offset="0.734" stop-color="#fc7907"/>
      <stop offset="0.742" stop-color="#fc7807"/>
      <stop offset="0.75" stop-color="#fc7707"/>
      <stop offset="0.758" stop-color="#fc7607"/>
      <stop offset="0.766" stop-color="#fc7507"/>
      <stop offset="0.773" stop-color="#fc7506"/>
      <stop offset="0.781" stop-color="#fc7406"/>
      <stop offset="0.789" stop-color="#fc7306"/>
      <stop offset="0.797" stop-color="#fc7206"/>
      <stop offset="0.805" stop-color="#fc7106"/>
      <stop offset="0.813" stop-color="#fd7006"/>
      <stop offset="0.82" stop-color="#fd7006"/>
      <stop offset="0.828" stop-color="#fd6f06"/>
      <stop offset="0.836" stop-color="#fd6e06"/>
      <stop offset="0.844" stop-color="#fd6d06"/>
      <stop offset="0.852" stop-color="#fd6c06"/>
      <stop offset="0.859" stop-color="#fd6b06"/>
      <stop offset="0.867" stop-color="#fd6b06"/>
      <stop offset="0.875" stop-color="#fd6a05"/>
      <stop offset="0.883" stop-color="#fd6905"/>
      <stop offset="0.891" stop-color="#fd6805"/>
      <stop offset="0.898" stop-color="#fd6705"/>
      <stop offset="0.906" stop-color="#fd6605"/>
      <stop offset="0.914" stop-color="#fd6605"/>
      <stop offset="0.922" stop-color="#fd6505"/>
      <stop offset="0.938" stop-color="#fd6505"/>
      <stop offset="1" stop-color="#fd6505"/>
    </linearGradient>
    <clipPath id="clip-path-10">
      <rect id="Rectangle_8" data-name="Rectangle 8" width="17" height="65.211" transform="translate(477.879 196.859)" fill="none"/>
    </clipPath>
    <clipPath id="clip-path-11">
      <path id="Path_55" data-name="Path 55" d="M475.211,88.723c-.043.473-.082.723-.082.973,0,16.547-.07,33.094.051,49.641.063,9.141,6.77,14.781,16.082,13.7V88.723Z" transform="translate(2.879 108.859)" fill="none"/>
    </clipPath>
    <clipPath id="clip-path-12">
      <path id="Path_54" data-name="Path 54" d="M475.211,88.723c-.043.473-.082.723-.082.973,0,16.547-.07,33.094.051,49.641.063,9.141,6.77,14.781,16.082,13.7V88.723" transform="translate(2.879 108.859)" fill="none"/>
    </clipPath>
    <linearGradient id="linear-gradient-5" x1="-5.258" y1="3.07" x2="-5.245" y2="3.07" gradientUnits="objectBoundingBox">
      <stop offset="0" stop-color="#f9c60e"/>
      <stop offset="0.008" stop-color="#f9c60e"/>
      <stop offset="0.016" stop-color="#f9c50e"/>
      <stop offset="0.023" stop-color="#f9c40e"/>
      <stop offset="0.031" stop-color="#f9c30e"/>
      <stop offset="0.039" stop-color="#f9c30e"/>
      <stop offset="0.047" stop-color="#f9c20e"/>
      <stop offset="0.055" stop-color="#f9c10e"/>
      <stop offset="0.063" stop-color="#f9c00d"/>
      <stop offset="0.07" stop-color="#f9c00d"/>
      <stop offset="0.078" stop-color="#f9bf0d"/>
      <stop offset="0.086" stop-color="#f9be0d"/>
      <stop offset="0.094" stop-color="#f9bd0d"/>
      <stop offset="0.102" stop-color="#f9bd0d"/>
      <stop offset="0.109" stop-color="#f9bc0d"/>
      <stop offset="0.117" stop-color="#f9bb0d"/>
      <stop offset="0.125" stop-color="#f9ba0d"/>
      <stop offset="0.133" stop-color="#faba0d"/>
      <stop offset="0.141" stop-color="#fab90d"/>
      <stop offset="0.148" stop-color="#fab80d"/>
      <stop offset="0.156" stop-color="#fab70d"/>
      <stop offset="0.164" stop-color="#fab70d"/>
      <stop offset="0.172" stop-color="#fab60c"/>
      <stop offset="0.18" stop-color="#fab50c"/>
      <stop offset="0.188" stop-color="#fab40c"/>
      <stop offset="0.195" stop-color="#fab30c"/>
      <stop offset="0.203" stop-color="#fab30c"/>
      <stop offset="0.211" stop-color="#fab20c"/>
      <stop offset="0.219" stop-color="#fab10c"/>
      <stop offset="0.227" stop-color="#fab00c"/>
      <stop offset="0.234" stop-color="#fab00c"/>
      <stop offset="0.242" stop-color="#faaf0c"/>
      <stop offset="0.25" stop-color="#faae0c"/>
      <stop offset="0.258" stop-color="#faad0c"/>
      <stop offset="0.266" stop-color="#faad0c"/>
      <stop offset="0.273" stop-color="#faac0c"/>
      <stop offset="0.281" stop-color="#faab0c"/>
      <stop offset="0.289" stop-color="#faaa0b"/>
      <stop offset="0.297" stop-color="#faaa0b"/>
      <stop offset="0.305" stop-color="#faa90b"/>
      <stop offset="0.313" stop-color="#faa80b"/>
      <stop offset="0.32" stop-color="#faa70b"/>
      <stop offset="0.328" stop-color="#faa70b"/>
      <stop offset="0.336" stop-color="#faa60b"/>
      <stop offset="0.344" stop-color="#faa50b"/>
      <stop offset="0.352" stop-color="#faa40b"/>
      <stop offset="0.359" stop-color="#faa40b"/>
      <stop offset="0.367" stop-color="#faa30b"/>
      <stop offset="0.375" stop-color="#faa20b"/>
      <stop offset="0.383" stop-color="#fba10b"/>
      <stop offset="0.391" stop-color="#fba00b"/>
      <stop offset="0.398" stop-color="#fba00a"/>
      <stop offset="0.406" stop-color="#fb9f0a"/>
      <stop offset="0.414" stop-color="#fb9e0a"/>
      <stop offset="0.422" stop-color="#fb9d0a"/>
      <stop offset="0.43" stop-color="#fb9d0a"/>
      <stop offset="0.438" stop-color="#fb9c0a"/>
      <stop offset="0.445" stop-color="#fb9b0a"/>
      <stop offset="0.453" stop-color="#fb9a0a"/>
      <stop offset="0.461" stop-color="#fb9a0a"/>
      <stop offset="0.469" stop-color="#fb990a"/>
      <stop offset="0.477" stop-color="#fb980a"/>
      <stop offset="0.484" stop-color="#fb970a"/>
      <stop offset="0.492" stop-color="#fb970a"/>
      <stop offset="0.5" stop-color="#fb960a"/>
      <stop offset="0.508" stop-color="#fb9509"/>
      <stop offset="0.516" stop-color="#fb9409"/>
      <stop offset="0.523" stop-color="#fb9409"/>
      <stop offset="0.531" stop-color="#fb9309"/>
      <stop offset="0.539" stop-color="#fb9209"/>
      <stop offset="0.547" stop-color="#fb9109"/>
      <stop offset="0.555" stop-color="#fb9109"/>
      <stop offset="0.563" stop-color="#fb9009"/>
      <stop offset="0.57" stop-color="#fb8f09"/>
      <stop offset="0.578" stop-color="#fb8e09"/>
      <stop offset="0.586" stop-color="#fb8d09"/>
      <stop offset="0.594" stop-color="#fb8d09"/>
      <stop offset="0.602" stop-color="#fb8c09"/>
      <stop offset="0.609" stop-color="#fb8b09"/>
      <stop offset="0.617" stop-color="#fb8a08"/>
      <stop offset="0.625" stop-color="#fb8a08"/>
      <stop offset="0.633" stop-color="#fc8908"/>
      <stop offset="0.641" stop-color="#fc8808"/>
      <stop offset="0.648" stop-color="#fc8708"/>
      <stop offset="0.656" stop-color="#fc8708"/>
      <stop offset="0.664" stop-color="#fc8608"/>
      <stop offset="0.672" stop-color="#fc8508"/>
      <stop offset="0.68" stop-color="#fc8408"/>
      <stop offset="0.688" stop-color="#fc8408"/>
      <stop offset="0.695" stop-color="#fc8308"/>
      <stop offset="0.703" stop-color="#fc8208"/>
      <stop offset="0.711" stop-color="#fc8108"/>
      <stop offset="0.719" stop-color="#fc8108"/>
      <stop offset="0.727" stop-color="#fc8007"/>
      <stop offset="0.734" stop-color="#fc7f07"/>
      <stop offset="0.742" stop-color="#fc7e07"/>
      <stop offset="0.75" stop-color="#fc7d07"/>
      <stop offset="0.758" stop-color="#fc7d07"/>
      <stop offset="0.766" stop-color="#fc7c07"/>
      <stop offset="0.773" stop-color="#fc7b07"/>
      <stop offset="0.781" stop-color="#fc7a07"/>
      <stop offset="0.789" stop-color="#fc7a07"/>
      <stop offset="0.797" stop-color="#fc7907"/>
      <stop offset="0.805" stop-color="#fc7807"/>
      <stop offset="0.813" stop-color="#fc7707"/>
      <stop offset="0.82" stop-color="#fc7707"/>
      <stop offset="0.828" stop-color="#fc7607"/>
      <stop offset="0.836" stop-color="#fc7506"/>
      <stop offset="0.844" stop-color="#fc7406"/>
      <stop offset="0.852" stop-color="#fc7406"/>
      <stop offset="0.859" stop-color="#fc7306"/>
      <stop offset="0.867" stop-color="#fc7206"/>
      <stop offset="0.875" stop-color="#fc7106"/>
      <stop offset="0.883" stop-color="#fd7106"/>
      <stop offset="0.891" stop-color="#fd7006"/>
      <stop offset="0.898" stop-color="#fd6f06"/>
      <stop offset="0.906" stop-color="#fd6e06"/>
      <stop offset="0.914" stop-color="#fd6e06"/>
      <stop offset="0.922" stop-color="#fd6d06"/>
      <stop offset="0.93" stop-color="#fd6c06"/>
      <stop offset="0.938" stop-color="#fd6b06"/>
      <stop offset="0.945" stop-color="#fd6a06"/>
      <stop offset="0.953" stop-color="#fd6a05"/>
      <stop offset="0.961" stop-color="#fd6905"/>
      <stop offset="0.969" stop-color="#fd6805"/>
      <stop offset="0.977" stop-color="#fd6705"/>
      <stop offset="0.984" stop-color="#fd6705"/>
      <stop offset="0.992" stop-color="#fd6605"/>
      <stop offset="1" stop-color="#fd6505"/>
    </linearGradient>
  </defs>
  <g id="surface1" transform="translate(-2.879 -108.862)">
    <path id="Path_3" data-name="Path 3" d="M120.238,64.273c-.25-1.324-1.652-2.684-2.82-2.551a1.856,1.856,0,0,0-1.25,1.184c-.227,1.059,1.355,2.945,2.27,2.719.672-.172,1.2-.883,1.8-1.352M78.172,65.734a39.076,39.076,0,0,0,15.2-4.781,11.045,11.045,0,0,0,2.949-2.5,2.379,2.379,0,0,0,.176-2.133c-2.242-4.348-8.746-6.277-12.969-3.848A23.8,23.8,0,0,0,74.6,61.844c-.926,1.664-.492,2.75,1.309,3.4a16.524,16.524,0,0,0,2.262.492m-8.879-5.34c2.8-3.41,5.23-6.863,8.168-9.809,3.563-3.57,7.879-5.934,13.211-5.609a13.765,13.765,0,0,1,8.621,3.578,7.933,7.933,0,0,1,2.391,8.652c-.215.762-.422,1.531-.578,2.309-.332,1.664.012,2.023,1.734,1.875a5.134,5.134,0,0,0,4.473-5.2,103.99,103.99,0,0,0-.152-10.527A186.9,186.9,0,0,0,102.477,15.8a2.222,2.222,0,0,1,.09-1.43c.879-1.648,1.855-3.25,2.8-4.863.438-.746,1.078-1.027,1.574-.2,2.563,4.262,5.059,8.563,7.77,13.176a14.337,14.337,0,0,1-1.766.25c-2.27,0-3.2,1.012-2.945,3.238.355,3.152.824,6.3,1.023,9.461.379,6,.625,12,.871,18,.094,2.383.609,2.844,2.859,1.859,2.281-1,4.586-1.266,6.688.023a10.311,10.311,0,0,1,3.652,3.59c2.48,4.637.777,10.375-3.457,12.582a6.836,6.836,0,0,1-8.961-1.906,11.786,11.786,0,0,1-1.031-1.555c-1.98-3.5-2.789-3.711-6.621-2.238a84.044,84.044,0,0,1-9.949,3.426A137.463,137.463,0,0,1,80.91,71.949,17.11,17.11,0,0,1,68.961,69.07c-.73.609-1.449,1.215-2.434,2.039a10.216,10.216,0,0,1-.641-3.187,1.76,1.76,0,0,0-.977-2.031c-3.336-2.148-5.652-2.258-8.684.293C51.59,70.09,47.16,74.246,42.621,78.27c-1.609,1.43-3.219,2.871-4.949,4.145a11.6,11.6,0,0,1-8.582,1.949c-4.082-.512-7.027-5.23-6.07-9.895a49.686,49.686,0,0,1,1.723-5.5c.23-.687.535-1.352.828-2.082a72.239,72.239,0,0,1-7.879-1.27,29.017,29.017,0,0,1-7.047-2.84c-5.371-3.16-8.274-7.8-7.52-14.27A26.748,26.748,0,0,1,8.676,34.656a8.55,8.55,0,0,1,2.434-1.48,9.547,9.547,0,0,1-.047,2.57c-.574,1.895-1.391,3.711-2.023,5.586a34.13,34.13,0,0,0-1.57,5.359c-1.1,6.746,3.6,10.879,8.922,12.973,4,1.574,8.113,1.32,12.219.344a33.18,33.18,0,0,0,15.938-8.281,13.216,13.216,0,0,0,1.809-3.1,30.016,30.016,0,0,0-3.391-.957c-1.777-.3-3.641-.215-5.367-.672-4.312-1.137-5.9-3.809-5.117-8.18A20.58,20.58,0,0,1,49.5,22.039c2.453-.4,3.9.7,3.859,3.184a17.969,17.969,0,0,1-.742,4.844,2.967,2.967,0,0,1-1.9,1.484,1.494,1.494,0,0,1-2-1.289c-.187-1.07-.992-1.207-1.816-.918A16.246,16.246,0,0,0,37.4,37.578c-.742,1.469-.105,2.484,1.691,2.68,2.125.23,4.285.184,6.43.258.285.012.57.031.848.066,5.863.754,8.215,5.4,5.254,10.5a16.772,16.772,0,0,1-2.578,3.371C43.184,60.383,36.379,64.7,28.094,66.395c-.875.18-1.516.523-1.473,1.512a36.2,36.2,0,0,0,.43,6.4c.75,3.254,3.426,4.766,6.516,3.477a23.787,23.787,0,0,0,6.617-4.293c2.727-2.461,5-5.414,7.629-8a50.138,50.138,0,0,1,6.8-5.895c5.258-3.578,9.594-3.676,14.063.391a3.409,3.409,0,0,0,.621.41" transform="translate(2.879 108.859)" fill="#107614"/>
    <path id="Path_4" data-name="Path 4" d="M337.719,9.508c.219,1.52.477,2.992.641,4.473,1.641,14.879,3.449,29.742,3.16,44.762a13.235,13.235,0,0,0,.605,4.012c1.418,4.664,6.473,6.5,10.285,3.438,2.242-1.8,3.852-4.391,5.723-6.641.289-.344.41-.844.734-1.133a1.617,1.617,0,0,1,1.16-.477,1.408,1.408,0,0,1,.785.945,10.266,10.266,0,0,1,.125,2.027c.082,4.1,2.156,6.5,6.234,7.246a20.376,20.376,0,0,0,14.652-3c3.281-2,6.34-4.371,9.5-6.574.586-.41,1.184-.812,2.137-1.465a15.822,15.822,0,0,1-.012,2.066c-.6,3.816.961,6.586,4.035,7.09,3.766.617,6.777-1.32,7.18-5.156a31.832,31.832,0,0,0-.477-7.754c-1.5-10.543-3.1-21.07-4.68-31.6a14.006,14.006,0,0,0-.8-3.641c-1.707-3.793,1.164-6.168,2.676-8.914.551-1,1.27-.062,1.645.551,1.344,2.234,2.652,4.488,3.965,6.742.828,1.418,1.664,2.836,2.449,4.281a12.674,12.674,0,0,1,.652,1.777,6.507,6.507,0,0,1-1,.2c-2.922-.008-3.523.715-3.25,3.676,1.016,11,2.148,22,2.918,33.023a14.245,14.245,0,0,1-4.332,11.1,8.407,8.407,0,0,1-8.52,2.078c-1.23-.32-2.285-1.512-3.277-2.457a7.069,7.069,0,0,1-1.008-1.949c-.922-1.812-1.48-1.84-3.105-.652a55,55,0,0,1-8.008,5.352,32.853,32.853,0,0,1-8.73,2.664,12.842,12.842,0,0,1-12.9-5.09c-1.1-1.4-1.645-1.391-2.574.27a8.149,8.149,0,0,1-6.621,4.449c-5.137.516-8.777-2.18-9.812-7.273-.148-.723-.184-1.465-.34-2.184-.258-1.238-.91-1.48-1.926-.719a7.234,7.234,0,0,0-1.09,1.07c-6.582,7.527-15.09,10.7-24.871,11.059a19.938,19.938,0,0,1-13.93-4.414c-3.77-3.1-5.488-7.055-4.43-11.91a77.323,77.323,0,0,1,2.414-8.293,6.429,6.429,0,0,1,1.8-2.625,2.215,2.215,0,0,1,2.059-.141,1.411,1.411,0,0,1,.3,2.2,21.826,21.826,0,0,0-2.055,3.512c-1.93,4.285-.992,7.93,2.7,10.871a19,19,0,0,0,10.066,3.746c10.551,1.145,19.156-2.5,25.68-10.859a5.959,5.959,0,0,0,1.176-3.539,308.61,308.61,0,0,0-3.426-39.1,4.65,4.65,0,0,1,.441-2.535c.73-1.527,1.664-2.957,2.535-4.41.055-.094.3-.078.734-.172" transform="translate(2.879 108.859)" fill="#107614"/>
    <path id="Path_5" data-name="Path 5" d="M237.2,49.109a18.749,18.749,0,0,0-.75-2.043c-.379-.742-1.164-1.313-1.68-.426a27.115,27.115,0,0,0-2.133,5c-.113.328.523,1.125.988,1.355a1.561,1.561,0,0,0,1.488-.293c.82-1.176,1.457-2.477,2.086-3.6m1.785,20.3q1.131-.562,2.254-1.125c-.457-.73-.75-1.781-1.41-2.125a15.025,15.025,0,0,0-4.406-1.473c-1.34-.219-1.852.766-1.109,1.938a6.327,6.327,0,0,0,4.672,2.785M235.7,34.8c4.309,3.328,6.609,14.344,1.2,23.332,1.238.4,2.5.719,3.7,1.207a10.076,10.076,0,0,1,4.945,13.98c-1.289,2.383-3.824,3.387-7.062,2.8-5.691-1.043-8.566-4.012-9.879-10.2-.6-2.828-1.262-3.242-3.965-2.125a49.391,49.391,0,0,1-15.879,3.457c-8.344.516-15.684-1.836-21.348-8.355a4.471,4.471,0,0,0-1.8-1.48,2.142,2.142,0,0,0-1.914.57c-.555.773-.117,1.484.891,1.719a8.282,8.282,0,0,1,1.445.488c2.188.953,3.363,2.832,2.559,5.055a24.767,24.767,0,0,1-3.531,6.859c-6.129,7.8-20.73,15.047-34.266,9.988-6.379-2.383-9.477-7.395-10.707-13.625-1.1-5.547,1.363-10.277,4.551-14.645a1.366,1.366,0,0,1,.48-.477c.441-.184.91-.3,1.367-.441a3.879,3.879,0,0,1,.086,1.391c-.41,1.234-.984,2.41-1.418,3.637a17.6,17.6,0,0,0-1,9.363c1.254,6.371,5.961,10.379,13.129,10.641a35.114,35.114,0,0,0,23.8-7.539,16.115,16.115,0,0,0,2.293-2.266c.988-1.176.762-1.965-.762-2.285a23.407,23.407,0,0,0-4.219-.383c-2.309-.062-4.617-.02-7.363-.02a56.8,56.8,0,0,1,1.27-6.422c.2-.633,1.352-1.152,2.168-1.375a12.154,12.154,0,0,0,8.895-13.012c-.754-5.559-2.168-11.055-2.516-16.625-.371-5.848.152-11.754.371-17.637.016-.516.668-1.008,1.023-1.512a5.618,5.618,0,0,1,.859,1.66c1.188,8.93,2.277,17.875,3.48,26.8q.691,5.133,1.758,10.215C189.738,54.273,194.621,58.7,201.746,60c4.809.879,9.5-.012,14.176-.863a71.974,71.974,0,0,0,8.238-2.02c3.668-1.125,5.641-3.645,6.512-7.492.992-4.4,2.637-8.652,4.031-12.953A13.015,13.015,0,0,1,235.7,34.8" transform="translate(2.879 108.859)" fill="#107614"/>
    <path id="Path_6" data-name="Path 6" d="M263.414,70.078a14.818,14.818,0,0,0,1.9-.281,4.061,4.061,0,0,0,1.93-6.844c-1.547-1.6-2.148-1.707-3.746-.121a14.722,14.722,0,0,0-2.684,3.648c-1.246,2.434-.426,3.594,2.6,3.6m-36.48-54.285c4.727,3.047,9.105,5.844,13.453,8.687.723.473,1.234,1.168.027,1.754-1.836.887-1.918,1.211-.441,2.648q7.008,6.826,14.047,13.625,4.951,4.793,9.906,9.582c.563.547,1.152,1.066,1.844,1.711,2.488-2.375,4.895-4.676,7.3-6.977a10.468,10.468,0,0,1,1.367-1.273c3.2-2.1,4-5.1,3.418-8.68-1.035-6.426-2-12.863-3.062-19.285-.316-1.9,1.18-5.734,3.043-7.055.266.5.563.961.77,1.457,1.676,4.027,3.352,8.055,4.977,12.1a7.9,7.9,0,0,1,.258,1.922,11.79,11.79,0,0,1-1.758-.492c-1.02-.465-1.8.016-1.652,1.242.438,3.652.973,7.289,1.527,11.375a28.01,28.01,0,0,0,2.563-2.277c4.73-5.43,9.469-10.852,14.105-16.363,2.41-2.859,4.617-5.891,6.922-8.844a3.943,3.943,0,0,1,.75-.914,9.375,9.375,0,0,1,1.465-.664c.137.5.492,1.07.371,1.5a22.5,22.5,0,0,1-1.477,4.141c-3.281,6.484-7.887,12.039-12.645,17.453-3.367,3.832-6.969,7.457-10.375,11.258a4.406,4.406,0,0,0-1.051,2.633c-.168,8.281-.1,16.566-.375,24.836a16.908,16.908,0,0,1-3.707,9.941V49.551c-.16-.059-.324-.113-.488-.168-2.707,2.719-5.43,5.418-8.078,8.191-.2.211.035,1.023.273,1.441a15.08,15.08,0,0,1,1.535,12.125,10,10,0,0,1-11.18,7.078,4.54,4.54,0,0,1-4.07-3.977,14.5,14.5,0,0,1,3.742-13.98,8.153,8.153,0,0,1,.844-.84,9.96,9.96,0,0,1,1.02-.617c.066-.254.137-.508.207-.766a35.845,35.845,0,0,1-3.168-2.547q-15.334-15.357-30.586-30.8a4.329,4.329,0,0,1-1.031-2.332c-.289-2.008-.383-4.047-.594-6.566" transform="translate(2.879 108.859)" fill="#107614"/>
    <path id="Path_7" data-name="Path 7" d="M134.727,25.039c-.613.039-1.09.09-1.57.1-2.141.027-3.051,1.043-2.719,3.273.422,2.859.988,5.7,1.449,8.547a103.221,103.221,0,0,1-.531,38.371,17.952,17.952,0,0,1-1.711,4.406c-.32.629-1.164.984-1.773,1.469-.16-.1-.324-.2-.488-.293,0-.645-.012-1.293,0-1.937.227-8.785.809-17.574.605-26.348-.262-11.477-2.523-22.73-4.977-33.926a4.538,4.538,0,0,1,.387-2.66,44.6,44.6,0,0,1,2.383-4.113c.512-.859,1.141-.984,1.676-.078q3.574,6.076,7.082,12.2a3.694,3.694,0,0,1,.184.988" transform="translate(2.879 108.859)" fill="#107614"/>
    <path id="Path_8" data-name="Path 8" d="M428.332,22c-4.227.418-4.559.875-3.8,5.031,1.516,8.371,2.793,16.785,2.664,25.309-.105,7.074-.414,14.172-2.332,21.055a14.851,14.851,0,0,1-1.566,3.551c-.289.488-1.062.687-1.613,1.02a6.161,6.161,0,0,1-.5-1.762c.2-8.891.82-17.793.6-26.672-.277-11.406-2.539-22.594-4.945-33.73a4.886,4.886,0,0,1,.406-2.82,40.436,40.436,0,0,1,2.371-4.121c.453-.758,1.059-.965,1.559-.113q3.615,6.152,7.141,12.352c.121.211.016.543.016.9" transform="translate(2.879 108.859)" fill="#107614"/>
    <path id="Path_9" data-name="Path 9" d="M176.766,120.316c2.309-.117,4.4-.145,6.469-.359,1.621-.172,2.3-1.4,2.34-2.879.043-1.434-.625-2.727-2.105-2.867-2.215-.215-4.461-.059-6.7-.059Zm-.016,11.16c2.395,0,4.6.082,6.8-.023a2.911,2.911,0,0,0,2.813-3.051c.117-1.953-.762-3.52-2.488-3.68-2.336-.211-4.7-.051-7.121-.051Zm10.219-9.727c4.254,3.262,5.191,7.043,2.938,10.941a5.627,5.627,0,0,1-4.8,3.07c-3.91.137-7.824.117-11.73.172-.777.012-1.3-.137-1.293-1.105.035-8.223.043-16.441.066-24.66,0-.1.094-.2.16-.324,4.055,0,8.125-.109,12.184.039a5.434,5.434,0,0,1,5.02,3.98,6.61,6.61,0,0,1-1.285,6.984,6.778,6.778,0,0,1-1.262.9" transform="translate(2.879 108.859)" fill="#107614"/>
    <path id="Path_10" data-name="Path 10" d="M7.352,119.82v16H3.23v-26.1a27.924,27.924,0,0,1,3.664.055c.465.062.98.66,1.242,1.145,2.465,4.586,4.883,9.2,7.32,13.8a4.223,4.223,0,0,0,1.34,1.625V109.8h4.168v26.113a30.679,30.679,0,0,1-3.9-.059c-.465-.059-.98-.684-1.246-1.172-2.4-4.43-4.746-8.891-7.113-13.34-.289-.543-.594-1.074-.895-1.609-.152.027-.3.059-.461.086" transform="translate(2.879 108.859)" fill="#107614"/>
    <path id="Path_11" data-name="Path 11" d="M103.242,119.719v12.891c0,3.668,0,3.668-3.977,3.168V109.711c.984,0,1.938.07,2.875-.016a1.8,1.8,0,0,1,1.973,1.172c2.562,4.926,5.172,9.824,7.773,14.727.156.3.34.582.754,1.293V109.852h4.27c.035.512.1,1.012.1,1.508,0,7.6-.035,15.2.035,22.8.012,1.449-.477,1.742-1.836,1.832a3.6,3.6,0,0,1-4.066-2.34c-2.051-4.289-4.418-8.426-6.66-12.621-.262-.484-.559-.953-.836-1.426l-.406.117" transform="translate(2.879 108.859)" fill="#107614"/>
    <path id="Path_12" data-name="Path 12" d="M361.879,126.262H356.6v-4.227h9.68a61.2,61.2,0,0,0,.063,7.234c.348,2.906-1.074,4.367-3.418,5.5a13.2,13.2,0,0,1-9.555,1.191c-4.8-1.336-7-4.953-7.895-9.508a17.834,17.834,0,0,1,1.258-11.289c2.988-6.363,10.035-6.969,14.648-4.82,2.641,1.23,4,3.531,4.41,6.527-.68.191-1.277.324-1.852.527-1.559.559-2.484.332-3.426-1.363-1.937-3.484-7.457-3.109-9.406.668a12.5,12.5,0,0,0,.23,12.387c2.332,4.07,7.207,3.281,9.836.8.664-.625.457-2.18.707-3.633" transform="translate(2.879 108.859)" fill="#107614"/>
    <path id="Path_13" data-name="Path 13" d="M231.453,109.8h4.125c.047.57.125,1.063.125,1.555.008,7.6-.027,15.2.035,22.8.012,1.43-.473,1.734-1.84,1.84a3.613,3.613,0,0,1-4.047-2.395c-2.023-4.176-4.3-8.23-6.48-12.332a4.415,4.415,0,0,0-1.32-1.629v15.855c-.281.207-.367.32-.461.332-3.719.477-3.719.477-3.719-3.164V109.715a28.275,28.275,0,0,1,3.727.055,2.184,2.184,0,0,1,1.234,1.121c2.465,4.59,4.883,9.2,7.316,13.809a5.037,5.037,0,0,0,1.3,1.715" transform="translate(2.879 108.859)" fill="#107614"/>
    <path id="Path_14" data-name="Path 14" d="M90.969,122.82a36.644,36.644,0,0,0-1.141-5.344,5.374,5.374,0,0,0-5.34-3.754,5.447,5.447,0,0,0-5.375,3.73,14.186,14.186,0,0,0,.082,10.785,5.442,5.442,0,0,0,5.434,3.637,5.372,5.372,0,0,0,5.156-3.766,36.658,36.658,0,0,0,1.184-5.289m4.691.539a50.2,50.2,0,0,1-1.707,6.859,9.717,9.717,0,0,1-9.668,6.191c-4.508-.16-7.836-2.266-9.508-6.484a19.4,19.4,0,0,1-.25-13.5c1.648-5,5.117-7.207,10.691-7.1a9.917,9.917,0,0,1,9.34,7.59,62.457,62.457,0,0,1,1.1,6.441" transform="translate(2.879 108.859)" fill="#107614"/>
    <path id="Path_15" data-name="Path 15" d="M288.77,122.734a43.674,43.674,0,0,0-1.3-5.449,5.248,5.248,0,0,0-5.109-3.566,5.314,5.314,0,0,0-5.3,3.309,13.586,13.586,0,0,0,.063,11.527,5.6,5.6,0,0,0,10.348-.344,42.317,42.317,0,0,0,1.3-5.477m-17.586-.062a18.83,18.83,0,0,1,2.113-8.523c3.512-6.449,14.051-6.613,17.633-.184a17.7,17.7,0,0,1,.258,17.266c-2.062,4.1-6.047,5.688-10.957,4.961a10.212,10.212,0,0,1-8.387-8.312c-.371-1.7-.449-3.469-.66-5.207" transform="translate(2.879 108.859)" fill="#107614"/>
    <path id="Path_16" data-name="Path 16" d="M260.973,135.926c-1.9,0-3.434.1-4.945-.051a2.229,2.229,0,0,1-1.434-1.109c-1.617-3.051-3.133-6.152-4.691-9.234-.277-.543-.594-1.066-.859-1.543-4.883,2.738-3.867,7.422-3.855,11.93-1.328,0-2.441.016-3.555,0-1.18-.016-.93-.93-.934-1.613-.016-6.574-.008-13.148-.012-19.727v-4.781h4.445v10.844c.223.156.441.313.66.465a7.54,7.54,0,0,1,.664-1.3c2.3-2.949,4.664-5.852,6.922-8.832a2.79,2.79,0,0,1,2.707-1.281c1.328.1,2.672.02,4.41.02-2.367,2.852-4.477,5.41-6.605,7.953-1.867,2.223-1.879,2.219-.477,4.73,2.449,4.391,4.9,8.777,7.559,13.535" transform="translate(2.879 108.859)" fill="#107614"/>
    <path id="Path_17" data-name="Path 17" d="M341.441,109.84v4.211h-7.449c-5.441,0-5.441,0-4.52,5.844h11.156v4.371h-6.715c-4.645,0-4.645,0-4.648,4.727a8.932,8.932,0,0,1-.008,1.023c-.145,1.164.3,1.6,1.52,1.57,3-.07,6.012-.023,9.02-.023h2.137a33.636,33.636,0,0,1-.047,3.473,1.3,1.3,0,0,1-.934.848c-5.27.055-10.539.035-15.934.035V109.84" transform="translate(2.879 108.859)" fill="#107614"/>
    <path id="Path_18" data-name="Path 18" d="M206.938,125.559c-1.027-3.215-1.992-6.238-2.957-9.266l-.34.012c-.949,3.035-1.895,6.074-2.887,9.254Zm-.656-15.848c2.992,8.691,5.953,17.289,9.02,26.2-1.555,0-2.883.051-4.2-.035-.336-.023-.687-.445-.953-.75a2.507,2.507,0,0,1-.3-.789c-1.469-4.379-1.469-4.379-6.188-4.379-4.309,0-4.367-.016-5.52,4-.426,1.48-1.039,2.266-2.684,2a19.414,19.414,0,0,0-2.77-.023c.8-2.41,1.523-4.6,2.254-6.773,1.961-5.844,3.98-11.672,5.859-17.543.473-1.484,1.121-2.18,2.719-1.93a19.306,19.306,0,0,0,2.758.023" transform="translate(2.879 108.859)" fill="#107614"/>
    <path id="Path_19" data-name="Path 19" d="M31.7,125.52h6.172c-1.012-3.145-1.961-6.082-2.906-9.023-.156.012-.309.02-.465.027-.922,2.965-1.844,5.926-2.8,9m14.414,10.4c-1.453,0-2.75.078-4.027-.047a1.757,1.757,0,0,1-1.094-1c-.523-1.25-.816-2.6-1.375-3.828A2.011,2.011,0,0,0,38.23,130a65.894,65.894,0,0,0-6.8,0,2.2,2.2,0,0,0-1.473,1.152,17.95,17.95,0,0,0-1.094,3.387,1.564,1.564,0,0,1-1.9,1.406c-1-.094-2.02-.02-3.27-.02.367-1.227.645-2.242.977-3.238,2.395-7.141,4.824-14.27,7.172-21.426.371-1.133.812-1.629,2.094-1.594,3.223.086,3.227.012,4.281,3.055q3.668,10.594,7.324,21.191c.2.582.348,1.184.578,2" transform="translate(2.879 108.859)" fill="#107614"/>
    <path id="Path_20" data-name="Path 20" d="M130.867,116.348c-.133.027-.27.059-.406.086-.934,3-1.867,6-2.848,9.152h6.2c-1.012-3.184-1.977-6.211-2.941-9.238m11.105,19.309a2.172,2.172,0,0,1-.359.188c-4.254.488-4.375.523-5.5-3.555-.523-1.895-1.359-2.578-3.289-2.371a29.665,29.665,0,0,1-5.1.008,1.659,1.659,0,0,0-2,1.52c-.234,1.047-.672,2.047-.9,3.094a1.573,1.573,0,0,1-1.918,1.41c-1-.074-2.023-.016-3.309-.016.367-1.152.66-2.1.973-3.039,2.391-7.137,4.824-14.258,7.145-21.418a2.119,2.119,0,0,1,2.477-1.8c2.93.117,2.949.027,3.918,2.824q3.721,10.752,7.414,21.516c.184.523.3,1.07.453,1.641" transform="translate(2.879 108.859)" fill="#107614"/>
    <path id="Path_21" data-name="Path 21" d="M396.008,117.828c0,3.891,0,3.9,3.9,3.75a3.441,3.441,0,0,0,1.656-.262,6.069,6.069,0,0,0,2.277-2.023c1.121-2.406-.293-4.7-2.934-5.117-4.641-.734-4.9-.539-4.9,3.652m0,18.02h-4.246V109.934c3.906,0,7.746-.066,11.578.031a5.016,5.016,0,0,1,4.391,3.078,9.958,9.958,0,0,1-.215,9.762,6.324,6.324,0,0,1-5.543,3.094,42.744,42.744,0,0,1-4.418.051c-1.172-.055-1.605.332-1.57,1.539.074,2.711.023,5.43.023,8.359" transform="translate(2.879 108.859)" fill="#107614"/>
    <path id="Path_22" data-name="Path 22" d="M392.293,9.547c-1.031,1.891-1.816,3.508-2.781,5.008a3.538,3.538,0,0,1-1.68,1.02,199.621,199.621,0,0,0-35.621,17.844c-1.336.855-2.574,1.871-3.945,2.652a2.253,2.253,0,0,1-1.945.176,2.179,2.179,0,0,1-.484-1.914,7.556,7.556,0,0,1,3.328-4.711,189.868,189.868,0,0,1,40.059-19.133c.891-.3,1.8-.551,3.07-.941" transform="translate(2.879 108.859)" fill="#107614"/>
    <path id="Path_23" data-name="Path 23" d="M305.012,56.8c1.328.1,2.664.148,3.98.309a16.475,16.475,0,0,0,9.742-1.539c.711-.367,1.172-1.215,1.75-1.84a7.963,7.963,0,0,0-2.059-1.25c-4.594-1.109-5.1-1.742-4.777-6.516a15.259,15.259,0,0,1,5.211-10.7,7.949,7.949,0,0,1,1.367-1c2.578-1.461,3.59-.891,3.59,2,0,3.5-.117,3.664-3.5,4.762-1.336.434-2.488,1.109-2.336,2.7.164,1.66,1.516,2.1,2.934,2.285a10.535,10.535,0,0,0,1.531.016c2.41-.035,3.5.941,3.746,3.355.617,6.137-3.574,11.012-10.234,11.863a12.319,12.319,0,0,1-8.918-1.934,26.735,26.735,0,0,1-2.254-1.961c.074-.184.152-.367.23-.551" transform="translate(2.879 108.859)" fill="#107614"/>
    <path id="Path_24" data-name="Path 24" d="M301.281,124.7v11.113h-4.43V109.836h15.211v4.18H301.41v6.32c2.613,0,5.148.09,7.676-.035,1.57-.082,1.84.645,1.691,1.922-.125,1.105.586,2.621-1.625,2.5-2.531-.133-5.078-.031-7.871-.031" transform="translate(2.879 108.859)" fill="#107614"/>
    <path id="Path_25" data-name="Path 25" d="M378.172,119.953c1.5-2.961,2.977-5.687,4.254-8.508a2.542,2.542,0,0,1,2.988-1.758,26.013,26.013,0,0,0,3.109.023c-1.633,3.02-2.93,5.93-4.684,8.527a20.506,20.506,0,0,0-3.6,14.414,2.472,2.472,0,0,1,0,.34c0,3.121,0,3.078-3.187,2.961-1.051-.039-1.367-.426-1.348-1.426.051-2.66.09-5.328-.016-7.988a7.418,7.418,0,0,0-.766-3.035c-2.113-4.07-4.344-8.074-6.523-12.109-.262-.48-.48-.984-.82-1.68,1.621,0,3.027-.09,4.414.047a2.056,2.056,0,0,1,1.3,1.012c1.375,2.539,2.656,5.125,3.984,7.691.227.438.508.855.891,1.488" transform="translate(2.879 108.859)" fill="#107614"/>
    <path id="Path_26" data-name="Path 26" d="M164.5,16.918c-.84-.816-1.48-1.785-1.812-1.688a2.418,2.418,0,0,0-1.535,1.527c-.09.562.652,1.258,1.031,1.895.656-.492,1.313-.98,2.316-1.734M139.027,40.871c8.551-4.246,16.488-8.77,22.082-16.508-.7-.734-1.383-1.391-1.988-2.109a6.676,6.676,0,0,1,3.066-10.965c2.07-.7,4.344.18,4.477,2.277.215,3.3,1.082,6.5,1.156,9.8a4.16,4.16,0,0,1-.215,1.16c-.7,2.5-1.277,2.738-3.508,1.328-.3.348-.633.707-.941,1.082a46.346,46.346,0,0,1-19.293,14.012c-2.445.961-3.09.957-4.836-.078" transform="translate(2.879 108.859)" fill="#107614"/>
    <path id="Path_27" data-name="Path 27" d="M317.773,15.176l1.789,1.953c.535-.59,1.418-1.137,1.5-1.781.063-.527-.832-1.168-1.3-1.762l-1.98,1.59M296.586,39.211a16.842,16.842,0,0,1,1.746-1.109c6.629-3.215,12.8-7.074,17.777-12.605.605-.672,1.148-1.4,1.707-2.117a8.389,8.389,0,0,0,.461-.758c-.715-.766-1.453-1.465-2.09-2.25a6.674,6.674,0,0,1,3.172-10.754,3.473,3.473,0,0,1,4.742,2.734,8.3,8.3,0,0,1,.113,2.2c-.1,1.434-.328,2.7.727,4.1,1.117,1.484-.105,5.285-1.754,6.691-.586-.367-1.2-.754-1.895-1.191a39.117,39.117,0,0,1-11.039,10.254A117.208,117.208,0,0,1,299,39.855a5.854,5.854,0,0,1-2.223.039c-.062-.23-.125-.457-.187-.684" transform="translate(2.879 108.859)" fill="#107614"/>
    <path id="Path_28" data-name="Path 28" d="M55.48,135.848H51.1V133.8c0-6.012-.031-12.02.031-18.027.012-1.316-.348-1.84-1.723-1.742-1.625.109-3.258.023-4.98.023V109.8h17.68v4.25c-1.6,0-3.277.082-4.945-.027-1.391-.094-1.723.457-1.711,1.758.059,6.008.027,12.016.027,18.027" transform="translate(2.879 108.859)" fill="#107614"/>
    <path id="Path_29" data-name="Path 29" d="M411.133,114.051v-4.207H428.82v4.172h-6.543v21.793c-1.039.051-1.867.039-2.687.137-1.383.168-1.871-.336-1.855-1.781.074-5.723.043-11.449.027-17.172-.008-3.43.285-2.891-2.859-2.937-1.187-.02-2.375,0-3.77,0" transform="translate(2.879 108.859)" fill="#107614"/>
    <path id="Path_30" data-name="Path 30" d="M144.879,135.809V109.953a18.4,18.4,0,0,1,3.48.078c.379.074.813,1.059.82,1.633.063,5.613.039,11.23.039,16.844v3.027h11.332v4.273" transform="translate(2.879 108.859)" fill="#107614"/>
    <path id="Path_31" data-name="Path 31" d="M258.586,40.547c-1.324-2.043-.7-3.863-.027-5.734-.949-.648-1.9-1.238-2.781-1.914a4.3,4.3,0,0,1-1.676-4.516,9.269,9.269,0,0,1,4.535-6.477,5.566,5.566,0,0,1,6.691,1.141c.906.992,1.039,2-.316,2.59-1.422.621-2.98.934-4.422,1.516-.676.273-1.687.824-1.727,1.32-.09,1.113.957,1.539,1.91,1.3a47.093,47.093,0,0,0,4.469-1.531c.938-.34,1.859-.723,2.828-1.1.57,3.348-.543,5.535-3.242,6.734a11.149,11.149,0,0,0-5.355,5.023c-.262.484-.523.973-.887,1.648" transform="translate(2.879 108.859)" fill="#107614"/>
    <path id="Path_32" data-name="Path 32" d="M65.508,109.793h4.484v25.875a1.652,1.652,0,0,1-.48.207c-4,.379-4,.375-4-3.6v-20.41" transform="translate(2.879 108.859)" fill="#107614"/>
    <path id="Path_33" data-name="Path 33" d="M23.516,12.328c-.723-.621-1.234-1.375-1.617-1.312a1.777,1.777,0,0,0-1.141,1.3c-.035.5.586,1.031.918,1.551.516-.434,1.031-.867,1.84-1.543m.84,7.789L22.871,19.3C18.043,25.055,12.5,29.527,5.2,31.246c-.16-.227-.316-.457-.473-.687a11.063,11.063,0,0,1,1.449-1.023,42.267,42.267,0,0,0,13.215-9.684c1.023-1.152,1.27-1.9.012-3.168-2.383-2.4-2.027-5.488.609-7.508,1.023-.789,2.152-1.371,3.449-.738a3.07,3.07,0,0,1,1.555,3.332,7.241,7.241,0,0,0,.473,3.551,4.574,4.574,0,0,1-1.133,4.8" transform="translate(2.879 108.859)" fill="#107614"/>
    <path id="Path_34" data-name="Path 34" d="M28.785,20.539c.742.262,1.453.285,1.746.648a10.65,10.65,0,0,1,2.777,7.129c-.074,2.172-.7,2.895-2.867,2.9a2.688,2.688,0,0,0-2.75,1.453C26.914,34.1,25.465,34.332,24,34.23a3.03,3.03,0,0,1-2.684-2.3c-.609-1.82-1.062-3.7-1.59-5.543-.3-1.066.078-1.906,1.113-2.1,1.254-.238,1.379.785,1.531,1.738a13.167,13.167,0,0,0,.813,3.43c.246.531,1.207.734,1.844,1.086.34-.684,1.008-1.4.945-2.047a31.006,31.006,0,0,0-.98-3.937c-.187-.793-.555-1.742.707-2.062,1.23-.312,1.551.469,1.793,1.453a14.422,14.422,0,0,0,1.074,3.375c.328.613,1.191.945,1.816,1.406.223-.746.781-1.586.605-2.219-.5-1.836-1.3-3.594-2.2-5.969" transform="translate(2.879 108.859)" fill="#107614"/>
    <path id="Path_35" data-name="Path 35" d="M169.414,32.164c.566.105,1.242.02,1.48.3a10.917,10.917,0,0,1,2.961,7.883c-.125,1.859-1.324,2.422-2.875,2.387a2.68,2.68,0,0,0-2.754,1.473c-.793,1.414-2.234,1.621-3.7,1.5a3.009,3.009,0,0,1-2.652-2.309,36.953,36.953,0,0,1-1.527-5.547,2.36,2.36,0,0,1,1.105-2c1.074-.367,1.273.652,1.422,1.563a14.067,14.067,0,0,0,.9,3.578,2.086,2.086,0,0,0,1.828.9c.465-.125.992-1.184.941-1.785a20.429,20.429,0,0,0-.9-3.77c-.262-.926-.809-1.914.6-2.367,1.43-.457,1.527.656,1.809,1.586a23.573,23.573,0,0,0,1.273,3.66c.234.477,1.016.691,1.547,1.023.27-.609.879-1.316.738-1.816-.559-1.992-1.348-3.918-2.2-6.262" transform="translate(2.879 108.859)" fill="#107614"/>
    <path id="Path_36" data-name="Path 36" d="M199.09,72.824c.043,2.07-.523,3.461-2.1,4.43q-6.076,3.715-12.094,7.527c-.777.5-1.379.711-2.039-.094a1.425,1.425,0,0,1,.1-2.234,54.5,54.5,0,0,1,16.137-9.629" transform="translate(2.879 108.859)" fill="#107614"/>
    <path id="Path_37" data-name="Path 37" d="M264.375,9.824a4.177,4.177,0,0,1-2.016,4.4c-4.043,2.5-8.086,5-12.1,7.539-.781.492-1.422.68-2.07-.109a1.442,1.442,0,0,1,.145-2.242,54.882,54.882,0,0,1,16.039-9.586" transform="translate(2.879 108.859)" fill="#107614"/>
    <path id="Path_38" data-name="Path 38" d="M353.324,49.672c-1.777-.77-3.477-1.516-5.187-2.242-.961-.41-1.152-1.008-.523-1.855.238-.316.461-.645.707-.957,3.262-4.184,1.9-3.973,7.547-1.8,1.469.563,1.641,1.4.727,2.633-1.043,1.406-2.141,2.773-3.27,4.223" transform="translate(2.879 108.859)" fill="#107614"/>
    <path id="Path_39" data-name="Path 39" d="M393.066,78.434c-.6.848-1.062,1.547-1.574,2.207-2.484,3.246-2.488,3.242-6.223,1.613-.262-.109-.52-.219-.781-.336-1.941-.855-2-1.07-.758-2.781.1-.137.207-.27.309-.4,2.789-3.762,3.6-3.945,7.75-1.641a6.722,6.722,0,0,1,1.277,1.34" transform="translate(2.879 108.859)" fill="#107614"/>
    <path id="Path_40" data-name="Path 40" d="M113.188,74.031a9.2,9.2,0,0,1-1.816,2.52c-2.988,2.031-6.09,3.906-9.2,5.758-.4.238-1.07.016-1.613.008.02-.547-.187-1.348.094-1.6a38.741,38.741,0,0,1,11.9-7.238c.211.188.422.371.629.555" transform="translate(2.879 108.859)" fill="#107614"/>
    <path id="Path_41" data-name="Path 41" d="M64.156,73.59a2.684,2.684,0,0,1-1.426,3.285c-3.016,1.879-6.02,3.777-9.07,5.594-.395.234-1.043.047-1.57.055.086-.637-.062-1.539.3-1.859A39.064,39.064,0,0,1,64.156,73.59" transform="translate(2.879 108.859)" fill="#107614"/>
    <g id="Group_4" data-name="Group 4" clip-path="url(#clip-path)">
      <path id="Path_42" data-name="Path 42" d="M287.742-108.859-2.879,94.637,141.078,300.23,431.7,96.734Z" transform="translate(2.879 108.859)" fill="url(#linear-gradient)"/>
    </g>
    <path id="Path_43" data-name="Path 43" d="M560.34,135.8V18.18H461.391V135.512a18.639,18.639,0,0,1-13.48-7.7,21.338,21.338,0,0,1-4.242-12.867q-.035-46.9,0-93.8c.012-11.574,9.746-21.078,21.6-21.1q34.049-.059,68.1-.012c7.48,0,14.965.141,22.441-.031A21.994,21.994,0,0,1,577.992,22.25c-.039,30.629.078,61.254-.07,91.883-.043,8.523-3.418,15.543-11.437,19.555a50.65,50.65,0,0,1-6.145,2.109" transform="translate(2.879 108.859)" fill="#107614"/>
    <g id="Group_7" data-name="Group 7" clip-path="url(#clip-path-2)">
      <g id="Group_6" data-name="Group 6" clip-path="url(#clip-path-3)">
        <g id="Group_5" data-name="Group 5" clip-path="url(#clip-path-4)">
          <path id="Path_44" data-name="Path 44" d="M523.113.863,453.605,49.535l44.633,63.742,69.508-48.672Z" transform="translate(2.879 108.859)" fill="url(#linear-gradient-2)"/>
        </g>
      </g>
    </g>
    <g id="Group_9" data-name="Group 9" clip-path="url(#clip-path-5)">
      <g id="Group_8" data-name="Group 8" clip-path="url(#clip-path-6)">
        <path id="Path_47" data-name="Path 47" d="M513.512,81.1l-41.18,28.836,35.633,50.891L549.145,132Z" transform="translate(2.879 108.859)" fill="url(#linear-gradient-3)"/>
      </g>
    </g>
    <g id="Group_12" data-name="Group 12" clip-path="url(#clip-path-7)">
      <g id="Group_11" data-name="Group 11" clip-path="url(#clip-path-8)">
        <g id="Group_10" data-name="Group 10" clip-path="url(#clip-path-9)">
          <path id="Path_50" data-name="Path 50" d="M541.039,81.027l-41.27,28.895,35.684,50.961,41.266-28.895Z" transform="translate(2.879 108.859)" fill="url(#linear-gradient-4)"/>
        </g>
      </g>
    </g>
    <g id="Group_15" data-name="Group 15" clip-path="url(#clip-path-10)">
      <g id="Group_14" data-name="Group 14" clip-path="url(#clip-path-11)">
        <g id="Group_13" data-name="Group 13" clip-path="url(#clip-path-12)">
          <path id="Path_53" data-name="Path 53" d="M485.93,81.109l-41.172,28.832,35.633,50.883L521.559,132Z" transform="translate(2.879 108.859)" fill="url(#linear-gradient-5)"/>
        </g>
      </g>
    </g>
  </g>
</svg>
