<svg id="Layer_1" data-name="Layer 1" xmlns="http://www.w3.org/2000/svg" xmlns:xlink="http://www.w3.org/1999/xlink" viewBox="0 0 580.8785 409.08984"><defs><clipPath id="clip-path" transform="translate(2.87891 108.85938)"><rect y="92.62109" width="428.82031" height="6.12891" style="fill:none"/></clipPath><linearGradient id="linear-gradient" x1="39.47224" y1="327.47964" x2="40.47225" y2="327.47964" gradientTransform="matrix(143.95799, 205.593, 205.593, -143.95799, -72867.43446, 39020.98247)" gradientUnits="userSpaceOnUse"><stop offset="0" stop-color="#f9c60e"/><stop offset="0.00781" stop-color="#f9c60e"/><stop offset="0.01563" stop-color="#f9c50e"/><stop offset="0.02344" stop-color="#f9c40e"/><stop offset="0.03125" stop-color="#f9c30e"/><stop offset="0.03906" stop-color="#f9c30e"/><stop offset="0.04688" stop-color="#f9c20e"/><stop offset="0.05469" stop-color="#f9c10e"/><stop offset="0.0625" stop-color="#f9c00d"/><stop offset="0.07031" stop-color="#f9c00d"/><stop offset="0.07813" stop-color="#f9bf0d"/><stop offset="0.08594" stop-color="#f9be0d"/><stop offset="0.09375" stop-color="#f9bd0d"/><stop offset="0.10156" stop-color="#f9bd0d"/><stop offset="0.10938" stop-color="#f9bc0d"/><stop offset="0.11719" stop-color="#f9bb0d"/><stop offset="0.125" stop-color="#f9ba0d"/><stop offset="0.13281" stop-color="#fab90d"/><stop offset="0.14063" stop-color="#fab90d"/><stop offset="0.14844" stop-color="#fab80d"/><stop offset="0.15625" stop-color="#fab70d"/><stop offset="0.16406" stop-color="#fab60d"/><stop offset="0.17188" stop-color="#fab60c"/><stop offset="0.17969" stop-color="#fab50c"/><stop offset="0.1875" stop-color="#fab40c"/><stop offset="0.19531" stop-color="#fab30c"/><stop offset="0.20313" stop-color="#fab30c"/><stop offset="0.21094" stop-color="#fab20c"/><stop offset="0.21875" stop-color="#fab10c"/><stop offset="0.22656" stop-color="#fab00c"/><stop offset="0.23438" stop-color="#fab00c"/><stop offset="0.24219" stop-color="#faaf0c"/><stop offset="0.25" stop-color="#faae0c"/><stop offset="0.25781" stop-color="#faad0c"/><stop offset="0.26563" stop-color="#faad0c"/><stop offset="0.27344" stop-color="#faac0c"/><stop offset="0.28125" stop-color="#faab0c"/><stop offset="0.28906" stop-color="#faaa0b"/><stop offset="0.29688" stop-color="#faaa0b"/><stop offset="0.30469" stop-color="#faa90b"/><stop offset="0.3125" stop-color="#faa80b"/><stop offset="0.32031" stop-color="#faa70b"/><stop offset="0.32813" stop-color="#faa70b"/><stop offset="0.33594" stop-color="#faa60b"/><stop offset="0.34375" stop-color="#faa50b"/><stop offset="0.35156" stop-color="#faa40b"/><stop offset="0.35938" stop-color="#faa40b"/><stop offset="0.36719" stop-color="#faa30b"/><stop offset="0.375" stop-color="#faa20b"/><stop offset="0.38281" stop-color="#fba10b"/><stop offset="0.39063" stop-color="#fba00b"/><stop offset="0.39844" stop-color="#fba00a"/><stop offset="0.40625" stop-color="#fb9f0a"/><stop offset="0.41406" stop-color="#fb9e0a"/><stop offset="0.42188" stop-color="#fb9d0a"/><stop offset="0.42969" stop-color="#fb9d0a"/><stop offset="0.4375" stop-color="#fb9c0a"/><stop offset="0.44531" stop-color="#fb9b0a"/><stop offset="0.45313" stop-color="#fb9a0a"/><stop offset="0.46094" stop-color="#fb9a0a"/><stop offset="0.46875" stop-color="#fb990a"/><stop offset="0.47656" stop-color="#fb980a"/><stop offset="0.48438" stop-color="#fb970a"/><stop offset="0.49219" stop-color="#fb970a"/><stop offset="0.5" stop-color="#fb960a"/><stop offset="0.50781" stop-color="#fb9509"/><stop offset="0.51563" stop-color="#fb9409"/><stop offset="0.52344" stop-color="#fb9409"/><stop offset="0.53125" stop-color="#fb9309"/><stop offset="0.53906" stop-color="#fb9209"/><stop offset="0.54688" stop-color="#fb9109"/><stop offset="0.55469" stop-color="#fb9109"/><stop offset="0.5625" stop-color="#fb9009"/><stop offset="0.57031" stop-color="#fb8f09"/><stop offset="0.57813" stop-color="#fb8e09"/><stop offset="0.58594" stop-color="#fb8e09"/><stop offset="0.59375" stop-color="#fb8d09"/><stop offset="0.60156" stop-color="#fb8c09"/><stop offset="0.60938" stop-color="#fb8b09"/><stop offset="0.61719" stop-color="#fb8b08"/><stop offset="0.625" stop-color="#fb8a08"/><stop offset="0.63281" stop-color="#fc8908"/><stop offset="0.64063" stop-color="#fc8808"/><stop offset="0.64844" stop-color="#fc8708"/><stop offset="0.65625" stop-color="#fc8708"/><stop offset="0.66406" stop-color="#fc8608"/><stop offset="0.67188" stop-color="#fc8508"/><stop offset="0.67969" stop-color="#fc8408"/><stop offset="0.6875" stop-color="#fc8408"/><stop offset="0.69531" stop-color="#fc8308"/><stop offset="0.70313" stop-color="#fc8208"/><stop offset="0.71094" stop-color="#fc8108"/><stop offset="0.71875" stop-color="#fc8108"/><stop offset="0.72656" stop-color="#fc8007"/><stop offset="0.73438" stop-color="#fc7f07"/><stop offset="0.74219" stop-color="#fc7e07"/><stop offset="0.75" stop-color="#fc7e07"/><stop offset="0.75781" stop-color="#fc7d07"/><stop offset="0.76563" stop-color="#fc7c07"/><stop offset="0.77344" stop-color="#fc7b07"/><stop offset="0.78125" stop-color="#fc7b07"/><stop offset="0.78906" stop-color="#fc7a07"/><stop offset="0.79688" stop-color="#fc7907"/><stop offset="0.80469" stop-color="#fc7807"/><stop offset="0.8125" stop-color="#fc7807"/><stop offset="0.82031" stop-color="#fc7707"/><stop offset="0.82813" stop-color="#fc7607"/><stop offset="0.83594" stop-color="#fc7507"/><stop offset="0.84375" stop-color="#fc7506"/><stop offset="0.85156" stop-color="#fc7406"/><stop offset="0.85938" stop-color="#fc7306"/><stop offset="0.86719" stop-color="#fc7206"/><stop offset="0.875" stop-color="#fc7206"/><stop offset="0.88281" stop-color="#fd7106"/><stop offset="0.89063" stop-color="#fd7006"/><stop offset="0.89844" stop-color="#fd6f06"/><stop offset="0.90625" stop-color="#fd6e06"/><stop offset="0.91406" stop-color="#fd6e06"/><stop offset="0.92188" stop-color="#fd6d06"/><stop offset="0.92969" stop-color="#fd6c06"/><stop offset="0.9375" stop-color="#fd6b06"/><stop offset="0.94531" stop-color="#fd6b06"/><stop offset="0.95313" stop-color="#fd6a05"/><stop offset="0.96094" stop-color="#fd6905"/><stop offset="0.96875" stop-color="#fd6805"/><stop offset="0.97656" stop-color="#fd6805"/><stop offset="0.98438" stop-color="#fd6705"/><stop offset="0.99219" stop-color="#fd6605"/><stop offset="1" stop-color="#fd6505"/></linearGradient><clipPath id="clip-path-2" transform="translate(2.87891 108.85938)"><rect x="474" y="35" width="73" height="42" style="fill:none"/></clipPath><clipPath id="clip-path-3" transform="translate(2.87891 108.85938)"><path d="M543.77344,35.03906q-27.89649,0-55.78906.00391c-3.76563,0-7.53907.01953-11.3086,0-.96875-.00781-1.418.22266-1.5664,1.35547A35.06552,35.06552,0,0,0,477.35547,53.957a35.52746,35.52746,0,0,0,38.94531,22.34766c14.10938-2.35938,23.71875-10.67188,28.53125-24.25a34.5587,34.5587,0,0,0,1.31641-17.01563Z" style="fill:none"/></clipPath><clipPath id="clip-path-4" transform="translate(2.87891 108.85938)"><path d="M543.77344,35.03906q-27.89649,0-55.78906.00391c-3.76563,0-7.53907.01953-11.3086,0-.96875-.00781-1.418.22266-1.5664,1.35547A35.06552,35.06552,0,0,0,477.35547,53.957a35.52746,35.52746,0,0,0,38.94531,22.34766c14.10938-2.35938,23.71875-10.67188,28.53125-24.25a34.5587,34.5587,0,0,0,1.31641-17.01563" style="fill:none"/></clipPath><linearGradient id="linear-gradient-2" x1="40.93412" y1="325.72725" x2="42.2141" y2="325.72725" gradientTransform="matrix(34.8705, 49.8003, 49.8003, -34.8705, -17160.34904, 9344.93884)" gradientUnits="userSpaceOnUse"><stop offset="0" stop-color="#f9c60e"/><stop offset="0.01563" stop-color="#f9c60e"/><stop offset="0.02344" stop-color="#f9c50e"/><stop offset="0.03125" stop-color="#f9c40e"/><stop offset="0.03906" stop-color="#f9c30e"/><stop offset="0.04688" stop-color="#f9c20e"/><stop offset="0.05469" stop-color="#f9c10e"/><stop offset="0.0625" stop-color="#f9c00d"/><stop offset="0.07031" stop-color="#f9bf0d"/><stop offset="0.07813" stop-color="#f9be0d"/><stop offset="0.08594" stop-color="#f9bd0d"/><stop offset="0.09375" stop-color="#f9bc0d"/><stop offset="0.10156" stop-color="#f9bb0d"/><stop offset="0.10938" stop-color="#f9ba0d"/><stop offset="0.11719" stop-color="#fab90d"/><stop offset="0.125" stop-color="#fab80d"/><stop offset="0.13281" stop-color="#fab70d"/><stop offset="0.14063" stop-color="#fab70d"/><stop offset="0.14844" stop-color="#fab60c"/><stop offset="0.15625" stop-color="#fab50c"/><stop offset="0.16406" stop-color="#fab40c"/><stop offset="0.17188" stop-color="#fab30c"/><stop offset="0.17969" stop-color="#fab20c"/><stop offset="0.1875" stop-color="#fab10c"/><stop offset="0.19531" stop-color="#fab00c"/><stop offset="0.20313" stop-color="#faaf0c"/><stop offset="0.21094" stop-color="#faae0c"/><stop offset="0.21875" stop-color="#faad0c"/><stop offset="0.22656" stop-color="#faac0c"/><stop offset="0.23438" stop-color="#faab0b"/><stop offset="0.24219" stop-color="#faaa0b"/><stop offset="0.25" stop-color="#faa90b"/><stop offset="0.25781" stop-color="#faa80b"/><stop offset="0.26563" stop-color="#faa70b"/><stop offset="0.27344" stop-color="#faa60b"/><stop offset="0.28125" stop-color="#faa50b"/><stop offset="0.28906" stop-color="#faa40b"/><stop offset="0.29688" stop-color="#faa30b"/><stop offset="0.30469" stop-color="#faa20b"/><stop offset="0.3125" stop-color="#fba10b"/><stop offset="0.32031" stop-color="#fba00a"/><stop offset="0.32813" stop-color="#fb9f0a"/><stop offset="0.33594" stop-color="#fb9e0a"/><stop offset="0.34375" stop-color="#fb9d0a"/><stop offset="0.35156" stop-color="#fb9c0a"/><stop offset="0.35938" stop-color="#fb9b0a"/><stop offset="0.36719" stop-color="#fb9a0a"/><stop offset="0.375" stop-color="#fb990a"/><stop offset="0.38281" stop-color="#fb980a"/><stop offset="0.39063" stop-color="#fb970a"/><stop offset="0.39844" stop-color="#fb970a"/><stop offset="0.40625" stop-color="#fb960a"/><stop offset="0.41406" stop-color="#fb9509"/><stop offset="0.42188" stop-color="#fb9409"/><stop offset="0.42969" stop-color="#fb9309"/><stop offset="0.4375" stop-color="#fb9209"/><stop offset="0.44531" stop-color="#fb9109"/><stop offset="0.45313" stop-color="#fb9009"/><stop offset="0.46094" stop-color="#fb8f09"/><stop offset="0.46875" stop-color="#fb8e09"/><stop offset="0.47656" stop-color="#fb8d09"/><stop offset="0.48438" stop-color="#fb8c09"/><stop offset="0.49219" stop-color="#fb8b09"/><stop offset="0.5" stop-color="#fb8a08"/><stop offset="0.50781" stop-color="#fc8908"/><stop offset="0.51563" stop-color="#fc8808"/><stop offset="0.52344" stop-color="#fc8708"/><stop offset="0.53125" stop-color="#fc8608"/><stop offset="0.53906" stop-color="#fc8508"/><stop offset="0.54688" stop-color="#fc8408"/><stop offset="0.55469" stop-color="#fc8308"/><stop offset="0.5625" stop-color="#fc8208"/><stop offset="0.57031" stop-color="#fc8108"/><stop offset="0.57813" stop-color="#fc8008"/><stop offset="0.58594" stop-color="#fc7f07"/><stop offset="0.59375" stop-color="#fc7e07"/><stop offset="0.60156" stop-color="#fc7d07"/><stop offset="0.60938" stop-color="#fc7c07"/><stop offset="0.61719" stop-color="#fc7b07"/><stop offset="0.625" stop-color="#fc7a07"/><stop offset="0.63281" stop-color="#fc7907"/><stop offset="0.64063" stop-color="#fc7807"/><stop offset="0.64844" stop-color="#fc7707"/><stop offset="0.65625" stop-color="#fc7707"/><stop offset="0.66406" stop-color="#fc7607"/><stop offset="0.67188" stop-color="#fc7506"/><stop offset="0.67969" stop-color="#fc7406"/><stop offset="0.6875" stop-color="#fc7306"/><stop offset="0.69531" stop-color="#fc7206"/><stop offset="0.70313" stop-color="#fd7106"/><stop offset="0.71094" stop-color="#fd7006"/><stop offset="0.71875" stop-color="#fd6f06"/><stop offset="0.72656" stop-color="#fd6e06"/><stop offset="0.73438" stop-color="#fd6d06"/><stop offset="0.74219" stop-color="#fd6c06"/><stop offset="0.75" stop-color="#fd6b06"/><stop offset="0.75781" stop-color="#fd6a05"/><stop offset="0.76563" stop-color="#fd6905"/><stop offset="0.77344" stop-color="#fd6805"/><stop offset="0.78125" stop-color="#fd6705"/><stop offset="0.78906" stop-color="#fd6605"/><stop offset="0.79688" stop-color="#fd6505"/><stop offset="0.8125" stop-color="#fd6505"/><stop offset="0.875" stop-color="#fd6505"/><stop offset="1" stop-color="#fd6505"/></linearGradient><clipPath id="clip-path-5" transform="translate(2.87891 108.85938)"><path d="M502.60156,88.71094h16.29688v64.39844H502.60156ZM503,153.10938h15.89844v.10156H503Z" style="fill:none"/></clipPath><clipPath id="clip-path-6" transform="translate(2.87891 108.85938)"><path d="M502.63281,88.72266v64.34765c.69532.0586,1.19141.13282,1.69141.13282,4.78516.00781,9.56641.00781,14.52344.00781V88.72266Z" style="fill:none"/></clipPath><linearGradient id="linear-gradient-3" x1="40.90781" y1="325.89711" x2="41.90786" y2="325.89711" gradientTransform="matrix(35.6334, 50.8898, 50.8898, -35.6334, -17549.60235, 9626.55135)" xlink:href="#linear-gradient"/><clipPath id="clip-path-7" transform="translate(2.87891 108.85938)"><rect x="530" y="88" width="17" height="65.21094" style="fill:none"/></clipPath><clipPath id="clip-path-8" transform="translate(2.87891 108.85938)"><path d="M530.07813,88.69922v64.32031c9.582,1.22656,16.32421-4.66406,16.32812-14.082q.00587-24.0703-.00781-48.14062c0-.67579-.0586-1.35157-.09375-2.09766Z" style="fill:none"/></clipPath><clipPath id="clip-path-9" transform="translate(2.87891 108.85938)"><path d="M530.07813,88.69922v64.32031c9.582,1.22656,16.32421-4.66406,16.32812-14.082q.00587-24.0703-.00781-48.14062c0-.67579-.0586-1.35157-.09375-2.09766" style="fill:none"/></clipPath><linearGradient id="linear-gradient-4" x1="41.07947" y1="325.70845" x2="42.17097" y2="325.70845" gradientTransform="matrix(32.692, 46.689, 46.689, -32.692, -16029.56779, 8825.57537)" gradientUnits="userSpaceOnUse"><stop offset="0" stop-color="#f9c60e"/><stop offset="0.00781" stop-color="#f9c60e"/><stop offset="0.01563" stop-color="#f9c50e"/><stop offset="0.02344" stop-color="#f9c40e"/><stop offset="0.03125" stop-color="#f9c30e"/><stop offset="0.03906" stop-color="#f9c20e"/><stop offset="0.04688" stop-color="#f9c10e"/><stop offset="0.05469" stop-color="#f9c10d"/><stop offset="0.0625" stop-color="#f9c00d"/><stop offset="0.07031" stop-color="#f9bf0d"/><stop offset="0.07813" stop-color="#f9be0d"/><stop offset="0.08594" stop-color="#f9bd0d"/><stop offset="0.09375" stop-color="#f9bc0d"/><stop offset="0.10156" stop-color="#f9bc0d"/><stop offset="0.10938" stop-color="#f9bb0d"/><stop offset="0.11719" stop-color="#f9ba0d"/><stop offset="0.125" stop-color="#fab90d"/><stop offset="0.13281" stop-color="#fab80d"/><stop offset="0.14063" stop-color="#fab80d"/><stop offset="0.14844" stop-color="#fab70d"/><stop offset="0.15625" stop-color="#fab60d"/><stop offset="0.16406" stop-color="#fab50c"/><stop offset="0.17188" stop-color="#fab40c"/><stop offset="0.17969" stop-color="#fab30c"/><stop offset="0.1875" stop-color="#fab30c"/><stop offset="0.19531" stop-color="#fab20c"/><stop offset="0.20313" stop-color="#fab10c"/><stop offset="0.21094" stop-color="#fab00c"/><stop offset="0.21875" stop-color="#faaf0c"/><stop offset="0.22656" stop-color="#faae0c"/><stop offset="0.23438" stop-color="#faae0c"/><stop offset="0.24219" stop-color="#faad0c"/><stop offset="0.25" stop-color="#faac0c"/><stop offset="0.25781" stop-color="#faab0c"/><stop offset="0.26563" stop-color="#faaa0b"/><stop offset="0.27344" stop-color="#faa90b"/><stop offset="0.28125" stop-color="#faa90b"/><stop offset="0.28906" stop-color="#faa80b"/><stop offset="0.29688" stop-color="#faa70b"/><stop offset="0.30469" stop-color="#faa60b"/><stop offset="0.3125" stop-color="#faa50b"/><stop offset="0.32031" stop-color="#faa40b"/><stop offset="0.32813" stop-color="#faa40b"/><stop offset="0.33594" stop-color="#faa30b"/><stop offset="0.34375" stop-color="#faa20b"/><stop offset="0.35156" stop-color="#fba10b"/><stop offset="0.35938" stop-color="#fba00b"/><stop offset="0.36719" stop-color="#fba00a"/><stop offset="0.375" stop-color="#fb9f0a"/><stop offset="0.38281" stop-color="#fb9e0a"/><stop offset="0.39063" stop-color="#fb9d0a"/><stop offset="0.39844" stop-color="#fb9c0a"/><stop offset="0.40625" stop-color="#fb9b0a"/><stop offset="0.41406" stop-color="#fb9b0a"/><stop offset="0.42188" stop-color="#fb9a0a"/><stop offset="0.42969" stop-color="#fb990a"/><stop offset="0.4375" stop-color="#fb980a"/><stop offset="0.44531" stop-color="#fb970a"/><stop offset="0.45313" stop-color="#fb960a"/><stop offset="0.46094" stop-color="#fb960a"/><stop offset="0.46875" stop-color="#fb9509"/><stop offset="0.47656" stop-color="#fb9409"/><stop offset="0.48438" stop-color="#fb9309"/><stop offset="0.49219" stop-color="#fb9209"/><stop offset="0.5" stop-color="#fb9109"/><stop offset="0.50781" stop-color="#fb9109"/><stop offset="0.51563" stop-color="#fb9009"/><stop offset="0.52344" stop-color="#fb8f09"/><stop offset="0.53125" stop-color="#fb8e09"/><stop offset="0.53906" stop-color="#fb8d09"/><stop offset="0.54688" stop-color="#fb8d09"/><stop offset="0.55469" stop-color="#fb8c09"/><stop offset="0.5625" stop-color="#fb8b09"/><stop offset="0.57031" stop-color="#fb8a08"/><stop offset="0.57813" stop-color="#fc8908"/><stop offset="0.58594" stop-color="#fc8808"/><stop offset="0.59375" stop-color="#fc8808"/><stop offset="0.60156" stop-color="#fc8708"/><stop offset="0.60938" stop-color="#fc8608"/><stop offset="0.61719" stop-color="#fc8508"/><stop offset="0.625" stop-color="#fc8408"/><stop offset="0.63281" stop-color="#fc8308"/><stop offset="0.64063" stop-color="#fc8308"/><stop offset="0.64844" stop-color="#fc8208"/><stop offset="0.65625" stop-color="#fc8108"/><stop offset="0.66406" stop-color="#fc8008"/><stop offset="0.67188" stop-color="#fc7f07"/><stop offset="0.67969" stop-color="#fc7e07"/><stop offset="0.6875" stop-color="#fc7e07"/><stop offset="0.69531" stop-color="#fc7d07"/><stop offset="0.70313" stop-color="#fc7c07"/><stop offset="0.71094" stop-color="#fc7b07"/><stop offset="0.71875" stop-color="#fc7a07"/><stop offset="0.72656" stop-color="#fc7907"/><stop offset="0.73438" stop-color="#fc7907"/><stop offset="0.74219" stop-color="#fc7807"/><stop offset="0.75" stop-color="#fc7707"/><stop offset="0.75781" stop-color="#fc7607"/><stop offset="0.76563" stop-color="#fc7507"/><stop offset="0.77344" stop-color="#fc7506"/><stop offset="0.78125" stop-color="#fc7406"/><stop offset="0.78906" stop-color="#fc7306"/><stop offset="0.79688" stop-color="#fc7206"/><stop offset="0.80469" stop-color="#fc7106"/><stop offset="0.8125" stop-color="#fd7006"/><stop offset="0.82031" stop-color="#fd7006"/><stop offset="0.82813" stop-color="#fd6f06"/><stop offset="0.83594" stop-color="#fd6e06"/><stop offset="0.84375" stop-color="#fd6d06"/><stop offset="0.85156" stop-color="#fd6c06"/><stop offset="0.85938" stop-color="#fd6b06"/><stop offset="0.86719" stop-color="#fd6b06"/><stop offset="0.875" stop-color="#fd6a05"/><stop offset="0.88281" stop-color="#fd6905"/><stop offset="0.89063" stop-color="#fd6805"/><stop offset="0.89844" stop-color="#fd6705"/><stop offset="0.90625" stop-color="#fd6605"/><stop offset="0.91406" stop-color="#fd6605"/><stop offset="0.92188" stop-color="#fd6505"/><stop offset="0.9375" stop-color="#fd6505"/><stop offset="1" stop-color="#fd6505"/></linearGradient><clipPath id="clip-path-10" transform="translate(2.87891 108.85938)"><rect x="475" y="88" width="17" height="65.21094" style="fill:none"/></clipPath><clipPath id="clip-path-11" transform="translate(2.87891 108.85938)"><path d="M475.21094,88.72266c-.043.47265-.082.72265-.082.97265.0039,16.54688-.07032,33.09375.05078,49.64063.0625,9.14062,6.76953,14.78125,16.082,13.69531V88.72266Z" style="fill:none"/></clipPath><clipPath id="clip-path-12" transform="translate(2.87891 108.85938)"><path d="M475.21094,88.72266c-.043.47265-.082.72265-.082.97265.0039,16.54688-.07032,33.09375.05078,49.64063.0625,9.14062,6.76953,14.78125,16.082,13.69531V88.72266" style="fill:none"/></clipPath><linearGradient id="linear-gradient-5" x1="40.91384" y1="325.84686" x2="41.91769" y2="325.84686" gradientTransform="matrix(35.4947, 50.6917, 50.6917, -35.4947, -17504.61293, 9587.36915)" gradientUnits="userSpaceOnUse"><stop offset="0" stop-color="#f9c60e"/><stop offset="0.00781" stop-color="#f9c60e"/><stop offset="0.01563" stop-color="#f9c50e"/><stop offset="0.02344" stop-color="#f9c40e"/><stop offset="0.03125" stop-color="#f9c30e"/><stop offset="0.03906" stop-color="#f9c30e"/><stop offset="0.04688" stop-color="#f9c20e"/><stop offset="0.05469" stop-color="#f9c10e"/><stop offset="0.0625" stop-color="#f9c00d"/><stop offset="0.07031" stop-color="#f9c00d"/><stop offset="0.07813" stop-color="#f9bf0d"/><stop offset="0.08594" stop-color="#f9be0d"/><stop offset="0.09375" stop-color="#f9bd0d"/><stop offset="0.10156" stop-color="#f9bd0d"/><stop offset="0.10938" stop-color="#f9bc0d"/><stop offset="0.11719" stop-color="#f9bb0d"/><stop offset="0.125" stop-color="#f9ba0d"/><stop offset="0.13281" stop-color="#faba0d"/><stop offset="0.14063" stop-color="#fab90d"/><stop offset="0.14844" stop-color="#fab80d"/><stop offset="0.15625" stop-color="#fab70d"/><stop offset="0.16406" stop-color="#fab70d"/><stop offset="0.17188" stop-color="#fab60c"/><stop offset="0.17969" stop-color="#fab50c"/><stop offset="0.1875" stop-color="#fab40c"/><stop offset="0.19531" stop-color="#fab30c"/><stop offset="0.20313" stop-color="#fab30c"/><stop offset="0.21094" stop-color="#fab20c"/><stop offset="0.21875" stop-color="#fab10c"/><stop offset="0.22656" stop-color="#fab00c"/><stop offset="0.23438" stop-color="#fab00c"/><stop offset="0.24219" stop-color="#faaf0c"/><stop offset="0.25" stop-color="#faae0c"/><stop offset="0.25781" stop-color="#faad0c"/><stop offset="0.26563" stop-color="#faad0c"/><stop offset="0.27344" stop-color="#faac0c"/><stop offset="0.28125" stop-color="#faab0c"/><stop offset="0.28906" stop-color="#faaa0b"/><stop offset="0.29688" stop-color="#faaa0b"/><stop offset="0.30469" stop-color="#faa90b"/><stop offset="0.3125" stop-color="#faa80b"/><stop offset="0.32031" stop-color="#faa70b"/><stop offset="0.32813" stop-color="#faa70b"/><stop offset="0.33594" stop-color="#faa60b"/><stop offset="0.34375" stop-color="#faa50b"/><stop offset="0.35156" stop-color="#faa40b"/><stop offset="0.35938" stop-color="#faa40b"/><stop offset="0.36719" stop-color="#faa30b"/><stop offset="0.375" stop-color="#faa20b"/><stop offset="0.38281" stop-color="#fba10b"/><stop offset="0.39063" stop-color="#fba00b"/><stop offset="0.39844" stop-color="#fba00a"/><stop offset="0.40625" stop-color="#fb9f0a"/><stop offset="0.41406" stop-color="#fb9e0a"/><stop offset="0.42188" stop-color="#fb9d0a"/><stop offset="0.42969" stop-color="#fb9d0a"/><stop offset="0.4375" stop-color="#fb9c0a"/><stop offset="0.44531" stop-color="#fb9b0a"/><stop offset="0.45313" stop-color="#fb9a0a"/><stop offset="0.46094" stop-color="#fb9a0a"/><stop offset="0.46875" stop-color="#fb990a"/><stop offset="0.47656" stop-color="#fb980a"/><stop offset="0.48438" stop-color="#fb970a"/><stop offset="0.49219" stop-color="#fb970a"/><stop offset="0.5" stop-color="#fb960a"/><stop offset="0.50781" stop-color="#fb9509"/><stop offset="0.51563" stop-color="#fb9409"/><stop offset="0.52344" stop-color="#fb9409"/><stop offset="0.53125" stop-color="#fb9309"/><stop offset="0.53906" stop-color="#fb9209"/><stop offset="0.54688" stop-color="#fb9109"/><stop offset="0.55469" stop-color="#fb9109"/><stop offset="0.5625" stop-color="#fb9009"/><stop offset="0.57031" stop-color="#fb8f09"/><stop offset="0.57813" stop-color="#fb8e09"/><stop offset="0.58594" stop-color="#fb8d09"/><stop offset="0.59375" stop-color="#fb8d09"/><stop offset="0.60156" stop-color="#fb8c09"/><stop offset="0.60938" stop-color="#fb8b09"/><stop offset="0.61719" stop-color="#fb8a08"/><stop offset="0.625" stop-color="#fb8a08"/><stop offset="0.63281" stop-color="#fc8908"/><stop offset="0.64063" stop-color="#fc8808"/><stop offset="0.64844" stop-color="#fc8708"/><stop offset="0.65625" stop-color="#fc8708"/><stop offset="0.66406" stop-color="#fc8608"/><stop offset="0.67188" stop-color="#fc8508"/><stop offset="0.67969" stop-color="#fc8408"/><stop offset="0.6875" stop-color="#fc8408"/><stop offset="0.69531" stop-color="#fc8308"/><stop offset="0.70313" stop-color="#fc8208"/><stop offset="0.71094" stop-color="#fc8108"/><stop offset="0.71875" stop-color="#fc8108"/><stop offset="0.72656" stop-color="#fc8007"/><stop offset="0.73438" stop-color="#fc7f07"/><stop offset="0.74219" stop-color="#fc7e07"/><stop offset="0.75" stop-color="#fc7d07"/><stop offset="0.75781" stop-color="#fc7d07"/><stop offset="0.76563" stop-color="#fc7c07"/><stop offset="0.77344" stop-color="#fc7b07"/><stop offset="0.78125" stop-color="#fc7a07"/><stop offset="0.78906" stop-color="#fc7a07"/><stop offset="0.79688" stop-color="#fc7907"/><stop offset="0.80469" stop-color="#fc7807"/><stop offset="0.8125" stop-color="#fc7707"/><stop offset="0.82031" stop-color="#fc7707"/><stop offset="0.82813" stop-color="#fc7607"/><stop offset="0.83594" stop-color="#fc7506"/><stop offset="0.84375" stop-color="#fc7406"/><stop offset="0.85156" stop-color="#fc7406"/><stop offset="0.85938" stop-color="#fc7306"/><stop offset="0.86719" stop-color="#fc7206"/><stop offset="0.875" stop-color="#fc7106"/><stop offset="0.88281" stop-color="#fd7106"/><stop offset="0.89063" stop-color="#fd7006"/><stop offset="0.89844" stop-color="#fd6f06"/><stop offset="0.90625" stop-color="#fd6e06"/><stop offset="0.91406" stop-color="#fd6e06"/><stop offset="0.92188" stop-color="#fd6d06"/><stop offset="0.92969" stop-color="#fd6c06"/><stop offset="0.9375" stop-color="#fd6b06"/><stop offset="0.94531" stop-color="#fd6a06"/><stop offset="0.95313" stop-color="#fd6a05"/><stop offset="0.96094" stop-color="#fd6905"/><stop offset="0.96875" stop-color="#fd6805"/><stop offset="0.97656" stop-color="#fd6705"/><stop offset="0.98438" stop-color="#fd6705"/><stop offset="0.99219" stop-color="#fd6605"/><stop offset="1" stop-color="#fd6505"/></linearGradient></defs><title>NBE</title><g id="surface1"><path d="M120.23828,64.27344c-.25-1.32422-1.65234-2.6836-2.82031-2.55078a1.856,1.856,0,0,0-1.25,1.18359c-.22656,1.05859,1.35547,2.94531,2.26953,2.71875.67188-.17187,1.20313-.88281,1.80078-1.35156m-42.0664,1.46094a39.07555,39.07555,0,0,0,15.19531-4.78125,11.04513,11.04513,0,0,0,2.94922-2.5,2.37951,2.37951,0,0,0,.17578-2.13282C94.25,51.97266,87.74609,50.043,83.52344,52.47266a23.8022,23.8022,0,0,0-8.92188,9.37109c-.92578,1.66406-.49218,2.75,1.3086,3.39844a16.525,16.525,0,0,0,2.26172.49219M69.293,60.39453c2.80078-3.41015,5.23047-6.86328,8.168-9.80859,3.5625-3.57031,7.8789-5.9336,13.21094-5.60938A13.76491,13.76491,0,0,1,99.293,48.55469a7.93277,7.93277,0,0,1,2.39062,8.65234c-.21484.76172-.42187,1.53125-.57812,2.3086-.332,1.66406.01172,2.02343,1.73437,1.875a5.13433,5.13433,0,0,0,4.47266-5.19922,103.9898,103.9898,0,0,0-.15234-10.52735,186.89892,186.89892,0,0,0-4.6836-29.85937,2.22234,2.22234,0,0,1,.08985-1.42969c.8789-1.64844,1.85547-3.25,2.80078-4.86328.4375-.74609,1.07812-1.02734,1.57422-.19922,2.5625,4.26172,5.05859,8.5625,7.76953,13.17578a14.33718,14.33718,0,0,1-1.76563.25c-2.26953,0-3.19922,1.01172-2.94531,3.23828.35547,3.15235.82422,6.29688,1.02344,9.46094.3789,5.99609.625,12,.87109,18.00391.09375,2.38281.60938,2.84375,2.85938,1.85937,2.28125-1,4.58593-1.26562,6.6875.02344a10.31091,10.31091,0,0,1,3.65234,3.58984c2.48047,4.63672.77734,10.375-3.457,12.582a6.83626,6.83626,0,0,1-8.96094-1.90625,11.78617,11.78617,0,0,1-1.03125-1.55468c-1.98047-3.5-2.78906-3.71094-6.62109-2.23828a84.04486,84.04486,0,0,1-9.94922,3.42578,137.4605,137.4605,0,0,1-14.16406,2.72656,17.1103,17.1103,0,0,1-11.94922-2.87891c-.73047.60938-1.44922,1.21485-2.4336,2.03907a10.21574,10.21574,0,0,1-.64062-3.1875,1.76024,1.76024,0,0,0-.97656-2.03125c-3.33594-2.14844-5.65235-2.25782-8.6836.293-4.63672,3.90625-9.0664,8.0625-13.60547,12.08594-1.60937,1.42969-3.21875,2.8711-4.94921,4.14453a11.601,11.601,0,0,1-8.582,1.94922c-4.082-.51172-7.02734-5.23047-6.07031-9.89453a49.68421,49.68421,0,0,1,1.72266-5.49609c.23047-.6875.53515-1.35157.82812-2.082a72.23847,72.23847,0,0,1-7.8789-1.26954,29.017,29.017,0,0,1-7.04688-2.83984C5.27344,59.62109,2.37109,54.97656,3.125,48.51172A26.748,26.748,0,0,1,8.67578,34.65625a8.55033,8.55033,0,0,1,2.4336-1.48047,9.54691,9.54691,0,0,1-.04688,2.57031C10.48828,37.64063,9.67188,39.457,9.03906,41.332a34.12953,34.12953,0,0,0-1.57031,5.35938c-1.09766,6.74609,3.60156,10.8789,8.92188,12.97265,4,1.57422,8.11328,1.32032,12.21875.34375a33.17983,33.17983,0,0,0,15.9375-8.28125,13.21593,13.21593,0,0,0,1.80859-3.09765,30.01649,30.01649,0,0,0-3.39063-.957C41.1875,47.375,39.32422,47.457,37.59766,47c-4.3125-1.13672-5.89844-3.80859-5.11719-8.17969A20.5797,20.5797,0,0,1,49.5,22.03906c2.45313-.39843,3.90234.69532,3.85938,3.1836a17.96854,17.96854,0,0,1-.74219,4.84375,2.96729,2.96729,0,0,1-1.90235,1.48437,1.49367,1.49367,0,0,1-2.0039-1.28906c-.1875-1.07031-.99219-1.207-1.81641-.918a16.24586,16.24586,0,0,0-9.49219,8.23438c-.74218,1.46875-.10546,2.48437,1.69141,2.67968,2.125.23047,4.28516.1836,6.42969.25782.28515.01171.57031.03125.84765.0664,5.86329.75391,8.21485,5.39844,5.25391,10.50391A16.77209,16.77209,0,0,1,49.04688,54.457c-5.86329,5.92578-12.668,10.2461-20.95313,11.9375-.875.17969-1.51562.52344-1.47266,1.51172a36.20283,36.20283,0,0,0,.42969,6.39844c.75,3.2539,3.42578,4.76562,6.51563,3.47656a23.78672,23.78672,0,0,0,6.61718-4.293c2.72657-2.46094,5.00391-5.41406,7.62891-8a50.13877,50.13877,0,0,1,6.79688-5.89453c5.25781-3.57812,9.59375-3.67578,14.0625.39063a3.40886,3.40886,0,0,0,.62109.41015" transform="translate(2.87891 108.85938)" style="fill:#107614"/><path d="M337.71875,9.50781c.21875,1.51953.47656,2.99219.64063,4.47266C340,28.85938,341.80859,43.72266,341.51953,58.74219a13.236,13.236,0,0,0,.60547,4.01172c1.418,4.66406,6.47266,6.5,10.28516,3.4375,2.24218-1.80078,3.85156-4.39063,5.72265-6.64063.28907-.34375.41016-.84375.73438-1.13281a1.61694,1.61694,0,0,1,1.16015-.47656,1.40818,1.40818,0,0,1,.78516.94531,10.26851,10.26851,0,0,1,.125,2.02734c.082,4.10157,2.15625,6.4961,6.23438,7.2461a20.37619,20.37619,0,0,0,14.65234-3c3.28125-2,6.33984-4.3711,9.5-6.57422.58594-.41016,1.18359-.8125,2.13672-1.46485a15.81912,15.81912,0,0,1-.01172,2.06641c-.60156,3.81641.96094,6.58594,4.03516,7.08984,3.76562.61719,6.77734-1.32031,7.17968-5.15625a31.83161,31.83161,0,0,0-.47656-7.7539c-1.5-10.543-3.09766-21.07031-4.67969-31.59766a14.00542,14.00542,0,0,0-.79687-3.64062c-1.707-3.793,1.16406-6.168,2.67578-8.91407.55078-1,1.26953-.0625,1.64453.55079,1.34375,2.23437,2.65234,4.48828,3.96484,6.74218.82813,1.418,1.66407,2.83594,2.44922,4.28125a12.67047,12.67047,0,0,1,.65235,1.77735,6.506,6.506,0,0,1-.9961.19531c-2.92187-.00781-3.52343.71484-3.25,3.67578,1.01563,11.00391,2.14844,22,2.918,33.02344a14.2446,14.2446,0,0,1-4.332,11.10156,8.40681,8.40681,0,0,1-8.51953,2.07813c-1.23047-.32032-2.28516-1.51172-3.27734-2.457a7.06863,7.06863,0,0,1-1.00782-1.94921c-.92187-1.8125-1.48047-1.83985-3.10547-.65235a54.99642,54.99642,0,0,1-8.00781,5.35156,32.85373,32.85373,0,0,1-8.73047,2.66407,12.84185,12.84185,0,0,1-12.90234-5.08985c-1.10156-1.39843-1.64453-1.39062-2.57422.26953a8.14868,8.14868,0,0,1-6.62109,4.44922c-5.13672.51563-8.77735-2.17968-9.8125-7.27343-.14844-.72266-.1836-1.46485-.33985-2.1836-.25781-1.23828-.91015-1.48047-1.92578-.71875a7.23261,7.23261,0,0,0-1.08984,1.07031c-6.582,7.52735-15.08985,10.69532-24.8711,11.0586a19.93831,19.93831,0,0,1-13.92968-4.41406c-3.76953-3.09766-5.48828-7.05469-4.42969-11.91016a77.3151,77.3151,0,0,1,2.41406-8.293,6.429,6.429,0,0,1,1.79688-2.625,2.21478,2.21478,0,0,1,2.05859-.14062,1.41136,1.41136,0,0,1,.30078,2.19921,21.82975,21.82975,0,0,0-2.05469,3.51172c-1.92968,4.28516-.99218,7.92969,2.70313,10.8711A18.99541,18.99541,0,0,0,310.57813,70.125c10.55078,1.14453,19.15625-2.50391,25.67968-10.85937a5.959,5.959,0,0,0,1.17578-3.53907A308.61242,308.61242,0,0,0,334.00781,16.625a4.65047,4.65047,0,0,1,.44141-2.53516c.73047-1.52734,1.66406-2.957,2.53516-4.41015.05468-.09375.30078-.07813.73437-.17188" transform="translate(2.87891 108.85938)" style="fill:#107614"/><path d="M237.20313,49.10938a18.74561,18.74561,0,0,0-.75-2.043c-.37891-.74219-1.16407-1.3125-1.67969-.42578a27.11414,27.11414,0,0,0-2.13281,5.0039c-.11329.32813.52343,1.125.98828,1.35547a1.56142,1.56142,0,0,0,1.48828-.293c.82031-1.17578,1.457-2.47656,2.08594-3.59765m1.78515,20.30468q1.13087-.5625,2.25391-1.125c-.457-.73047-.75-1.78125-1.41016-2.125a15.02447,15.02447,0,0,0-4.40625-1.47265c-1.33984-.21875-1.85156.76562-1.10937,1.9375a6.327,6.327,0,0,0,4.67187,2.78515m-3.293-34.61718c4.3086,3.32812,6.60938,14.34375,1.20313,23.332,1.23828.40234,2.5039.71875,3.69531,1.207a10.0758,10.0758,0,0,1,4.94531,13.98047c-1.28906,2.38281-3.82422,3.38672-7.0625,2.79687-5.6914-1.043-8.5664-4.01172-9.8789-10.19922-.60157-2.82812-1.26172-3.24218-3.96485-2.125a49.391,49.391,0,0,1-15.8789,3.457c-8.34375.51563-15.6836-1.83593-21.34766-8.35546a4.47054,4.47054,0,0,0-1.80469-1.48047,2.14229,2.14229,0,0,0-1.91406.57031c-.55469.77344-.11719,1.48437.89063,1.71875a8.28274,8.28274,0,0,1,1.44531.48828c2.1875.95313,3.36328,2.832,2.55859,5.05469a24.768,24.768,0,0,1-3.53125,6.85937c-6.1289,7.79688-20.73047,15.04688-34.26562,9.98828-6.37891-2.38281-9.47657-7.39453-10.707-13.625-1.09766-5.54687,1.36328-10.27734,4.55078-14.64453a1.36629,1.36629,0,0,1,.48047-.47656c.4414-.18359.91015-.29687,1.36718-.44141a3.87931,3.87931,0,0,1,.08594,1.39063c-.41016,1.23437-.98437,2.41016-1.418,3.63672a17.59465,17.59465,0,0,0-.99609,9.36328c1.2539,6.37109,5.96094,10.37891,13.1289,10.64062a35.11409,35.11409,0,0,0,23.79688-7.53906,16.11436,16.11436,0,0,0,2.293-2.26562c.98828-1.17578.76172-1.96485-.76172-2.28516a23.40858,23.40858,0,0,0-4.21875-.38281c-2.30859-.0625-4.61719-.01953-7.36328-.01953a56.79953,56.79953,0,0,1,1.26953-6.42188c.19531-.63281,1.35156-1.15234,2.168-1.375a12.15436,12.15436,0,0,0,8.89453-13.01172c-.75391-5.55859-2.168-11.05468-2.51563-16.625-.37109-5.84765.15235-11.7539.3711-17.63672.01562-.51562.668-1.00781,1.02344-1.51171a5.61782,5.61782,0,0,1,.85937,1.66015c1.1875,8.92969,2.27734,17.875,3.48047,26.80469q.69141,5.13281,1.75781,10.21484c1.40625,6.73438,6.28906,11.16407,13.41406,12.46485,4.8086.8789,9.4961-.01172,14.17579-.86328a71.97523,71.97523,0,0,0,8.23828-2.01954c3.668-1.125,5.64062-3.64453,6.51172-7.49218.99218-4.39844,2.63671-8.65235,4.03125-12.95313a13.01369,13.01369,0,0,1,.99218-1.8789" transform="translate(2.87891 108.85938)" style="fill:#107614"/><path d="M263.41406,70.07813a14.81768,14.81768,0,0,0,1.89844-.28125,4.061,4.061,0,0,0,1.92969-6.84375c-1.54688-1.59766-2.14844-1.707-3.7461-.1211a14.72123,14.72123,0,0,0-2.68359,3.64844c-1.24609,2.43359-.42578,3.59375,2.60156,3.59766M226.93359,15.793c4.72657,3.04687,9.10547,5.84375,13.45313,8.6875.72266.47266,1.23437,1.168.02734,1.75391-1.83593.88671-1.918,1.21093-.4414,2.64843q7.00781,6.82617,14.04687,13.625,4.95117,4.793,9.90625,9.582c.5625.54688,1.15235,1.06641,1.84375,1.71094,2.48828-2.375,4.89453-4.67578,7.30469-6.97656a10.46578,10.46578,0,0,1,1.36719-1.27344c3.19531-2.09765,3.99609-5.09765,3.418-8.67969-1.03516-6.42578-2.00391-12.86328-3.0625-19.28515-.31641-1.89844,1.17968-5.73438,3.043-7.05469.26563.5.5625.96094.76954,1.457,1.67578,4.02735,3.35156,8.05469,4.97656,12.10156a7.8955,7.8955,0,0,1,.25781,1.92188,11.79018,11.79018,0,0,1-1.75781-.49219c-1.01953-.46484-1.80078.01563-1.65235,1.24219.4375,3.65234.97266,7.28906,1.52735,11.375a28.00708,28.00708,0,0,0,2.5625-2.27734c4.73047-5.42969,9.46875-10.85157,14.10547-16.36329,2.41015-2.85937,4.61718-5.89062,6.92187-8.84375a3.94384,3.94384,0,0,1,.75-.91406,9.3764,9.3764,0,0,1,1.46485-.66406c.13671.50391.49218,1.07031.37109,1.50391a22.50441,22.50441,0,0,1-1.47656,4.14062c-3.28125,6.48438-7.88672,12.03906-12.64453,17.45313-3.36719,3.832-6.96875,7.457-10.375,11.25781a4.406,4.406,0,0,0-1.05079,2.63281c-.168,8.28125-.10156,16.56641-.375,24.83594a16.90761,16.90761,0,0,1-3.707,9.9414V49.55078c-.16015-.05859-.32422-.11328-.48828-.168-2.707,2.71875-5.42969,5.418-8.07812,8.19141-.20313.21094.03515,1.02344.27343,1.44141a15.0802,15.0802,0,0,1,1.53516,12.125,9.99629,9.99629,0,0,1-11.17969,7.07812A4.53952,4.53952,0,0,1,256.5,74.24219a14.50252,14.50252,0,0,1,3.74219-13.98047,8.15153,8.15153,0,0,1,.84375-.83984,9.95931,9.95931,0,0,1,1.01953-.61719c.06641-.25391.13672-.50781.207-.76563a35.84583,35.84583,0,0,1-3.168-2.54687q-15.334-15.35742-30.58594-30.80078a4.32871,4.32871,0,0,1-1.03125-2.332c-.28906-2.00782-.38281-4.04688-.59375-6.56641" transform="translate(2.87891 108.85938)" style="fill:#107614"/><path d="M134.72656,25.03906c-.61328.03907-1.08984.08985-1.57031.09766-2.14062.02734-3.05078,1.043-2.71875,3.27344.42188,2.85937.98828,5.69531,1.44922,8.54687a103.2208,103.2208,0,0,1-.53125,38.3711,17.95176,17.95176,0,0,1-1.71094,4.40625c-.32031.6289-1.16406.98437-1.77344,1.46875-.16015-.09766-.32421-.19532-.48828-.293,0-.64453-.01172-1.293.00391-1.9375.22656-8.78516.80859-17.57422.60547-26.34766-.26172-11.47656-2.52344-22.73047-4.97656-33.92578a4.53762,4.53762,0,0,1,.38671-2.66016,44.59668,44.59668,0,0,1,2.38282-4.11328c.51172-.85937,1.14062-.98437,1.67578-.07812q3.57422,6.07617,7.082,12.20312a3.69455,3.69455,0,0,1,.18359.98828" transform="translate(2.87891 108.85938)" style="fill:#107614"/><path d="M428.332,21.99609c-4.22656.418-4.55859.875-3.80469,5.03125,1.51563,8.3711,2.793,16.78516,2.66407,25.3086-.10547,7.07422-.41407,14.17187-2.332,21.05469a14.8509,14.8509,0,0,1-1.56641,3.55078c-.28906.48828-1.0625.6875-1.61328,1.01953a6.1618,6.1618,0,0,1-.4961-1.76172c.20313-8.89063.82032-17.793.60157-26.67188-.27735-11.40625-2.53907-22.59375-4.94532-33.73046a4.88571,4.88571,0,0,1,.40625-2.82032,40.43962,40.43962,0,0,1,2.3711-4.12109c.45312-.75781,1.05859-.96484,1.55859-.11328q3.61524,6.15234,7.14063,12.35156c.12109.21094.01562.543.01562.90234" transform="translate(2.87891 108.85938)" style="fill:#107614"/><path d="M176.76563,120.31641c2.30859-.11719,4.39843-.14453,6.46875-.35938,1.62109-.17187,2.29687-1.39844,2.33984-2.8789.043-1.4336-.625-2.72657-2.10547-2.86719-2.21484-.21485-4.46094-.0586-6.70312-.0586ZM176.75,131.47656c2.39453,0,4.60156.082,6.79688-.02343a2.911,2.911,0,0,0,2.8125-3.05079c.11718-1.95312-.76172-3.51953-2.48829-3.67968-2.33593-.21094-4.69921-.05078-7.12109-.05078ZM186.96875,121.75c4.25391,3.26172,5.19141,7.043,2.9375,10.94141a5.6272,5.6272,0,0,1-4.79687,3.07031c-3.91016.13672-7.82422.11719-11.73047.17187-.77735.01172-1.30078-.13671-1.293-1.10546.03515-8.22266.043-16.44141.0664-24.66016,0-.10156.09375-.19922.16016-.32422,4.05469,0,8.125-.10937,12.18359.03906a5.43368,5.43368,0,0,1,5.01954,3.98047,6.60966,6.60966,0,0,1-1.28516,6.98438,6.77754,6.77754,0,0,1-1.26172.90234" transform="translate(2.87891 108.85938)" style="fill:#107614"/><path d="M7.35156,119.82031v15.9961H3.23047V109.71484a27.92123,27.92123,0,0,1,3.66406.05469c.46485.0625.98047.66016,1.24219,1.14453,2.46484,4.58594,4.88281,9.19922,7.32031,13.80078a4.22328,4.22328,0,0,0,1.33985,1.625V109.80078h4.168v26.11328a30.68235,30.68235,0,0,1-3.89843-.05859c-.46485-.05859-.98047-.68359-1.2461-1.17188C13.418,130.25391,11.07422,125.793,8.707,121.34375c-.28906-.543-.59375-1.07422-.89453-1.60937-.15234.02734-.30469.05859-.46094.08593" transform="translate(2.87891 108.85938)" style="fill:#107614"/><path d="M103.24219,119.71875v12.89063c0,3.668,0,3.668-3.97656,3.168v-26.0664c.98437,0,1.9375.07031,2.875-.01563a1.79891,1.79891,0,0,1,1.97265,1.17188c2.5625,4.92578,5.17188,9.82422,7.77344,14.72656.15625.29688.33984.582.75391,1.293V109.85156h4.26953c.03515.51172.09765,1.01172.10156,1.50782.00391,7.59765-.03516,15.19921.03516,22.79687.01171,1.44922-.47657,1.74219-1.83594,1.832a3.59457,3.59457,0,0,1-4.06641-2.33984c-2.05078-4.28906-4.418-8.42578-6.66015-12.6211-.26172-.48437-.5586-.95312-.83594-1.42578-.13672.03907-.26953.07813-.40625.11719" transform="translate(2.87891 108.85938)" style="fill:#107614"/><path d="M361.87891,126.26172h-5.28125v-4.22656h9.67968a61.18893,61.18893,0,0,0,.0625,7.23437c.34766,2.90625-1.07421,4.36719-3.418,5.5a13.201,13.201,0,0,1-9.55469,1.19141c-4.80469-1.33594-6.9961-4.95313-7.89453-9.50781a17.83373,17.83373,0,0,1,1.25781-11.28907c2.98828-6.36328,10.03516-6.96875,14.64844-4.82031,2.64062,1.23047,4,3.53125,4.41015,6.52734-.67968.19141-1.27734.32422-1.85156.52735-1.55859.55859-2.48437.332-3.42578-1.36328-1.9375-3.48438-7.457-3.10938-9.40625.668a12.502,12.502,0,0,0,.23047,12.38671c2.332,4.07032,7.207,3.28125,9.83594.80469.66406-.625.457-2.17969.707-3.63281" transform="translate(2.87891 108.85938)" style="fill:#107614"/><path d="M231.45313,109.80078h4.125c.04687.57031.125,1.0625.125,1.55469.00781,7.59766-.02735,15.19922.03515,22.79687.01172,1.42969-.47265,1.73438-1.83984,1.83985a3.613,3.613,0,0,1-4.04688-2.39453c-2.02343-4.17578-4.30078-8.23047-6.48047-12.332a4.41442,4.41442,0,0,0-1.32031-1.62891v15.85547c-.28125.207-.36719.32031-.46094.332-3.71875.47656-3.71875.47656-3.71875-3.16406V109.71484a28.27534,28.27534,0,0,1,3.72657.05469,2.18367,2.18367,0,0,1,1.23437,1.1211c2.46485,4.58984,4.88281,9.20312,7.31641,13.80859a5.0372,5.0372,0,0,0,1.30469,1.71484" transform="translate(2.87891 108.85938)" style="fill:#107614"/><path d="M90.96875,122.82031a36.64383,36.64383,0,0,0-1.14062-5.34375,5.374,5.374,0,0,0-5.33985-3.7539,5.4465,5.4465,0,0,0-5.375,3.73047,14.18629,14.18629,0,0,0,.082,10.78515,5.44208,5.44208,0,0,0,5.4336,3.63672,5.37174,5.37174,0,0,0,5.15625-3.76562,36.65858,36.65858,0,0,0,1.18359-5.28907m4.69141.53907a50.19872,50.19872,0,0,1-1.707,6.85937,9.71723,9.71723,0,0,1-9.668,6.19141c-4.50782-.16016-7.83594-2.26563-9.50782-6.48438a19.402,19.402,0,0,1-.25-13.49609c1.64844-4.9961,5.11719-7.207,10.69141-7.10156a9.9168,9.9168,0,0,1,9.33984,7.58984,62.457,62.457,0,0,1,1.10157,6.44141" transform="translate(2.87891 108.85938)" style="fill:#107614"/><path d="M288.76953,122.73438a43.66937,43.66937,0,0,0-1.30469-5.44922,5.2482,5.2482,0,0,0-5.10937-3.56641,5.31351,5.31351,0,0,0-5.30078,3.30859,13.58614,13.58614,0,0,0,.0625,11.52735,5.59565,5.59565,0,0,0,10.34765-.34375,42.31389,42.31389,0,0,0,1.30469-5.47656m-17.58594-.0625a18.8303,18.8303,0,0,1,2.11329-8.52344c3.51171-6.44922,14.05078-6.61328,17.63281-.1836a17.69825,17.69825,0,0,1,.25781,17.26563c-2.0625,4.10156-6.04687,5.6875-10.957,4.96094a10.21155,10.21155,0,0,1-8.38672-8.3125c-.37109-1.70313-.44922-3.46875-.66016-5.207" transform="translate(2.87891 108.85938)" style="fill:#107614"/><path d="M260.97266,135.92578c-1.90235,0-3.4336.09766-4.94532-.05078a2.22938,2.22938,0,0,1-1.43359-1.10937c-1.61719-3.05079-3.13281-6.15235-4.69141-9.23438-.27734-.543-.59375-1.06641-.85937-1.543-4.88281,2.73828-3.86719,7.42188-3.85547,11.92969-1.32812,0-2.44141.01562-3.55469-.00391-1.17968-.01562-.92968-.92968-.93359-1.61328-.01563-6.57422-.00781-13.14844-.01172-19.72656V109.793h4.44531v10.84375c.22266.15625.44141.3125.66016.46484a7.53884,7.53884,0,0,1,.66406-1.30078c2.30078-2.94922,4.66406-5.85156,6.92188-8.832a2.78966,2.78966,0,0,1,2.707-1.28125c1.32812.09766,2.67187.01953,4.41015.01953-2.36718,2.85156-4.47656,5.41016-6.60546,7.95313-1.86719,2.22265-1.87891,2.21875-.47657,4.73047,2.44922,4.39062,4.89844,8.77734,7.5586,13.53515" transform="translate(2.87891 108.85938)" style="fill:#107614"/><path d="M341.44141,109.83984v4.21094h-7.44922c-5.44141,0-5.44141,0-4.51953,5.84375h11.15625v4.3711h-6.71485c-4.64453,0-4.64453,0-4.64843,4.72656a8.93759,8.93759,0,0,1-.00782,1.02344c-.14453,1.16406.30469,1.60156,1.51953,1.57031,3.00391-.07031,6.01172-.02344,9.01954-.02344h2.13671a33.63869,33.63869,0,0,1-.04687,3.47266,1.30243,1.30243,0,0,1-.93359.84765c-5.26954.05469-10.53907.03516-15.9336.03516V109.83984" transform="translate(2.87891 108.85938)" style="fill:#107614"/><path d="M206.9375,125.55859c-1.02734-3.21484-1.99219-6.23828-2.957-9.26562l-.33984.01172c-.94922,3.03515-1.89454,6.07422-2.88672,9.2539Zm-.65625-15.84765c2.99219,8.6914,5.95313,17.28906,9.01953,26.19531-1.55469,0-2.88281.05078-4.19922-.03516-.33593-.02343-.6875-.44531-.95312-.75a2.50647,2.50647,0,0,1-.29688-.78906c-1.46875-4.3789-1.46875-4.3789-6.1875-4.3789-4.30859,0-4.36718-.01563-5.51953,4-.42578,1.48046-1.03906,2.26562-2.68359,2.0039a19.4143,19.4143,0,0,0-2.76953-.02344c.80468-2.41015,1.52343-4.59765,2.2539-6.77343,1.96094-5.84375,3.98047-11.67188,5.85938-17.543.47265-1.48438,1.12109-2.17969,2.71875-1.92969a19.3083,19.3083,0,0,0,2.75781.02344" transform="translate(2.87891 108.85938)" style="fill:#107614"/><path d="M31.70313,125.51953H37.875c-1.01172-3.14453-1.96094-6.082-2.90625-9.02344-.15625.01172-.30859.01954-.46484.02735-.92188,2.96484-1.84375,5.92578-2.80078,8.99609M46.11719,135.918c-1.45313,0-2.75.07812-4.02735-.04688a1.75693,1.75693,0,0,1-1.09375-1.0039c-.52343-1.25-.8164-2.59766-1.375-3.82813a2.0106,2.0106,0,0,0-1.39062-1.03515,65.89624,65.89624,0,0,0-6.80469.0039,2.20039,2.20039,0,0,0-1.47265,1.15235,17.95023,17.95023,0,0,0-1.09375,3.38672,1.56441,1.56441,0,0,1-1.89844,1.40625c-1-.09375-2.01953-.01954-3.26953-.01954.36718-1.22656.64453-2.24218.97656-3.23828,2.39453-7.14062,4.82422-14.26953,7.17187-21.42578.3711-1.13281.8125-1.6289,2.09375-1.59375,3.22266.08594,3.22657.01172,4.28125,3.05469q3.668,10.59375,7.32422,21.19141c.20313.582.34766,1.18359.57813,1.99609" transform="translate(2.87891 108.85938)" style="fill:#107614"/><path d="M130.86719,116.34766c-.13281.02734-.26953.05859-.40625.08593-.9336,3-1.86719,6-2.84766,9.15235h6.19531c-1.01171-3.1836-1.97656-6.21094-2.9414-9.23828m11.10547,19.30859a2.16973,2.16973,0,0,1-.35938.1875c-4.2539.48828-4.375.52344-5.5-3.55469-.52344-1.89453-1.35937-2.57812-3.28906-2.37109a29.66473,29.66473,0,0,1-5.10156.00781,1.65854,1.65854,0,0,0-2,1.51953c-.23438,1.04688-.67188,2.04688-.90235,3.09375a1.57343,1.57343,0,0,1-1.918,1.41016c-1.0039-.07422-2.02343-.01563-3.30859-.01563.36719-1.15234.66016-2.10156.97266-3.03906,2.39062-7.13672,4.82422-14.25781,7.14453-21.418a2.119,2.119,0,0,1,2.47656-1.80078c2.92969.11719,2.94922.02735,3.918,2.82422q3.7207,10.752,7.41406,21.51563c.1836.52343.29688,1.07031.45313,1.64062" transform="translate(2.87891 108.85938)" style="fill:#107614"/><path d="M396.00781,117.82813c0,3.89062,0,3.89843,3.90235,3.75a3.44168,3.44168,0,0,0,1.65625-.26172,6.06935,6.06935,0,0,0,2.27734-2.02344c1.12109-2.40625-.293-4.70313-2.93359-5.11719-4.64063-.73437-4.89844-.53906-4.90235,3.65235m.00391,18.01953h-4.24609V109.93359c3.90625,0,7.74609-.0664,11.57812.03125a5.01586,5.01586,0,0,1,4.39063,3.07813,9.958,9.958,0,0,1-.21485,9.76172,6.32436,6.32436,0,0,1-5.543,3.09375,42.74233,42.74233,0,0,1-4.418.05078c-1.17187-.05469-1.60546.332-1.57031,1.53906.07422,2.71094.02344,5.42969.02344,8.35938" transform="translate(2.87891 108.85938)" style="fill:#107614"/><path d="M392.293,9.54688c-1.03125,1.89062-1.81641,3.50781-2.78125,5.00781a3.53783,3.53783,0,0,1-1.67969,1.01953A199.62165,199.62165,0,0,0,352.21094,33.418c-1.33594.85547-2.57422,1.87109-3.94531,2.65234a2.25319,2.25319,0,0,1-1.94532.17578,2.179,2.179,0,0,1-.48437-1.91406,7.55636,7.55636,0,0,1,3.32812-4.71094,189.87132,189.87132,0,0,1,40.0586-19.13281c.89062-.29687,1.79687-.55078,3.07031-.9414" transform="translate(2.87891 108.85938)" style="fill:#107614"/><path d="M305.01172,56.79688c1.32812.10156,2.66406.14843,3.98047.30859a16.47548,16.47548,0,0,0,9.74219-1.53906c.71093-.36719,1.17187-1.21485,1.75-1.83985a7.96193,7.96193,0,0,0-2.0586-1.25c-4.59375-1.10937-5.10156-1.74218-4.77734-6.51562a15.25934,15.25934,0,0,1,5.21094-10.70313,7.94832,7.94832,0,0,1,1.36718-.99609c2.57813-1.46094,3.58985-.89063,3.58985,2.00391,0,3.49609-.11719,3.66406-3.50391,4.76171-1.33594.4336-2.48828,1.10938-2.33594,2.69532.16407,1.66015,1.51563,2.09765,2.9336,2.28515a10.53466,10.53466,0,0,0,1.53125.01563c2.41015-.03516,3.5.9414,3.74609,3.35547.61719,6.13672-3.57422,11.01172-10.23437,11.86328a12.31888,12.31888,0,0,1-8.918-1.9336,26.73317,26.73317,0,0,1-2.25391-1.96093c.07422-.1836.15234-.36719.23047-.55078" transform="translate(2.87891 108.85938)" style="fill:#107614"/><path d="M301.28125,124.69531v11.11328h-4.42969V109.83594H312.0625v4.17969H301.41016v6.32031c2.61328,0,5.14843.08984,7.67578-.03516,1.57031-.082,1.83984.64453,1.6914,1.92188-.125,1.10547.58594,2.62109-1.625,2.5039-2.53125-.13281-5.07812-.03125-7.87109-.03125" transform="translate(2.87891 108.85938)" style="fill:#107614"/><path d="M378.17188,119.95313c1.49609-2.96094,2.97656-5.6875,4.2539-8.50782a2.54223,2.54223,0,0,1,2.98828-1.75781,26.01421,26.01421,0,0,0,3.10938.02344c-1.63281,3.01953-2.92969,5.92969-4.6836,8.52734a20.50567,20.50567,0,0,0-3.59765,14.41406,2.47505,2.47505,0,0,1,.0039.33985c0,3.12109,0,3.07812-3.1875,2.96094-1.05078-.03907-1.36718-.42579-1.34765-1.42579.05078-2.66015.08984-5.32812-.01563-7.98828a7.41808,7.41808,0,0,0-.76562-3.03515c-2.11328-4.07032-4.34375-8.07422-6.52344-12.10938-.26172-.48047-.48047-.98437-.82031-1.67969,1.62109,0,3.02734-.08984,4.41406.04688a2.05586,2.05586,0,0,1,1.29688,1.01172c1.375,2.53906,2.65625,5.125,3.98437,7.6914.22656.4375.50781.85547.89063,1.48829" transform="translate(2.87891 108.85938)" style="fill:#107614"/><path d="M164.49609,16.918c-.83984-.81641-1.48046-1.78516-1.8125-1.6875a2.41812,2.41812,0,0,0-1.53515,1.52734c-.08985.5625.65234,1.25782,1.03125,1.89453.65625-.49218,1.3125-.98046,2.3164-1.73437M139.02734,40.87109c8.55079-4.24609,16.48829-8.76953,22.082-16.50781-.69532-.73437-1.38282-1.39062-1.98829-2.10937a6.6756,6.6756,0,0,1,3.06641-10.96485c2.07031-.69922,4.34375.17969,4.47656,2.27735.21485,3.30078,1.082,6.5,1.15625,9.80078a4.15973,4.15973,0,0,1-.21484,1.16015c-.70313,2.50391-1.27734,2.73829-3.50781,1.32813-.30469.34766-.63282.707-.94141,1.082a46.346,46.346,0,0,1-19.293,14.01172c-2.44531.96094-3.08984.957-4.83594-.07813" transform="translate(2.87891 108.85938)" style="fill:#107614"/><path d="M317.77344,15.17578c.76172.832,1.27344,1.39063,1.78906,1.95313.53516-.58985,1.418-1.13672,1.49609-1.78125.0625-.52735-.832-1.168-1.30468-1.76172-.55469.44531-1.10938.89062-1.98047,1.58984m-21.1875,24.03516a16.83926,16.83926,0,0,1,1.74609-1.10938c6.62891-3.21484,12.79688-7.07422,17.77735-12.60547.60546-.67187,1.14843-1.40234,1.707-2.11718a8.39635,8.39635,0,0,0,.46093-.75782c-.71484-.76562-1.45312-1.46484-2.08984-2.25a6.674,6.674,0,0,1,3.17188-10.7539,3.47337,3.47337,0,0,1,4.74218,2.73437,8.29814,8.29814,0,0,1,.11328,2.19922c-.09765,1.4336-.32812,2.70313.72657,4.10156,1.11718,1.48438-.10547,5.28516-1.75391,6.69141-.58594-.36719-1.19531-.75391-1.89453-1.19141a39.11733,39.11733,0,0,1-11.03906,10.25391,117.20871,117.20871,0,0,1-11.25782,5.44922,5.8541,5.8541,0,0,1-2.22265.03906c-.0625-.23047-.125-.457-.1875-.68359" transform="translate(2.87891 108.85938)" style="fill:#107614"/><path d="M55.48047,135.84766H51.10156v-2.05078c0-6.01172-.03125-12.01954.03125-18.02735.01172-1.3164-.34765-1.83984-1.72265-1.74219-1.625.10938-3.25782.02344-4.98047.02344v-4.25H62.10938v4.25c-1.59766,0-3.27735.082-4.94532-.02734-1.39062-.09375-1.72265.457-1.71093,1.75781.05859,6.00781.02734,12.01563.02734,18.02734" transform="translate(2.87891 108.85938)" style="fill:#107614"/><path d="M411.13281,114.05078v-4.207h17.6875v4.17188h-6.543v21.793c-1.03906.05079-1.86718.03907-2.6875.13672-1.38281.168-1.87109-.33593-1.85546-1.78125.07421-5.72265.043-11.44922.02734-17.17187-.00781-3.42969.28516-2.89063-2.85938-2.9375-1.1875-.01953-2.375-.00391-3.76953-.00391" transform="translate(2.87891 108.85938)" style="fill:#107614"/><path d="M144.87891,135.80859V109.95313a18.4013,18.4013,0,0,1,3.48047.07812c.3789.07422.8125,1.05859.82031,1.63281.0625,5.61328.03906,11.23047.03906,16.84375v3.02735h11.332v4.27343" transform="translate(2.87891 108.85938)" style="fill:#107614"/><path d="M258.58594,40.54688c-1.32422-2.043-.69531-3.86329-.02735-5.73438-.94921-.64844-1.89843-1.23828-2.78125-1.91406a4.29468,4.29468,0,0,1-1.67578-4.51563,9.26947,9.26947,0,0,1,4.53516-6.47656,5.56616,5.56616,0,0,1,6.69141,1.14063c.90625.99218,1.03906,2-.31641,2.58984-1.42188.62109-2.98047.93359-4.42188,1.51562-.67578.27344-1.6875.82422-1.72656,1.32032-.08984,1.11328.957,1.53906,1.91016,1.29687a47.09358,47.09358,0,0,0,4.46875-1.53125c.9375-.33984,1.85937-.72265,2.82812-1.09765.57032,3.34765-.543,5.53515-3.24218,6.73437a11.14912,11.14912,0,0,0-5.35547,5.02344c-.26172.48437-.52344.97265-.88672,1.64844" transform="translate(2.87891 108.85938)" style="fill:#107614"/><path d="M65.50781,109.793h4.48438v25.875a1.65223,1.65223,0,0,1-.48047.207c-4.00391.37891-4.00391.375-4.00391-3.60156V111.86328" transform="translate(2.87891 108.85938)" style="fill:#107614"/><path d="M23.51563,12.32813c-.72266-.6211-1.23438-1.375-1.61719-1.3125a1.77674,1.77674,0,0,0-1.14063,1.30468c-.03515.4961.58594,1.03125.918,1.55078.51563-.43359,1.03125-.86718,1.83985-1.543m.83984,7.78906c-.60547-.332-1.03516-.56641-1.48438-.8125C18.043,25.05469,12.5,29.52734,5.19922,31.24609c-.16016-.22656-.31641-.457-.47266-.6875a11.06325,11.06325,0,0,1,1.44922-1.02343,42.26728,42.26728,0,0,0,13.21485-9.6836c1.02343-1.15234,1.26953-1.89843.01171-3.168-2.38281-2.39843-2.02734-5.48828.60938-7.50781,1.02344-.78906,2.15234-1.37109,3.44922-.73828a3.07024,3.07024,0,0,1,1.55469,3.332,7.2412,7.2412,0,0,0,.47265,3.55078,4.5742,4.5742,0,0,1-1.13281,4.79688" transform="translate(2.87891 108.85938)" style="fill:#107614"/><path d="M28.78516,20.53906c.74218.26172,1.45312.28516,1.74609.64844a10.64976,10.64976,0,0,1,2.77734,7.12891c-.07421,2.17187-.69531,2.89453-2.86718,2.89843a2.68844,2.68844,0,0,0-2.75,1.45313C26.91406,34.09766,25.46484,34.332,24,34.23047a3.0303,3.0303,0,0,1-2.68359-2.30078c-.60938-1.82031-1.0625-3.69531-1.58985-5.543-.30078-1.06641.07813-1.90625,1.11328-2.10156,1.25391-.23828,1.37891.78515,1.53125,1.73828a13.16705,13.16705,0,0,0,.8125,3.42969c.2461.53125,1.207.73437,1.84375,1.08593.33985-.68359,1.00782-1.39843.94532-2.04687a31.00556,31.00556,0,0,0-.98047-3.9375c-.1875-.793-.55469-1.74219.707-2.0625,1.23047-.3125,1.55078.46875,1.793,1.45312a14.4215,14.4215,0,0,0,1.07422,3.375c.32812.61328,1.1914.94532,1.8164,1.40625.22266-.74609.78125-1.58593.60547-2.21875-.5-1.83593-1.29687-3.59375-2.20312-5.96875" transform="translate(2.87891 108.85938)" style="fill:#107614"/><path d="M169.41406,32.16406c.56641.10547,1.24219.01953,1.48047.30469a10.91676,10.91676,0,0,1,2.96094,7.88281c-.125,1.85938-1.32422,2.42188-2.875,2.38672a2.67981,2.67981,0,0,0-2.75391,1.47266c-.793,1.41406-2.23437,1.62109-3.70312,1.5039a3.00858,3.00858,0,0,1-2.65235-2.30859,36.9523,36.9523,0,0,1-1.52734-5.54687,2.36009,2.36009,0,0,1,1.10547-2.00391c1.07422-.36719,1.27344.65234,1.42187,1.5625a14.06557,14.06557,0,0,0,.90235,3.57812,2.08611,2.08611,0,0,0,1.82812.89844c.46485-.125.99219-1.18359.94141-1.78515a20.428,20.428,0,0,0-.90234-3.76954c-.26172-.92578-.8086-1.91406.60156-2.36718,1.42969-.457,1.52734.65625,1.80859,1.58593a23.575,23.575,0,0,0,1.27344,3.66016c.23437.47656,1.01562.69141,1.54687,1.02344.26954-.60938.87891-1.31641.73829-1.81641-.5586-1.99219-1.34766-3.918-2.19532-6.26172" transform="translate(2.87891 108.85938)" style="fill:#107614"/><path d="M199.08984,72.82422c.043,2.07031-.52343,3.46094-2.10156,4.42969q-6.07617,3.71484-12.09375,7.52734c-.77734.49609-1.3789.71094-2.03906-.09375a1.4246,1.4246,0,0,1,.09766-2.23437,54.49522,54.49522,0,0,1,16.13671-9.62891" transform="translate(2.87891 108.85938)" style="fill:#107614"/><path d="M264.375,9.82422a4.17716,4.17716,0,0,1-2.01562,4.39844c-4.043,2.5-8.08594,4.99609-12.09766,7.53906-.78125.49219-1.42188.67969-2.07031-.10938a1.44159,1.44159,0,0,1,.14453-2.24218A54.88182,54.88182,0,0,1,264.375,9.82422" transform="translate(2.87891 108.85938)" style="fill:#107614"/><path d="M353.32422,49.67188c-1.77734-.76954-3.47656-1.51563-5.1875-2.24219-.96094-.41016-1.15234-1.00781-.52344-1.85547.23828-.31641.46094-.64453.707-.957,3.26172-4.1836,1.89844-3.97266,7.54688-1.80078,1.46875.5625,1.64062,1.39843.72656,2.63281-1.043,1.40625-2.14062,2.77344-3.26953,4.22266" transform="translate(2.87891 108.85938)" style="fill:#107614"/><path d="M393.06641,78.43359c-.60157.84766-1.0625,1.54688-1.57422,2.207-2.48438,3.24609-2.48828,3.24218-6.22266,1.61328-.26172-.10938-.51953-.21875-.78125-.33594-1.9414-.85547-2-1.07031-.75781-2.78125.09766-.13672.207-.26953.30859-.40234,2.78907-3.76172,3.59766-3.94532,7.75-1.64063a6.72114,6.72114,0,0,1,1.27735,1.33984" transform="translate(2.87891 108.85938)" style="fill:#107614"/><path d="M113.1875,74.03125a9.20415,9.20415,0,0,1-1.81641,2.51953c-2.98828,2.03125-6.08984,3.90625-9.19531,5.75781-.39844.23829-1.07031.01563-1.61328.00782.01953-.54688-.1875-1.34766.09375-1.60157a38.74075,38.74075,0,0,1,11.90234-7.23828c.21094.1875.42188.3711.62891.55469" transform="translate(2.87891 108.85938)" style="fill:#107614"/><path d="M64.15625,73.58984A2.68383,2.68383,0,0,1,62.73047,76.875c-3.01563,1.87891-6.01953,3.77734-9.07031,5.59375-.39453.23438-1.043.04688-1.57032.05469.08594-.63672-.0625-1.53906.30469-1.85938a39.06417,39.06417,0,0,1,11.76172-7.07422" transform="translate(2.87891 108.85938)" style="fill:#107614"/><g style="clip-path:url(#clip-path)"><path d="M287.74219-108.85938-2.87891,94.63672l143.957,205.59375,290.625-203.49609Z" transform="translate(2.87891 108.85938)" style="fill:url(#linear-gradient)"/></g><path d="M560.33984,135.79688V18.17969H461.39063v117.332a18.63853,18.63853,0,0,1-13.48047-7.69922,21.33793,21.33793,0,0,1-4.24219-12.86719q-.03516-46.89843,0-93.80078C443.67969,9.57031,453.41406.06641,465.26563.04688q34.04881-.0586,68.09765-.01172c7.48047,0,14.96485.14062,22.44141-.03125A21.99361,21.99361,0,0,1,577.99219,22.25c-.03906,30.62891.07812,61.25391-.07031,91.88281-.043,8.52344-3.418,15.543-11.4375,19.55469a50.65252,50.65252,0,0,1-6.14454,2.10938" transform="translate(2.87891 108.85938)" style="fill:#107614"/><g style="clip-path:url(#clip-path-2)"><g style="clip-path:url(#clip-path-3)"><g style="clip-path:url(#clip-path-4)"><path d="M523.11328.86328,453.60547,49.53516l44.63281,63.74218,69.50781-48.67187Z" transform="translate(2.87891 108.85938)" style="fill:url(#linear-gradient-2)"/></g></g></g><g style="clip-path:url(#clip-path-5)"><g style="clip-path:url(#clip-path-6)"><path d="M513.51172,81.10156,472.332,109.9375l35.63281,50.89063,41.17969-28.832Z" transform="translate(2.87891 108.85938)" style="fill:url(#linear-gradient-3)"/></g></g><g style="clip-path:url(#clip-path-7)"><g style="clip-path:url(#clip-path-8)"><g style="clip-path:url(#clip-path-9)"><path d="M541.03906,81.02734l-41.26953,28.89454,35.6836,50.96093,41.26562-28.89453Z" transform="translate(2.87891 108.85938)" style="fill:url(#linear-gradient-4)"/></g></g></g><g style="clip-path:url(#clip-path-10)"><g style="clip-path:url(#clip-path-11)"><g style="clip-path:url(#clip-path-12)"><path d="M485.92969,81.10938l-41.17188,28.832,35.63282,50.88281,41.168-28.82813Z" transform="translate(2.87891 108.85938)" style="fill:url(#linear-gradient-5)"/></g></g></g></g></svg>