<svg id="Layer_1" data-name="Layer 1" xmlns="http://www.w3.org/2000/svg" viewBox="0 0 355.1 266.4"><rect x="107.2" y="52.8" width="247.5" height="193.3" rx="7.2" style="fill:none;stroke:#1d2f37;stroke-miterlimit:10"/><path d="M114.4,52.8H347.4a7.2,7.2,0,0,1,7.2,7.2v5a0,0,0,0,1,0,0H107.2a0,0,0,0,1,0,0V60A7.2,7.2,0,0,1,114.4,52.8Z" style="fill:none;stroke:#1d2f37;stroke-miterlimit:10"/><path d="M322.6,157.4a2.3,2.3,0,1,0-2.3,2.4A2.3,2.3,0,0,0,322.6,157.4Z" transform="translate(0 -98.8)" style="fill:none;stroke:#1d2f37;stroke-miterlimit:10"/><path d="M334.4,157.4a2.3,2.3,0,1,0-2.3,2.4A2.3,2.3,0,0,0,334.4,157.4Z" transform="translate(0 -98.8)" style="fill:none;stroke:#1d2f37;stroke-miterlimit:10"/><path d="M346.3,157.4a2.4,2.4,0,0,0-2.4-2.3,2.4,2.4,0,0,0,0,4.7A2.4,2.4,0,0,0,346.3,157.4Z" transform="translate(0 -98.8)" style="fill:none;stroke:#1d2f37;stroke-miterlimit:10"/><circle cx="75.9" cy="169.3" r="33.4" transform="translate(-37.6 -76.3) rotate(-13.5)" style="fill:#fff;stroke:#1d2f37;stroke-miterlimit:10"/><path d="M91.1,159.3c.7,3.7-.8,7.1-3.3,7.6s-5.2-2.2-5.9-5.8.8-7.1,3.4-7.6S90.4,155.6,91.1,159.3Z" transform="translate(0 -98.8)" style="fill:#23b4b3"/><path d="M85.1,151.2s.4-9-6.2-10.9-13.8,2.8-14.7,7.3.2,12.9.2,12.9-3.2-2.2-4.7.3.6,5.9,1.5,7,3.9-.4,3.9-.4.7,9.9,3,12.2,11.8,7.5,16.8,1.6S85.1,151.2,85.1,151.2Z" transform="translate(0 -98.8)" style="fill:#fff;stroke:#1d2f37;stroke-miterlimit:10"/><path d="M66,160.7s-.4-5.3,0-6.2,3.8-2.7,3.6-4.5-4-4.5,1.2-5.1,9.4,2.2,16,2.2,5.4-7.4,2.9-7.9L84,137.9s1.9-5.2-4.4-5S66.2,137.4,64,143.3s-.2,16.7-.2,16.7Z" transform="translate(0 -98.8)" style="fill:#1d2f37"/><path d="M75.9,202.8a33.1,33.1,0,0,0,23.5-9.7c-4.8-1.9-13.6-4.7-22.7-4.3A41.5,41.5,0,0,0,55,195.4,33.3,33.3,0,0,0,75.9,202.8Z" transform="translate(0 -98.8)" style="fill:#1d2f37"/><path d="M69.7,181.8l1,9.3s4.9,4.7,7.8,6,5.7-1.6,6-3.2,1.3-8.5,1.3-8.5Z" transform="translate(0 -98.8)" style="fill:#fff;stroke:#1d2f37;stroke-miterlimit:10"/><path d="M78.5,168.3a4.3,4.3,0,0,0-4.1,1.1c-1.8,1.8-4.1,4.5-4.1,4.5s-5.2-8.6-5.2-6.5.5,10.4,2.5,14.5,13.8,8.4,19.3,6.1,2-9.3,1.4-12.5-1.4-6.8-1.4-6.8S82.4,165.1,78.5,168.3Z" transform="translate(0 -98.8)" style="fill:#1d2f37"/><path d="M73.7,157.7c0,1.5-.3,2.6-.8,2.6s-.8-1.1-.8-2.6.4-2.6.8-2.6S73.7,156.3,73.7,157.7Z" transform="translate(0 -98.8)" style="fill:#1d2f37"/><path d="M84.6,155.7c0,1.4-.3,2.6-.8,2.6s-.8-1.2-.8-2.6.4-2.6.8-2.6S84.6,154.2,84.6,155.7Z" transform="translate(0 -98.8)" style="fill:#1d2f37"/><path d="M66.9,162.8c.7,3.6-.8,7-3.3,7.5s-5.2-2.1-5.9-5.8.8-7.1,3.3-7.5S66.2,159.1,66.9,162.8Z" transform="translate(0 -98.8)" style="fill:#23b4b3"/><path d="M65.2,163.3c.5,2.5-.6,4.8-2.3,5.1s-3.4-1.4-3.9-3.9.5-4.7,2.3-5.1S64.7,160.9,65.2,163.3Z" transform="translate(0 -98.8)" style="fill:none;stroke:#1d2f37;stroke-linecap:round;stroke-miterlimit:10"/><path d="M81.9,155.6s0,9.3,1.1,11.8-1.1,2.7-3.1,1.8-3-4.6-3-4.6" transform="translate(0 -98.8)" style="fill:#fff;stroke:#1d2f37;stroke-linecap:round;stroke-miterlimit:10;stroke-width:0.75px"/><path d="M60.5,159.7s-5.5-16.3,5.1-17.6" transform="translate(0 -98.8)" style="fill:none;stroke:#1d2f37;stroke-linecap:round;stroke-miterlimit:10"/><path d="M70,152.8a5.3,5.3,0,0,1,5.3-1.8" transform="translate(0 -98.8)" style="fill:none;stroke:#1d2f37;stroke-linecap:round;stroke-miterlimit:10"/><path d="M82,151.3s1.7-1.4,3.1-.1" transform="translate(0 -98.8)" style="fill:none;stroke:#1d2f37;stroke-linecap:round;stroke-miterlimit:10"/><path d="M75.6,174s.6,1.1,4.7,1.1a5.8,5.8,0,0,0,5.5-3.2" transform="translate(0 -98.8)" style="fill:none;stroke:#fff;stroke-linecap:round;stroke-linejoin:round"/><circle cx="90.4" cy="266" r="33.4" transform="translate(-161.6 43) rotate(-45)" style="fill:#fff;stroke:#1d2f37;stroke-miterlimit:10"/><path d="M67,289.8a32.9,32.9,0,0,0,23.4,9.6,33.3,33.3,0,0,0,23-9.2A38.5,38.5,0,0,0,89,282.3C76.5,282.7,70,286.9,67,289.8Z" transform="translate(0 -98.8)" style="fill:#1d2f37"/><path d="M102.9,242.3s4.3,0,8.1,7.6,1.1,16.2.4,18.6-2.1,7.6-2.1,7.6H66s-4.5-21.1,3.1-29.7S102.9,242.3,102.9,242.3Z" transform="translate(0 -98.8)" style="fill:#1d2f37"/><path d="M82.3,271.1a31.4,31.4,0,0,0,0,5.8c.3,3.1.3,7.2.3,7.2a15.8,15.8,0,0,0,6.2,4.5c4.1,1.7,6.2.7,7.6-1.4s1.7-9.9,1.7-9.9S85,274.2,82.3,271.1Z" transform="translate(0 -98.8)" style="fill:#fff;stroke:#1d2f37;stroke-miterlimit:10"/><polygon points="88.9 181.1 96.4 188.4 98.1 181.7 88.9 181.1" style="fill:#1d2f37"/><path d="M105.1,261c.6,7.7-.2,22.3-10.8,22-6.1-.2-16.9-11.8-16.9-22s6.2-18.6,13.9-18.6c9.6,0,13,10.2,13.7,18.2C105,260.7,105.1,260.9,105.1,261Z" transform="translate(0 -98.8)" style="fill:#fff;stroke:#1d2f37;stroke-miterlimit:10"/><path d="M106.9,248.3s-4.4-12.7-17.2-12.7-19,7.3-21.7,12.5c-5.8,9.7-2,28-2,28h0l17.8.2-.3-18.1a17.2,17.2,0,0,1,5.6-2.4A63.4,63.4,0,0,0,106.9,248.3Z" transform="translate(0 -98.8)" style="fill:#1d2f37"/><path d="M90.2,263.3c0,1-.3,1.8-.8,1.8s-.8-.8-.8-1.8.4-1.7.8-1.7S90.2,262.4,90.2,263.3Z" transform="translate(0 -98.8)" style="fill:#1d2f37"/><ellipse cx="101.4" cy="163.1" rx="0.8" ry="1.8" style="fill:#1d2f37"/><path d="M98.8,264.9a8.1,8.1,0,0,0,.5,3.1c.7,1.6-1.8,2.4-3.1.9" transform="translate(0 -98.8)" style="fill:none;stroke:#1d2f37;stroke-linecap:round;stroke-miterlimit:10;stroke-width:0.75px"/><path d="M91.3,272.8a10.3,10.3,0,0,0,5.3,1.7,6.7,6.7,0,0,0,5.5-2.9" transform="translate(0 -98.8)" style="fill:none;stroke:#1d2f37;stroke-linecap:round;stroke-miterlimit:10;stroke-width:0.75px"/><path d="M85.9,260.6s1.1-1.2,4.3-1.9" transform="translate(0 -98.8)" style="fill:none;stroke:#1d2f37;stroke-linecap:round;stroke-miterlimit:10;stroke-width:0.75px"/><path d="M99.9,257.5s2.2-.8,3.7.2" transform="translate(0 -98.8)" style="fill:none;stroke:#1d2f37;stroke-linecap:round;stroke-miterlimit:10;stroke-width:0.75px"/><circle cx="167.2" cy="142.6" r="33.4" transform="translate(-25.6 -61.6) rotate(-11.8)" style="fill:#fff;stroke:#1d2f37;stroke-miterlimit:10"/><ellipse cx="163.5" cy="31.1" rx="25.3" ry="23.4" style="fill:#1d2f37"/><polygon points="160.4 51.2 161.2 63.6 174.4 70 174 57.2 160.4 51.2" style="fill:#d6d6d8;stroke:#1d2f37;stroke-miterlimit:10"/><polygon points="166.5 57.6 174.4 64.3 174.4 59.4 166.5 57.6" style="fill:#1d2f37"/><path d="M156.4,132.9s0,13.7,3,18.6,12.6,7.8,17.8,7,2.6-28.2,0-33S155.7,122.5,156.4,132.9Z" transform="translate(0 -98.8)" style="fill:#d6d6d8;stroke:#1d2f37;stroke-miterlimit:10"/><path d="M167.2,176a32.7,32.7,0,0,0,12.5-2.4l-18.5-11.2-13,7.7A33.4,33.4,0,0,0,167.2,176Z" transform="translate(0 -98.8)" style="fill:#1d2f37"/><path d="M158.6,140s-4.4-6.7-5.9-2.6-.7,7.8,1.5,8.5,4.8-1.5,4.8-1.5" transform="translate(0 -98.8)" style="fill:#d6d6d8;stroke:#1d2f37;stroke-miterlimit:10"/><ellipse cx="166.9" cy="35.9" rx="0.6" ry="1.9" style="fill:#1d2f37"/><path d="M177.5,134.1c0,1-.3,1.9-.6,1.9s-.6-.9-.6-1.9.3-1.9.6-1.9S177.5,133.1,177.5,134.1Z" transform="translate(0 -98.8)" style="fill:#1d2f37"/><path d="M175.3,130.8s2.4-1.5,3.5.6" transform="translate(0 -98.8)" style="fill:#fff"/><path d="M177.5,130.6h0Z" transform="translate(0 -98.8)" style="fill:#1d2f37"/><polygon points="177.2 31.7 177.2 31.7 177.2 31.7 177.2 31.7" style="fill:#1d2f37"/><path d="M176.9,130.6Z" transform="translate(0 -98.8)" style="fill:#1d2f37"/><polygon points="176.6 31.7 176.6 31.7 176.6 31.7 176.6 31.7" style="fill:#1d2f37"/><path d="M178.7,131.4Z" transform="translate(0 -98.8)" style="fill:#1d2f37"/><path d="M178.6,131.4Z" transform="translate(0 -98.8)" style="fill:#1d2f37"/><path d="M175.6,130.8Z" transform="translate(0 -98.8)" style="fill:#1d2f37"/><path d="M176.6,130.6Z" transform="translate(0 -98.8)" style="fill:#1d2f37"/><path d="M176.7,130Z" transform="translate(0 -98.8)" style="fill:#1d2f37"/><polygon points="177.2 31.2 177.2 31.2 177.2 31.2 177.2 31.2" style="fill:#1d2f37"/><path d="M177.6,130.1Z" transform="translate(0 -98.8)" style="fill:#1d2f37"/><polygon points="177.9 31.4 177.9 31.4 177.9 31.4 177.9 31.4" style="fill:#1d2f37"/><path d="M175.2,130.7Z" transform="translate(0 -98.8)" style="fill:#1d2f37"/><path d="M175.2,130.6Z" transform="translate(0 -98.8)" style="fill:#1d2f37"/><path d="M176.8,130.1h0Zm-.9.3h0Zm2.3.5h0Z" transform="translate(0 -98.8)" style="fill:#1d2f37"/><path d="M178.7,131.1Z" transform="translate(0 -98.8)" style="fill:#1d2f37"/><path d="M177.9,130.2Z" transform="translate(0 -98.8)" style="fill:#1d2f37"/><polygon points="159.1 65.5 160.4 59.5 176.9 67.9 177.7 73.3 159.1 65.5" style="fill:#edab28"/><path d="M168.3,143.5s.8,2.6,2.8,3a23.9,23.9,0,0,0,6.8-.5" transform="translate(0 -98.8)" style="fill:none;stroke:#1d2f37;stroke-linecap:round;stroke-miterlimit:10;stroke-width:0.75px"/><path d="M174.7,132.1s-.5,2.6,0,3.3,3.1,3.6,3.1,4.7-1,1.8-3.6,1.5" transform="translate(0 -98.8)" style="fill:none;stroke:#1d2f37;stroke-linecap:round;stroke-miterlimit:10;stroke-width:0.75px"/><path d="M163.9,131.8a5.5,5.5,0,0,1,5.4-1.6" transform="translate(0 -98.8)" style="fill:none;stroke:#1d2f37;stroke-linecap:round;stroke-miterlimit:10;stroke-width:0.75px"/><path d="M175.3,130.7a2,2,0,0,1,3.4.4" transform="translate(0 -98.8)" style="fill:none;stroke:#1d2f37;stroke-linecap:round;stroke-miterlimit:10;stroke-width:0.75px"/><circle cx="182" cy="258.2" r="40.6" transform="translate(-24.6 -79.7) rotate(-5.7)" style="fill:none;stroke:#1d2f37;stroke-miterlimit:10;stroke-dasharray:2.9676599502563477,2.9676599502563477"/><path d="M286.7,364.7H219.6v-59a4.1,4.1,0,0,1,4.1-4.1h58.9a4.1,4.1,0,0,1,4.1,4.1Z" transform="translate(0 -98.8)" style="fill:#fff;stroke:#1d2f37;stroke-miterlimit:10"/><path d="M286.7,364.7H274.1v-59a4.1,4.1,0,0,1,4.1-4.1h4.4a4.1,4.1,0,0,1,4.1,4.1Z" transform="translate(0 -98.8)" style="fill:#1d2f37;stroke:#1d2f37;stroke-miterlimit:10"/><path d="M290.8,283.1c1.8.8,6.3.7,6.3.7l-1.1-3.1c-1-2-4-5.4-6.5-5.1a3,3,0,0,0-2.4,3.8C287.5,281.1,289.3,282.4,290.8,283.1Z" transform="translate(0 -98.8)" style="fill:#1d2f37"/><path d="M292.3,296c1.9.2,5.9-.9,6.2-1a43.8,43.8,0,0,0,2.4,6.6c.5,1.3,1.1,2.5,1.7,3.8l-.7-1.1c-1.5-1.7-5.3-4.1-7.7-3.1a2.9,2.9,0,0,0-1.3,4.2,6.1,6.1,0,0,0,4.6,2.6c1.7.3,5.1-.6,6-.9a6.1,6.1,0,0,0,.7,1.4c1.1,2.3,2.3,4.6,3.3,6.9a25.6,25.6,0,0,1,1.1,2.4l-.6-1c-1.5-1.7-5.4-4.1-7.7-3.1a2.9,2.9,0,0,0-1.3,4.2c.8,1.6,2.9,2.4,4.6,2.6s4.7-.6,5.8-.9l.9,2.5.6,1.7c.1.6.3,1.1.4,1.7s.6,2.2.8,3.2.3,1.5.4,2.2a20.1,20.1,0,0,0-1.2-2.5c-1.2-1.9-4.6-4.9-7.1-4.3a3,3,0,0,0-1.9,4c.6,1.7,2.5,2.8,4.1,3.3s5.7,0,6.2,0,.5,2.3.7,3.4.7,4.5,1,6.3h1.6c-.3-1.9-.6-4.1-1.1-6.6l-.9-3.8a33.3,33.3,0,0,0,3.5-1.6,21.8,21.8,0,0,0,5,3.2c-.4,1.2-.9,2.2-1.3,3.2s-1.8,4-2.6,5.6h1.8l2.2-5,1.4-3.6c.5.1,4.4.9,6.2.5s3.6-1.3,4.4-2.9a3,3,0,0,0-1.7-4.1c-2.4-.9-6.1,1.9-7.4,3.7l-1.3,2.2.6-1.6a30.1,30.1,0,0,0,1.1-3.2,10.9,10.9,0,0,0,.5-1.7c.2-.5.3-1.1.5-1.7s.6-2.8.8-4.2c.9.3,4.2,1.4,5.9,1.3s3.8-.7,4.7-2.2a2.9,2.9,0,0,0-1-4.3c-2.2-1.2-6.2.9-7.8,2.5l-1.7,2.1c.1-.8.3-1.7.4-2.6.3-2.5.5-5,.8-7.6a19.5,19.5,0,0,1,.2-2.3c.3.1,4.2,1.6,6.1,1.4s3.8-.7,4.7-2.2a2.9,2.9,0,0,0-1-4.3c-2.2-1.2-6.2.9-7.8,2.5-.2.1-1.6,2-2,2.5.2-1.7.4-3.4.7-5.1a46.7,46.7,0,0,1,1.4-6.7c.2.1,4.2,1.6,6.1,1.4s3.8-.7,4.8-2.2a3,3,0,0,0-1-4.3c-2.3-1.2-6.3,1-7.9,2.5l-2,2.5c.1-.1.1-.2.1-.4a39.8,39.8,0,0,1,2.7-6.3l1.8-3.2c.7.4,4,2,5.8,2.1s3.8-.3,5-1.7a2.9,2.9,0,0,0-.6-4.4c-2.1-1.4-6.3.2-8.1,1.6l-1.6,1.7.9-1.4c1-1.6,2.1-3,3-4.2l1.6-1.9c.9,0,4.4-.1,6-.8s3.3-2.1,3.6-3.8a2.9,2.9,0,0,0-2.5-3.7c-2.5-.3-5.5,3.2-6.4,5.2a25.4,25.4,0,0,0-.9,3.1h0l-1.5,1.8c-1,1.2-2.1,2.6-3.2,4.2a58.9,58.9,0,0,0-3.3,5.2,53.6,53.6,0,0,0-2.8,6.4h0a22.7,22.7,0,0,0-.1-2.9c-.2-2.3-2.1-6.4-4.6-6.9a3.1,3.1,0,0,0-3.5,2.8c-.1,1.8,1.2,3.6,2.4,4.7s5.4,2.5,5.7,2.6a49.6,49.6,0,0,0-1.6,6.9c-.3,1.3-.5,2.7-.7,4.1v-1.3c-.3-2.3-2.2-6.4-4.7-6.9a3,3,0,0,0-3.4,2.8c-.2,1.8,1.1,3.6,2.4,4.7s4.6,2.3,5.5,2.6-.1,1-.2,1.5c-.3,2.6-.6,5.1-1,7.6-.1.9-.3,1.7-.4,2.6v-1.1c-.3-2.3-2.2-6.4-4.7-6.9a3,3,0,0,0-3.4,2.8c-.2,1.8,1.1,3.6,2.4,4.7s4.2,2.1,5.3,2.5l-.6,2.6a9.8,9.8,0,0,1-.5,1.6,8.4,8.4,0,0,1-.5,1.7l-1.2,3.1a18,18,0,0,1-.8,2.1c.2-.9.4-2.6.4-2.7a11.8,11.8,0,0,0-1.6-5.7c.1-.2,0-.4,0-.6a3,3,0,0,0-3.7-2.6c-2.4.7-3.9,5-4.1,7.2,0,.1.1,1.6.2,2.5s-.3-1-.4-1.6-.5-2.1-.8-3.3a8.4,8.4,0,0,1-.5-1.7l-.6-1.7c-.5-1.3-1.1-2.6-1.7-3.9a20.1,20.1,0,0,0,5.7-2.1c1.3-1.1,2.7-2.7,2.7-4.5a3,3,0,0,0-3.2-3.1c-2.5.3-4.7,4.3-5.2,6.5,0,.1-.1,1.8-.2,2.7l-1.1-2.4c-1.1-2.3-2.3-4.5-3.5-6.8l-1.1-2c.3-.1,4.3-1.1,5.8-2.2s2.8-2.7,2.8-4.5a3,3,0,0,0-3.3-3.1c-2.5.3-4.7,4.3-5.1,6.5,0,.2-.3,2.5-.3,3.1-.8-1.5-1.5-3-2.2-4.6a41.2,41.2,0,0,1-2.5-6.3c.1-.1,4.3-1,5.9-2.2s2.7-2.7,2.7-4.5a3,3,0,0,0-3.2-3.1c-2.5.3-4.7,4.3-5.2,6.5,0,.2-.2,2.7-.2,3.2l-.2-.4a43.8,43.8,0,0,1-1.3-6.7c-.1-1.3-.2-2.5-.2-3.7s4.4-.6,5.9-1.5,3.1-2.4,3.3-4.1a3,3,0,0,0-2.9-3.4c-2.5,0-5.2,3.7-5.8,5.9a19.8,19.8,0,0,0-.5,2.2v-1.6c0-1.9.1-3.7.2-5.2s.2-1.7.3-2.4,3.6-2.6,4.5-4.1,1.6-3.5,1-5.1a3,3,0,0,0-4.2-1.7c-2.2,1.1-2.8,5.6-2.4,7.9a22.9,22.9,0,0,0,.9,3.1h0c-.1.7-.2,1.4-.3,2.3s-.3,3.3-.3,5.2a43.4,43.4,0,0,0,.1,6.2,33.5,33.5,0,0,0,1.2,6.8h0l-1.7-2.4c-1.4-1.7-5.3-4.2-7.6-3.2a3.1,3.1,0,0,0-1.4,4.3C288.6,294.9,290.7,295.7,292.3,296Z" transform="translate(0 -98.8)" style="fill:#1d2f37"/><path d="M335.7,284.1s.8-3,.8-3.2c.3-2.2-.4-6.7-2.6-7.8a3,3,0,0,0-4.1,1.8,5.9,5.9,0,0,0,1.1,5.1C331.9,281.7,335.7,284.1,335.7,284.1Z" transform="translate(0 -98.8)" style="fill:#1d2f37"/><polygon points="327.3 240.1 306.9 240.1 308.9 265.6 325.3 265.6 327.3 240.1" style="fill:#1d2f37"/><path d="M5.2,321.8a19.1,19.1,0,0,0,4.6.5s-.7-2.2-.8-2.3-3-4-4.8-3.8A2.2,2.2,0,0,0,2.4,319,4.6,4.6,0,0,0,5.2,321.8Z" transform="translate(0 -98.8)" style="fill:#1d2f37"/><path d="M6.3,331.3c1.4.2,4.3-.7,4.6-.7a35.8,35.8,0,0,0,1.7,4.9c.4.9.9,1.8,1.3,2.8l-.5-.8c-1.1-1.3-4-3.1-5.7-2.3a2.2,2.2,0,0,0-1,3.1c.6,1.2,2.2,1.7,3.4,1.9a13.1,13.1,0,0,0,4.4-.7l.6,1.1,2.5,5,.7,1.8a2.7,2.7,0,0,1-.4-.7c-1.1-1.2-4-3-5.7-2.3a2.3,2.3,0,0,0-1,3.2c.6,1.1,2.2,1.7,3.4,1.9a17.6,17.6,0,0,0,4.3-.7,14.6,14.6,0,0,1,.7,1.9c.1.4.3.8.4,1.2a5.6,5.6,0,0,0,.4,1.2c.2.8.4,1.7.5,2.4a7.5,7.5,0,0,0,.4,1.6l-.9-1.8c-.9-1.4-3.5-3.6-5.3-3.2a2.2,2.2,0,0,0-1.4,3c.4,1.3,1.8,2,3,2.4a17.1,17.1,0,0,0,4.6,0c.2.9.4,1.7.5,2.5s.6,3.4.7,4.7h1.3c-.3-1.4-.5-3-.9-4.9l-.6-2.8,2.6-1.2a12.4,12.4,0,0,0,3.7,2.4c-.3.9-.7,1.6-1,2.4l-1.9,4.1H27c.5-1.1,1.1-2.3,1.6-3.7s.7-1.7,1.1-2.6,3.2.6,4.5.3a4.4,4.4,0,0,0,3.3-2.1,2.3,2.3,0,0,0-1.2-3.1c-1.8-.6-4.5,1.4-5.5,2.8a8.8,8.8,0,0,0-.9,1.6,5.6,5.6,0,0,1,.4-1.2c.3-.7.5-1.5.8-2.4s.3-.8.4-1.2l.3-1.3a28.4,28.4,0,0,0,.6-3.1c.7.2,3.1,1.1,4.4,1s2.8-.5,3.5-1.7a2.2,2.2,0,0,0-.7-3.2c-1.7-.8-4.7.8-5.9,1.9l-1.2,1.6.3-1.9.6-5.7c0-.5.1-1.1.1-1.7s3.1,1.2,4.5,1.1a4.9,4.9,0,0,0,3.6-1.7,2.2,2.2,0,0,0-.8-3.2c-1.7-.9-4.6.7-5.8,1.9l-1.5,1.8c.2-1.3.3-2.5.5-3.7a36.7,36.7,0,0,1,1.1-5c.1,0,3.1,1.2,4.5,1.1a4.6,4.6,0,0,0,3.5-1.7,2.1,2.1,0,0,0-.7-3.2c-1.7-.9-4.6.7-5.8,1.9l-1.5,1.8a.3.3,0,0,1,.1-.2,28.8,28.8,0,0,1,1.9-4.7l1.4-2.4a12.6,12.6,0,0,0,4.3,1.5,4.6,4.6,0,0,0,3.7-1.2,2.3,2.3,0,0,0-.4-3.3c-1.6-1-4.7.2-6,1.2l-1.2,1.2.6-.9,2.3-3.2a13.4,13.4,0,0,0,1.1-1.4,15.9,15.9,0,0,0,4.5-.6,4.7,4.7,0,0,0,2.7-2.8,2.2,2.2,0,0,0-1.9-2.7c-1.8-.2-4.1,2.3-4.7,3.8a14.4,14.4,0,0,0-.7,2.3h0a17.1,17.1,0,0,0-1.1,1.4q-1.2,1.3-2.4,3T36.9,325a33.5,33.5,0,0,0-2.1,4.7h0a12.8,12.8,0,0,0-.1-2.2c-.2-1.7-1.6-4.8-3.4-5.1a2.3,2.3,0,0,0-2.6,2.1c-.1,1.3.9,2.6,1.8,3.5a19.2,19.2,0,0,0,4.2,1.9,38.1,38.1,0,0,0-1.2,5.1c-.2,1-.3,2-.5,3v-1c-.2-1.6-1.6-4.7-3.4-5a2.2,2.2,0,0,0-2.6,2.1,4.3,4.3,0,0,0,1.8,3.4c.9.9,3.4,1.7,4,1.9s-.1.8-.1,1.2c-.2,1.9-.4,3.7-.7,5.6l-.3,1.9a2,2,0,0,0-.1-.9c-.2-1.6-1.6-4.7-3.4-5a2.2,2.2,0,0,0-2.6,2.1,4.6,4.6,0,0,0,1.8,3.4,16,16,0,0,0,4,1.9c-.2.6-.3,1.3-.5,1.9l-.3,1.2c-.1.4-.3.8-.4,1.3l-.9,2.3-.6,1.5c.1-.7.3-1.9.3-2a10.1,10.1,0,0,0-1.1-4.2c0-.2-.1-.3-.1-.5a2.2,2.2,0,0,0-2.7-1.9c-1.8.5-2.9,3.7-3,5.3a16.7,16.7,0,0,0,.1,1.9l-.3-1.2-.6-2.4c-.1-.4-.3-.8-.4-1.3s-.3-.8-.4-1.2l-1.2-3a13.8,13.8,0,0,0,4.1-1.5c1-.8,2.1-2,2.1-3.3a2.2,2.2,0,0,0-2.4-2.3c-1.9.2-3.5,3.1-3.8,4.8a8.1,8.1,0,0,0-.2,2l-.8-1.8c-.9-1.7-1.8-3.3-2.6-5a10.9,10.9,0,0,1-.8-1.5c.2-.1,3.2-.8,4.3-1.6a4.9,4.9,0,0,0,2-3.4,2.1,2.1,0,0,0-2.4-2.2c-1.8.2-3.5,3.1-3.8,4.8,0,.1-.2,1.8-.2,2.3l-1.7-3.4a46.8,46.8,0,0,1-1.8-4.8,13.7,13.7,0,0,0,4.3-1.6,4.6,4.6,0,0,0,2.1-3.3,2.3,2.3,0,0,0-2.4-2.3c-1.9.2-3.5,3.2-3.8,4.8a16.6,16.6,0,0,0-.2,2.4.4.4,0,0,1-.1-.3,31.6,31.6,0,0,1-1-5c-.1-.9-.1-1.8-.2-2.7s3.3-.4,4.4-1.1a4.4,4.4,0,0,0,2.4-3.1,2.2,2.2,0,0,0-2.1-2.5c-1.9,0-3.8,2.8-4.3,4.4a11.7,11.7,0,0,1-.4,1.6v-1.1c0-1.5.1-2.8.2-3.9s.1-1.3.2-1.8a17.4,17.4,0,0,0,3.4-3,5.2,5.2,0,0,0,.7-3.8,2.3,2.3,0,0,0-3.1-1.3c-1.7.9-2.1,4.2-1.8,5.9a15.5,15.5,0,0,0,.7,2.3h0a8.8,8.8,0,0,0-.2,1.7c-.1,1.1-.3,2.4-.3,3.8s0,3,.1,4.6a30.3,30.3,0,0,0,.9,5.1h0c-.3-.5-1.2-1.8-1.2-1.9s-4-3-5.7-2.3a2.2,2.2,0,0,0-1,3.2C3.5,330.5,5.1,331.1,6.3,331.3Z" transform="translate(0 -98.8)" style="fill:#1d2f37"/><path d="M38.4,322.5s.6-2.2.6-2.4-.3-4.9-2-5.8a2.3,2.3,0,0,0-3,1.4,4.8,4.8,0,0,0,.8,3.8A17.1,17.1,0,0,0,38.4,322.5Z" transform="translate(0 -98.8)" style="fill:#1d2f37"/><path d="M235.7,301.6s-10.4,1.5-25.3-1.2l9.5,37.7v7.4l-21.7-53.1S230.6,301.9,235.7,301.6Z" transform="translate(0 -98.8)" style="fill:#434d54"/><path d="M243.7,267l-.6,2s-33.7-6.3-55.7-1.3-19.4,11.4-14.7,23.6,38,53.9,38,53.9l4.6-1.8,3.1-1.4-18.7-48.7c9.5,3.7,22.1,7.8,32.7,8.5,15.8,1,25.6-1.1,30.3-2.6a17.3,17.3,0,0,0,5.4-2.8,22.7,22.7,0,0,0,2.5-2.5C252.4,286,243.7,267,243.7,267Z" transform="translate(0 -98.8)" style="fill:#1d2f37"/><path d="M181.6,283a21.6,21.6,0,0,1-2.7-2.5" transform="translate(0 -98.8)" style="fill:none;stroke:#fff;stroke-miterlimit:10"/><path d="M198.8,292.8a69,69,0,0,1-15-8.1" transform="translate(0 -98.8)" style="fill:none;stroke:#fff;stroke-miterlimit:10"/><path d="M280.8,264.9c1.7-23.4-5.1-44.5-5.1-44.5l-4.8-14.2L250,215.4s-4.4,10.1-4,18.1,3.3,12.7,3.3,15-4.1,14.4-5.6,18.5c0,0,8.7,19,26.9,26.9C273.9,290.1,279.6,281.2,280.8,264.9Z" transform="translate(0 -98.8)" style="fill:#fff;stroke:#1d2f37;stroke-miterlimit:10"/><path d="M210.7,345.2s-1.2,5.7-1.5,6.9-4.5,8-8.3,10.1.8,2.4,4.1,2.4,7.5-1.5,11.1-3.9,5.9-5.1,7.4-6.3,3.3-3.2,1.2-6.2-7.1-6.6-7.1-6.6Z" transform="translate(0 -98.8)" style="fill:#1d2f37"/><path d="M231.5,154.1s-2.5,10.1-2.3,17.2c0,0-5.8,3.1-7.5.9s1.2-4.5,1.2-4.5a20.3,20.3,0,0,1-6.5-4.1c-2.5-2.5-4-12.2,3.9-15s11,4.7,11,4.7" transform="translate(0 -98.8)" style="fill:#1d2f37;stroke:#1d2f37;stroke-miterlimit:10"/><path d="M252.1,202.1s-.2-4-.7-3.8-6.9,1.5-8.7,2.1-2.3-.8-5.1-3.9a71.4,71.4,0,0,1-4.9-6.4l-2.7-.4a1.4,1.4,0,0,1-.7-2.5c1.1-1.2,2.5-3.4,1.6-5.8s-4.5-11.8-3.7-17.6,5.7-10.1,5.7-10.1,5-4.4,13.9-4.8,16.5,5.2,21.1,13.1-1.6,20.3-3.1,22.8-3.1,6.9-2.7,8l.9,3.2Z" transform="translate(0 -98.8)" style="fill:#fff;stroke:#1d2f37;stroke-miterlimit:10"/><polygon points="243.7 101 254.4 96.6 251.4 99.5 243.7 101" style="fill:#1d2f37"/><path d="M257.9,153s1.6-14.1,10.7-20.3,14.1-2.4,13.6-.8a39.7,39.7,0,0,1-3.4,5.7,15.1,15.1,0,0,1,17.5,8.6c5.8,11.8-1.4,16.6-6.1,17.7s-14.5-1.7-14.5-1.7,2.7,1.2.5,3.3-8-.6-8-.6" transform="translate(0 -98.8)" style="fill:#1d2f37;stroke:#1d2f37;stroke-miterlimit:10"/><path d="M267.9,162c-4.6-7.9-12.2-13.4-21.1-13.1s-13.9,4.8-13.9,4.8-4.4,4.1-5.5,9.6c1-.7,3.1-1.1,6,3.2,4.3,6.2,15.7,8.7,19.7,8.2s6.2,5,5.4,8.5,1.2,4.7,4.4,5.7a26.3,26.3,0,0,1,1.9-4.1C266.3,182.3,272.4,169.9,267.9,162Z" transform="translate(0 -98.8)" style="fill:#1d2f37;stroke:#1d2f37;stroke-miterlimit:10"/><path d="M251,177.3s1.1-3.9,4.9-4,4.3,5.4,3.3,8.7-3.7,4.5-4.5,4.3" transform="translate(0 -98.8)" style="fill:#fff;stroke:#1d2f37;stroke-miterlimit:10"/><path d="M238.3,180.2c.9,3,.2,5.9-1.5,6.4s-3.9-1.5-4.8-4.5-.2-5.9,1.5-6.4S237.4,177.2,238.3,180.2Z" transform="translate(0 -98.8)" style="fill:none;stroke:#1d2f37;stroke-miterlimit:10"/><line x1="238.3" y1="80.8" x2="251.8" y2="76.7" style="fill:none;stroke:#1d2f37;stroke-miterlimit:10"/><path d="M232.9,260.4a49.1,49.1,0,0,1-5.3-2.6c-.9-.6-8.4-6.4-11.2-5.8s-6.1,5.9-6.5,7.8-.7,3.7-.1,4.1.9,0,.9,0-.1.4.7.6l.9.4a7.6,7.6,0,0,0,1.6.2c.8-.1.9-.3.9-.3a1.1,1.1,0,0,0,1,.1l3.1-1.8s3.7,1.9,5.7,1.7a6.9,6.9,0,0,0,3.2-1.2l4.6,2Z" transform="translate(0 -98.8)" style="fill:#fff;stroke:#1d2f37;stroke-miterlimit:10"/><path d="M210.7,263.9s2.6-6.8,5.5-8.8" transform="translate(0 -98.8)" style="fill:none;stroke:#1d2f37;stroke-linecap:round;stroke-miterlimit:10"/><path d="M212.3,264.9s2.9-5.9,6.3-8.5" transform="translate(0 -98.8)" style="fill:none;stroke:#1d2f37;stroke-linecap:round;stroke-miterlimit:10"/><path d="M214.8,264.8s3-5.3,5-6.9" transform="translate(0 -98.8)" style="fill:none;stroke:#1d2f37;stroke-linecap:round;stroke-miterlimit:10"/><path d="M263.8,212.8s-6.1,1-6.5,12.3,1.1,28.4.2,31.4-13.4,3.7-15.3,3.6l-9.3-.4-.7,8.5s16.2,5.3,26.2,7c7.5,1.2,14.5-2.4,17.1-9.1s1.2-37.1,1.2-37.1" transform="translate(0 -98.8)" style="fill:#fff;stroke:#1d2f37;stroke-miterlimit:10"/><line x1="216.9" y1="165.4" x2="184.3" y2="169.4" style="fill:none;stroke:#23b4b3;stroke-linecap:round;stroke-linejoin:round;stroke-width:4px"/><line x1="184.8" y1="170.4" x2="168.6" y2="137" style="fill:none;stroke:#23b4b3;stroke-linecap:round;stroke-linejoin:round;stroke-width:4px"/><path d="M272.1,193.2a41.4,41.4,0,0,1,2.2,5.5c.8,2.9,2.3,4.5,1.8,5.2-3,3.5-24.8,13.4-26.8,12.7s-2.8-5.6-3.7-7.2-2.3-2.9.6-4.7,15.5-8.7,19.6-11.1c.8-.5,1.5-.5,2.3-1.2S270,191.3,272.1,193.2Z" transform="translate(0 -98.8)" style="fill:#edab28"/><path d="M275,203.2s4.2,7,14.2,9.3c14.5,3.3,21-1.8,30.4,3a48.5,48.5,0,0,1,15,12.4l-12.8,13.5s-1.5-10.5-15.7-11.2-32.2-8.7-35.2-24Z" transform="translate(0 -98.8)" style="fill:#edab28"/><rect x="305.3" y="81.2" width="22.6" height="14.07" rx="1.9" style="fill:none;stroke:#1d2f37;stroke-miterlimit:10"/><polygon points="327.8 84.9 327.8 91.5 335.2 95.8 335.2 80.7 327.8 84.9" style="fill:none;stroke:#1d2f37;stroke-miterlimit:10"/><rect x="62.7" y="218.2" width="22.6" height="14.07" rx="1.9" style="fill:none;stroke:#1d2f37;stroke-miterlimit:10"/><polygon points="85.3 221.9 85.3 228.5 92.7 232.8 92.7 217.7 85.3 221.9" style="fill:none;stroke:#1d2f37;stroke-miterlimit:10"/><path d="M349.9,105H305.3a2.9,2.9,0,0,0-2.8,2.9v24.6a2.9,2.9,0,0,0,2.8,2.9h34.3l-1.6,8.3,8.6-8.3h3.3a2.8,2.8,0,0,0,2.8-2.9V107.9A2.8,2.8,0,0,0,349.9,105Z" transform="translate(0 -98.8)" style="fill:#edab28"/><line x1="309.3" y1="15.7" x2="346.5" y2="15.7" style="fill:none;stroke:#1d2f37;stroke-miterlimit:10"/><line x1="309.3" y1="21.6" x2="346.5" y2="21.6" style="fill:none;stroke:#1d2f37;stroke-miterlimit:10"/><line x1="309.3" y1="27.6" x2="346.5" y2="27.6" style="fill:none;stroke:#1d2f37;stroke-miterlimit:10"/><path d="M84.4,98.8h37.7a2.5,2.5,0,0,1,2.4,2.5v20.8a2.4,2.4,0,0,1-2.4,2.4h-29l1.4,7.1-7.3-7.1H84.4a2.4,2.4,0,0,1-2.4-2.4V101.3A2.5,2.5,0,0,1,84.4,98.8Z" transform="translate(0 -98.8)" style="fill:#edab28"/><line x1="118.7" y1="8" x2="87.3" y2="8" style="fill:none;stroke:#1d2f37;stroke-miterlimit:10"/><line x1="118.7" y1="13.1" x2="87.3" y2="13.1" style="fill:none;stroke:#1d2f37;stroke-miterlimit:10"/><line x1="118.7" y1="18.1" x2="87.3" y2="18.1" style="fill:none;stroke:#1d2f37;stroke-miterlimit:10"/><path d="M2.4,248.7H40.1a2.4,2.4,0,0,1,2.4,2.4V272a2.4,2.4,0,0,1-2.4,2.4h-29l1.4,7-7.3-7H2.4A2.4,2.4,0,0,1,0,272V251.1A2.4,2.4,0,0,1,2.4,248.7Z" transform="translate(0 -98.8)" style="fill:#23b4b3"/><line x1="36.7" y1="157.9" x2="5.3" y2="157.9" style="fill:none;stroke:#fff;stroke-miterlimit:10"/><line x1="36.7" y1="163" x2="5.3" y2="163" style="fill:none;stroke:#fff;stroke-miterlimit:10"/><line x1="36.7" y1="168" x2="5.3" y2="168" style="fill:none;stroke:#fff;stroke-miterlimit:10"/><line x1="174.5" y1="77.1" x2="174.7" y2="78.6" style="fill:none;stroke:#1d2f37;stroke-miterlimit:10"/><line x1="175" y1="81.6" x2="178.7" y2="115.3" style="fill:none;stroke:#1d2f37;stroke-miterlimit:10;stroke-dasharray:2.9512741565704346,2.9512741565704346"/><line x1="178.8" y1="116.8" x2="179" y2="118.3" style="fill:none;stroke:#1d2f37;stroke-miterlimit:10"/><line x1="97.2" y1="95.5" x2="98.4" y2="96.4" style="fill:none;stroke:#1d2f37;stroke-miterlimit:10"/><line x1="100.8" y1="98.2" x2="147.4" y2="132.8" style="fill:none;stroke:#1d2f37;stroke-miterlimit:10;stroke-dasharray:2.9763667583465576,2.9763667583465576"/><line x1="148.6" y1="133.7" x2="149.8" y2="134.6" style="fill:none;stroke:#1d2f37;stroke-miterlimit:10"/><line x1="123.5" y1="170.3" x2="125" y2="170.1" style="fill:none;stroke:#1d2f37;stroke-miterlimit:10"/><line x1="128.1" y1="169.6" x2="138.8" y2="167.8" style="fill:none;stroke:#1d2f37;stroke-miterlimit:10;stroke-dasharray:3.114506721496582,3.114506721496582"/><line x1="140.4" y1="167.6" x2="141.8" y2="167.3" style="fill:none;stroke:#1d2f37;stroke-miterlimit:10"/></svg>