<svg id="Layer_1" data-name="Layer 1" xmlns="http://www.w3.org/2000/svg" viewBox="0 0 355 280.4"><ellipse cx="198.1" cy="263.3" rx="36.6" ry="17.1" style="fill:#edab28"/><polygon points="129.7 132.3 47.4 157 47.4 41.6 129.7 16.9 129.7 132.3" style="fill:#1d2f37;stroke:#1d2f37;stroke-linecap:round;stroke-linejoin:round"/><polygon points="133.9 128.1 51.6 152.8 51.6 37.4 133.9 12.8 133.9 128.1" style="fill:#fff;stroke:#1d2f37;stroke-linecap:round;stroke-linejoin:round"/><polygon points="133.9 18.9 51.6 43.6 51.6 37.4 133.9 12.8 133.9 18.9" style="fill:#fff;stroke:#1d2f37;stroke-linecap:round;stroke-linejoin:round"/><path d="M65.2,127.4a6.4,6.4,0,0,1-4.4,5.7,3.1,3.1,0,0,1-4.4-3.1,6.5,6.5,0,0,1,4.4-5.7C63.2,123.6,65.2,125,65.2,127.4Z" transform="translate(0 -79.5)" style="fill:#23b4b3"/><path d="M92.4,172.1s-32.6,17-34.3,20.1-4.6,39.4-4.6,39.4l79.2-23.8s-1.6-33.7-3.2-35.1S99.5,168.9,92.4,172.1Z" transform="translate(0 -79.5)" style="fill:#fff;stroke:#1d2f37;stroke-linecap:round;stroke-linejoin:round"/><path d="M69.5,188.4c3.1,5.9.7,27.6-.8,38.6l19.4-5.8L83,177.1c-4.7,2.6-10.4,5.7-15.2,8.5A22.9,22.9,0,0,1,69.5,188.4Z" transform="translate(0 -79.5)" style="fill:#fff;stroke:#1d2f37;stroke-linecap:round;stroke-linejoin:round"/><path d="M85.4,197.3l-.6-5.2L71,196.6a46.8,46.8,0,0,1,0,5.3Z" transform="translate(0 -79.5)" style="fill:#1d2f37;stroke:#1d2f37;stroke-linecap:round;stroke-linejoin:round"/><path d="M83.5,181,68,186a25.2,25.2,0,0,1,1.5,2.4,9.3,9.3,0,0,1,.8,2.2l13.8-4.5Z" transform="translate(0 -79.5)" style="fill:#1d2f37;stroke:#1d2f37;stroke-linecap:round;stroke-linejoin:round"/><path d="M87.9,219.3l-.6-5.2-17.7,5.8c-.2,2-.5,3.8-.7,5.5Z" transform="translate(0 -79.5)" style="fill:#1d2f37;stroke:#1d2f37;stroke-linecap:round;stroke-linejoin:round"/><path d="M70.4,212.5l16.1-5.3-.6-5.1L70.8,207C70.7,208.8,70.5,210.7,70.4,212.5Z" transform="translate(0 -79.5)" style="fill:#1d2f37;stroke:#1d2f37;stroke-linecap:round;stroke-linejoin:round"/><path d="M86.2,161.8s-.1,15.7.3,16.9,4.1,6,9.4,6,8.2-5.1,9.4-8.3,1.7-14.5,1.7-14.5S91.8,166.2,86.2,161.8Z" transform="translate(0 -79.5)" style="fill:#bcbdc1;stroke:#1d2f37;stroke-linecap:round;stroke-linejoin:round"/><path d="M90.8,163.6a10.6,10.6,0,0,1-4.6-1.8s-.1,9,.1,13.9c6.7-1.4,15.3-5.6,15.3-5.6Z" transform="translate(0 -79.5)" style="fill:#1d2f37;stroke:#1d2f37;stroke-linecap:round;stroke-linejoin:round"/><path d="M109.6,142.1s3.3-4.2,4.2-1-.6,7.5-1.4,9.2a13.1,13.1,0,0,1-2.9,3.3Z" transform="translate(0 -79.5)" style="fill:#bcbdc1;stroke:#1d2f37;stroke-linecap:round;stroke-linejoin:round"/><path d="M81.8,137s-1.5,20.2,2.1,26.7S95,174.8,101,172.1s8.9-6.9,9.9-13,1.8-22.6,1-25.8-2.8-8.5-14.5-6.9S82.9,132.8,81.8,137Z" transform="translate(0 -79.5)" style="fill:#bcbdc1;stroke:#1d2f37;stroke-linecap:round;stroke-linejoin:round"/><path d="M80.7,148.1a8.7,8.7,0,0,1,2.3-4.7c2.1-2.3,4.9-3.9,3.5-7s3.1-4.4,4.7-4.8,4.8,2.5,9.4,1,6.9-4.2,9.1-2.7,1.5,6.9,1.4,7.7.5,5.5.5,5.5,2.6-9.7,2.8-11.8-4-11.4-11.1-12.6-16.7,1.3-21.2,6.8-3.7,9.6-3.1,12.7a18.8,18.8,0,0,1,0,6.7S79.6,150.2,80.7,148.1Z" transform="translate(0 -79.5)" style="fill:#1d2f37;stroke:#1d2f37;stroke-linecap:round;stroke-linejoin:round"/><path d="M82.2,148.7s-4.3-7.4-6.4-2.5,2,12,3.5,12.3,3.2-1.3,3.2-1.3" transform="translate(0 -79.5)" style="fill:#bcbdc1;stroke:#1d2f37;stroke-linecap:round;stroke-linejoin:round"/><path d="M93.1,147.5c-.2,1.5-.8,2.7-1.5,2.7s-1-1.3-.8-2.8.9-2.8,1.5-2.8S93.3,145.9,93.1,147.5Z" transform="translate(0 -79.5)" style="fill:#1d2f37"/><path d="M106.9,145.2c-.2,1.6-.8,2.8-1.5,2.8s-1-1.3-.8-2.9.9-2.7,1.5-2.7S107.1,143.7,106.9,145.2Z" transform="translate(0 -79.5)" style="fill:#1d2f37"/><path d="M103.3,148.7a5,5,0,0,1,0,3.4,5.3,5.3,0,0,1-5.1,2.9c-2.7-.1-4.1-2.9-4.1-2.9" transform="translate(0 -79.5)" style="fill:none;stroke:#1d2f37;stroke-linecap:round;stroke-linejoin:round"/><path d="M91.9,158.6s4.8,4.1,13.7-2.4" transform="translate(0 -79.5)" style="fill:none;stroke:#1d2f37;stroke-linecap:round;stroke-linejoin:round"/><path d="M88.1,142.4s1.7-1.8,5.6-1.7" transform="translate(0 -79.5)" style="fill:none;stroke:#1d2f37;stroke-linecap:round;stroke-linejoin:round"/><path d="M102.9,139.1a4.8,4.8,0,0,1,6.2-.2" transform="translate(0 -79.5)" style="fill:none;stroke:#1d2f37;stroke-linecap:round;stroke-linejoin:round"/><path d="M124.6,183.2c-1.5-5.4-2.7-9.4-3.5-12-3.7-.3-8.4-.6-12.8-.7.9,2,2.2,6.3,3.1,15.7s1,20.6.9,27.8l14.7-4.4C126.9,202.1,126.5,190.1,124.6,183.2Z" transform="translate(0 -79.5)" style="fill:#fff;stroke:#1d2f37;stroke-linecap:round;stroke-linejoin:round"/><path d="M110.2,177.6l11.7-3.8c-.3-.9-.5-1.8-.8-2.6l-6.2-.4-5.8,1.9C109.4,173.9,109.8,175.5,110.2,177.6Z" transform="translate(0 -79.5)" style="fill:#1d2f37;stroke:#1d2f37;stroke-linecap:round;stroke-linejoin:round"/><path d="M111.6,188.8l13.3-4.3-.3-1.3c-.4-1.3-.7-2.5-1-3.6l-12.5,4,.3,2.6C111.5,187,111.5,187.9,111.6,188.8Z" transform="translate(0 -79.5)" style="fill:#1d2f37;stroke:#1d2f37;stroke-linecap:round;stroke-linejoin:round"/><path d="M126.3,194.3c-.1-1.7-.3-3.5-.5-5.1l-13.9,4.5.3,5.2Z" transform="translate(0 -79.5)" style="fill:#1d2f37;stroke:#1d2f37;stroke-linecap:round;stroke-linejoin:round"/><path d="M127,206.6c-.1-1.7-.1-3.4-.2-5.3L112.3,206v5.3Z" transform="translate(0 -79.5)" style="fill:#1d2f37;stroke:#1d2f37;stroke-linecap:round;stroke-linejoin:round"/><rect x="152.8" y="14" width="90.7" height="115.37" style="fill:#1d2f37;stroke:#1d2f37;stroke-linecap:round;stroke-linejoin:round"/><rect x="152.8" y="11.4" width="90.7" height="115.37" style="fill:#fff;stroke:#1d2f37;stroke-linecap:round;stroke-linejoin:round"/><rect x="152.8" y="11.4" width="90.7" height="6.16" style="fill:#fff;stroke:#1d2f37;stroke-linecap:round;stroke-linejoin:round"/><path d="M166.5,105.5a4.4,4.4,0,1,1-4.4-4.4A4.4,4.4,0,0,1,166.5,105.5Z" transform="translate(0 -79.5)" style="fill:#23b4b3"/><path d="M201.2,115.4s-10.1-8.2-19.4-4.5-16.2,31.6-14.4,39.9S179,164.7,179,164.7s-1.9,5-3.5,2.5-3.7-2.5-2.9,4.7,9.4,7.7,16,8.7,21.8,3.1,29,.2,8.7-9.5,7.8-11.3-3.5,2-5.9.8-.2-2.3,3.9-6.2,5.5-17.2,3.5-25.9-6.8-17.3-14.2-21S203,112.7,201.2,115.4Z" transform="translate(0 -79.5)" style="fill:#1d2f37;stroke:#1d2f37;stroke-linecap:round;stroke-linejoin:round"/><polygon points="242.9 126.7 237.3 110.4 237.5 126.7 242.9 126.7" style="fill:#fff;stroke:#1d2f37;stroke-linecap:round;stroke-linejoin:round"/><polygon points="157.1 126.7 158.8 110.4 153 126.7 157.1 126.7" style="fill:#fff;stroke:#1d2f37;stroke-linecap:round;stroke-linejoin:round"/><polygon points="237.5 126.7 237.3 110.4 210.1 97.7 188.3 94.1 158.8 110.4 155.9 126.7 237.5 126.7" style="fill:#fff;stroke:#1d2f37;stroke-linecap:round;stroke-linejoin:round"/><path d="M192.2,169.1s-2.6-3.9-4.5-2.4-10,7.6-8.3,12.4,12.6,10.6,19.8,10.6,15-9.5,15.2-10.6-5.4-9.4-6.3-9.8S198.5,170.2,192.2,169.1Z" transform="translate(0 -79.5)" style="fill:#fff;stroke:#1d2f37;stroke-linecap:round;stroke-linejoin:round"/><path d="M191.2,175.4s3.9,12.5,14,11.9" transform="translate(0 -79.5)" style="fill:#fff;stroke:#1d2f37;stroke-linecap:round;stroke-linejoin:round"/><path d="M191.2,162.8v12.6a15.6,15.6,0,0,0,8,2.8,8.5,8.5,0,0,0,7-3.2V162.8S194.4,165.2,191.2,162.8Z" transform="translate(0 -79.5)" style="fill:#fff;stroke:#1d2f37;stroke-linecap:round;stroke-linejoin:round"/><path d="M184.5,147.6s-1.5-4-2.6,0,4.8,9.9,4.8,7.4S184.5,147.6,184.5,147.6Z" transform="translate(0 -79.5)" style="fill:none;stroke:#1d2f37;stroke-linecap:round;stroke-linejoin:round"/><path d="M212.1,147.6s1.6-4,2.7,0-4.9,9.9-4.9,7.4S212.1,147.6,212.1,147.6Z" transform="translate(0 -79.5)" style="fill:none;stroke:#1d2f37;stroke-linecap:round;stroke-linejoin:round"/><path d="M198.5,126s-14.7,13.3-15.4,16.6,3.9,17.8,5.7,20,5.4,5.4,9.7,5.4,6.4-1.5,9-5.4,4.8-14.6,4.5-19S198.5,126,198.5,126Z" transform="translate(0 -79.5)" style="fill:#fff;stroke:#1d2f37;stroke-linecap:round;stroke-linejoin:round"/><path d="M187.7,142.8s4.3-.7,6.3,2.4" transform="translate(0 -79.5)" style="fill:none;stroke:#1d2f37;stroke-linecap:round;stroke-linejoin:round"/><path d="M201.8,145.6a6.8,6.8,0,0,1,6.1-2.4" transform="translate(0 -79.5)" style="fill:none;stroke:#1d2f37;stroke-linecap:round;stroke-linejoin:round"/><path d="M192.7,145.1a1.3,1.3,0,1,0-2.6,0,1.3,1.3,0,1,0,2.6,0Z" transform="translate(0 -79.5)" style="fill:#1d2f37"/><path d="M205.5,145.1a1.3,1.3,0,0,0-1.4-1.3,1.3,1.3,0,0,0-1.3,1.3,1.3,1.3,0,0,0,1.3,1.4A1.4,1.4,0,0,0,205.5,145.1Z" transform="translate(0 -79.5)" style="fill:#1d2f37"/><path d="M194.6,154.4a4.4,4.4,0,0,0,2.8,1.5c1.5,0,3.8-1.3,4-1.9" transform="translate(0 -79.5)" style="fill:none;stroke:#1d2f37;stroke-linecap:round;stroke-linejoin:round"/><path d="M192,156.8a11.3,11.3,0,0,0,5.5,1.8,8.4,8.4,0,0,0,5.2-1.2" transform="translate(0 -79.5)" style="fill:none;stroke:#1d2f37;stroke-linecap:round;stroke-linejoin:round"/><path d="M187.9,139.8a6.1,6.1,0,0,1,5.7-.6" transform="translate(0 -79.5)" style="fill:none;stroke:#1d2f37;stroke-linecap:round;stroke-linejoin:round"/><path d="M201.2,139.6a5.8,5.8,0,0,1,6.7.9" transform="translate(0 -79.5)" style="fill:none;stroke:#1d2f37;stroke-linecap:round;stroke-linejoin:round"/><polygon points="267.7 133.3 350.1 158 350.1 42.6 267.7 17.9 267.7 133.3" style="fill:#1d2f37;stroke:#1d2f37;stroke-linecap:round;stroke-linejoin:round"/><polygon points="264.7 128.1 347 152.8 347 37.4 264.7 12.8 264.7 128.1" style="fill:#fff;stroke:#1d2f37;stroke-linecap:round;stroke-linejoin:round"/><polygon points="264.7 18.9 347 43.6 347 37.4 264.7 12.8 264.7 18.9" style="fill:#fff;stroke:#1d2f37;stroke-linecap:round;stroke-linejoin:round"/><path d="M269.7,108.1a6.3,6.3,0,0,0,4.4,5.7,3.1,3.1,0,0,0,4.4-3.1,6.4,6.4,0,0,0-4.4-5.7C271.6,104.3,269.7,105.7,269.7,108.1Z" transform="translate(0 -79.5)" style="fill:#23b4b3"/><path d="M320.9,127.6l-.5-.9c-1.2-2.3-4.6-8.4-9-10.7s-12.6-4-11.7-2a8.7,8.7,0,0,0,2.6,3.2s-11.4-1.4-15.2,1.3-5.4,5-3.4,5h2s-9.4,10.2-9.8,15,4.3,6,4.3,6,2.1,10,3.8,12.9,2.7,1.6,2.7,1.6,5.6,6.2,10.6,8.6,11,2.2,18.7,1.6,11.1-1.1,12.9-6.9a52.2,52.2,0,0,0,2.1-11.2s2.2,3.8,2.3,0-.6-12.6-3-15.6a30,30,0,0,0-5.5-5.3s4.5.8,1.6-1.8C326.4,128.4,323,126.6,320.9,127.6Z" transform="translate(0 -79.5)" style="fill:#1d2f37;stroke:#1d2f37;stroke-linecap:round;stroke-linejoin:round"/><polygon points="274.5 97.5 266.3 128.3 275.2 131.1 274.5 97.5" style="fill:#1d2f37;stroke:#1d2f37;stroke-linecap:round;stroke-linejoin:round"/><polygon points="332 105.8 342 151 331 147.7 332 105.8" style="fill:#1d2f37;stroke:#1d2f37;stroke-linecap:round;stroke-linejoin:round"/><polygon points="299.5 87.6 274.5 97.5 275.2 131.1 331 147.7 332 105.8 311.7 89.4 299.5 87.6" style="fill:#1d2f37;stroke:#1d2f37;stroke-linecap:round;stroke-linejoin:round"/><polygon points="294.7 136.4 304.3 139.4 313.4 90.8 311.7 89.4 299.5 87.6 296.6 88.8 294.7 136.4" style="fill:#fff;stroke:#1d2f37;stroke-linecap:round;stroke-linejoin:round"/><path d="M298.1,163.8s.4,14.2,2.2,17.2,11.8-9.2,12.5-11,2.5-8.7,2.5-8.7-10.6,4.5-12.7,3.9Z" transform="translate(0 -79.5)" style="fill:#fff;stroke:#1d2f37;stroke-linecap:round;stroke-linejoin:round"/><path d="M315.3,161.3s-3.6,1.5-7,2.6l-3.8,4.3h8.9C314.2,165.5,315.3,161.3,315.3,161.3Z" transform="translate(0 -79.5)" style="fill:#1d2f37;stroke:#1d2f37;stroke-linecap:round;stroke-linejoin:round"/><path d="M310.1,132.7l-17.2,9.6s.6,9.8,1,13.6,4.9,13.3,7.7,13.7,14.1-6.9,15.5-8.9,2-7.8,2-7.8S310.4,139.3,310.1,132.7Z" transform="translate(0 -79.5)" style="fill:#fff;stroke:#1d2f37;stroke-linecap:round;stroke-linejoin:round"/><path d="M301.9,148.3l-.5,3.2s-2,.2-1.5,1.6,2.5,3.2,5.3.6" transform="translate(0 -79.5)" style="fill:none;stroke:#1d2f37;stroke-linecap:round;stroke-linejoin:round"/><path d="M298.6,156.7s.7,2.4,4,2.6a8,8,0,0,0,5.2-1.4" transform="translate(0 -79.5)" style="fill:none;stroke:#1d2f37;stroke-linecap:round;stroke-linejoin:round"/><path d="M310.5,150.3c-.1,1.2-.5,2.1-1,2s-.7-1-.6-2.2.5-2,.9-2S310.6,149.1,310.5,150.3Z" transform="translate(0 -79.5)" style="fill:#1d2f37"/><path d="M299.4,147.3c-.1,1.2-.5,2.1-1,2s-.7-1-.6-2.2.5-2,.9-2S299.5,146.1,299.4,147.3Z" transform="translate(0 -79.5)" style="fill:#1d2f37"/><path d="M296.7,142.3s3-1.6,5.1.6" transform="translate(0 -79.5)" style="fill:none;stroke:#1d2f37;stroke-linecap:round;stroke-linejoin:round"/><path d="M306.4,144.3s5-.2,6.4,3" transform="translate(0 -79.5)" style="fill:none;stroke:#1d2f37;stroke-linecap:round;stroke-linejoin:round"/><path d="M187.8,191.8s-1.5-.2-1.5,1.8,1,4.2,2.6,4.7,1.4-2,.9-3A35,35,0,0,0,187.8,191.8Z" transform="translate(0 -79.5)" style="fill:#fff;stroke:#1d2f37;stroke-miterlimit:10"/><path d="M206,191.8s1.6-.2,1.6,1.8-1,4.2-2.7,4.7-1.3-2-.8-3S206,191.8,206,191.8Z" transform="translate(0 -79.5)" style="fill:#fff;stroke:#1d2f37;stroke-miterlimit:10"/><path d="M182.1,272.3l1.2,59.3-1.2,1.5.5,3.3s-1.6-2-3.5-1.2.9,5.4,3.5,7.1,3.6,2.8,5.1,1.5,1.4-5.8,1.4-5.8a25.2,25.2,0,0,0,.9-4.3v-3.5a4.6,4.6,0,0,0,1.9-4.1c0-3,5.1-50.5,5.1-50.5l-15.5-5.8Z" transform="translate(0 -79.5)" style="fill:#1d2f37;stroke:#1d2f37;stroke-linecap:round;stroke-linejoin:round"/><path d="M216.5,272.3l-1.1,59.3,1.1,1.5-.5,3.3s1.7-2,3.5-1.2-.8,5.4-3.5,7.1-3.6,2.8-5.1,1.5-1.3-5.8-1.3-5.8a23,23,0,0,1-1-4.3v-3.5a4.7,4.7,0,0,1-1.8-4.1c0-3-5.1-50.5-5.1-50.5l15.5-5.8Z" transform="translate(0 -79.5)" style="fill:#1d2f37;stroke:#1d2f37;stroke-linecap:round;stroke-linejoin:round"/><path d="M190.5,208.2s-13.5,8.1-13.7,9.1,5,33.2,5,33.2l-2.2,20s5.7,8.6,19,7.9,20.5-6.8,20.5-6.8L215.6,248l2.5-31.9-14.3-7.6Z" transform="translate(0 -79.5)" style="fill:#fff;stroke:#1d2f37;stroke-linecap:round;stroke-linejoin:round"/><path d="M207.3,243.9c-3.6,4.4-8.5,9.7-13.1,12.4" transform="translate(0 -79.5)" style="fill:none;stroke:#1d2f37;stroke-linecap:round;stroke-linejoin:round"/><path d="M212.8,236.9l-2.4,3.1" transform="translate(0 -79.5)" style="fill:none;stroke:#1d2f37;stroke-linecap:round;stroke-linejoin:round"/><path d="M201.8,253.9s-8.8,8.8-13.6,11.3" transform="translate(0 -79.5)" style="fill:none;stroke:#1d2f37;stroke-linecap:round;stroke-linejoin:round"/><polygon points="191.8 121.5 191.8 128 202 128 202 121.7 191.8 121.5" style="fill:#fff;stroke:#1d2f37;stroke-miterlimit:10"/><path d="M196.9,175.6a13.9,13.9,0,0,0-8.4,3.7c-3.5,3.4-2.7,7.3-1.9,10.5s4.1,11.9,5.4,12.6,8.2,1.3,9.9.2,5.2-9.8,5.4-15.7S204.2,175.1,196.9,175.6Z" transform="translate(0 -79.5)" style="fill:#1d2f37;stroke:#1d2f37;stroke-miterlimit:10"/><polygon points="205.2 130.3 188.5 130.3 189.2 125.9 204.6 125.9 205.2 130.3" style="fill:#fff;stroke:#1d2f37;stroke-miterlimit:10"/><path d="M160.8,222.6s-1.1-2.3-2-4.8-2.4-3.5-3.1-4.3a30.1,30.1,0,0,1-2.5-2.6c-.5-.9-1.5.6-1,1.6l.5,1s-1.8-.8-1.8-1.3,1-3.3-.5-2.7-1.5,5-1.1,6.5,7.6,5.3,7.6,5.3l1.4,2.9Z" transform="translate(0 -79.5)" style="fill:#fff;stroke:#1d2f37;stroke-linecap:round;stroke-linejoin:round"/><line x1="152.7" y1="134" x2="155.2" y2="136.4" style="fill:#fff;stroke:#1d2f37;stroke-linecap:round;stroke-linejoin:round"/><path d="M176.8,217.3,173,234.5l-12.5-13.6-4.1,2.2s15.5,28.2,17.6,28,7-7.5,7-7.5Z" transform="translate(0 -79.5)" style="fill:#fff;stroke:#1d2f37;stroke-linecap:round;stroke-linejoin:round"/><path d="M235.8,222.6s1.1-2.3,2-4.8,2.4-3.5,3.1-4.3a30.1,30.1,0,0,0,2.5-2.6c.5-.9,1.5.6,1,1.6l-.5,1s1.8-.8,1.8-1.3-1-3.3.5-2.7,1.5,5,1.1,6.5-7.6,5.3-7.6,5.3l-1.4,2.9Z" transform="translate(0 -79.5)" style="fill:#fff;stroke:#1d2f37;stroke-linecap:round;stroke-linejoin:round"/><line x1="243.9" y1="134" x2="241.4" y2="136.4" style="fill:#fff;stroke:#1d2f37;stroke-linecap:round;stroke-linejoin:round"/><path d="M218.1,216.1l5.5,18.4,12.5-13.6,4.1,2.2s-15.5,28.2-17.6,28-7-7.5-7-7.5Z" transform="translate(0 -79.5)" style="fill:#fff;stroke:#1d2f37;stroke-linecap:round;stroke-linejoin:round"/><rect x="71.4" y="176.5" width="8.7" height="20.33" style="fill:#edab28"/><rect x="82.4" y="167.3" width="8.7" height="29.52" style="fill:#edab28"/><rect x="93.4" y="171.9" width="8.7" height="24.92" style="fill:#edab28"/><rect x="104.5" y="184.9" width="8.7" height="11.97" style="fill:#edab28"/><rect x="115.7" y="160.9" width="8.7" height="35.92" style="fill:#edab28"/><rect x="126.9" y="179.7" width="8.7" height="17.12" style="fill:#edab28"/><polyline points="68.4 168.4 68.4 196.8 138.3 196.8" style="fill:none;stroke:#1d2f37;stroke-linecap:round;stroke-linejoin:round"/><path d="M266,243.7a20.5,20.5,0,1,0,20.5,20.4A20.4,20.4,0,0,0,266,243.7Zm0,26.9a6.5,6.5,0,1,1,6.5-6.5A6.5,6.5,0,0,1,266,270.6Z" transform="translate(0 -79.5)" style="fill:none;stroke:#1d2f37;stroke-linecap:round;stroke-linejoin:round"/><path d="M280.2,249.4,270,259a6.5,6.5,0,0,1,2.5,5.1,7.2,7.2,0,0,1-1,3.6l11.1,8.4a20.3,20.3,0,0,0-2.4-26.7Z" transform="translate(0 -79.5)" style="fill:none;stroke:#1d2f37;stroke-linecap:round;stroke-linejoin:round"/><path d="M327.8,278.6a20.4,20.4,0,1,0-28.9,0A20.4,20.4,0,0,0,327.8,278.6Zm-19.1-19.1a6.6,6.6,0,0,1,9.2,0,6.5,6.5,0,0,1-9.2,9.2A6.6,6.6,0,0,1,308.7,259.5Z" transform="translate(0 -79.5)" style="fill:#23b4b3"/><path d="M313.8,284.6l.3-14a6.6,6.6,0,0,1-5.4-1.9,5.9,5.9,0,0,1-1.7-3.2l-13.9,1.8a20.6,20.6,0,0,0,20.7,17.3Z" transform="translate(0 -79.5)" style="fill:#edab28"/><polyline points="246 238.5 259.6 228.1 276.2 238 297 221 318.3 236.2 327.6 225.8" style="fill:none;stroke:#1d2f37;stroke-linecap:round;stroke-linejoin:round"/><polygon points="330.4 230.2 332.4 220.4 322.9 223.6 330.4 230.2" style="fill:#1d2f37"/><path d="M262.3,307.6a2.7,2.7,0,1,0-2.7,2.7A2.7,2.7,0,0,0,262.3,307.6Z" transform="translate(0 -79.5)" style="fill:#fff;stroke:#1d2f37;stroke-linecap:round;stroke-linejoin:round"/><path d="M279,317.5a2.7,2.7,0,1,0-2.7,2.7A2.7,2.7,0,0,0,279,317.5Z" transform="translate(0 -79.5)" style="fill:#fff;stroke:#1d2f37;stroke-linecap:round;stroke-linejoin:round"/><circle cx="297" cy="221" r="2.7" style="fill:#fff;stroke:#1d2f37;stroke-linecap:round;stroke-linejoin:round"/><path d="M321.1,315.3a2.7,2.7,0,1,0-2.7,2.7A2.7,2.7,0,0,0,321.1,315.3Z" transform="translate(0 -79.5)" style="fill:#fff;stroke:#1d2f37;stroke-linecap:round;stroke-linejoin:round"/><polyline points="68.4 211.1 68.4 239.6 140.2 239.6" style="fill:none;stroke:#1d2f37;stroke-linecap:round;stroke-linejoin:round"/><polygon points="128.9 239.6 102.6 214.5 90.2 234.3 81.2 219.7 69 239.6 128.9 239.6" style="fill:#23b4b3"/><polygon points="134.8 239.6 117.2 214.5 99.4 234.3 86.5 219.7 69 239.6 134.8 239.6" style="fill:none;stroke:#1d2f37;stroke-linecap:round;stroke-linejoin:round"/><line x1="76.8" y1="239.9" x2="76.8" y2="242.7" style="fill:none;stroke:#1d2f37;stroke-linecap:round;stroke-linejoin:round"/><line x1="87.2" y1="239.9" x2="87.2" y2="242.7" style="fill:none;stroke:#1d2f37;stroke-linecap:round;stroke-linejoin:round"/><line x1="97.6" y1="239.9" x2="97.6" y2="242.7" style="fill:none;stroke:#1d2f37;stroke-linecap:round;stroke-linejoin:round"/><line x1="108" y1="239.9" x2="108" y2="242.7" style="fill:none;stroke:#1d2f37;stroke-linecap:round;stroke-linejoin:round"/><line x1="118.5" y1="239.9" x2="118.5" y2="242.7" style="fill:none;stroke:#1d2f37;stroke-linecap:round;stroke-linejoin:round"/><line x1="128.9" y1="239.9" x2="128.9" y2="242.7" style="fill:none;stroke:#1d2f37;stroke-linecap:round;stroke-linejoin:round"/><path d="M22.9,314.8,24,329.1c0,2.2,3.1,3.9,7,3.9s7.1-1.7,7.1-3.9l1.1-14.3Z" transform="translate(0 -79.5)" style="fill:#1d2f37"/><path d="M39.2,314.8c0,2.5-3.7,4.5-8.2,4.5s-8.1-2-8.1-4.5,3.6-4.5,8.1-4.5S39.2,312.3,39.2,314.8Z" transform="translate(0 -79.5)" style="fill:#1d2f37"/><path d="M3.8,259.2c1.8.8,6.1.7,6.1.7a27.4,27.4,0,0,0-1-3.1c-.9-2-4-5.3-6.4-5a3,3,0,0,0-2.4,3.7C.5,257.2,2.3,258.5,3.8,259.2Z" transform="translate(0 -79.5)" style="fill:#23b4b3"/><path d="M5.3,271.8c1.8.3,5.8-.8,6.1-.9a50.2,50.2,0,0,0,2.3,6.5l1.7,3.8a5.2,5.2,0,0,0-.7-1.1c-1.4-1.7-5.2-4.1-7.5-3.1a2.9,2.9,0,0,0-1.3,4.2c.8,1.5,2.8,2.3,4.5,2.5s5-.6,5.9-.9a10.1,10.1,0,0,0,.7,1.5l3.3,6.7c.4.8.7,1.6,1,2.3l-.6-.9c-1.5-1.6-5.3-4-7.6-3.1a3,3,0,0,0-1.3,4.2c.9,1.6,2.9,2.3,4.6,2.6a18.9,18.9,0,0,0,5.7-.9,18.4,18.4,0,0,1,.9,2.5l.6,1.6c.1.6.3,1.1.4,1.7s.5,2.1.8,3.2.3,1.4.4,2.1-1.1-2.3-1.2-2.5c-1.1-1.8-4.5-4.8-7-4.2a3,3,0,0,0-1.9,4c.6,1.6,2.5,2.7,4.1,3.2s5.6,0,6.1,0,.5,2.2.6,3.3.8,4.5,1,6.3h1.6c-.2-1.9-.6-4.1-1.1-6.6s-.5-2.4-.8-3.7a26.7,26.7,0,0,0,3.4-1.6,21.8,21.8,0,0,0,5,3.2c-.5,1.1-.9,2.2-1.3,3.2s-1.8,3.9-2.6,5.5h1.8c.7-1.5,1.4-3.1,2.1-4.9l1.4-3.6c.5.1,4.3.9,6.1.5s3.6-1.3,4.3-2.9a3,3,0,0,0-1.6-4.1c-2.4-.8-6,1.9-7.3,3.7l-1.2,2.1.5-1.5a28.3,28.3,0,0,0,1.1-3.1,10.9,10.9,0,0,0,.5-1.7c.2-.5.3-1.1.5-1.7s.5-2.8.8-4.2a17.6,17.6,0,0,0,5.8,1.4,6.5,6.5,0,0,0,4.7-2.2,3,3,0,0,0-1-4.3c-2.2-1.1-6.2,1-7.8,2.5l-1.6,2.1.3-2.6c.3-2.4.6-4.9.8-7.4l.3-2.3c.3.1,4.1,1.5,5.9,1.4s3.8-.8,4.7-2.2a2.9,2.9,0,0,0-1-4.3c-2.2-1.2-6.1.9-7.7,2.5-.1.1-1.6,1.9-1.9,2.4.2-1.7.3-3.3.6-5a64,64,0,0,1,1.4-6.6c.2.1,4.1,1.6,6.1,1.4s3.7-.7,4.7-2.2a2.9,2.9,0,0,0-1-4.2c-2.3-1.2-6.2.9-7.8,2.5l-1.9,2.4a.4.4,0,0,1,.1-.3,29.7,29.7,0,0,1,2.6-6.3,19.2,19.2,0,0,1,1.8-3.1c.7.3,3.9,1.9,5.6,2a6.2,6.2,0,0,0,5-1.7,2.9,2.9,0,0,0-.6-4.3c-2-1.4-6.2.2-8,1.6a11.1,11.1,0,0,1-1.6,1.6l.9-1.3c1-1.6,2.1-2.9,3-4.1l1.5-1.9c.9,0,4.4-.1,6-.8s3.2-2.1,3.6-3.8a3,3,0,0,0-2.5-3.6c-2.5-.3-5.4,3.1-6.3,5.1-.1.2-1,3.1-1,3.1h.1a14.3,14.3,0,0,0-1.5,1.8,29.2,29.2,0,0,0-3.1,4.1,40.8,40.8,0,0,0-3.3,5.1,45.9,45.9,0,0,0-2.8,6.3h0v-3c-.3-2.2-2.2-6.3-4.6-6.7a2.8,2.8,0,0,0-3.4,2.7c-.2,1.8,1.1,3.6,2.3,4.7s5.3,2.4,5.6,2.5a51.7,51.7,0,0,0-1.6,6.8l-.6,4c0-.6,0-1.2-.1-1.2-.2-2.2-2.1-6.3-4.5-6.8a3,3,0,0,0-3.4,2.8c-.2,1.7,1.1,3.5,2.3,4.6s4.6,2.2,5.4,2.5a10,10,0,0,1-.2,1.6c-.2,2.5-.5,5-.9,7.4-.1.9-.3,1.7-.4,2.5a2.8,2.8,0,0,0-.1-1.1c-.2-2.2-2.1-6.3-4.5-6.7a2.9,2.9,0,0,0-3.4,2.8c-.2,1.7,1.1,3.5,2.3,4.6s4.2,2.1,5.3,2.4l-.6,2.6c-.2.5-.3,1.1-.5,1.6a10.9,10.9,0,0,1-.5,1.7c-.4,1-.7,2.1-1.1,3.1a16.7,16.7,0,0,0-.8,2l.3-2.7A11.2,11.2,0,0,0,34,299v-.6a3,3,0,0,0-3.7-2.5c-2.4.6-3.9,4.8-4,7.1,0,.1.1,1.5.1,2.4l-.3-1.5-.9-3.3a15.4,15.4,0,0,0-.5-1.7,9.8,9.8,0,0,0-.5-1.6l-1.6-3.9c.9-.3,4.2-1.1,5.5-2.1s2.7-2.7,2.7-4.4a3,3,0,0,0-3.2-3.1c-2.4.3-4.6,4.3-5,6.4-.1.2-.2,1.8-.3,2.7a25.6,25.6,0,0,0-1.1-2.4l-3.4-6.6a21.2,21.2,0,0,1-1.1-2.1c.3-.1,4.3-1,5.7-2.1s2.8-2.7,2.8-4.5a3,3,0,0,0-3.2-3c-2.5.3-4.7,4.2-5.1,6.4,0,.2-.3,2.5-.3,3.1-.8-1.5-1.5-3-2.2-4.5a55,55,0,0,1-2.5-6.3c.2-.1,4.3-1,5.8-2.2s2.8-2.6,2.8-4.4a3,3,0,0,0-3.2-3c-2.5.3-4.7,4.2-5.1,6.4a25.1,25.1,0,0,0-.3,3.1c0-.1-.1-.3-.1-.4a40.5,40.5,0,0,1-1.3-6.6c-.1-1.3-.2-2.5-.2-3.6s4.4-.6,5.8-1.5a5.8,5.8,0,0,0,3.2-4.1,2.9,2.9,0,0,0-2.8-3.3c-2.5-.1-5.1,3.6-5.8,5.8,0,.1-.3,1.3-.4,2.2a8.5,8.5,0,0,1,0-1.6c0-1.9.1-3.6.2-5.1a23.2,23.2,0,0,0,.2-2.4,19.9,19.9,0,0,0,4.5-4c.9-1.4,1.6-3.5,1-5.1a3,3,0,0,0-4.1-1.7c-2.2,1.2-2.8,5.6-2.4,7.8a22.9,22.9,0,0,0,.9,3.1h0l-.3,2.2c-.1,1.6-.3,3.3-.3,5.2a42,42,0,0,0,.1,6.1,33.5,33.5,0,0,0,1.2,6.8h0l-1.7-2.4c-1.4-1.7-5.2-4.1-7.5-3.1a2.9,2.9,0,0,0-1.3,4.2C1.6,270.8,3.6,271.6,5.3,271.8Z" transform="translate(0 -79.5)" style="fill:#23b4b3"/><path d="M48.1,260.1c0,.1.7-2.9.8-3.1.3-2.2-.4-6.6-2.7-7.7a3,3,0,0,0-4,1.8c-.6,1.6.2,3.7,1.1,5.1S48,260.1,48.1,260.1Z" transform="translate(0 -79.5)" style="fill:#23b4b3"/><path d="M37.5,314.8c0,2-2.9,3.6-6.5,3.6s-6.4-1.6-6.4-3.6,2.9-3.6,6.4-3.6S37.5,312.8,37.5,314.8Z" transform="translate(0 -79.5)" style="fill:#23b4b3"/><path d="M349.1,79.5H308.6a5.9,5.9,0,0,0-5.9,6v18.1a5.8,5.8,0,0,0,5.9,5.9h35.1l-1.4,5.6,6.9-5.6a6,6,0,0,0,5.8-5.9V85.5A6,6,0,0,0,349.1,79.5Z" transform="translate(0 -79.5)" style="fill:#edab28"/><circle cx="315.2" cy="15.1" r="2.7" style="fill:#1d2f37"/><path d="M331.5,94.6a2.7,2.7,0,1,0-2.7,2.7A2.7,2.7,0,0,0,331.5,94.6Z" transform="translate(0 -79.5)" style="fill:#1d2f37"/><circle cx="342.5" cy="15.1" r="2.7" style="fill:#1d2f37"/><path d="M124.4,116.3h32.4a4.7,4.7,0,0,1,4.7,4.7v14.6a4.7,4.7,0,0,1-4.7,4.7H128.7l-7.3,4.5,2.8-4.5a4.8,4.8,0,0,1-4.6-4.7V121A4.7,4.7,0,0,1,124.4,116.3Z" transform="translate(0 -79.5)" style="fill:#fff;stroke:#1d2f37;stroke-linecap:round;stroke-linejoin:round"/><path d="M149.4,128.4a2.1,2.1,0,0,1,2.1-2.2,2.2,2.2,0,1,1,0,4.3A2.1,2.1,0,0,1,149.4,128.4Z" transform="translate(0 -79.5)" style="fill:#1d2f37"/><path d="M138.4,128.4a2.2,2.2,0,1,1,4.3,0,2.2,2.2,0,0,1-4.3,0Z" transform="translate(0 -79.5)" style="fill:#1d2f37"/><path d="M127.5,128.4a2.1,2.1,0,0,1,2.1-2.2,2.2,2.2,0,1,1,0,4.3A2.1,2.1,0,0,1,127.5,128.4Z" transform="translate(0 -79.5)" style="fill:#1d2f37"/></svg>