<svg id="Layer_1" data-name="Layer 1" xmlns="http://www.w3.org/2000/svg" viewBox="0 0 348.4 279.6"><ellipse cx="142.6" cy="233.2" rx="21.5" ry="11.5" style="fill:#d9d9db"/><path d="M159.4,260.9S157,270,157,272.2s.4,8.3-.5,13.2-6.2,24.1-6.2,24.1l6.1,2.3c.6.1,2.4.6,2.1,2.1s-4.5,1.5-6.7,1-4.8-1.4-5.5-1.4-1.1-5.3-1.4-9.6.9-38.9.9-38.9Z" transform="translate(-4.1 -83.9)" style="fill:#dcdcdd;stroke:#1d2f37;stroke-linecap:round;stroke-miterlimit:10"/><path d="M158.5,313.9c.3-1.5-1.5-2-2.1-2.1l-5.5-2.1a2,2,0,0,0-.6,1.4v1s-1.1.4-4-.7l-.7-.2c.2,1.4.4,2.3.7,2.3s3.3.9,5.5,1.4S158.2,315.3,158.5,313.9Z" transform="translate(-4.1 -83.9)" style="fill:#fff;stroke:#1d2f37;stroke-linecap:round;stroke-miterlimit:10"/><path d="M134.5,262.6a89.6,89.6,0,0,1,.4,10.1c-.3,3.7-2.1,7.5-1.2,13.5s7.1,18.9,8.2,21.4,1.3,2.8,1.3,3.5-2.1,6.1-2,9,2,4.5,3.5,3.5,2.3-6,2.3-7.3-.6-6.2-.6-6.2,1-28.6,1.1-33.4.2-11.8.2-11.8S137.9,265.1,134.5,262.6Z" transform="translate(-4.1 -83.9)" style="fill:#dcdcdd;stroke:#1d2f37;stroke-linecap:round;stroke-miterlimit:10"/><path d="M128.7,226.8s-3.1,9.1-2.8,17.2,5.3,19.8,5.3,19.8,3.9,3.4,12.7,3.7,18.6-6,18.6-6,5.6-21.4,2.5-29.1-4.5-10.8-4.5-10.8l-29-.3Z" transform="translate(-4.1 -83.9)" style="fill:#1d2f37"/><path d="M146.2,316.3,142,316l-.2.2a20.6,20.6,0,0,0-.6,3.9c.1,2.9,2,4.5,3.5,3.5s2.3-6,2.3-7.3-.1-1.3-.2-2.3Z" transform="translate(-4.1 -83.9)" style="fill:#fff;stroke:#1d2f37;stroke-linecap:round;stroke-miterlimit:10"/><path d="M173.5,183.1l-1.2-4.3c-.2-.8-.2-4.9.2-5.3a3,3,0,0,1,1.3-.5s.6-6.9.9-7.1,1.2-1.1,1.1.8-.1,5.1-.1,5.1,5.3,1.7,5.4,3.7a21.3,21.3,0,0,1-.9,6.7,5.1,5.1,0,0,1-1.7,1.6Z" transform="translate(-4.1 -83.9)" style="fill:#dcdcdd;stroke:#1d2f37;stroke-linecap:round;stroke-miterlimit:10"/><path d="M159.2,179.3s3.4,3.4,4.3,5.7,8.2,12.8,8.2,12.8l1.8-14.7,5,.7s-.4,19.1-.9,23.6-1.6,4.6-2.3,5.3-4.9-.9-8-3.9c-1-1-5.9-7.3-5.9-7.3s-1.9-14.3-3.1-16.4S155.8,178.9,159.2,179.3Z" transform="translate(-4.1 -83.9)" style="fill:#fff;stroke:#1d2f37;stroke-linecap:round;stroke-miterlimit:10"/><path d="M143.3,180.5l-8.5,4.1,1.2,44s2.5,1.4,8.5,1.7,7.5,0,10.6-2.5a31.2,31.2,0,0,0,5.4-6.2s-2.5-14.6-2.3-20.8.2-13.9.1-15.7-2.8-4.5-2.8-4.5Z" transform="translate(-4.1 -83.9)" style="fill:#fff"/><path d="M134.7,187.2h0Z" transform="translate(-4.1 -83.9)" style="fill:#1d2f37"/><polygon points="130.6 102.9 130.6 102.9 130.6 102.9 130.6 102.9" style="fill:#1d2f37"/><path d="M134.6,186.5Z" transform="translate(-4.1 -83.9)" style="fill:#1d2f37"/><polygon points="130.6 102.3 130.6 102.3 130.6 102.3 130.6 102.3" style="fill:#1d2f37"/><path d="M134.9,188.8Z" transform="translate(-4.1 -83.9)" style="fill:#1d2f37"/><path d="M134.7,188.7h0Z" transform="translate(-4.1 -83.9)" style="fill:#1d2f37"/><path d="M134.7,185.1Z" transform="translate(-4.1 -83.9)" style="fill:#1d2f37"/><path d="M134.6,186.2Z" transform="translate(-4.1 -83.9)" style="fill:#1d2f37"/><path d="M135.1,186.3Z" transform="translate(-4.1 -83.9)" style="fill:#1d2f37"/><polygon points="131 102.8 131 102.8 131 102.8 131 102.8" style="fill:#1d2f37"/><path d="M135.1,187.1Z" transform="translate(-4.1 -83.9)" style="fill:#1d2f37"/><polygon points="131 103.4 131 103.4 131 103.4 131 103.4" style="fill:#1d2f37"/><path d="M134.9,184.8Z" transform="translate(-4.1 -83.9)" style="fill:#1d2f37"/><path d="M135,184.9Z" transform="translate(-4.1 -83.9)" style="fill:#1d2f37"/><path d="M134.9,188.8h-.1v-.3h0s-.1-.1,0-.1h0a.1.1,0,0,0-.1-.1h.2l-.2-.2h.1c-.1,0,0,0-.1-.1h.1c-.1,0,0-.1,0-.1h-.1c0-.1-.1,0,0-.1h0c0-.1-.1-.1,0-.1h0s-.1,0,0-.1h0c-.1-.1,0-.1,0-.2h0s-.1-.1,0-.1h-.1v-.2h-.1c0-.1.1-.1,0-.2h.1c.1-.1,0-.1,0-.2h.2c.1,0,.1.2.1.2h0s-.1.1,0,.1h0c-.1,0,0,0,0,.1h0c0-.1-.1-.1,0-.2h0c0,.1-.1.2,0,.2h0s.1,0,0,.1.1,0,.1,0a.1.1,0,0,0-.1.1h.1v.2h0a.1.1,0,0,0,.1.1h0c-.1,0,0,.1,0,.1h0c0,.1,0,0-.1,0a.1.1,0,0,0,.1.1h0c0,.1-.1.1,0,.2h0c0,.1-.1.1,0,.2H135s.1,0,0,.1h0v.2h-.2Zm.1-2.4h0C135.1,186.5,135,186.4,135,186.4Zm0-.8h0Zm-.3,1.5Zm.1.9Z" transform="translate(-4.1 -83.9)" style="fill:#1d2f37"/><path d="M135,188.5Z" transform="translate(-4.1 -83.9)" style="fill:#1d2f37"/><path d="M135.1,187.4Z" transform="translate(-4.1 -83.9)" style="fill:#1d2f37"/><path d="M134.8,191.2h0Z" transform="translate(-4.1 -83.9)" style="fill:#1d2f37"/><polygon points="130.7 106.8 130.7 106.8 130.7 106.8 130.7 106.8" style="fill:#1d2f37"/><path d="M134.7,190.4h0Z" transform="translate(-4.1 -83.9)" style="fill:#1d2f37"/><polygon points="130.7 106.2 130.7 106.2 130.7 106.2 130.7 106.2" style="fill:#1d2f37"/><path d="M135,192.7Z" transform="translate(-4.1 -83.9)" style="fill:#1d2f37"/><path d="M134.8,192.6h0Z" transform="translate(-4.1 -83.9)" style="fill:#1d2f37"/><path d="M134.8,189.1Z" transform="translate(-4.1 -83.9)" style="fill:#1d2f37"/><path d="M134.8,190.2h0Z" transform="translate(-4.1 -83.9)" style="fill:#1d2f37"/><path d="M135.2,190.3Z" transform="translate(-4.1 -83.9)" style="fill:#1d2f37"/><polygon points="131.1 106.8 131.1 106.8 131.1 106.8 131.1 106.8" style="fill:#1d2f37"/><path d="M135.3,191.1h0Z" transform="translate(-4.1 -83.9)" style="fill:#1d2f37"/><polygon points="131.1 107.4 131.1 107.4 131.1 107.4 131.1 107.4" style="fill:#1d2f37"/><path d="M135,188.8Z" transform="translate(-4.1 -83.9)" style="fill:#1d2f37"/><path d="M135.1,188.8Z" transform="translate(-4.1 -83.9)" style="fill:#1d2f37"/><path d="M135,192.7h-.1v-.2h0c0-.1-.1-.1,0-.1h0a.1.1,0,0,0-.1-.1h.1c0-.1,0,0-.1-.1h.1c-.1-.1,0-.1,0-.1h-.1v-.2h-.1V191h0c0-.1-.1-.1,0-.1h0c0-.1-.1-.1,0-.1h0c-.1,0,0-.2-.1-.2h.1c-.1,0,0-.1,0-.1h0V190h.1c0-.1-.1-.1,0-.1h0c0-.1-.1-.1,0-.1h0s-.1-.1-.1,0,.1-.1,0-.1h.3c.1,0,.1.1.1.2h0s-.1,0,0,.1h0c-.1.1,0,.1,0,.1h0s-.1-.1,0-.1h0c0,.1-.1.1,0,.1h0c0,.1.1.1,0,.2h0c.1.1.1.1,0,.1h0a.1.1,0,0,0,.1.1h0s0,.2.1.2h-.1c-.1.1,0,.1,0,.2h0v.2h-.1a.1.1,0,0,0,.1.1h0c0,.1-.1,0,0,.1h0c0,.1-.1.1,0,.1H135Zm.1-2.3h0Zm0-.9h0Zm-.3,1.6Zm.1.9h0Z" transform="translate(-4.1 -83.9)" style="fill:#1d2f37"/><path d="M135.1,192.4Z" transform="translate(-4.1 -83.9)" style="fill:#1d2f37"/><path d="M135.2,191.3h0Z" transform="translate(-4.1 -83.9)" style="fill:#1d2f37"/><path d="M134.9,195.1h0Z" transform="translate(-4.1 -83.9)" style="fill:#1d2f37"/><polygon points="130.8 110.8 130.8 110.8 130.8 110.8 130.8 110.8" style="fill:#1d2f37"/><path d="M134.8,194.4Z" transform="translate(-4.1 -83.9)" style="fill:#1d2f37"/><polygon points="130.8 110.2 130.8 110.2 130.8 110.2 130.8 110.2" style="fill:#1d2f37"/><path d="M135.1,196.7Z" transform="translate(-4.1 -83.9)" style="fill:#1d2f37"/><path d="M134.9,196.6h0Z" transform="translate(-4.1 -83.9)" style="fill:#1d2f37"/><path d="M134.9,193.1Z" transform="translate(-4.1 -83.9)" style="fill:#1d2f37"/><path d="M134.9,194.1h0Z" transform="translate(-4.1 -83.9)" style="fill:#1d2f37"/><path d="M135.3,194.3Z" transform="translate(-4.1 -83.9)" style="fill:#1d2f37"/><polygon points="131.2 110.8 131.2 110.7 131.2 110.8 131.2 110.8" style="fill:#1d2f37"/><path d="M135.4,195h0Z" transform="translate(-4.1 -83.9)" style="fill:#1d2f37"/><polygon points="131.2 111.4 131.2 111.4 131.2 111.4 131.2 111.4" style="fill:#1d2f37"/><path d="M135.1,192.7Z" transform="translate(-4.1 -83.9)" style="fill:#1d2f37"/><path d="M135.2,192.8Z" transform="translate(-4.1 -83.9)" style="fill:#1d2f37"/><path d="M135.1,196.7H135v-.2h0c.1,0-.1,0,0-.1h0c0-.1,0-.1-.1-.1h.1v.2h0c0-.1,0-.1-.1-.1h.1a.1.1,0,0,1,0-.2h-.1c0-.1-.1-.1,0-.2h0c0-.1-.1-.1,0-.1h0c-.1,0,0-.1,0-.1h0s-.1,0,0-.1h-.1c0-.1.1-.1.1-.2s-.1,0-.1.1.1-.1,0-.1h.1V193h.3c.1,0,.1.1.1.2h0c-.1,0,0,.1,0,.1h0c0-.1-.1-.1,0-.1h-.1v.2h0s-.1.1,0,.1h0c0,.1.1.1,0,.1h0c.1,0,.1,0,.1.1h-.1c.1,0,.1.1,0,.1h0c.1,0,0-.1,0,0h0a.1.1,0,0,1,.1.1h0c-.1,0,0,.1,0,.1s-.1,0,0,.1h0v.2h0v.2h0s-.1,0,0,.1h0v-.2h-.2Zm.1-2.3h0Zm0-.9Zm-.3,1.6h0Zm.1.8Z" transform="translate(-4.1 -83.9)" style="fill:#1d2f37"/><path d="M135.2,196.4Z" transform="translate(-4.1 -83.9)" style="fill:#1d2f37"/><path d="M135.3,195.3Z" transform="translate(-4.1 -83.9)" style="fill:#1d2f37"/><path d="M135,199.1h0Z" transform="translate(-4.1 -83.9)" style="fill:#1d2f37"/><polygon points="130.9 114.8 130.9 114.8 130.9 114.8 130.9 114.8" style="fill:#1d2f37"/><path d="M134.9,198.4Z" transform="translate(-4.1 -83.9)" style="fill:#1d2f37"/><polygon points="130.9 114.2 130.9 114.2 130.9 114.2 130.9 114.2" style="fill:#1d2f37"/><path d="M135.2,200.7Z" transform="translate(-4.1 -83.9)" style="fill:#1d2f37"/><path d="M135.1,200.6Z" transform="translate(-4.1 -83.9)" style="fill:#1d2f37"/><path d="M135,197Z" transform="translate(-4.1 -83.9)" style="fill:#1d2f37"/><path d="M135,198.1h0Z" transform="translate(-4.1 -83.9)" style="fill:#1d2f37"/><path d="M135.4,198.2Z" transform="translate(-4.1 -83.9)" style="fill:#1d2f37"/><polygon points="131.3 114.7 131.3 114.7 131.3 114.7 131.3 114.7" style="fill:#1d2f37"/><path d="M135.5,199Z" transform="translate(-4.1 -83.9)" style="fill:#1d2f37"/><polygon points="131.3 115.3 131.3 115.3 131.3 115.3 131.3 115.3" style="fill:#1d2f37"/><path d="M135.2,196.7Z" transform="translate(-4.1 -83.9)" style="fill:#1d2f37"/><path d="M135.3,196.8Z" transform="translate(-4.1 -83.9)" style="fill:#1d2f37"/><path d="M135.2,200.7h0a.4.4,0,0,1-.1-.3h0c.1,0-.1-.1,0-.1h.1l-.2-.2h.2c-.1,0-.1-.1-.1,0h0c-.1,0,0-.1,0-.1H135c0-.1-.1-.1,0-.1h0s-.1,0,0-.1h0c-.1-.1,0-.1,0-.2h0s-.1-.1,0-.1h-.1c0-.1.1-.1.1-.2a.1.1,0,0,0-.1.1c0-.1.1-.1,0-.2h.1c-.1,0,0-.1,0-.1h.1v-.2h.2v.2h0c-.1,0,0,0,0,.1h0c0-.1-.1-.1,0-.2h0v.2h0c.1,0,0,.1,0,.1h.1c0,.1,0,.1-.1.1h.1c-.1,0,0,0,0,.1h-.1a.1.1,0,0,1,.1.1h0c-.1,0,0,.1,0,.1h0v.2h0c0,.1-.1.1,0,.2h0v.2h0c-.1,0,0,0,0,.1h-.1v.2h-.2Zm.2-2.4c-.1.1-.1.1,0,.1Zm-.1-.8ZM135,199Zm.1.9Z" transform="translate(-4.1 -83.9)" style="fill:#1d2f37"/><path d="M135.4,200.4Z" transform="translate(-4.1 -83.9)" style="fill:#1d2f37"/><path d="M135.4,199.3Z" transform="translate(-4.1 -83.9)" style="fill:#1d2f37"/><path d="M135.1,203.1h0Z" transform="translate(-4.1 -83.9)" style="fill:#1d2f37"/><polygon points="131 118.7 131 118.7 131 118.7 131 118.7" style="fill:#1d2f37"/><path d="M135,202.3h0C135,202.3,135.1,202.3,135,202.3Z" transform="translate(-4.1 -83.9)" style="fill:#1d2f37"/><polygon points="131 118.1 131 118.1 131 118.1 131 118.1" style="fill:#1d2f37"/><path d="M135.3,204.6Z" transform="translate(-4.1 -83.9)" style="fill:#1d2f37"/><path d="M135.2,204.6Z" transform="translate(-4.1 -83.9)" style="fill:#1d2f37"/><path d="M135.1,201Z" transform="translate(-4.1 -83.9)" style="fill:#1d2f37"/><path d="M135.1,202.1h0Z" transform="translate(-4.1 -83.9)" style="fill:#1d2f37"/><path d="M135.5,202.2Z" transform="translate(-4.1 -83.9)" style="fill:#1d2f37"/><polygon points="131.4 118.7 131.4 118.7 131.4 118.7 131.4 118.7" style="fill:#1d2f37"/><path d="M135.6,203h0C135.6,203,135.5,203,135.6,203Z" transform="translate(-4.1 -83.9)" style="fill:#1d2f37"/><polygon points="131.4 119.3 131.4 119.3 131.4 119.3 131.4 119.3" style="fill:#1d2f37"/><path d="M135.3,200.7Z" transform="translate(-4.1 -83.9)" style="fill:#1d2f37"/><path d="M135.4,200.8h0Z" transform="translate(-4.1 -83.9)" style="fill:#1d2f37"/><path d="M135.3,204.6h0c-.1,0-.1-.1-.1-.2h0c.1-.1-.1-.1,0-.1h.1a.1.1,0,0,1-.1-.1h0c-.1-.1,0-.1,0-.1h0c-.1-.1-.1-.1-.1-.2h0c0-.1-.1-.1,0-.1h0c0-.1-.1-.1,0-.1h0c-.1,0,0-.2-.1-.2h.1c0-.1-.1,0-.1,0h.1c-.1,0,0-.1,0-.1h0v-.2h.1c0-.1-.1-.1,0-.1h0c.1-.1,0-.1,0-.1H135c0-.1.1,0,.1-.1h0c-.1,0,0-.1,0-.1h0a.1.1,0,0,0,.1-.1h.1c.1,0,.1.1.1.2h0c-.1.1,0,.1,0,.1h0c.1.1,0,.1,0,.1h0v.2h0c-.1.1,0,.1,0,.1h0c.1,0,0,.2.1.2h-.1c-.1.1,0,.1,0,.2h0c0,.1.1.1,0,.2h0c-.1,0,0,0,0,.1h0c0,.1-.1.1,0,.1h-.2Zm.2-2.3Zm-.1-.9h0Zm-.3,1.6Zm.1.9h0Z" transform="translate(-4.1 -83.9)" style="fill:#1d2f37"/><path d="M135.5,204.3Z" transform="translate(-4.1 -83.9)" style="fill:#1d2f37"/><path d="M135.5,203.2h0Z" transform="translate(-4.1 -83.9)" style="fill:#1d2f37"/><path d="M135.2,207h0Z" transform="translate(-4.1 -83.9)" style="fill:#1d2f37"/><polygon points="131.1 122.7 131.1 122.7 131.1 122.7 131.1 122.7" style="fill:#1d2f37"/><path d="M135.1,206.3Z" transform="translate(-4.1 -83.9)" style="fill:#1d2f37"/><polygon points="131.1 122.1 131.1 122.1 131.1 122.1 131.1 122.1" style="fill:#1d2f37"/><path d="M135.4,208.6Z" transform="translate(-4.1 -83.9)" style="fill:#1d2f37"/><path d="M135.3,208.5Z" transform="translate(-4.1 -83.9)" style="fill:#1d2f37"/><path d="M135.2,205Z" transform="translate(-4.1 -83.9)" style="fill:#1d2f37"/><path d="M135.2,206h0Z" transform="translate(-4.1 -83.9)" style="fill:#1d2f37"/><path d="M135.6,206.2Z" transform="translate(-4.1 -83.9)" style="fill:#1d2f37"/><polygon points="131.5 122.7 131.5 122.6 131.5 122.7 131.5 122.7" style="fill:#1d2f37"/><path d="M135.7,207h0S135.6,207,135.7,207Z" transform="translate(-4.1 -83.9)" style="fill:#1d2f37"/><polygon points="131.5 123.3 131.5 123.3 131.5 123.3 131.5 123.3" style="fill:#1d2f37"/><path d="M135.4,204.6Z" transform="translate(-4.1 -83.9)" style="fill:#1d2f37"/><path d="M135.5,204.7Z" transform="translate(-4.1 -83.9)" style="fill:#1d2f37"/><path d="M135.4,208.6h0c-.1,0-.1-.2-.1-.2h0c.1,0-.1,0,0-.1h0v.2h0a.1.1,0,0,0,.1.1h0a.1.1,0,0,0-.1-.1h0a.1.1,0,0,1,0-.2h0c-.1,0-.1,0-.1-.1h0c0-.1-.1-.1,0-.2h0c0-.1-.1-.1,0-.1h0c-.1-.1,0-.2-.1-.2h.1c0-.1,0,0-.1,0h.1c-.1,0,0-.1,0-.1h0s-.1,0,0-.1h0c.1-.1,0,0,0-.1h-.1c0-.1.1-.1.1-.2h0v-.2h.2c.1,0,.1.1.1.2h0c-.1,0,0,.1,0,.1h-.1v.2h0c.1,0,0,.1,0,.1h0a.1.1,0,0,1,.1.1h0c-.1.1,0,.1,0,.1h0c.1,0,0,.1.1.2h-.1v.2h0c0,.1.1.1,0,.2h0c-.1.1,0,0,0,.1h0s-.1,0,0,.1h0c.1,0,0,0,0,.1h0v-.2c-.1.1,0,.1,0,.1h-.2Zm.2-2.3Zm-.1-.9Zm-.3,1.6s.1-.1,0-.1Zm.1.8Z" transform="translate(-4.1 -83.9)" style="fill:#1d2f37"/><path d="M135.6,208.3Z" transform="translate(-4.1 -83.9)" style="fill:#1d2f37"/><path d="M135.6,207.2Z" transform="translate(-4.1 -83.9)" style="fill:#1d2f37"/><path d="M135.3,211Z" transform="translate(-4.1 -83.9)" style="fill:#1d2f37"/><polygon points="131.2 126.7 131.2 126.7 131.2 126.7 131.2 126.7" style="fill:#1d2f37"/><path d="M135.2,210.3Z" transform="translate(-4.1 -83.9)" style="fill:#1d2f37"/><polygon points="131.2 126.1 131.2 126.1 131.2 126.1 131.2 126.1" style="fill:#1d2f37"/><path d="M135.5,212.6Z" transform="translate(-4.1 -83.9)" style="fill:#1d2f37"/><path d="M135.4,212.5Z" transform="translate(-4.1 -83.9)" style="fill:#1d2f37"/><path d="M135.3,208.9Z" transform="translate(-4.1 -83.9)" style="fill:#1d2f37"/><path d="M135.3,210h0Z" transform="translate(-4.1 -83.9)" style="fill:#1d2f37"/><path d="M135.7,210.2h0Z" transform="translate(-4.1 -83.9)" style="fill:#1d2f37"/><polygon points="131.6 126.6 131.6 126.6 131.6 126.6 131.6 126.6" style="fill:#1d2f37"/><path d="M135.8,210.9Z" transform="translate(-4.1 -83.9)" style="fill:#1d2f37"/><polygon points="131.6 127.2 131.6 127.2 131.6 127.2 131.6 127.2" style="fill:#1d2f37"/><path d="M135.5,208.6Z" transform="translate(-4.1 -83.9)" style="fill:#1d2f37"/><path d="M135.6,208.7Z" transform="translate(-4.1 -83.9)" style="fill:#1d2f37"/><path d="M135.5,212.6h0c-.1,0-.1-.2-.1-.3h0c.1,0-.1-.1,0-.1h.1v-.2h0c-.1,0,0-.1,0-.1h0a.1.1,0,0,1-.1-.1h0c.1-.1-.1-.1,0-.1h0c.1,0-.1,0,0-.1h0s0,.1-.1,0h.1V210h0c.1-.1,0,0,0-.1h-.1c.1,0,.1,0,.1-.1h-.1v-.2s-.1,0,0,.1,0-.1,0-.2h.1v-.2h0a.1.1,0,0,1,.1-.1h.1v.2h0c-.1,0,0,0,0,.1h0v-.2h0v.2h-.1c.1,0,0,.1,0,.1h.1c-.1,0,0,0,0,.1h0c-.1,0,0,0,0,.1h0c.1,0,0,.1.1.1h-.1v.2h0s.1.1,0,.1h0c-.1.1,0,0,0,.1h0v.2h0c.1.1,0,.1,0,.1h-.1c0,.1.1.1.1.2h-.2Zm.2-2.4c0,.1-.1.1,0,.1Zm-.1-.8Zm-.3,1.5Zm.1.9Z" transform="translate(-4.1 -83.9)" style="fill:#1d2f37"/><path d="M135.7,212.3Z" transform="translate(-4.1 -83.9)" style="fill:#1d2f37"/><path d="M135.7,211.2Z" transform="translate(-4.1 -83.9)" style="fill:#1d2f37"/><path d="M135.4,215Z" transform="translate(-4.1 -83.9)" style="fill:#1d2f37"/><polygon points="131.3 130.6 131.3 130.6 131.3 130.6 131.3 130.6" style="fill:#1d2f37"/><path d="M135.3,214.2h0C135.3,214.2,135.4,214.2,135.3,214.2Z" transform="translate(-4.1 -83.9)" style="fill:#1d2f37"/><polygon points="131.3 130 131.3 130 131.3 130 131.3 130" style="fill:#1d2f37"/><path d="M135.6,216.5Z" transform="translate(-4.1 -83.9)" style="fill:#1d2f37"/><path d="M135.5,216.5Z" transform="translate(-4.1 -83.9)" style="fill:#1d2f37"/><path d="M135.4,212.9Z" transform="translate(-4.1 -83.9)" style="fill:#1d2f37"/><path d="M135.4,214h0Z" transform="translate(-4.1 -83.9)" style="fill:#1d2f37"/><path d="M135.8,214.1Z" transform="translate(-4.1 -83.9)" style="fill:#1d2f37"/><polygon points="131.7 130.6 131.7 130.6 131.7 130.6 131.7 130.6" style="fill:#1d2f37"/><path d="M135.9,214.9h0C135.9,214.9,135.8,214.9,135.9,214.9Z" transform="translate(-4.1 -83.9)" style="fill:#1d2f37"/><polygon points="131.7 131.2 131.7 131.2 131.7 131.2 131.7 131.2" style="fill:#1d2f37"/><path d="M135.6,212.6Z" transform="translate(-4.1 -83.9)" style="fill:#1d2f37"/><path d="M135.7,212.7h0Z" transform="translate(-4.1 -83.9)" style="fill:#1d2f37"/><path d="M135.6,216.5h0c-.1,0-.1-.1-.1-.2h0c.1-.1-.1-.1,0-.1h.1v-.2h0c-.1-.1,0-.1,0-.1h0v-.2h0c.1-.1-.1-.1,0-.1h0c.1-.1,0-.1,0-.1h0c-.1,0,0-.2-.1-.2h.1V214h0v-.2h.1c.1-.1,0-.1,0-.1h-.1a.1.1,0,0,0,.1-.1h0c-.1,0,0,0,0-.1h.3v.2h0c-.1.1.1.1,0,.1h-.1a.1.1,0,0,1,.1.1h0c.1.1,0,.1,0,.2h0v.2h0c0,.1,0,0,.1,0s-.1,0-.1.1h0c-.1.1,0,.1,0,.1h0c-.1.1,0,.1,0,.1h0c.1,0,0,.2.1.2s0,0-.1-.1h0v.2h0v.2h-.1c-.1,0,0,0,0,.1h0c.1,0,0,.1,0,.1h-.1a.1.1,0,0,0,.1.1h-.2Zm.2-2.3Zm-.1-.9h0Zm-.3,1.6Zm.1.9h0Z" transform="translate(-4.1 -83.9)" style="fill:#1d2f37"/><path d="M135.8,216.2Z" transform="translate(-4.1 -83.9)" style="fill:#1d2f37"/><path d="M135.8,215.1h0Z" transform="translate(-4.1 -83.9)" style="fill:#1d2f37"/><path d="M135.5,218.9h0Z" transform="translate(-4.1 -83.9)" style="fill:#1d2f37"/><polygon points="131.4 134.6 131.4 134.6 131.4 134.6 131.4 134.6" style="fill:#1d2f37"/><path d="M135.4,218.2Z" transform="translate(-4.1 -83.9)" style="fill:#1d2f37"/><polygon points="131.4 134 131.4 134 131.4 134 131.4 134" style="fill:#1d2f37"/><path d="M135.7,220.5Z" transform="translate(-4.1 -83.9)" style="fill:#1d2f37"/><path d="M135.6,220.4Z" transform="translate(-4.1 -83.9)" style="fill:#1d2f37"/><path d="M135.5,216.9Z" transform="translate(-4.1 -83.9)" style="fill:#1d2f37"/><path d="M135.5,217.9h0Z" transform="translate(-4.1 -83.9)" style="fill:#1d2f37"/><path d="M135.9,218.1Z" transform="translate(-4.1 -83.9)" style="fill:#1d2f37"/><polygon points="131.8 134.6 131.8 134.6 131.8 134.6 131.8 134.6" style="fill:#1d2f37"/><path d="M136,218.9h0S135.9,218.9,136,218.9Z" transform="translate(-4.1 -83.9)" style="fill:#1d2f37"/><polygon points="131.8 135.2 131.8 135.2 131.8 135.2 131.8 135.2" style="fill:#1d2f37"/><path d="M135.7,216.5Z" transform="translate(-4.1 -83.9)" style="fill:#1d2f37"/><path d="M135.8,216.6Z" transform="translate(-4.1 -83.9)" style="fill:#1d2f37"/><path d="M135.7,220.5h0c-.1,0-.1-.2-.1-.2h0c.1,0-.1,0,0-.1h0a.1.1,0,0,1,0-.2h-.1c0-.1.1,0,.1,0v-.2h0c.1-.1,0-.1,0-.2a.1.1,0,0,0,.1.1h0a.1.1,0,0,0-.1-.1h0c.1-.1,0-.1,0-.1h0c-.1,0,0-.2-.1-.2h.1c.1,0,0,0,0-.1h0c0-.1.1-.1,0-.2h0c-.1,0,0-.1,0-.1h.3v.2h0c-.1.1.1.1,0,.1h-.1c.1.1.1.1.1.2h0c.1,0,0,.1,0,.1s0,0,.1.1h0c-.1.1,0,.1,0,.1s-.1-.1-.1,0h.1c-.1.1,0,0,0,.1h0c.1,0,0,.1.1.2s0,0-.1-.1h0v.2h0c0,.1.1.1.1.2h-.1c-.1.1,0,0,0,.1h0c.1,0,0,0,0,.1h0v-.2h-.2Zm.2-2.3Zm-.1-.9Zm-.3,1.6s.1-.1,0-.1Zm.1.8Z" transform="translate(-4.1 -83.9)" style="fill:#1d2f37"/><path d="M135.9,220.2Z" transform="translate(-4.1 -83.9)" style="fill:#1d2f37"/><path d="M135.9,219.1h0Z" transform="translate(-4.1 -83.9)" style="fill:#1d2f37"/><path d="M135.6,222.9Z" transform="translate(-4.1 -83.9)" style="fill:#1d2f37"/><polygon points="131.5 138.6 131.5 138.6 131.5 138.6 131.5 138.6" style="fill:#1d2f37"/><path d="M135.5,222.2Z" transform="translate(-4.1 -83.9)" style="fill:#1d2f37"/><polygon points="131.5 138 131.5 138 131.5 138 131.5 138" style="fill:#1d2f37"/><path d="M135.8,224.5Z" transform="translate(-4.1 -83.9)" style="fill:#1d2f37"/><path d="M135.7,224.4Z" transform="translate(-4.1 -83.9)" style="fill:#1d2f37"/><path d="M135.6,220.8Z" transform="translate(-4.1 -83.9)" style="fill:#1d2f37"/><path d="M135.6,221.9h0Z" transform="translate(-4.1 -83.9)" style="fill:#1d2f37"/><path d="M136,222.1Z" transform="translate(-4.1 -83.9)" style="fill:#1d2f37"/><polygon points="131.9 138.5 131.9 138.5 131.9 138.5 131.9 138.5" style="fill:#1d2f37"/><path d="M136.1,222.8Z" transform="translate(-4.1 -83.9)" style="fill:#1d2f37"/><polygon points="131.9 139.1 131.9 139.1 132 139.1 131.9 139.1" style="fill:#1d2f37"/><path d="M135.8,220.5Z" transform="translate(-4.1 -83.9)" style="fill:#1d2f37"/><path d="M135.9,220.6Z" transform="translate(-4.1 -83.9)" style="fill:#1d2f37"/><path d="M135.8,224.5h0c-.1,0-.1-.2-.1-.3h0c.1,0-.1,0,0-.1h0c0,.1.1.1,0,.1h.1c0-.1-.1-.1-.1-.2h0c-.1,0,0-.1,0-.1h-.1s.1.1.1,0h-.1c.1-.1,0,0,0-.1h-.1c.1-.1,0,0,.1,0h0v-.2h-.1a.1.1,0,0,0,.1-.1h0c.1-.1,0,0,0-.1h0c0-.1.1-.1,0-.2h0c-.1-.1,0-.1,0-.2h0c.1,0,0-.1,0-.1h.1c0-.1-.1-.1-.1-.2h.3v.2h0c-.1,0,.1,0,0,.1h0V221h0v.2h-.1c.1,0,0,.1,0,.1h.1s0-.1-.1,0h.1c0-.1,0-.1-.1-.1h.1c-.1,0-.1-.1-.1,0h.2c0,.1,0,0-.1,0h0v.2h.1a.1.1,0,0,0-.1.1h0c-.1.1,0,0,0,.1h0s0-.1.1,0H136v.2c0-.1.1,0,0-.1s0,.1,0,.1h-.1c0,.1.1.1.1.2h-.2Zm.2-2.4c0,.1-.1.1,0,.1Zm-.1-.8Zm-.3,1.5Zm.1.9Z" transform="translate(-4.1 -83.9)" style="fill:#1d2f37"/><path d="M136,224.2Z" transform="translate(-4.1 -83.9)" style="fill:#1d2f37"/><path d="M136,223.1h0Z" transform="translate(-4.1 -83.9)" style="fill:#1d2f37"/><path d="M135.7,226.9Z" transform="translate(-4.1 -83.9)" style="fill:#1d2f37"/><polygon points="131.6 142.5 131.6 142.5 131.6 142.5 131.6 142.5" style="fill:#1d2f37"/><path d="M135.6,226.1h0C135.6,226.1,135.7,226.1,135.6,226.1Z" transform="translate(-4.1 -83.9)" style="fill:#1d2f37"/><polygon points="131.6 141.9 131.6 141.9 131.6 141.9 131.6 141.9" style="fill:#1d2f37"/><path d="M135.9,228.4Z" transform="translate(-4.1 -83.9)" style="fill:#1d2f37"/><path d="M135.8,228.4Z" transform="translate(-4.1 -83.9)" style="fill:#1d2f37"/><path d="M135.7,224.8Z" transform="translate(-4.1 -83.9)" style="fill:#1d2f37"/><path d="M135.7,225.9Z" transform="translate(-4.1 -83.9)" style="fill:#1d2f37"/><path d="M136.1,226Z" transform="translate(-4.1 -83.9)" style="fill:#1d2f37"/><polygon points="132.1 142.5 132.1 142.5 132 142.5 132.1 142.5" style="fill:#1d2f37"/><path d="M136.2,226.8h0C136.2,226.8,136.1,226.8,136.2,226.8Z" transform="translate(-4.1 -83.9)" style="fill:#1d2f37"/><polygon points="132.1 143.1 132.1 143.1 132.1 143.1 132.1 143.1" style="fill:#1d2f37"/><path d="M135.9,224.5Z" transform="translate(-4.1 -83.9)" style="fill:#1d2f37"/><path d="M136,224.6h0Z" transform="translate(-4.1 -83.9)" style="fill:#1d2f37"/><path d="M135.9,228.4h0c-.1,0-.1-.1-.1-.2h0c.1-.1,0-.1,0-.1h0s.1.1,0,.1h.1c0-.1-.1-.1-.1-.2h0c-.1-.1.1-.1,0-.1h0V227h0c.1-.1,0-.1,0-.1h0c-.1,0,0-.2-.1-.2s0,0,.1.1h0c.1-.1,0-.1,0-.1h0v-.2h0c0-.1-.1-.1,0-.2h0c.1-.1,0-.1,0-.1h0c0-.1.1,0,0-.1h0c-.1,0,0,0,0-.1h0v.2c.1-.1,0-.1,0-.1h.3v.2h0c-.1.1.1.1,0,.1h0c.1.1,0,.1,0,.2h0v.2h0c0,.1.1.1,0,.1h0c.1,0,0,.2.1.2h-.1v.2h0v.2h-.1c0,.1,0,0,.1.1h-.3Zm.2-2.3s-.1,0,0,.1Zm-.1-.9h0Zm-.3,1.6Zm.1.9h0Z" transform="translate(-4.1 -83.9)" style="fill:#1d2f37"/><path d="M136.1,228.1Z" transform="translate(-4.1 -83.9)" style="fill:#1d2f37"/><path d="M136.1,227h0Z" transform="translate(-4.1 -83.9)" style="fill:#1d2f37"/><path d="M138.3,229.7h0Z" transform="translate(-4.1 -83.9)" style="fill:#1d2f37"/><polygon points="133.9 145.6 133.9 145.6 133.9 145.6 133.9 145.6" style="fill:#1d2f37"/><path d="M137.6,229.5Z" transform="translate(-4.1 -83.9)" style="fill:#1d2f37"/><polygon points="133.3 145.4 133.3 145.4 133.3 145.4 133.3 145.4" style="fill:#1d2f37"/><path d="M139.9,229.8h0Z" transform="translate(-4.1 -83.9)" style="fill:#1d2f37"/><path d="M139.8,230h0Z" transform="translate(-4.1 -83.9)" style="fill:#1d2f37"/><path d="M136.4,228.9Z" transform="translate(-4.1 -83.9)" style="fill:#1d2f37"/><path d="M137.4,229.4h0Z" transform="translate(-4.1 -83.9)" style="fill:#1d2f37"/><path d="M137.7,229h0Z" transform="translate(-4.1 -83.9)" style="fill:#1d2f37"/><polygon points="134 145.2 134 145.2 134 145.2 134 145.2" style="fill:#1d2f37"/><path d="M138.4,229.2h0Z" transform="translate(-4.1 -83.9)" style="fill:#1d2f37"/><polygon points="134.5 145.4 134.5 145.4 134.5 145.3 134.5 145.4" style="fill:#1d2f37"/><path d="M136.1,228.6Z" transform="translate(-4.1 -83.9)" style="fill:#1d2f37"/><path d="M136.3,228.6h0Z" transform="translate(-4.1 -83.9)" style="fill:#1d2f37"/><path d="M139.9,229.8h-.5c0-.1-.1-.1,0-.1h-.1a.1.1,0,0,1-.1.1H139c-.1,0-.1,0-.1.1h0c-.1.1-.1-.1-.2,0h-.4c-.1,0,0,.1,0,.1h-.7s.1-.1,0-.1,0,.1,0,.1h-.5c-.1,0-.1,0-.1-.1h0c0,.1,0,0,.1,0h-.4s.1.1,0,.1h-.4c.1-.1,0,0,0-.1h-.1v-.2h.3c0,.1.1,0,.1,0h0s.1.1.1,0h.8c.1,0,0-.1,0,0h.2c.1,0,0-.1,0-.1h.5c.1.1.1,0,.2,0s-.1.1,0,.1,0-.1,0-.1h1.5Zm-2.2-.7h0Zm-.8-.2Zm1.4.7h0Zm.9.1h-.1S139.2,229.8,139.2,229.7Z" transform="translate(-4.1 -83.9)" style="fill:#1d2f37"/><path d="M139.7,229.6Z" transform="translate(-4.1 -83.9)" style="fill:#1d2f37"/><path d="M138.6,229.3Z" transform="translate(-4.1 -83.9)" style="fill:#1d2f37"/><path d="M142.3,230.4Z" transform="translate(-4.1 -83.9)" style="fill:#1d2f37"/><polygon points="137.8 146.4 137.8 146.4 137.8 146.3 137.8 146.4" style="fill:#1d2f37"/><path d="M141.5,230.3h0Z" transform="translate(-4.1 -83.9)" style="fill:#1d2f37"/><polygon points="137.2 146.3 137.2 146.3 137.2 146.3 137.2 146.3" style="fill:#1d2f37"/><path d="M143.9,230.3Z" transform="translate(-4.1 -83.9)" style="fill:#1d2f37"/><path d="M143.8,230.4Z" transform="translate(-4.1 -83.9)" style="fill:#1d2f37"/><path d="M140.2,230Z" transform="translate(-4.1 -83.9)" style="fill:#1d2f37"/><path d="M141.3,230.2h0Z" transform="translate(-4.1 -83.9)" style="fill:#1d2f37"/><path d="M141.5,229.8Z" transform="translate(-4.1 -83.9)" style="fill:#1d2f37"/><polygon points="137.8 145.9 137.8 145.9 137.8 146 137.8 145.9" style="fill:#1d2f37"/><path d="M142.3,229.9h0Z" transform="translate(-4.1 -83.9)" style="fill:#1d2f37"/><polygon points="138.4 146 138.4 146 138.4 146 138.4 146" style="fill:#1d2f37"/><path d="M140,229.7c-.1,0-.1,0,0,.1Z" transform="translate(-4.1 -83.9)" style="fill:#1d2f37"/><path d="M140.1,229.6h0Z" transform="translate(-4.1 -83.9)" style="fill:#1d2f37"/><path d="M143.9,230.3h-.6c.1-.1,0-.1,0-.1h-.7c0-.1.1-.1,0-.1h-.5a.1.1,0,0,0,.1-.1h-.3c.1,0,.1,0,0-.1a.1.1,0,0,1-.1.1h-.1c0-.1-.1,0-.1,0a.1.1,0,0,0-.1-.1s.1.1,0,.1h0c-.1.1-.1,0-.2,0h-1c.1.1.1,0,.1,0h0c0-.1.1,0,.1-.1h.1c0-.1-.1,0-.1,0h.3s.1-.1,0-.1h1.5c.1,0,0-.1,0-.1h.6s.1-.1,0-.1h.5s.1-.1,0-.1h.5Zm-2.3-.4Zm-.9-.1Zm1.5.5Zm.9,0Z" transform="translate(-4.1 -83.9)" style="fill:#1d2f37"/><path d="M143.6,230.1Z" transform="translate(-4.1 -83.9)" style="fill:#1d2f37"/><path d="M142.5,229.9Z" transform="translate(-4.1 -83.9)" style="fill:#1d2f37"/><path d="M146.3,230.6Z" transform="translate(-4.1 -83.9)" style="fill:#1d2f37"/><polygon points="141.8 146.6 141.8 146.6 141.8 146.6 141.8 146.6" style="fill:#1d2f37"/><path d="M145.6,230.6Z" transform="translate(-4.1 -83.9)" style="fill:#1d2f37"/><polygon points="141.2 146.6 141.2 146.6 141.2 146.6 141.2 146.6" style="fill:#1d2f37"/><path d="M147.9,230.4Z" transform="translate(-4.1 -83.9)" style="fill:#1d2f37"/><path d="M147.8,230.6h0Z" transform="translate(-4.1 -83.9)" style="fill:#1d2f37"/><path d="M144.2,230.4Z" transform="translate(-4.1 -83.9)" style="fill:#1d2f37"/><path d="M145.3,230.5h0Z" transform="translate(-4.1 -83.9)" style="fill:#1d2f37"/><path d="M145.5,230.1Z" transform="translate(-4.1 -83.9)" style="fill:#1d2f37"/><polygon points="141.8 146.2 141.8 146.2 141.8 146.2 141.8 146.2" style="fill:#1d2f37"/><path d="M146.2,230.1Z" transform="translate(-4.1 -83.9)" style="fill:#1d2f37"/><polygon points="142.4 146.2 142.4 146.2 142.4 146.2 142.4 146.2" style="fill:#1d2f37"/><path d="M143.9,230.2Z" transform="translate(-4.1 -83.9)" style="fill:#1d2f37"/><path d="M144,230.1Z" transform="translate(-4.1 -83.9)" style="fill:#1d2f37"/><path d="M147.9,230.4h-1.3c0-.1.1-.1,0-.1h-.1c-.1,0,0,.1,0,.1h-1s.1.1,0,.1h-.4c.1-.1,0-.1,0-.1h-.5s-.1,0,0,.1h.6s-.1,0,0,.1h1.1s-.1-.1,0-.1h.7c.1.1,0,0,.1,0h.1c.1,0,.1.1.2,0h.1c0,.1.1,0,.1,0s0,.1-.1.1h.2a.1.1,0,0,1,.1.1h.1Zm-2.3-.2Zm-.9,0Zm1.5.3Zm.9,0Z" transform="translate(-4.1 -83.9)" style="fill:#1d2f37"/><path d="M147.6,230.2h0Z" transform="translate(-4.1 -83.9)" style="fill:#1d2f37"/><path d="M146.5,230.2h0Z" transform="translate(-4.1 -83.9)" style="fill:#1d2f37"/><path d="M150.3,230.4h0Z" transform="translate(-4.1 -83.9)" style="fill:#1d2f37"/><polygon points="145.9 146.5 145.9 146.5 145.8 146.5 145.9 146.5" style="fill:#1d2f37"/><path d="M149.6,230.6h0Z" transform="translate(-4.1 -83.9)" style="fill:#1d2f37"/><polygon points="145.2 146.6 145.2 146.6 145.2 146.6 145.2 146.6" style="fill:#1d2f37"/><path d="M151.8,229.8Z" transform="translate(-4.1 -83.9)" style="fill:#1d2f37"/><path d="M151.8,230h0Z" transform="translate(-4.1 -83.9)" style="fill:#1d2f37"/><path d="M148.2,230.5Z" transform="translate(-4.1 -83.9)" style="fill:#1d2f37"/><path d="M149.3,230.5Z" transform="translate(-4.1 -83.9)" style="fill:#1d2f37"/><path d="M149.4,230Z" transform="translate(-4.1 -83.9)" style="fill:#1d2f37"/><polygon points="145.8 146.1 145.8 146.1 145.8 146.1 145.8 146.1" style="fill:#1d2f37"/><path d="M150.2,229.9h0Z" transform="translate(-4.1 -83.9)" style="fill:#1d2f37"/><polygon points="146.4 146 146.4 146 146.4 146 146.4 146" style="fill:#1d2f37"/><path d="M147.9,230.3Z" transform="translate(-4.1 -83.9)" style="fill:#1d2f37"/><path d="M148,230.2Z" transform="translate(-4.1 -83.9)" style="fill:#1d2f37"/><path d="M151.8,229.8h-.4c.1,0,.1-.1,0-.1s-.1,0,0,.1h-.1v.2h-.4c0-.1.1-.1,0-.1s-.1,0-.1,0h-.2c-.1,0,0,.1,0,.1h-1.9s.1.1,0,.1H148c0-.1.2-.1.2-.1h0s.1.1.1,0h0c0,.1,0,0,.1,0h.1s0,.1-.1,0h.3a.1.1,0,0,0,.1-.1h.3c.1,0,0,0,0,.1h.4c.1,0,0-.1,0-.1h1.8a.1.1,0,0,0-.1-.1c.1,0,.1.1.2,0h-.1a.1.1,0,0,0,.1-.1h0c0-.1.1,0,.1-.1h0a.1.1,0,0,0-.1.1c.1,0,.1-.1.1,0h0a.1.1,0,0,1,.1-.1h.2Zm-2.3.3h0Zm-.8.1Zm1.6.2h0Zm.8-.3Z" transform="translate(-4.1 -83.9)" style="fill:#1d2f37"/><path d="M151.5,229.8Z" transform="translate(-4.1 -83.9)" style="fill:#1d2f37"/><path d="M150.4,229.9Z" transform="translate(-4.1 -83.9)" style="fill:#1d2f37"/><path d="M154.1,228.8Z" transform="translate(-4.1 -83.9)" style="fill:#1d2f37"/><polygon points="149.6 145.1 149.7 145.1 149.6 145.1 149.6 145.1" style="fill:#1d2f37"/><path d="M153.4,229.3a.1.1,0,0,0,.1-.1C153.5,229.3,153.4,229.2,153.4,229.3Z" transform="translate(-4.1 -83.9)" style="fill:#1d2f37"/><polygon points="149.1 145.4 149.1 145.4 149.1 145.4 149.1 145.4" style="fill:#1d2f37"/><path d="M155.2,227.7Z" transform="translate(-4.1 -83.9)" style="fill:#1d2f37"/><path d="M155.2,227.8Z" transform="translate(-4.1 -83.9)" style="fill:#1d2f37"/><path d="M152.2,229.8Z" transform="translate(-4.1 -83.9)" style="fill:#1d2f37"/><path d="M153.2,229.3h0Z" transform="translate(-4.1 -83.9)" style="fill:#1d2f37"/><path d="M153.1,228.9Z" transform="translate(-4.1 -83.9)" style="fill:#1d2f37"/><polygon points="149.4 144.7 149.4 144.7 149.4 144.7 149.4 144.7" style="fill:#1d2f37"/><path d="M153.7,228.4h0Z" transform="translate(-4.1 -83.9)" style="fill:#1d2f37"/><polygon points="149.9 144.4 149.9 144.4 149.9 144.4 149.9 144.4" style="fill:#1d2f37"/><path d="M151.8,229.7Z" transform="translate(-4.1 -83.9)" style="fill:#1d2f37"/><path d="M151.8,229.6Z" transform="translate(-4.1 -83.9)" style="fill:#1d2f37"/><path d="M155.2,227.7h-.1c.1,0,0,.1-.1.2h-.1s-.1.1,0,.1h-.3a.1.1,0,0,0-.1-.1h0c0,.1,0,.1.1.1h-1c.1.1-.1.1-.1.2h-.1c-.1,0,0,0,0,.1h-.1a.1.1,0,0,1-.1.1h-.3c0-.1.1-.1,0-.1h-.3c-.1.1,0,0,0,.1h-.3c.1,0,0,.1.1,0s-.1,0-.1.1h-.2a.1.1,0,0,0,.1-.1h0a.1.1,0,0,0-.1.1h.1s.1,0,0-.1h.2v-.2h.4c.1-.1,0-.1,0-.1h.2s-.1,0,0-.1h.5s.2,0,.1-.1,0,0,0,.1h.2s-.1,0,0-.1h.2a.1.1,0,0,1,.1-.1h.2c-.1,0,0,.1,0,.1h.6a.1.1,0,0,0-.1.1.1.1,0,0,1,.1-.1.1.1,0,0,1-.1.1.1.1,0,0,0,.1-.1h.3Zm-2,1.2Zm-.7.5Zm1.5-.6h0Zm.6-.6Z" transform="translate(-4.1 -83.9)" style="fill:#1d2f37"/><path d="M154.9,227.7Z" transform="translate(-4.1 -83.9)" style="fill:#1d2f37"/><path d="M153.9,228.3Z" transform="translate(-4.1 -83.9)" style="fill:#1d2f37"/><path d="M157.1,226.2Z" transform="translate(-4.1 -83.9)" style="fill:#1d2f37"/><polygon points="152.7 142.5 152.7 142.5 152.7 142.5 152.7 142.5" style="fill:#1d2f37"/><path d="M156.6,226.7Z" transform="translate(-4.1 -83.9)" style="fill:#1d2f37"/><polygon points="152.3 142.9 152.3 142.9 152.3 142.9 152.3 142.9" style="fill:#1d2f37"/><path d="M158,224.9h0Z" transform="translate(-4.1 -83.9)" style="fill:#1d2f37"/><path d="M158.1,225Z" transform="translate(-4.1 -83.9)" style="fill:#1d2f37"/><path d="M155.5,227.5Z" transform="translate(-4.1 -83.9)" style="fill:#1d2f37"/><path d="M156.4,226.9Z" transform="translate(-4.1 -83.9)" style="fill:#1d2f37"/><path d="M156.2,226.4Z" transform="translate(-4.1 -83.9)" style="fill:#1d2f37"/><polygon points="152.4 142.2 152.4 142.2 152.4 142.2 152.4 142.2" style="fill:#1d2f37"/><path d="M156.7,225.9Z" transform="translate(-4.1 -83.9)" style="fill:#1d2f37"/><polygon points="152.8 141.8 152.8 141.8 152.8 141.8 152.8 141.8" style="fill:#1d2f37"/><path d="M155.1,227.6h0Z" transform="translate(-4.1 -83.9)" style="fill:#1d2f37"/><path d="M155.1,227.4h0Z" transform="translate(-4.1 -83.9)" style="fill:#1d2f37"/><path d="M158,224.9h0v.2h-.1s.1.1,0,.1h0c0,.1-.1.1,0,.1h-.1v.2h-.2a.1.1,0,0,1-.1.1h-.1c-.1.1.1,0,0,.1h-.1s0,.1-.1,0h0c-.1,0,0,.1-.1.1s.1-.1,0-.1h-.1c.1-.1.1-.1,0-.1h-.1c.1,0-.1.1,0,.2s0-.1,0-.1h-.2a.1.1,0,0,1-.1.1h-.5s.1,0,0,.1h0c-.1.1,0,.1-.1.1h-.3s.1-.1,0-.1h-.3v-.2h.1a.1.1,0,0,1,.1-.1h.1V227h.5c0-.1-.1,0,0-.1h.3s-.1.1,0,.1h.1c-.1,0-.1.1,0,.1h.1c-.1,0,.1-.1,0-.2s0,.1,0,.1h.6c.1,0,0-.1,0-.1h.2c0-.1-.1,0,0-.1h.2v-.2h0c0,.1-.1.1,0,.1h.3Zm-1.7,1.5Zm-.6.7h0Zm1.3-.9Zm.6-.7h0Z" transform="translate(-4.1 -83.9)" style="fill:#1d2f37"/><path d="M157.7,225Z" transform="translate(-4.1 -83.9)" style="fill:#1d2f37"/><path d="M156.9,225.7Z" transform="translate(-4.1 -83.9)" style="fill:#1d2f37"/><path d="M159.7,223.1Z" transform="translate(-4.1 -83.9)" style="fill:#1d2f37"/><polygon points="155.4 139.5 155.4 139.5 155.4 139.5 155.4 139.5" style="fill:#1d2f37"/><path d="M159.3,223.7Z" transform="translate(-4.1 -83.9)" style="fill:#1d2f37"/><polygon points="155 139.9 155 139.9 155 139.9 155 139.9" style="fill:#1d2f37"/><path d="M160.5,221.7Z" transform="translate(-4.1 -83.9)" style="fill:#1d2f37"/><path d="M160.6,221.9c-.1-.1-.1-.1,0-.1h0Z" transform="translate(-4.1 -83.9)" style="fill:#1d2f37"/><path d="M158.3,224.7Z" transform="translate(-4.1 -83.9)" style="fill:#1d2f37"/><path d="M159.1,223.9Z" transform="translate(-4.1 -83.9)" style="fill:#1d2f37"/><path d="M158.8,223.5Z" transform="translate(-4.1 -83.9)" style="fill:#1d2f37"/><polygon points="155 139.2 155 139.2 155 139.2 155 139.2" style="fill:#1d2f37"/><path d="M159.3,222.9Z" transform="translate(-4.1 -83.9)" style="fill:#1d2f37"/><polygon points="155.4 138.8 155.4 138.8 155.4 138.8 155.4 138.8" style="fill:#1d2f37"/><path d="M158,224.8Z" transform="translate(-4.1 -83.9)" style="fill:#1d2f37"/><path d="M157.9,224.7Z" transform="translate(-4.1 -83.9)" style="fill:#1d2f37"/><path d="M160.5,221.7h0v.2h-.1s.1.1,0,.1h0s-.1.1,0,.1h-.1a.1.1,0,0,1,.1-.1h-.1v.2H160v.2h-.2c-.1.1.1.1,0,.1h-.1s.1,0,0,.1h-.1s0,.1-.1,0h-.1s.1.1,0,.1h0a.1.1,0,0,0,0,.2h-.2c0,.1-.1.1-.1.2h-.3a.1.1,0,0,0-.1.1h0c-.1.1,0,.1,0,.1h-.1c0,.1.1.1,0,.1h-.2c0,.1-.1.1,0,.1a.1.1,0,0,0-.1.1c0-.1.1-.1,0-.2h0c-.1.1,0,.1,0,.2H158v-.2h.1s-.1-.1,0-.1h0s.1,0,0-.1h.1a.1.1,0,0,0,.1-.1h.3c0-.1,0-.1.1-.2h.4c-.1,0,.1-.1,0-.2s0,.1,0,.1h.6c.1,0,0,0,.1-.1h0c0-.1-.1,0,0-.1h.2s.1,0,0-.1h.4Zm-1.6,1.8s.1,0,0-.1Zm-.5.7h0Zm1.2-1.1h0Zm.5-.7Z" transform="translate(-4.1 -83.9)" style="fill:#1d2f37"/><path d="M160.2,221.9Z" transform="translate(-4.1 -83.9)" style="fill:#1d2f37"/><path d="M159.5,222.7Z" transform="translate(-4.1 -83.9)" style="fill:#1d2f37"/><path d="M160.3,219h0Z" transform="translate(-4.1 -83.9)" style="fill:#1d2f37"/><polygon points="156.3 135.4 156.3 135.4 156.3 135.4 156.3 135.4" style="fill:#1d2f37"/><path d="M160.5,219.7Z" transform="translate(-4.1 -83.9)" style="fill:#1d2f37"/><polygon points="156.4 136.1 156.4 136.1 156.4 136.1 156.4 136.1" style="fill:#1d2f37"/><path d="M159.9,217.4Z" transform="translate(-4.1 -83.9)" style="fill:#1d2f37"/><path d="M160,217.4Z" transform="translate(-4.1 -83.9)" style="fill:#1d2f37"/><path d="M160.6,221.1Z" transform="translate(-4.1 -83.9)" style="fill:#1d2f37"/><path d="M160.5,220Z" transform="translate(-4.1 -83.9)" style="fill:#1d2f37"/><path d="M160,219.9Z" transform="translate(-4.1 -83.9)" style="fill:#1d2f37"/><polygon points="155.9 135.5 155.9 135.5 155.9 135.5 155.9 135.5" style="fill:#1d2f37"/><path d="M159.8,219.1h0Z" transform="translate(-4.1 -83.9)" style="fill:#1d2f37"/><polygon points="155.8 134.9 155.8 134.9 155.8 134.9 155.8 134.9" style="fill:#1d2f37"/><path d="M160.4,221.5h0Z" transform="translate(-4.1 -83.9)" style="fill:#1d2f37"/><path d="M160.3,221.4Z" transform="translate(-4.1 -83.9)" style="fill:#1d2f37"/><path d="M159.9,217.4h0c.1,0,.1.1.1.2h0a.1.1,0,0,0,.1.1h0s-.1-.1,0-.1h0c.1.1,0,.2.1.2h0c0,.1.1.1,0,.2s.1-.1.1,0h0c0,.1.1.1,0,.2h.1c-.1,0,0,.1,0,.1h0s0-.1.1,0h-.1c.1.1,0,.1,0,.2h.1v.2h0c0,.1.1.1,0,.1h.1c0,.1-.1.1,0,.1h-.2c-.1,0-.1-.2-.1-.2h0s-.1,0,0-.1h0c0-.1,0-.2-.1-.1h0c-.1,0,0-.1,0-.1s-.1,0-.1-.1H160c.1-.1,0-.1,0-.1h0c-.1,0-.1-.2-.1-.2h0c.1-.1,0-.1,0-.2h0c-.1-.1,0,0,0-.1h-.1c.1-.1,0,0,0-.1h-.1v-.2h-.1c0-.1.1-.1,0-.2h.1c-.1,0,0-.1-.1-.1s0,0,0-.1,0,.2.1.2h.1Zm.1,2.4Zm.3.9Zm0-1.7h0Zm-.2-.9h0Z" transform="translate(-4.1 -83.9)" style="fill:#1d2f37"/><path d="M159.8,217.7Z" transform="translate(-4.1 -83.9)" style="fill:#1d2f37"/><path d="M159.9,218.8h0Z" transform="translate(-4.1 -83.9)" style="fill:#1d2f37"/><path d="M159.7,214.8Z" transform="translate(-4.1 -83.9)" style="fill:#1d2f37"/><polygon points="155.7 131.3 155.7 131.3 155.6 131.3 155.7 131.3" style="fill:#1d2f37"/><path d="M159.9,215.6h0Z" transform="translate(-4.1 -83.9)" style="fill:#1d2f37"/><polygon points="155.8 131.9 155.8 131.9 155.8 131.9 155.8 131.9" style="fill:#1d2f37"/><path d="M159.3,213.2Z" transform="translate(-4.1 -83.9)" style="fill:#1d2f37"/><path d="M159.4,213.3Z" transform="translate(-4.1 -83.9)" style="fill:#1d2f37"/><path d="M159.9,217Z" transform="translate(-4.1 -83.9)" style="fill:#1d2f37"/><path d="M159.8,215.9h0Z" transform="translate(-4.1 -83.9)" style="fill:#1d2f37"/><path d="M159.4,215.8Z" transform="translate(-4.1 -83.9)" style="fill:#1d2f37"/><polygon points="155.2 131.4 155.2 131.4 155.3 131.4 155.2 131.4" style="fill:#1d2f37"/><path d="M159.2,215Z" transform="translate(-4.1 -83.9)" style="fill:#1d2f37"/><polygon points="155.2 130.8 155.2 130.8 155.2 130.8 155.2 130.8" style="fill:#1d2f37"/><path d="M159.8,217.4Z" transform="translate(-4.1 -83.9)" style="fill:#1d2f37"/><path d="M159.6,217.3h0Z" transform="translate(-4.1 -83.9)" style="fill:#1d2f37"/><path d="M159.3,213.2h0c.1,0,.1.2.1.2h0c0,.1,0,.2.1.1h0c0-.1-.1-.1,0-.1h-.1v.2h0c.1,0,0,.1,0,.1h.1v.2h0c.1.1.1,0,.1.1h0v.2h0c-.1.1.1.1,0,.1h0a.1.1,0,0,0,.1.1h-.1c.1,0,.1.2.1.2h0c-.1.1,0,.1,0,.2h.1c0-.1,0-.1-.1-.1h.2c0,.1-.1.1-.1.2h.1s-.1,0,0,.1h0c-.1,0,0,0,0,.1s0-.2-.1-.1h.1c-.1,0,0,0,0,.1h-.3V217h-.1s.1.1,0,.1h-.1c0-.1.1-.2,0-.2h0v-.2h0c0-.1-.1-.1,0-.2h0a.1.1,0,0,1-.1-.1h0c.1,0,0-.1,0-.1h0c-.1-.1,0-.1,0-.2h-.1c.1-.1,0-.1,0-.2h.1s-.1-.1-.1,0h-.1c0-.1.1-.1.1-.2s-.1,0-.1.1.1-.1,0-.1h0c.1,0,0-.1,0-.1h.2Zm.1,2.5h0Zm.2.9h0Zm.1-1.7Zm-.2-.9Z" transform="translate(-4.1 -83.9)" style="fill:#1d2f37"/><path d="M159.2,213.6h0Z" transform="translate(-4.1 -83.9)" style="fill:#1d2f37"/><path d="M159.2,214.7Z" transform="translate(-4.1 -83.9)" style="fill:#1d2f37"/><path d="M159.2,210.7Z" transform="translate(-4.1 -83.9)" style="fill:#1d2f37"/><polygon points="155.1 127.1 155.1 127.1 155.1 127.2 155.1 127.1" style="fill:#1d2f37"/><path d="M159.3,211.5h0S159.2,211.5,159.3,211.5Z" transform="translate(-4.1 -83.9)" style="fill:#1d2f37"/><polygon points="155.2 127.8 155.2 127.8 155.2 127.8 155.2 127.8" style="fill:#1d2f37"/><path d="M158.8,209.1Z" transform="translate(-4.1 -83.9)" style="fill:#1d2f37"/><path d="M158.9,209.1Z" transform="translate(-4.1 -83.9)" style="fill:#1d2f37"/><path d="M159.3,212.9Z" transform="translate(-4.1 -83.9)" style="fill:#1d2f37"/><path d="M159.3,211.7Z" transform="translate(-4.1 -83.9)" style="fill:#1d2f37"/><path d="M158.8,211.6Z" transform="translate(-4.1 -83.9)" style="fill:#1d2f37"/><polygon points="154.7 127.2 154.7 127.2 154.7 127.2 154.7 127.2" style="fill:#1d2f37"/><path d="M158.7,210.8h0Z" transform="translate(-4.1 -83.9)" style="fill:#1d2f37"/><polygon points="154.6 126.6 154.6 126.6 154.6 126.6 154.6 126.6" style="fill:#1d2f37"/><path d="M159.2,213.2Z" transform="translate(-4.1 -83.9)" style="fill:#1d2f37"/><path d="M159.1,213.1h0Z" transform="translate(-4.1 -83.9)" style="fill:#1d2f37"/><path d="M158.8,209.1h0c.1,0,.1.1.1.2h0c0,.1.1.1,0,.1h.1a.1.1,0,0,1,0,.2h.1c0,.1.1,0,0,.1h.1c.1,0,0,.2.1.1h-.1a.1.1,0,0,1,0,.2h.1v.2h0c-.1.1,0,0,0,.1h.1v.2h.1s-.1.1,0,.1h-.1c.1.1,0,.1.1.2h-.1v.2h-.2v-.2h0a.1.1,0,0,1-.1-.1.1.1,0,0,0,.1.1.1.1,0,0,0-.1-.1h0c0,.1.1.1,0,.2h0c-.1,0,0-.1,0-.1h-.1c0-.1-.1,0-.1,0a.1.1,0,0,1,.1-.1h0c-.1,0-.1-.1,0-.1h-.1c.1-.1,0-.1,0-.1h0c0-.1-.1-.1,0-.1h0c-.1,0,0-.2-.1-.2h.1v-.2h.1c-.1-.1-.1,0-.1,0h0s-.1-.1,0-.1h0s-.1,0,0-.1h0c0-.1-.1,0,0-.1h0s-.1,0,0-.1h-.1c0-.1.1-.1,0-.2h0v-.2h0v.2c.1-.1,0-.1,0-.1h.2Zm.1,2.4h0Zm.1.9Zm.1-1.6Zm-.2-.9Z" transform="translate(-4.1 -83.9)" style="fill:#1d2f37"/><path d="M158.6,209.4Z" transform="translate(-4.1 -83.9)" style="fill:#1d2f37"/><path d="M158.7,210.5Z" transform="translate(-4.1 -83.9)" style="fill:#1d2f37"/><path d="M158.7,206.5Z" transform="translate(-4.1 -83.9)" style="fill:#1d2f37"/><polygon points="154.7 123 154.7 123 154.6 123 154.7 123" style="fill:#1d2f37"/><path d="M158.8,207.3Z" transform="translate(-4.1 -83.9)" style="fill:#1d2f37"/><polygon points="154.7 123.6 154.7 123.6 154.7 123.6 154.7 123.6" style="fill:#1d2f37"/><path d="M158.4,204.9Z" transform="translate(-4.1 -83.9)" style="fill:#1d2f37"/><path d="M158.5,205Z" transform="translate(-4.1 -83.9)" style="fill:#1d2f37"/><path d="M158.8,208.7Z" transform="translate(-4.1 -83.9)" style="fill:#1d2f37"/><path d="M158.8,207.6Z" transform="translate(-4.1 -83.9)" style="fill:#1d2f37"/><path d="M158.3,207.5Z" transform="translate(-4.1 -83.9)" style="fill:#1d2f37"/><polygon points="154.2 123.1 154.2 123.1 154.2 123.1 154.2 123.1" style="fill:#1d2f37"/><path d="M158.2,206.7Z" transform="translate(-4.1 -83.9)" style="fill:#1d2f37"/><polygon points="154.2 122.4 154.2 122.4 154.2 122.4 154.2 122.4" style="fill:#1d2f37"/><path d="M158.7,209.1Z" transform="translate(-4.1 -83.9)" style="fill:#1d2f37"/><path d="M158.5,209h0Z" transform="translate(-4.1 -83.9)" style="fill:#1d2f37"/><path d="M158.4,204.9h0c.1,0,.1.2.1.2h0c-.1,0,.1,0,0,.1h-.1l.2.2h-.1a.1.1,0,0,0-.1-.1h.2s-.1.1,0,.1h0v.2h0c.1.1.1.1,0,.1h.1v.2h0c-.1.1,0,.1,0,.1h0c0,.1.1.1,0,.1h0c.1,0,0,.2.1.2h-.1a.1.1,0,0,0,.1.1h0v.2h0c-.1.1,0,0,0,.1h0s.1-.1.1,0h0s-.1,0,0,.1h0c-.1,0,0,.1,0,.1s0-.1-.1-.1h.1c-.1,0,0,.1,0,.1h-.3v-.2h-.1s.1.1,0,.1h0a.1.1,0,0,1,0-.2h-.1v-.2h0s-.1,0,0-.1h-.2c0-.1,0,0,.1,0h0c-.1-.1,0-.1,0-.2h-.1c.1-.1,0-.1,0-.2h.1c0-.1-.1,0-.1-.1h0c0-.1.1-.1,0-.2h0c-.1-.1,0-.1,0-.1h0v-.2h.1c0-.1-.1-.1-.1-.2h.2Zm0,2.5h0C158.3,207.3,158.4,207.4,158.4,207.4Zm.1.9h0Zm.1-1.7h0Zm-.1-.9Z" transform="translate(-4.1 -83.9)" style="fill:#1d2f37"/><path d="M158.2,205.2Z" transform="translate(-4.1 -83.9)" style="fill:#1d2f37"/><path d="M158.2,206.4Z" transform="translate(-4.1 -83.9)" style="fill:#1d2f37"/><path d="M158.4,202.4h0Z" transform="translate(-4.1 -83.9)" style="fill:#1d2f37"/><polygon points="154.3 118.8 154.3 118.8 154.3 118.8 154.3 118.8" style="fill:#1d2f37"/><path d="M158.5,203.1Z" transform="translate(-4.1 -83.9)" style="fill:#1d2f37"/><polygon points="154.4 119.5 154.4 119.5 154.4 119.5 154.4 119.5" style="fill:#1d2f37"/><path d="M158.2,200.7Z" transform="translate(-4.1 -83.9)" style="fill:#1d2f37"/><path d="M158.3,200.8Z" transform="translate(-4.1 -83.9)" style="fill:#1d2f37"/><path d="M158.4,204.6Z" transform="translate(-4.1 -83.9)" style="fill:#1d2f37"/><path d="M158.4,203.4h0Z" transform="translate(-4.1 -83.9)" style="fill:#1d2f37"/><path d="M158,203.3Z" transform="translate(-4.1 -83.9)" style="fill:#1d2f37"/><polygon points="153.9 118.9 153.9 118.9 153.9 118.9 153.9 118.9" style="fill:#1d2f37"/><path d="M157.9,202.5Z" transform="translate(-4.1 -83.9)" style="fill:#1d2f37"/><polygon points="153.9 118.3 153.9 118.2 153.9 118.2 153.9 118.3" style="fill:#1d2f37"/><path d="M158.3,204.9Z" transform="translate(-4.1 -83.9)" style="fill:#1d2f37"/><path d="M158.1,204.8h0Z" transform="translate(-4.1 -83.9)" style="fill:#1d2f37"/><path d="M158.2,200.7h0a.4.4,0,0,1,.1.3h0c-.1.1.1.1,0,.1h-.1v.2h0c.1.1-.1.2,0,.2h0v.2h0c-.1,0,0,0,0,.1h0c-.1,0,0,0,0,.1h0c.1.1,0,.1,0,.2h0v.2h-.1c.1,0,.1,0,.1-.1h-.1s.1,0,0,.1h.1c0,.1-.1.1-.1.2h0v.2h-.1v.2h-.2v-.2h0c0-.1,0-.2-.1-.1h0a.1.1,0,0,0,.1.1h0c0-.1-.1-.1-.1-.2h0s.1-.1,0-.1h0v-.2h0a.1.1,0,0,1,.1-.1H158c.1-.1,0-.1,0-.2h0c.1-.1,0-.1,0-.2h0v-.2h0V202h.1c.1,0,0,0,0-.1h0v-.2h0c-.1,0,0-.1,0-.1h0V201h0c.1,0,0,0,0-.1h.1v-.2h.2Zm-.2,2.5c.1,0,.1,0,0-.1Zm.2.9Zm.2-1.7c0,.1-.1.1,0,.1Zm-.1-.9h0Z" transform="translate(-4.1 -83.9)" style="fill:#1d2f37"/><path d="M158,201Z" transform="translate(-4.1 -83.9)" style="fill:#1d2f37"/><path d="M158,202.2h0Z" transform="translate(-4.1 -83.9)" style="fill:#1d2f37"/><path d="M158.4,198.2h0Z" transform="translate(-4.1 -83.9)" style="fill:#1d2f37"/><polygon points="154.4 114.7 154.4 114.7 154.3 114.7 154.4 114.7" style="fill:#1d2f37"/><path d="M158.5,199h0C158.5,199,158.4,199,158.5,199Z" transform="translate(-4.1 -83.9)" style="fill:#1d2f37"/><polygon points="154.3 115.3 154.3 115.3 154.3 115.3 154.3 115.3" style="fill:#1d2f37"/><path d="M158.3,196.5Z" transform="translate(-4.1 -83.9)" style="fill:#1d2f37"/><path d="M158.4,196.6Z" transform="translate(-4.1 -83.9)" style="fill:#1d2f37"/><path d="M158.3,200.4Z" transform="translate(-4.1 -83.9)" style="fill:#1d2f37"/><path d="M158.4,199.3Z" transform="translate(-4.1 -83.9)" style="fill:#1d2f37"/><path d="M157.9,199.1h0Z" transform="translate(-4.1 -83.9)" style="fill:#1d2f37"/><polygon points="153.9 114.7 153.9 114.7 153.9 114.7 153.9 114.7" style="fill:#1d2f37"/><path d="M157.9,198.3h0Z" transform="translate(-4.1 -83.9)" style="fill:#1d2f37"/><polygon points="153.9 114.1 153.9 114.1 153.9 114.1 153.9 114.1" style="fill:#1d2f37"/><path d="M158.1,200.7Z" transform="translate(-4.1 -83.9)" style="fill:#1d2f37"/><path d="M158,200.6h0Z" transform="translate(-4.1 -83.9)" style="fill:#1d2f37"/><path d="M158.3,196.6h0c.1,0,.1.1.1.2h0s-.1,0,0,.1h0s-.1-.1,0-.1h-.1v.2h0v.2h.2c0,.1,0,.1-.1.1h0c0,.1.1.1,0,.1h0c-.1.1.1.1,0,.1h0c.1,0,0,.2.1.2h-.1v.2h0v.2h-.1s.1,0,0,.1h.1v.2h.1c0,.1-.1.1,0,.2h-.1v-.2h0c-.1,0,0,.1,0,.1h-.2c-.1,0-.1-.2-.1-.2h0s.1-.1,0-.1h.1a.1.1,0,0,1-.1-.1c0,.1,0,.1.1.1s0-.1-.1-.1h0c0,.1.1.1,0,.1h.1v-.2h.1s0-.1-.1,0h0v-.2h0c0-.1-.1-.1,0-.2h0c.1-.1,0-.1,0-.1h0c.1,0,0-.1,0-.1h0V198h0v-.2h0c0,.1,0,.1.1.1H158c0-.1.1-.1,0-.1h.1c0-.1-.1-.1,0-.1h0c0-.1-.1-.1,0-.1s-.1,0-.1,0h0s.1-.1,0-.1h.1v-.2h.1c.1-.1,0-.1,0-.1h.2ZM158,199h0Zm.1.9Zm.3-1.6Zm-.1-1h0Z" transform="translate(-4.1 -83.9)" style="fill:#1d2f37"/><path d="M158.1,196.9Z" transform="translate(-4.1 -83.9)" style="fill:#1d2f37"/><path d="M158,198Z" transform="translate(-4.1 -83.9)" style="fill:#1d2f37"/><path d="M158.5,194Z" transform="translate(-4.1 -83.9)" style="fill:#1d2f37"/><polygon points="154.4 110.5 154.4 110.5 154.4 110.5 154.4 110.5" style="fill:#1d2f37"/><path d="M158.5,194.8Z" transform="translate(-4.1 -83.9)" style="fill:#1d2f37"/><polygon points="154.4 111.1 154.4 111.1 154.4 111.1 154.4 111.1" style="fill:#1d2f37"/><path d="M158.3,192.4h0Z" transform="translate(-4.1 -83.9)" style="fill:#1d2f37"/><path d="M158.5,192.5h0Z" transform="translate(-4.1 -83.9)" style="fill:#1d2f37"/><path d="M158.4,196.2Z" transform="translate(-4.1 -83.9)" style="fill:#1d2f37"/><path d="M158.5,195.1Z" transform="translate(-4.1 -83.9)" style="fill:#1d2f37"/><path d="M158,194.9Z" transform="translate(-4.1 -83.9)" style="fill:#1d2f37"/><polygon points="154 110.5 154 110.5 154 110.5 154 110.5" style="fill:#1d2f37"/><path d="M158,194.1Z" transform="translate(-4.1 -83.9)" style="fill:#1d2f37"/><polygon points="154 109.9 154 109.9 154 109.9 154 109.9" style="fill:#1d2f37"/><path d="M158.2,196.5Z" transform="translate(-4.1 -83.9)" style="fill:#1d2f37"/><path d="M158.1,196.4h0Z" transform="translate(-4.1 -83.9)" style="fill:#1d2f37"/><path d="M158.3,192.4h.1a.1.1,0,0,1,0,.2h0c0,.1.1.1.1.2h-.1c.1-.1,0-.1,0-.2h0v.2h-.1c.1,0,0,.1,0,.1h0a.1.1,0,0,1,.1.1h0c-.1.1,0,.1,0,.1h-.1a.1.1,0,0,0,.1.1h0s0,.2.1.2h-.1c-.1.1,0,.1,0,.2h-.1c.1,0,0-.1,0-.1h0s.1.1,0,.1.1-.1.1,0h-.1v-.2h-.3v-.2h0c.1,0,0,0,0-.1h0c0,.1.1.1,0,.2h0s.1-.1,0-.1h0c0-.1-.1-.1,0-.1h0c0-.1-.1-.1,0-.1h0c-.1,0,0-.2-.1-.2h.1v-.2h0s-.1-.1,0-.1h.1c0-.1-.1,0-.1-.1h.1c-.1-.1,0-.1-.1-.1s0-.1,0-.1h0c.1,0,0-.1,0-.1h.2Zm-.2,2.4Zm.1.9Zm.3-1.6Zm-.1-.9Z" transform="translate(-4.1 -83.9)" style="fill:#1d2f37"/><path d="M158.2,192.7Z" transform="translate(-4.1 -83.9)" style="fill:#1d2f37"/><path d="M158.1,193.8Z" transform="translate(-4.1 -83.9)" style="fill:#1d2f37"/><path d="M158.6,189.8Z" transform="translate(-4.1 -83.9)" style="fill:#1d2f37"/><polygon points="154.5 106.3 154.5 106.3 154.4 106.3 154.5 106.3" style="fill:#1d2f37"/><path d="M158.6,190.6Z" transform="translate(-4.1 -83.9)" style="fill:#1d2f37"/><polygon points="154.5 106.9 154.5 106.9 154.5 106.9 154.5 106.9" style="fill:#1d2f37"/><path d="M158.4,188.2Z" transform="translate(-4.1 -83.9)" style="fill:#1d2f37"/><path d="M158.5,188.3h0Z" transform="translate(-4.1 -83.9)" style="fill:#1d2f37"/><path d="M158.4,192Z" transform="translate(-4.1 -83.9)" style="fill:#1d2f37"/><path d="M158.5,190.9h0Z" transform="translate(-4.1 -83.9)" style="fill:#1d2f37"/><path d="M158.1,190.7Z" transform="translate(-4.1 -83.9)" style="fill:#1d2f37"/><polygon points="154 106.3 154 106.3 154.1 106.3 154 106.3" style="fill:#1d2f37"/><path d="M158.1,189.9h0Z" transform="translate(-4.1 -83.9)" style="fill:#1d2f37"/><polygon points="154.1 105.7 154.1 105.7 154.1 105.7 154.1 105.7" style="fill:#1d2f37"/><path d="M158.2,192.4h0Z" transform="translate(-4.1 -83.9)" style="fill:#1d2f37"/><path d="M158.1,192.3h0Z" transform="translate(-4.1 -83.9)" style="fill:#1d2f37"/><path d="M158.4,188.2h0c.1,0,.1.2.1.2h0c-.1,0,0,0,0,.1h0c0-.1-.1-.1,0-.2s-.1.1-.1,0h.1s-.1.1,0,.1h0v.2h0a.1.1,0,0,0,.1.1h-.1c0,.1.1.1,0,.1h0c0,.1.1.1,0,.1h0c.1.1,0,.2.1.2h-.1c.1.1,0,.1,0,.2h0c-.1.1,0,0,0,.1h0c0,.1-.1,0,0,.1h0c0,.1-.1.1,0,.1h-.3V192h0c0-.1-.1-.1,0-.1h0v-.2c.1,0,.1.1.1,0s0-.1,0-.1h0s-.1-.1,0-.1h0c-.1,0-.1,0-.1-.1h.1a.1.1,0,0,0-.1-.1h.1c-.1,0-.1-.2-.1-.2h.1v-.2h0c.1,0,0-.1,0-.1h0a.1.1,0,0,1,.1-.1h0s-.1-.1,0-.1h-.1a.1.1,0,0,0,.1-.1h0v.2h0a.1.1,0,0,0,.1-.1h.1Zm-.2,2.4Zm0,1h0Zm.3-1.7Zm-.1-.9Z" transform="translate(-4.1 -83.9)" style="fill:#1d2f37"/><path d="M158.2,188.5Z" transform="translate(-4.1 -83.9)" style="fill:#1d2f37"/><path d="M158.1,189.6Z" transform="translate(-4.1 -83.9)" style="fill:#1d2f37"/><path d="M158.6,185.6Z" transform="translate(-4.1 -83.9)" style="fill:#1d2f37"/><polygon points="154.5 102.1 154.5 102.1 154.5 102.1 154.5 102.1" style="fill:#1d2f37"/><path d="M158.6,186.4Z" transform="translate(-4.1 -83.9)" style="fill:#1d2f37"/><polygon points="154.5 102.7 154.5 102.7 154.5 102.8 154.5 102.7" style="fill:#1d2f37"/><path d="M158.1,184Z" transform="translate(-4.1 -83.9)" style="fill:#1d2f37"/><path d="M158.2,184.1h0Z" transform="translate(-4.1 -83.9)" style="fill:#1d2f37"/><path d="M158.5,187.8Z" transform="translate(-4.1 -83.9)" style="fill:#1d2f37"/><path d="M158.6,186.7Z" transform="translate(-4.1 -83.9)" style="fill:#1d2f37"/><path d="M158.1,186.5Z" transform="translate(-4.1 -83.9)" style="fill:#1d2f37"/><polygon points="154 102.2 154 102.2 154.1 102.1 154 102.2" style="fill:#1d2f37"/><path d="M158.1,185.7h0Z" transform="translate(-4.1 -83.9)" style="fill:#1d2f37"/><polygon points="154 101.5 154 101.5 154 101.5 154 101.5" style="fill:#1d2f37"/><path d="M158.3,188.2Z" transform="translate(-4.1 -83.9)" style="fill:#1d2f37"/><path d="M158.2,188.1Z" transform="translate(-4.1 -83.9)" style="fill:#1d2f37"/><path d="M158.1,184h.1a.3.3,0,0,1,.1.2h0s.1,0,0,.1h.1v-.2h.1c.1.1.1,0,.1.1h0v.2h0c0,.1.1,0,.1,0h-.1c0,.1.1.1,0,.2h0c.1,0,0,.1.1.1h-.1c.1.1.1.1,0,.2h.1c-.1.1,0,.1,0,.2h-.1c0,.1.1.1,0,.1h.1s-.1.1,0,.1h-.1c.1.1,0,.1,0,.2h-.2c-.1,0-.1-.1-.1-.2h0c.1-.1,0-.1,0-.1h0s.1.1,0,.1h.1a.1.1,0,0,0-.1-.1h0c0-.1.1-.2,0-.2h0c0-.1-.1-.1,0-.1h0c-.1,0-.1-.2-.1-.2h0c0-.1.1,0,.1-.1h-.1v-.2H158a.1.1,0,0,1-.1-.1h.2Zm.1,2.4Zm0,1h0Zm.3-1.7h0Zm-.1-.9Z" transform="translate(-4.1 -83.9)" style="fill:#1d2f37"/><path d="M158,184.4Z" transform="translate(-4.1 -83.9)" style="fill:#1d2f37"/><path d="M158.1,185.5h0Z" transform="translate(-4.1 -83.9)" style="fill:#1d2f37"/><path d="M156.9,181.8h0C156.8,181.7,156.9,181.8,156.9,181.8Z" transform="translate(-4.1 -83.9)" style="fill:#1d2f37"/><polygon points="153 98.2 153 98.1 153 98.2 153 98.2" style="fill:#1d2f37"/><path d="M157.4,182.4h0Z" transform="translate(-4.1 -83.9)" style="fill:#1d2f37"/><polygon points="153.4 98.7 153.4 98.7 153.4 98.7 153.4 98.7" style="fill:#1d2f37"/><path d="M155.6,180.7h0Z" transform="translate(-4.1 -83.9)" style="fill:#1d2f37"/><path d="M155.8,180.6h0Z" transform="translate(-4.1 -83.9)" style="fill:#1d2f37"/><path d="M158,183.7Z" transform="translate(-4.1 -83.9)" style="fill:#1d2f37"/><path d="M157.5,182.6Z" transform="translate(-4.1 -83.9)" style="fill:#1d2f37"/><path d="M157,182.8Z" transform="translate(-4.1 -83.9)" style="fill:#1d2f37"/><polygon points="152.7 98.5 152.7 98.5 152.7 98.4 152.7 98.5" style="fill:#1d2f37"/><path d="M156.5,182.1h0Z" transform="translate(-4.1 -83.9)" style="fill:#1d2f37"/><polygon points="152.3 98 152.3 98 152.3 98 152.3 98" style="fill:#1d2f37"/><path d="M158,184.1h0Z" transform="translate(-4.1 -83.9)" style="fill:#1d2f37"/><path d="M157.8,184h0Z" transform="translate(-4.1 -83.9)" style="fill:#1d2f37"/><path d="M155.6,180.7h1.2c0,.1-.1.1,0,.1h.1c0,.1.1,0,0,.1h.1c.1.1.2,0,.1.1h.4c0,.1.1.1.1.2h.2c0,.1.1,0,0,.1s0-.1.1,0h0v.2h0v-.2h0a.1.1,0,0,0-.1-.1h-.1c-.1-.1-.1-.1-.1,0H157s-.1,0,0-.1h-1.1c-.1-.1,0-.1-.1-.1h-.2Zm1.4,1.9Zm.6.8h0Zm-.7-1.5Zm-.7-.7Z" transform="translate(-4.1 -83.9)" style="fill:#1d2f37"/><path d="M155.7,181Z" transform="translate(-4.1 -83.9)" style="fill:#1d2f37"/><path d="M156.4,181.9Z" transform="translate(-4.1 -83.9)" style="fill:#1d2f37"/><path d="M152.8,180.3Z" transform="translate(-4.1 -83.9)" style="fill:#1d2f37"/><polygon points="149.2 96.4 149.1 96.4 149.2 96.4 149.2 96.4" style="fill:#1d2f37"/><path d="M153.6,180.3Z" transform="translate(-4.1 -83.9)" style="fill:#1d2f37"/><polygon points="149.8 96.4 149.8 96.4 149.8 96.4 149.8 96.4" style="fill:#1d2f37"/><path d="M151.1,180.5Z" transform="translate(-4.1 -83.9)" style="fill:#1d2f37"/><path d="M151.2,180.4Z" transform="translate(-4.1 -83.9)" style="fill:#1d2f37"/><path d="M155,180.5Z" transform="translate(-4.1 -83.9)" style="fill:#1d2f37"/><path d="M153.9,180.4h0Z" transform="translate(-4.1 -83.9)" style="fill:#1d2f37"/><path d="M153.7,180.8Z" transform="translate(-4.1 -83.9)" style="fill:#1d2f37"/><polygon points="149.2 96.9 149.2 96.9 149.2 96.8 149.2 96.9" style="fill:#1d2f37"/><path d="M152.9,180.8Z" transform="translate(-4.1 -83.9)" style="fill:#1d2f37"/><polygon points="148.5 96.8 148.5 96.8 148.5 96.8 148.5 96.8" style="fill:#1d2f37"/><path d="M155.4,180.7h0Z" transform="translate(-4.1 -83.9)" style="fill:#1d2f37"/><path d="M155.3,180.8Z" transform="translate(-4.1 -83.9)" style="fill:#1d2f37"/><path d="M151.1,180.5h.4c-.1,0,0,.1,0,0H155c-.1,0-.1.1-.1,0h0a.1.1,0,0,0-.1.1h-.1a.1.1,0,0,0-.1.1h-.2c-.1,0-.1,0-.1.1s0-.1,0-.1a.1.1,0,0,1-.2,0H154s.1,0,0-.1a.1.1,0,0,1-.1.1h-.2a.1.1,0,0,1-.1.1h0c-.1-.1-.1,0-.1,0h0a.1.1,0,0,0-.1.1h-.1a.1.1,0,0,0-.1.1h-.1a.1.1,0,0,0-.2,0h0c-.1.1,0,.1-.1.1h-.5c.1,0,.1,0,.1-.1h-.1c0-.1.1-.1,0-.1h-.1c0,.1,0,0,.1,0h-.1c-.1-.1-.1-.1-.1,0h0c-.1,0-.1.1-.1,0h0c-.1,0-.1.1-.1,0s0,.1,0,.1h-.3c.1,0,0,.1.1.1s-.1-.1-.1,0h-.2c.1-.1,0,0,0-.1h-.3Zm2.5.3Zm1-.1h0Zm-1.7-.3Zm-1,.1h0Z" transform="translate(-4.1 -83.9)" style="fill:#1d2f37"/><path d="M151.4,180.7Z" transform="translate(-4.1 -83.9)" style="fill:#1d2f37"/><path d="M152.6,180.8Z" transform="translate(-4.1 -83.9)" style="fill:#1d2f37"/><path d="M148.5,180.3Z" transform="translate(-4.1 -83.9)" style="fill:#1d2f37"/><polygon points="144.9 96.4 144.9 96.4 144.9 96.4 144.9 96.4" style="fill:#1d2f37"/><path d="M149.3,180.3Z" transform="translate(-4.1 -83.9)" style="fill:#1d2f37"/><polygon points="145.5 96.4 145.5 96.4 145.5 96.4 145.5 96.4" style="fill:#1d2f37"/><path d="M146.9,180.5Z" transform="translate(-4.1 -83.9)" style="fill:#1d2f37"/><path d="M146.9,180.4Z" transform="translate(-4.1 -83.9)" style="fill:#1d2f37"/><path d="M150.8,180.4Z" transform="translate(-4.1 -83.9)" style="fill:#1d2f37"/><path d="M149.6,180.3Z" transform="translate(-4.1 -83.9)" style="fill:#1d2f37"/><path d="M149.4,180.8Z" transform="translate(-4.1 -83.9)" style="fill:#1d2f37"/><polygon points="144.9 96.8 144.9 96.8 144.9 96.8 144.9 96.8" style="fill:#1d2f37"/><path d="M148.6,180.8h0Z" transform="translate(-4.1 -83.9)" style="fill:#1d2f37"/><polygon points="144.3 96.8 144.3 96.8 144.3 96.8 144.3 96.8" style="fill:#1d2f37"/><path d="M151.1,180.6Z" transform="translate(-4.1 -83.9)" style="fill:#1d2f37"/><path d="M151,180.7Z" transform="translate(-4.1 -83.9)" style="fill:#1d2f37"/><path d="M146.9,180.5h.9s.1-.1,0-.1h.6s-.1-.1,0-.1h.2c.1,0,0-.1,0-.1h.8s-.1-.1,0-.1h1c.1,0,0,0,0-.1h.3c0-.1,0,.1-.1,0h-.4s-.1.1,0,.1h-.4c-.1,0-.1.1-.2,0s0,.1,0,.1a.1.1,0,0,0-.1-.1h-.1c-.1,0,0,.1,0,.1H149c-.1,0,0,.1-.1.1h0c0,.1-.2,0-.2.1h-.1s.1-.1,0-.1,0,.1,0,.1h-.1c0,.1-.1,0-.1,0h-.1c0-.1-.1,0-.1,0H148s-.1.1-.1,0h-.3s.1,0,0,.1a.1.1,0,0,0-.1-.1h-.1c0,.1,0,0-.1,0h-.4Zm2.5.2h-.1C149.3,180.8,149.3,180.7,149.4,180.7Zm.9,0Zm-1.7-.3h0Zm-.9,0Z" transform="translate(-4.1 -83.9)" style="fill:#1d2f37"/><path d="M147.2,180.7Z" transform="translate(-4.1 -83.9)" style="fill:#1d2f37"/><path d="M148.3,180.8Z" transform="translate(-4.1 -83.9)" style="fill:#1d2f37"/><path d="M144.3,180.3Z" transform="translate(-4.1 -83.9)" style="fill:#1d2f37"/><polygon points="140.6 96.3 140.6 96.3 140.6 96.4 140.6 96.3" style="fill:#1d2f37"/><path d="M145.1,180.3h0Z" transform="translate(-4.1 -83.9)" style="fill:#1d2f37"/><polygon points="141.3 96.4 141.3 96.4 141.3 96.4 141.3 96.4" style="fill:#1d2f37"/><path d="M142.7,180.8h0Z" transform="translate(-4.1 -83.9)" style="fill:#1d2f37"/><path d="M142.7,180.6h0Z" transform="translate(-4.1 -83.9)" style="fill:#1d2f37"/><path d="M146.5,180.4Z" transform="translate(-4.1 -83.9)" style="fill:#1d2f37"/><path d="M145.3,180.3h0Z" transform="translate(-4.1 -83.9)" style="fill:#1d2f37"/><path d="M145.2,180.8Z" transform="translate(-4.1 -83.9)" style="fill:#1d2f37"/><polygon points="140.7 96.8 140.7 96.8 140.6 96.8 140.7 96.8" style="fill:#1d2f37"/><path d="M144.4,180.8Z" transform="translate(-4.1 -83.9)" style="fill:#1d2f37"/><polygon points="140 96.8 140 96.8 140 96.8 140 96.8" style="fill:#1d2f37"/><path d="M146.9,180.6h0Z" transform="translate(-4.1 -83.9)" style="fill:#1d2f37"/><path d="M146.8,180.7Z" transform="translate(-4.1 -83.9)" style="fill:#1d2f37"/><path d="M142.7,180.8h0l.2-.2h.6c0-.1.1-.1,0-.1h.8c.1,0,0,0,0-.1a.1.1,0,0,0,.1.1h.3c-.1,0,0,.1,0,.1h.1s.2,0,.2-.1,0,.1-.1.1h.2c.1-.1,0-.1,0-.1h1c0-.1-.1-.1,0-.1h-.8s.1.1,0,.1h-.2c-.1,0,0,.1,0,.1h0c-.1,0-.1.1-.2,0h-.2s0,.1-.1,0h0c0,.1-.1,0-.1.1s0,0,0-.1h-.2s.1,0,0,.1h-.2c-.1,0-.1.1-.2,0h-.7a.1.1,0,0,0,.1.1H143a.1.1,0,0,1-.1.1h-.2Zm2.4-.1h0Zm.9-.1Zm-1.7-.3h0Zm-.9.1Z" transform="translate(-4.1 -83.9)" style="fill:#1d2f37"/><path d="M143,180.8Z" transform="translate(-4.1 -83.9)" style="fill:#1d2f37"/><path d="M144.1,180.7h0Z" transform="translate(-4.1 -83.9)" style="fill:#1d2f37"/><path d="M140.2,181.7Z" transform="translate(-4.1 -83.9)" style="fill:#1d2f37"/><polygon points="136.5 97.6 136.5 97.6 136.6 97.6 136.5 97.6" style="fill:#1d2f37"/><path d="M140.9,181.4Z" transform="translate(-4.1 -83.9)" style="fill:#1d2f37"/><polygon points="137.1 97.3 137.1 97.3 137.1 97.3 137.1 97.3" style="fill:#1d2f37"/><path d="M138.8,182.7h0Z" transform="translate(-4.1 -83.9)" style="fill:#1d2f37"/><path d="M138.8,182.5Z" transform="translate(-4.1 -83.9)" style="fill:#1d2f37"/><path d="M142.3,180.9Z" transform="translate(-4.1 -83.9)" style="fill:#1d2f37"/><path d="M141.2,181.3Z" transform="translate(-4.1 -83.9)" style="fill:#1d2f37"/><path d="M141.3,181.8Z" transform="translate(-4.1 -83.9)" style="fill:#1d2f37"/><polygon points="136.8 98 136.8 98 136.7 98 136.8 98" style="fill:#1d2f37"/><path d="M140.5,182.1h0Z" transform="translate(-4.1 -83.9)" style="fill:#1d2f37"/><polygon points="136.2 98.3 136.2 98.3 136.2 98.3 136.2 98.3" style="fill:#1d2f37"/><path d="M142.7,180.9Z" transform="translate(-4.1 -83.9)" style="fill:#1d2f37"/><path d="M142.7,181Z" transform="translate(-4.1 -83.9)" style="fill:#1d2f37"/><path d="M138.8,182.6h.1l.2-.2h.1s.1-.1,0-.1h.2c0-.1,0-.2.1-.2h.1c0-.1.1-.1,0-.2h.5c.1-.1-.1-.1,0-.1h.2c.1-.1,0-.1-.1-.1h.3c-.1,0-.1,0-.1.1h.2c-.1,0-.1.1,0,.1h.1c0-.1.2-.1.1-.2s0,0,0,.1h.4a.1.1,0,0,0,.1-.1h1.1a.1.1,0,0,1,.1-.1h-.4a.1.1,0,0,1,.1-.1h-.3c-.1,0-.1.1,0,.1h-.5c-.1.1,0,.1,0,.1h-.3a.1.1,0,0,0,.1.1h-.5c.1,0-.1,0-.1.1h-1.5a.1.1,0,0,1-.1.1h-.2Zm2.3-.9h0Zm.9-.4h0Zm-1.7.5a.1.1,0,0,0,.1-.1A.1.1,0,0,0,140.3,181.8Zm-.8.4Z" transform="translate(-4.1 -83.9)" style="fill:#1d2f37"/><path d="M139.2,182.7Z" transform="translate(-4.1 -83.9)" style="fill:#1d2f37"/><path d="M140.3,182.2h0Z" transform="translate(-4.1 -83.9)" style="fill:#1d2f37"/><path d="M136.4,183.6Z" transform="translate(-4.1 -83.9)" style="fill:#1d2f37"/><polygon points="132.7 99.5 132.7 99.5 132.7 99.5 132.7 99.5" style="fill:#1d2f37"/><path d="M137.1,183.2Z" transform="translate(-4.1 -83.9)" style="fill:#1d2f37"/><polygon points="133.3 99.2 133.3 99.2 133.3 99.2 133.3 99.2" style="fill:#1d2f37"/><path d="M135,184.5h0Z" transform="translate(-4.1 -83.9)" style="fill:#1d2f37"/><path d="M135,184.3h0Z" transform="translate(-4.1 -83.9)" style="fill:#1d2f37"/><path d="M138.5,182.7Z" transform="translate(-4.1 -83.9)" style="fill:#1d2f37"/><path d="M137.4,183.1Z" transform="translate(-4.1 -83.9)" style="fill:#1d2f37"/><path d="M137.4,183.6Z" transform="translate(-4.1 -83.9)" style="fill:#1d2f37"/><polygon points="132.9 99.9 132.9 99.9 132.9 99.8 132.9 99.9" style="fill:#1d2f37"/><path d="M136.7,184Z" transform="translate(-4.1 -83.9)" style="fill:#1d2f37"/><polygon points="132.3 100.1 132.3 100.1 132.3 100.1 132.3 100.1" style="fill:#1d2f37"/><path d="M138.8,182.8h0Z" transform="translate(-4.1 -83.9)" style="fill:#1d2f37"/><path d="M138.8,182.9Z" transform="translate(-4.1 -83.9)" style="fill:#1d2f37"/><path d="M135,184.5h.3a.1.1,0,0,1,.1-.1h-.1c.1,0,.2,0,.1-.1h.1c.1,0,.1-.1.1-.2h1.6s-.1,0,0-.1h.8c.1-.1,0,0,0-.1h.3c-.1,0,0-.1-.1,0s.1,0,.1-.1h.1c0,.1,0,0,.1,0a.1.1,0,0,0-.1.1.1.1,0,0,0,.1-.1h.2v.2h-.1c-.1,0-.2,0-.1.1h-.1v.2h-.7s.1,0,0,.1H137c-.1.1,0,.1-.1.1h0v.2c-.1,0,0,0,0-.1h-.2c0,.1.1.1,0,.1h-.5a.1.1,0,0,1-.1.1h-1Zm2.3-.9Zm.8-.5h0Zm-1.6.5Zm-.8.5Z" transform="translate(-4.1 -83.9)" style="fill:#1d2f37"/><path d="M135.3,184.5Z" transform="translate(-4.1 -83.9)" style="fill:#1d2f37"/><path d="M136.4,184.1Z" transform="translate(-4.1 -83.9)" style="fill:#1d2f37"/><polygon points="137.8 88.9 138.8 95.6 134 98.9 137.3 109 150.6 105.9 148.4 94.8 148.3 91.8 137.8 88.9" style="fill:#dcdcdd;stroke:#1d2f37;stroke-linecap:round;stroke-miterlimit:10"/><circle cx="139" cy="73.2" r="18" style="fill:#1d2f37"/><path d="M152,155s-6.4,8.5-13.2,12.3a15.2,15.2,0,0,0,2.7,7c2.4,2.9,6.7,4.7,9.4,4.3s5.3-2.3,6.4-7.4,0-12.5,0-12.5Z" transform="translate(-4.1 -83.9)" style="fill:#dcdcdd;stroke:#1d2f37;stroke-linecap:round;stroke-miterlimit:10"/><path d="M147.7,166.2c0,.8-.3,1.4-.7,1.4s-.5-.7-.5-1.5.3-1.4.6-1.4S147.7,165.4,147.7,166.2Z" transform="translate(-4.1 -83.9)" style="fill:#1d2f37"/><path d="M155.2,164.7c0,.8-.3,1.5-.6,1.4s-.6-.6-.6-1.4.3-1.5.6-1.5S155.2,163.9,155.2,164.7Z" transform="translate(-4.1 -83.9)" style="fill:#1d2f37"/><path d="M152.7,165.1l.2,1.7s1.1.1,1,1.7-1.7,1.5-2.6,1" transform="translate(-4.1 -83.9)" style="fill:none;stroke:#1d2f37;stroke-linecap:round;stroke-miterlimit:10"/><path d="M149.1,172.2s3.2,2,5.3-.8" transform="translate(-4.1 -83.9)" style="fill:none;stroke:#1d2f37;stroke-linecap:round;stroke-miterlimit:10"/><path d="M145.4,163.7a3.5,3.5,0,0,1,2.8-1.4" transform="translate(-4.1 -83.9)" style="fill:none;stroke:#1d2f37;stroke-linecap:round;stroke-miterlimit:10"/><path d="M153.1,162.1a2.1,2.1,0,0,1,2.8-1.1" transform="translate(-4.1 -83.9)" style="fill:none;stroke:#1d2f37;stroke-linecap:round;stroke-miterlimit:10"/><path d="M142.9,179.6a144.5,144.5,0,0,1,3.2,23.2c.6,12.9.5,36.7.5,36.7s-3.2,1.6-9.8,0-10.7-8.2-10.7-8.2l6.8-18L128,187.5Z" transform="translate(-4.1 -83.9)" style="fill:#fff;stroke:#1d2f37;stroke-linecap:round;stroke-miterlimit:10"/><path d="M146.5,217.9c-.1-5.4-.2-10.8-.4-15.1a144.5,144.5,0,0,0-3.2-23.2l-4.7,2.5-.4,11.6,4.3,2.5-2.3,5.2Z" transform="translate(-4.1 -83.9)" style="fill:#fff;stroke:#1d2f37;stroke-linecap:round;stroke-miterlimit:10"/><path d="M152.8,179.8a134.5,134.5,0,0,1,1.5,14.4c.3,7.1-.7,44.1-.7,44.1a27.3,27.3,0,0,0,6.9-2.4c3.6-1.7,5.7-8.1,5.7-8.1s-5.5-16.7-5.8-18.6,2.6-13.7,1.6-19.5a50.7,50.7,0,0,0-2.8-10.4A54.9,54.9,0,0,0,152.8,179.8Z" transform="translate(-4.1 -83.9)" style="fill:#fff;stroke:#1d2f37;stroke-linecap:round;stroke-miterlimit:10"/><path d="M154.4,214.8c0-.5,5.2-18.7,5.2-18.7l-3-2.8,2.4-3.2-3.8-10.6a14.2,14.2,0,0,0-2.4.3,134.5,134.5,0,0,1,1.5,14.4c.2,3,.1,11.2-.1,19.8Z" transform="translate(-4.1 -83.9)" style="fill:#fff;stroke:#1d2f37;stroke-linecap:round;stroke-miterlimit:10"/><path d="M147.1,226.8h3.4c1.3,0,1.9-.5,3.6.6a33.7,33.7,0,0,0,3.1,1.7s.2.5-.9.5a18.1,18.1,0,0,1-3.6-.8l4.8,2.1c1.1.4,1.4,1.5.5,1.6a16.6,16.6,0,0,0-3.8.9c-2.7.8-3.6.8-4.7.2a39.3,39.3,0,0,1-3.8-2.4Z" transform="translate(-4.1 -83.9)" style="fill:#dcdcdd;stroke:#1d2f37;stroke-linecap:round;stroke-miterlimit:10"/><path d="M128,187.5l-7.9,30.6,25.6,13.7,1.6-5-17.1-14.5,1.7-4.8S130.9,191.6,128,187.5Z" transform="translate(-4.1 -83.9)" style="fill:#fff;stroke:#1d2f37;stroke-linecap:round;stroke-miterlimit:10"/><path d="M173.8,173s4,1.6,4.1,3.1-3.1.3-3.1.3" transform="translate(-4.1 -83.9)" style="fill:#dcdcdd;stroke:#1d2f37;stroke-linecap:round;stroke-miterlimit:10"/><path d="M176.2,177a3.3,3.3,0,0,1,0,3.5" transform="translate(-4.1 -83.9)" style="fill:none;stroke:#1d2f37;stroke-linecap:round;stroke-miterlimit:10"/><line x1="173.8" y1="92.7" x2="176.1" y2="93.8" style="fill:none;stroke:#1d2f37;stroke-linecap:round;stroke-miterlimit:10"/><path d="M301.7,269.3l1.4,17.9c0,2.7,3.9,4.9,8.8,4.9s8.8-2.2,8.8-4.9l1.4-17.9Z" transform="translate(-4.1 -83.9)" style="fill:#1d2f37"/><ellipse cx="307.8" cy="185.4" rx="10.2" ry="5.7" style="fill:#1d2f37"/><path d="M277.9,200c2.2,1,7.7.9,7.7.9s-1.2-3.6-1.3-3.8c-1.2-2.5-5-6.7-8-6.2a3.6,3.6,0,0,0-3,4.6C273.8,197.6,276,199.2,277.9,200Z" transform="translate(-4.1 -83.9)" style="fill:#326ab3"/><path d="M279.8,215.8c2.3.4,7.2-1.1,7.6-1.2a50.1,50.1,0,0,0,2.9,8.2l2.1,4.6-.9-1.3c-1.8-2.1-6.5-5.1-9.4-3.9a3.8,3.8,0,0,0-1.6,5.3c1,1.9,3.6,2.8,5.6,3.1s6.3-.8,7.4-1.1l.9,1.8c1.4,2.8,2.8,5.6,4.1,8.4a25.5,25.5,0,0,1,1.3,2.9l-.8-1.1c-1.8-2.1-6.6-5.1-9.4-3.9a3.6,3.6,0,0,0-1.6,5.2c1,2,3.5,2.9,5.6,3.2s5.8-.7,7.1-1.1c.4,1.1.9,2.1,1.2,3.1s.5,1.3.7,2,.3,1.4.5,2.1.7,2.7,1,4,.3,1.8.5,2.6l-1.4-3c-1.5-2.3-5.8-6-8.8-5.3a3.8,3.8,0,0,0-2.4,5c.8,2,3.1,3.3,5.1,4s7,0,7.6-.1c.3,1.5.6,2.9.8,4.2.6,3,.9,5.6,1.2,7.8h2.1c-.4-2.3-.8-5-1.5-8.1-.2-1.5-.6-3.1-.9-4.7a25.7,25.7,0,0,0,4.2-2c1.6,1.8,5.7,3.8,6.2,4s-1.1,2.7-1.6,4-2.2,4.9-3.2,6.8h2.2c.8-1.8,1.7-3.8,2.6-6.1l1.8-4.4c.6.1,5.3,1.1,7.6.6s4.4-1.6,5.4-3.6a3.8,3.8,0,0,0-2.1-5.1c-2.9-1-7.4,2.3-9.1,4.6l-1.5,2.6.7-1.8c.5-1.3.9-2.6,1.4-4l.6-2.1c.2-.6.3-1.4.5-2.1a43.5,43.5,0,0,0,1-5.2c1.2.4,5.2,1.8,7.3,1.7s4.6-.9,5.8-2.8a3.6,3.6,0,0,0-1.2-5.3c-2.8-1.4-7.7,1.2-9.7,3.2l-2.1,2.5c.2-1,.4-2.1.5-3.1.4-3.1.7-6.2,1-9.4l.3-2.8c.4.1,5.1,1.9,7.4,1.7s4.7-.9,5.9-2.7a3.7,3.7,0,0,0-1.2-5.4c-2.8-1.4-7.7,1.2-9.7,3.2a31.2,31.2,0,0,0-2.4,3c.2-2.1.5-4.2.8-6.2a55.6,55.6,0,0,1,1.8-8.3c.2.1,5.1,2,7.5,1.8s4.6-.9,5.8-2.7a3.7,3.7,0,0,0-1.2-5.4c-2.8-1.4-7.7,1.2-9.7,3.2l-2.4,3a.6.6,0,0,0,.1-.4,55.4,55.4,0,0,1,3.3-7.8,36.1,36.1,0,0,1,2.2-3.9c.9.4,4.9,2.4,7.1,2.5s4.7-.4,6.1-2.1a3.6,3.6,0,0,0-.6-5.4c-2.6-1.7-7.8.3-10,2l-2,2,1.1-1.6a64.4,64.4,0,0,1,3.8-5.2l1.9-2.3c1,0,5.4-.2,7.4-1.1s4-2.5,4.4-4.6a3.7,3.7,0,0,0-3-4.6c-3.1-.3-6.8,3.9-7.9,6.5-.1.2-1.3,3.8-1.2,3.8h.1l-1.9,2.2c-1.2,1.5-2.6,3.2-3.9,5.1a56,56,0,0,0-4.1,6.5,41.7,41.7,0,0,0-3.4,7.7h0c0-.9-.1-3.4-.1-3.6-.4-2.8-2.7-7.9-5.7-8.4a3.7,3.7,0,0,0-4.3,3.4c-.1,2.2,1.4,4.4,3,5.8s6.6,3,7,3.2a57.3,57.3,0,0,0-2.1,8.4c-.3,1.7-.5,3.4-.8,5v-1.5c-.4-2.8-2.7-7.9-5.7-8.5a3.7,3.7,0,0,0-4.3,3.5c-.1,2.2,1.5,4.4,3,5.7s5.7,2.8,6.8,3.2l-.3,1.9c-.4,3.1-.7,6.2-1.2,9.3-.1,1.1-.3,2.1-.5,3.2v-1.4c-.4-2.8-2.7-7.9-5.8-8.4a3.6,3.6,0,0,0-4.2,3.4c-.2,2.2,1.4,4.4,2.9,5.8s5.3,2.6,6.6,3a30.1,30.1,0,0,1-.7,3.2l-.6,2.1-.6,2-1.5,3.9a26,26,0,0,1-1,2.5c.2-1.1.5-3.2.5-3.4a14.7,14.7,0,0,0-1.9-6.9,1.9,1.9,0,0,0-.1-.8,3.6,3.6,0,0,0-4.5-3.1c-3,.8-4.9,6-5,8.8,0,.2.1,1.9.2,3.1l-.5-2c-.3-1.3-.7-2.6-1-4s-.5-1.4-.7-2.1a17.2,17.2,0,0,0-.7-2.1c-.6-1.6-1.3-3.2-2-4.9,1.2-.2,5.3-1.3,6.9-2.6s3.4-3.3,3.4-5.5a3.6,3.6,0,0,0-4-3.7c-3,.3-5.7,5.2-6.3,7.9,0,.2-.2,2.2-.3,3.3-.4-1-.9-1.9-1.3-2.9-1.4-2.8-2.9-5.6-4.4-8.3-.4-.9-.9-1.7-1.3-2.6s5.3-1.2,7.2-2.6,3.4-3.4,3.3-5.5a3.6,3.6,0,0,0-3.9-3.8c-3.1.3-5.8,5.2-6.4,8,0,.2-.3,3-.3,3.8-1-1.9-1.9-3.8-2.8-5.7a62.4,62.4,0,0,1-3-7.8c.2,0,5.3-1.2,7.2-2.7s3.4-3.3,3.4-5.5a3.7,3.7,0,0,0-4-3.7c-3.1.3-5.8,5.2-6.3,7.9a38.9,38.9,0,0,0-.3,3.9c-.1-.2-.2-.3-.2-.5a51.5,51.5,0,0,1-1.6-8.2c-.2-1.6-.2-3.1-.3-4.5s5.5-.7,7.3-1.9,3.8-2.9,4-5.1a3.7,3.7,0,0,0-3.6-4.1c-3.1-.1-6.3,4.5-7.1,7.2a19.8,19.8,0,0,0-.6,2.7v-1.9a61.1,61.1,0,0,1,.3-6.4q.1-1.7.3-3c.9-.6,4.5-3.1,5.6-5s1.9-4.3,1.1-6.3a3.6,3.6,0,0,0-5-2.1c-2.8,1.4-3.5,7-3.1,9.7.1.3,1.1,3.9,1.2,3.9h0c-.1.9-.2,1.8-.3,2.9s-.4,4-.5,6.4,0,4.9.2,7.6a52.6,52.6,0,0,0,1.4,8.4.1.1,0,0,0,.1.1l-2.1-3c-1.8-2.1-6.6-5.1-9.4-3.9a3.6,3.6,0,0,0-1.6,5.2C275.2,214.6,277.7,215.5,279.8,215.8Z" transform="translate(-4.1 -83.9)" style="fill:#23b4b3"/><path d="M333.1,201.2s1-3.6,1-3.8c.4-2.8-.5-8.3-3.3-9.7a3.7,3.7,0,0,0-5,2.2c-.7,2.1.2,4.6,1.3,6.4S333.1,201.2,333.1,201.2Z" transform="translate(-4.1 -83.9)" style="fill:#23b4b3"/><path d="M319.9,269.3c0,2.5-3.6,4.5-8,4.5s-8.1-2-8.1-4.5,3.6-4.4,8.1-4.4S319.9,266.9,319.9,269.3Z" transform="translate(-4.1 -83.9)" style="fill:#23b4b3"/><path d="M231.7,255,68.9,349V182c0-3.4,2.7-7.8,6.1-9.7L225.5,85.4c3.4-2,6.2-.8,6.2,2.6Z" transform="translate(-4.1 -83.9)" style="fill:none;stroke:#1d2f37;stroke-miterlimit:10"/><polygon points="227.6 171.1 64.8 265 64.8 245.2 227.6 151.2 227.6 171.1" style="fill:#1d2f37;stroke:#1d2f37;stroke-miterlimit:10"/><polygon points="219.6 169.7 72.8 254.5 72.8 246.5 219.6 161.8 219.6 169.7" style="fill:#fff;stroke:#1d2f37;stroke-linecap:round;stroke-miterlimit:10"/><ellipse cx="119.9" cy="274.3" rx="12.2" ry="6.9" transform="translate(-175.5 121.3) rotate(-53.1)" style="fill:#23b4b3"/><path d="M119.9,276.6h0c-1.1.6-1.9.3-1.9-.8V270a3.7,3.7,0,0,1,1.9-2.9h0c1-.6,1.8-.3,1.8.7v5.9A3.9,3.9,0,0,1,119.9,276.6Z" transform="translate(-4.1 -83.9)" style="fill:#fff"/><path d="M123.1,272.8V270c0-.1-.1-.2-.3-.1a.5.5,0,0,0-.3.5v2.8a5.7,5.7,0,0,1-2.6,4.1c-1.4.8-2.6.3-2.6-1.1v-2.8c0-.2-.2-.2-.3-.1a.7.7,0,0,0-.4.5v2.8c0,1.6,1.3,2.3,2.9,1.5v3.1l-1.9,1.1a.5.5,0,0,0-.3.5c0,.2.1.2.3.1l4.5-2.6a.7.7,0,0,0,.4-.5c0-.2-.2-.2-.4-.1l-1.9,1.1v-3.1A6.4,6.4,0,0,0,123.1,272.8Z" transform="translate(-4.1 -83.9)" style="fill:#fff"/><ellipse cx="180.5" cy="239.3" rx="12.2" ry="6.9" transform="translate(-123.3 155.8) rotate(-53.1)" style="fill:#23b4b3"/><path d="M186.2,233.4l-2.7,3.1v-1.3c0-.6-.5-.8-1.1-.4l-6,3.4a2.2,2.2,0,0,0-1.1,1.8v4.8c0,.6.4.8,1.1.5l6-3.5a2.2,2.2,0,0,0,1.1-1.7v-1.3h2.7Z" transform="translate(-4.1 -83.9)" style="fill:#fff"/><ellipse cx="150.2" cy="256.8" rx="12.2" ry="6.9" transform="translate(-149.4 138.5) rotate(-53.1)" style="fill:#edab28"/><path d="M154.8,252.2l-.9.6-1.3.7-4.8,2.8-.9.5-1.3.8c-1.1.6-2,2.1-1.8,3l.3,1.3c0,.2.2.3.4.1l2.8-1.6a.7.7,0,0,0,.5-.6v-1.6l4.8-2.8v1.5c0,.3.2.4.5.2l2.8-1.6c.2-.1.3-.4.4-.6l.2-1.6C156.7,252.1,155.9,251.6,154.8,252.2Z" transform="translate(-4.1 -83.9)" style="fill:#fff"/><path d="M35.5,278.7c0-.3-.1-.6-.1-.9l4.6-4.6-1.4-3.7-4.8,3.8a5.4,5.4,0,0,0-1.6-1.4l2.5-5.6-3.8-.6-3.2,5.4a9.8,9.8,0,0,0-2.7.7l-.5-4.6L19.8,270l-.4,5a21.6,21.6,0,0,0-2.7,2.5l-3.3-1.9-3.8,5,2.5,2.9c-.5,1-1.1,2-1.5,3l-5,1.8-1.4,5.4,4.7-.8V294a6.1,6.1,0,0,0,.1,1.4l-4.9,5L5.5,304l5.3-4.2,1.4,1.1-2.8,6.3,3.8.6,3.7-6.2,2.2-.5.5,5.2,4.7-2.7.5-5.7,2.3-2,3.6,2,3.8-5-2.7-3a26.9,26.9,0,0,0,1.6-2.9l5.1-1.8,1.5-5.3-4.7.7A13.7,13.7,0,0,0,35.5,278.7ZM12.9,291.8c0-5.2,4.1-11.8,9.3-14.8s9.3-1.2,9.3,4-4.2,11.7-9.3,14.7S12.9,296.9,12.9,291.8Z" transform="translate(-4.1 -83.9)" style="fill:#1d2f37"/><path d="M61.9,239.2v-.9l4.6-4.7L65,230l-4.7,3.7a6.5,6.5,0,0,0-1.6-1.3l2.5-5.7-3.9-.5-3.1,5.4-2.8.6-.4-4.5-4.8,2.7-.4,5.1a29.1,29.1,0,0,0-2.7,2.4l-3.2-1.8-3.9,5,2.6,2.8c-.6,1-1.1,2.1-1.6,3.1l-4.9,1.8-1.5,5.3,4.8-.7c0,.4-.1.7-.1,1.1s.1.9.1,1.4l-4.9,4.9,1.5,3.7,5.3-4.2a5.3,5.3,0,0,0,1.4,1.1l-2.9,6.3,3.9.6,3.6-6.2,2.2-.6.5,5.3,4.8-2.8.5-5.7,2.2-2,3.6,2.1,3.9-5.1-2.7-2.9c.5-1,1.1-1.9,1.5-2.9l5.1-1.8,1.5-5.4-4.6.7A10.9,10.9,0,0,0,61.9,239.2Zm-22.6,13c0-5.1,4.2-11.7,9.3-14.7s9.3-1.2,9.3,3.9-4.1,11.8-9.3,14.7S39.3,257.4,39.3,252.2Z" transform="translate(-4.1 -83.9)" style="fill:#1d2f37"/><path d="M61.9,292.6v-.8l4.6-4.7L65,283.4l-4.7,3.8a10.7,10.7,0,0,0-1.6-1.4l2.5-5.6-3.9-.5L54.2,285a16.4,16.4,0,0,0-2.8.7l-.4-4.5-4.8,2.7-.4,5.1a29.1,29.1,0,0,0-2.7,2.4l-3.2-1.8-3.9,5,2.6,2.8c-.6,1-1.1,2.1-1.6,3.1l-4.9,1.7-1.5,5.4,4.8-.7c0,.4-.1.7-.1,1.1s.1.9.1,1.4l-4.9,4.9L32,318l5.3-4.3a3,3,0,0,0,1.4,1.1l-2.9,6.4,3.9.6,3.6-6.2,2.2-.6.5,5.2,4.8-2.7.5-5.7,2.2-2,3.6,2,3.9-5-2.7-2.9c.5-1,1.1-1.9,1.5-2.9l5.1-1.8,1.5-5.4-4.6.7A11.5,11.5,0,0,0,61.9,292.6ZM39.3,305.7c0-5.2,4.2-11.7,9.3-14.7s9.3-1.2,9.3,3.9-4.1,11.8-9.3,14.7S39.3,310.8,39.3,305.7Z" transform="translate(-4.1 -83.9)" style="fill:#1d2f37"/><path d="M218.8,110.1l-33.1,18.7a5.4,5.4,0,0,0-2.5,4.1v21.9c0,1.4,1.1,1.9,2.5,1.1l23.9-13.4-1.4,8.2,7.7-11.8,2.9-1.7a5.3,5.3,0,0,0,2.6-4v-22C221.4,109.8,220.2,109.3,218.8,110.1Z" transform="translate(-4.1 -83.9)" style="fill:#edab28"/><line x1="185.2" y1="51.3" x2="211.7" y2="36.4" style="fill:none;stroke:#1d2f37;stroke-miterlimit:10"/><line x1="185.2" y1="56.6" x2="211.7" y2="41.7" style="fill:none;stroke:#1d2f37;stroke-miterlimit:10"/><line x1="185.2" y1="61.9" x2="211.7" y2="47" style="fill:none;stroke:#1d2f37;stroke-miterlimit:10"/><ellipse cx="186.6" cy="331.9" rx="20.8" ry="11.8" transform="translate(-194.9 197.6) rotate(-53.1)" style="fill:#edab28"/><path d="M192.1,333.1h-.3l-5.8-.6v-8.1a1.5,1.5,0,0,1,.6-1c.4-.2.7-.1.7.3v7.4l5.2.5c.3,0,.4.4.2.8A.9.9,0,0,1,192.1,333.1Z" transform="translate(-4.1 -83.9)" style="fill:#1d2f37"/><path d="M265.4,131.7c0-7.6-6.2-10.2-13.8-5.8s-13.8,14.1-13.8,21.7,6.2,10.2,13.8,5.8S265.4,139.3,265.4,131.7Z" transform="translate(-4.1 -83.9)" style="fill:#edab28"/><path d="M251.6,143.1h0c-1.5.9-2.8.3-2.8-1.2v-8.8a5.8,5.8,0,0,1,2.8-4.4h0c1.5-.9,2.8-.4,2.8,1.2v8.8A6,6,0,0,1,251.6,143.1Z" transform="translate(-4.1 -83.9)" style="fill:#1d2f37;stroke:#1d2f37;stroke-linecap:round;stroke-linejoin:round"/><path d="M251.6,145.1c-2.7,1.5-4.9.6-4.9-2.1v-4.2a1.2,1.2,0,0,1,.5-.8c.3-.1.5,0,.5.3v4.1c0,2.1,1.8,2.9,3.9,1.6a7.9,7.9,0,0,0,3.9-6.1v-4.2a1.2,1.2,0,0,1,.5-.8c.3-.1.5,0,.5.3v4.1C256.5,140,254.3,143.5,251.6,145.1Z" transform="translate(-4.1 -83.9)" style="fill:#1d2f37"/><path d="M251.6,150.4c-.3.1-.5,0-.5-.3v-5.3a1.2,1.2,0,0,1,.5-.8c.3-.1.5,0,.5.3v5.3A1.2,1.2,0,0,1,251.6,150.4Z" transform="translate(-4.1 -83.9)" style="fill:#1d2f37"/><path d="M255,148.7l-6.8,3.9c-.3.1-.5.1-.5-.2a.9.9,0,0,1,.5-.8l6.8-4c.3-.1.5,0,.5.3A1.2,1.2,0,0,1,255,148.7Z" transform="translate(-4.1 -83.9)" style="fill:#1d2f37"/><polygon points="102.1 88.9 64.7 110.5 64.7 91.6 102.1 70 102.1 88.9" style="fill:#1d2f37"/><polygon points="104.3 86 52.2 116.1 52.2 65.6 104.3 35.5 104.3 86" style="fill:#fff;stroke:#1d2f37;stroke-linecap:round;stroke-miterlimit:10"/><polygon points="100.5 51.5 55.9 77.2 55.9 66 100.5 40.3 100.5 51.5" style="fill:#fff;stroke:#1d2f37;stroke-linecap:round;stroke-miterlimit:10"/><polygon points="66.3 87.9 55.5 94.1 55.5 83.3 66.3 77.1 66.3 87.9" style="fill:#fff;stroke:#1d2f37;stroke-linecap:round;stroke-miterlimit:10"/><polygon points="83.3 78 72.5 84.3 72.5 73.5 83.3 67.2 83.3 78" style="fill:#fff;stroke:#1d2f37;stroke-linecap:round;stroke-miterlimit:10"/><polygon points="100.4 68.2 89.5 74.4 89.5 63.6 100.4 57.4 100.4 68.2" style="fill:#fff;stroke:#1d2f37;stroke-linecap:round;stroke-miterlimit:10"/><polygon points="66.3 103.1 55.5 109.3 55.5 98.5 66.3 92.3 66.3 103.1" style="fill:#fff;stroke:#1d2f37;stroke-linecap:round;stroke-miterlimit:10"/><polygon points="83.3 93.2 72.5 99.5 72.5 88.7 83.3 82.4 83.3 93.2" style="fill:#fff;stroke:#1d2f37;stroke-linecap:round;stroke-miterlimit:10"/><polygon points="100.4 83.4 89.5 89.6 89.5 78.8 100.4 72.6 100.4 83.4" style="fill:#fff;stroke:#1d2f37;stroke-linecap:round;stroke-miterlimit:10"/><ellipse cx="34.1" cy="212.4" rx="19.5" ry="11" transform="translate(-160.2 28) rotate(-53.1)" style="fill:#23b4b3"/><path d="M43.1,202.8l-4.3,5v-2c0-1-.7-1.3-1.7-.8l-9.7,5.6a3.8,3.8,0,0,0-1.7,2.8v7.8c0,.9.8,1.3,1.7.7l9.7-5.6a3.4,3.4,0,0,0,1.7-2.7v-2.1h4.3Z" transform="translate(-4.1 -83.9)" style="fill:#fff"/><polygon points="236.9 166.1 198.5 188.3 198.5 156.7 236.9 134.6 236.9 166.1" style="fill:#1d2f37"/><polygon points="239.5 181.3 201.1 203.4 201.1 152.1 239.5 129.9 239.5 181.3" style="fill:#fff;stroke:#1d2f37;stroke-linecap:round;stroke-miterlimit:10"/><path d="M237.1,232.8l-25.5,14.7c-1.1.6-2,.2-2-.9h0a4,4,0,0,1,2-3.1l25.5-14.7c1.1-.7,2-.3,2,.8h0A4.4,4.4,0,0,1,237.1,232.8Z" transform="translate(-4.1 -83.9)" style="fill:#fff;stroke:#1d2f37;stroke-linecap:round;stroke-miterlimit:10"/><path d="M237.1,242.6l-25.5,14.7c-1.1.6-2,.3-2-.9h0a4,4,0,0,1,2-3.1l25.5-14.7c1.1-.7,2-.3,2,.8h0A4.2,4.2,0,0,1,237.1,242.6Z" transform="translate(-4.1 -83.9)" style="fill:#fff;stroke:#1d2f37;stroke-linecap:round;stroke-miterlimit:10"/><path d="M237.1,252.4l-25.5,14.7c-1.1.7-2,.3-2-.8h0a4.2,4.2,0,0,1,2-3.2l25.5-14.7c1.1-.6,2-.3,2,.9h0A4,4,0,0,1,237.1,252.4Z" transform="translate(-4.1 -83.9)" style="fill:#fff;stroke:#1d2f37;stroke-linecap:round;stroke-miterlimit:10"/><path d="M237.1,262.2l-25.5,14.7c-1.1.7-2,.3-2-.8h0a4.4,4.4,0,0,1,2-3.2l25.5-14.7c1.1-.6,2-.2,2,.9h0A4,4,0,0,1,237.1,262.2Z" transform="translate(-4.1 -83.9)" style="fill:#fff;stroke:#1d2f37;stroke-linecap:round;stroke-miterlimit:10"/><polygon points="239.5 136.2 201.1 158.3 201.1 152.1 239.5 129.9 239.5 136.2" style="fill:#fff;stroke:#1d2f37;stroke-linecap:round;stroke-miterlimit:10"/><ellipse cx="267.1" cy="268.1" rx="21.5" ry="11.5" style="fill:#23b4b3"/><path d="M252.5,214.9s1.5-4.7,2-6.5a4.5,4.5,0,0,1,2-2.6s2.9-4,3.4-4.5a3.1,3.1,0,0,1,2.7-.4c.8.3.7,2.2.7,2.2s.9-.4.9,1.1a8.5,8.5,0,0,1-1.1,3.3s-1.3,4.2-1.8,4.6a10.7,10.7,0,0,1-2,1.1l-2.5,3.7Z" transform="translate(-4.1 -83.9)" style="fill:#fff;stroke:#1d2f37;stroke-linecap:round;stroke-miterlimit:10"/><path d="M263.3,203.1l-1.3,3.8a3.5,3.5,0,0,1-1.2,1.4" transform="translate(-4.1 -83.9)" style="fill:none;stroke:#1d2f37;stroke-linecap:round;stroke-miterlimit:10"/><path d="M252.7,213.6l4.7,2.2-.9,2.5s.8.5.3,3.2-7.1,20.1-8.2,22.7-3.5,1.8-4.9,1.8-3.3-.9-3.3-5,6.8-20.9,7.9-22.5a8,8,0,0,1,3.6-2.4Z" transform="translate(-4.1 -83.9)" style="fill:#fff;stroke:#1d2f37;stroke-linecap:round;stroke-miterlimit:10"/><path d="M274.4,340.4a12.2,12.2,0,0,1-3-.2c-1.1-.4-2.7.4-1.6,3.1s1.5,3.6,2.6,3.7,2.7.7,3,1.3a6.1,6.1,0,0,0,3,2.7c1.9.8,3.5-.8,3.9-2.9s-1.1-5.7-1.3-6.2l-2.3-3Z" transform="translate(-4.1 -83.9)" style="fill:#fff;stroke:#1d2f37;stroke-linecap:round;stroke-miterlimit:10"/><path d="M269.6,326.8s4.1,13.6,4.1,15.1,2.8,2.4,3.8,2.4,2.2-1.4,2.3-2.5-1.6-18.4-1.6-18.4S272.2,323.2,269.6,326.8Z" transform="translate(-4.1 -83.9)" style="fill:#fff;stroke:#1d2f37;stroke-linecap:round;stroke-miterlimit:10"/><path d="M261.2,343.8l-5.1,2.5c-.8.3-5.6.7-6.9,1.7s-1.1,2.1,1.3,4.1,6.5,2.7,8.1,3.4,5.9,2.1,8.1,1.5a3.7,3.7,0,0,0,2.6-4.3c-.4-1.5-.7-3.2-.7-3.2a5,5,0,0,0,0-2.2c-.4-.8-2.1-1-2.1-1Z" transform="translate(-4.1 -83.9)" style="fill:#fff;stroke:#1d2f37;stroke-linecap:round;stroke-miterlimit:10"/><path d="M259.5,329.3l1,18s.6,2.9,2.8,3.2,3.9-2.6,3.9-2.6l1.5-17.7a7,7,0,0,0-5.4-3C259.5,326.9,259.5,329.3,259.5,329.3Z" transform="translate(-4.1 -83.9)" style="fill:#fff;stroke:#1d2f37;stroke-linecap:round;stroke-miterlimit:10"/><path d="M253.6,255.9s-1.3,11.6-1.3,21.7,2.4,34.2,2.6,40.3,1.2,12.8,1.2,12.8l3.8,2.3,1.1-3,1,4c.1.3,4-.1,4.5-.2a9.6,9.6,0,0,0,3.9-2.3l.2-1.5s5.3-1,6.7-2.5a17.7,17.7,0,0,0,2.8-4.8s-4.5-24.6-4.5-26-.4-4.4,0-5.5,5.5-13,6.3-14.3,3.4-8.8,3.2-14.2a15.6,15.6,0,0,0-3.8-9.3l-26.9-.2Z" transform="translate(-4.1 -83.9)" style="fill:#1d2f37;stroke:#1d2f37;stroke-linecap:round;stroke-linejoin:round"/><path d="M260.6,184.4a29,29,0,0,1,.2,3.1,2.8,2.8,0,0,1-1.3,2.2l-2.1,1.2a1.8,1.8,0,0,0-1,1.6,1.3,1.3,0,0,0,.9,1.3l1.4.5s-.4,5.7.5,7.8,1.1,2.6,2.9,2.6a23.3,23.3,0,0,0,3.2-.2v6.3a12,12,0,0,1,4.6-2.1,41.1,41.1,0,0,0,5.3-1.2s-1.4-8-.6-10.6-.3-10.5-2.4-12.7-8.2-3-9.3-1.9Z" transform="translate(-4.1 -83.9)" style="fill:#fff;stroke:#1d2f37;stroke-linecap:round;stroke-miterlimit:10"/><path d="M255,242.1s-1.1,1.3-2.7,2.9-3.3,2.1-3.5,3.9,1.1,3.7,1.9,4.4l1.2.7s1,.2,1.2-.4,2.4-9,2.6-11.3S255,242.1,255,242.1Z" transform="translate(-4.1 -83.9)" style="fill:none;stroke:#1d2f37;stroke-linecap:round;stroke-miterlimit:10"/><path d="M252.2,247.9a9.9,9.9,0,0,0,.2,4.1" transform="translate(-4.1 -83.9)" style="fill:none;stroke:#1d2f37;stroke-linecap:round;stroke-miterlimit:10"/><path d="M249.9,249.5s.8,2.7,2.3,3.8" transform="translate(-4.1 -83.9)" style="fill:none;stroke:#1d2f37;stroke-linecap:round;stroke-miterlimit:10"/><path d="M274.4,206.5s-4.9,0-7.5,1.6a17.3,17.3,0,0,0-4.4,3.8s-8.4,5.2-9.6,7.9-10,15.7-11.2,18.7-1.6,5.3.6,7.5a4.5,4.5,0,0,0,6.2,0c1.1-1.1,6.2-6.9,6.2-6.9a53.7,53.7,0,0,1-1.1,8c-.7,3.2-2.5,7.1-1.7,8.9s8.4,6.7,16.2,6.4,14-4.6,14.5-7.2-.6-6-.6-7.7.9-7.3,1.9-13.1,2.2-10.9,1.5-17.2-1.5-8-3.7-9.6S274.4,206.5,274.4,206.5Z" transform="translate(-4.1 -83.9)" style="fill:#fff;stroke:#1d2f37;stroke-linecap:round;stroke-miterlimit:10"/><line x1="250.7" y1="155.2" x2="250.4" y2="147.9" style="fill:none;stroke:#1d2f37;stroke-linecap:round;stroke-miterlimit:10"/><path d="M262.5,211.9a41.3,41.3,0,0,1,16.3-4.6" transform="translate(-4.1 -83.9)" style="fill:none;stroke:#1d2f37;stroke-linecap:round;stroke-miterlimit:10"/><path d="M278.8,239.9s-10.4,12.3-16.2,14.4" transform="translate(-4.1 -83.9)" style="fill:none;stroke:#1d2f37;stroke-linecap:round;stroke-miterlimit:10"/><path d="M266.9,246.9a36.7,36.7,0,0,1-8.4,6.5" transform="translate(-4.1 -83.9)" style="fill:none;stroke:#1d2f37;stroke-linecap:round;stroke-miterlimit:10"/><path d="M263.9,170.8a18.1,18.1,0,0,0-6.7-2c-3.6-.3-8,5.5-7.2,9.2a5.4,5.4,0,0,0,6.5,4.4c2.4-.4,3.6-2.2,3.2.2s-1.7,3.2-.2,3.9a14.3,14.3,0,0,0,4.7.9,5.9,5.9,0,0,0-1.1,2.4,3.7,3.7,0,0,0,2.6,2.9c1.5.5,4.2.5,4.2,2.1s-1.3,5.6.6,10,8.1,5.4,8.8,6.8-1.7,2.6-2.6,3.3-7.7,5.5-8,11.8,2.3,10,4.1,9.9,3-3.8,4.7-1.1,4.7,3,7.7,1.7,4.5-3.2,3.5-5.8-1.8-2.9-1.7-4.1,4-1.8,4-5a7.4,7.4,0,0,0-4-6.8c-2.4-1.2-4.8-1.8-4.8-3.1a4.5,4.5,0,0,1,2.1-3.5c1.1-.8,7-7.6,7-15.3s-2.8-14.6-8.2-18.3a17.8,17.8,0,0,0-10.4-3c-.6-.2.9-5.4-4-5.9S263.9,170.8,263.9,170.8Z" transform="translate(-4.1 -83.9)" style="fill:#1d2f37;stroke:#1d2f37;stroke-linecap:round;stroke-linejoin:round"/><ellipse cx="263.7" cy="109.6" rx="3.9" ry="4.9" style="fill:#edab28"/><polygon points="279.2 89.9 281.6 92.9 279 91.4 276.1 88.4 279.2 89.9" style="fill:#fff;stroke:#1d2f37;stroke-linecap:round;stroke-linejoin:round"/><path d="M267.4,191.3s2.5-16.9,15.8-17.5l-3-1.5s-12.5,1.8-14.3,18.4Z" transform="translate(-4.1 -83.9)" style="fill:#fff;stroke:#1d2f37;stroke-linecap:round;stroke-linejoin:round"/><path d="M270.9,328s-1-31.4-.7-33.6,6.2-18.9,6.2-18.9" transform="translate(-4.1 -83.9)" style="fill:none;stroke:#fff;stroke-linecap:round;stroke-linejoin:round"/></svg>