<svg xmlns="http://www.w3.org/2000/svg" xmlns:xlink="http://www.w3.org/1999/xlink" width="260" height="68.001" viewBox="0 0 260 68.001">
  <defs>
    <clipPath id="clip-path">
      <rect id="Rectangle_10" data-name="Rectangle 10" width="192.895" height="2.757" transform="translate(1.295 90.631)" fill="#fff"/>
    </clipPath>
    <clipPath id="clip-path-2">
      <path id="Path_21" data-name="Path 21" d="M347.082,246.987h7.331v28.968h-7.331Zm.179,28.968h7.151V276h-7.151Z" transform="translate(-119.705 -158.454)" fill="#fff"/>
    </clipPath>
    <clipPath id="clip-path-3">
      <path id="Path_20" data-name="Path 20" d="M347.1,246.992v28.945c.313.026.536.06.761.06h6.533V246.992Z" transform="translate(-119.705 -158.454)" fill="#fff"/>
    </clipPath>
    <clipPath id="clip-path-4">
      <rect id="Rectangle_12" data-name="Rectangle 12" width="7.647" height="29.334" transform="translate(239.703 88.213)" fill="#fff"/>
    </clipPath>
    <clipPath id="clip-path-5">
      <path id="Path_25" data-name="Path 25" d="M359.443,246.983v28.933c4.31.552,7.343-2.1,7.345-6.334V247.927c0-.3-.026-.608-.042-.944Z" transform="translate(-119.705 -158.454)" fill="#fff"/>
    </clipPath>
    <clipPath id="clip-path-6">
      <path id="Path_24" data-name="Path 24" d="M359.443,246.983v28.933c4.31.552,7.343-2.1,7.345-6.334V247.927c0-.3-.026-.608-.042-.944" transform="translate(-119.705 -158.454)" fill="#fff"/>
    </clipPath>
    <clipPath id="clip-path-7">
      <rect id="Rectangle_14" data-name="Rectangle 14" width="7.647" height="29.334" transform="translate(214.963 88.213)" fill="#fff"/>
    </clipPath>
    <clipPath id="clip-path-8">
      <path id="Path_29" data-name="Path 29" d="M334.763,246.992c-.019.213-.037.325-.037.438,0,7.443-.032,14.887.023,22.33.028,4.112,3.045,6.649,7.234,6.161V246.992Z" transform="translate(-119.705 -158.454)" fill="#fff"/>
    </clipPath>
    <clipPath id="clip-path-9">
      <path id="Path_28" data-name="Path 28" d="M334.763,246.992c-.019.213-.037.325-.037.438,0,7.443-.032,14.887.023,22.33.028,4.112,3.045,6.649,7.234,6.161V246.992" transform="translate(-119.705 -158.454)" fill="#fff"/>
    </clipPath>
  </defs>
  <g id="surface1" transform="translate(-1.295 -49.546)">
    <path id="Path_1258" data-name="Path 1258" d="M175.087,236.911c-.112-.6-.743-1.207-1.269-1.147a.835.835,0,0,0-.562.532c-.1.476.61,1.325,1.021,1.223.3-.077.541-.4.81-.608m-18.923.657A17.577,17.577,0,0,0,163,235.417a4.968,4.968,0,0,0,1.327-1.124,1.07,1.07,0,0,0,.079-.959,4.481,4.481,0,0,0-5.834-1.731,10.707,10.707,0,0,0-4.013,4.215c-.416.749-.221,1.237.589,1.529a7.438,7.438,0,0,0,1.017.221m-3.994-2.4c1.26-1.534,2.353-3.087,3.674-4.412a7.583,7.583,0,0,1,5.943-2.523,6.192,6.192,0,0,1,3.878,1.61,3.568,3.568,0,0,1,1.075,3.892c-.1.343-.19.689-.26,1.038-.149.749.005.91.78.843a2.31,2.31,0,0,0,2.012-2.339,46.78,46.78,0,0,0-.069-4.736,84.076,84.076,0,0,0-2.107-13.432,1,1,0,0,1,.04-.643c.4-.742.835-1.462,1.26-2.188.2-.336.485-.462.708-.09,1.153,1.917,2.275,3.852,3.495,5.927a6.451,6.451,0,0,1-.794.112c-1.021,0-1.439.455-1.325,1.457.16,1.418.371,2.833.46,4.256.17,2.7.281,5.4.392,8.1.042,1.072.274,1.279,1.286.836a3.121,3.121,0,0,1,3.008.011,4.638,4.638,0,0,1,1.643,1.615,4.184,4.184,0,0,1-1.555,5.66,3.075,3.075,0,0,1-4.031-.857,5.3,5.3,0,0,1-.464-.7c-.891-1.574-1.255-1.669-2.978-1.007a37.81,37.81,0,0,1-4.475,1.541,61.834,61.834,0,0,1-6.371,1.226,7.7,7.7,0,0,1-5.375-1.3c-.329.274-.652.546-1.1.917a4.6,4.6,0,0,1-.288-1.434.792.792,0,0,0-.439-.914c-1.5-.966-2.543-1.016-3.906.132-2.086,1.757-4.078,3.627-6.12,5.437-.724.643-1.448,1.292-2.226,1.864a5.218,5.218,0,0,1-3.86.877c-1.836-.23-3.161-2.353-2.731-4.451a22.352,22.352,0,0,1,.775-2.472c.1-.309.241-.608.373-.937a32.5,32.5,0,0,1-3.544-.571,13.053,13.053,0,0,1-3.17-1.277,6.192,6.192,0,0,1-3.383-6.415,12.032,12.032,0,0,1,2.5-6.233,3.846,3.846,0,0,1,1.095-.666,4.294,4.294,0,0,1-.021,1.156c-.258.852-.626,1.669-.91,2.513a15.35,15.35,0,0,0-.706,2.411c-.494,3.035,1.62,4.894,4.013,5.835a8.992,8.992,0,0,0,5.5.155,14.925,14.925,0,0,0,7.169-3.725,5.944,5.944,0,0,0,.814-1.393,13.5,13.5,0,0,0-1.525-.43c-.8-.134-1.638-.1-2.414-.3-1.94-.511-2.653-1.713-2.3-3.679a9.257,9.257,0,0,1,7.656-7.549c1.1-.179,1.755.313,1.736,1.432a8.083,8.083,0,0,1-.334,2.179,1.335,1.335,0,0,1-.856.668.672.672,0,0,1-.9-.58c-.084-.481-.446-.543-.817-.413a7.308,7.308,0,0,0-4.27,3.7c-.334.661-.047,1.118.761,1.205.956.1,1.928.083,2.892.116.128.005.257.014.381.03,2.637.339,3.7,2.428,2.363,4.725a7.544,7.544,0,0,1-1.16,1.516,18.287,18.287,0,0,1-9.425,5.37c-.394.081-.682.235-.662.68a16.286,16.286,0,0,0,.193,2.878,2.031,2.031,0,0,0,2.931,1.564,10.7,10.7,0,0,0,2.966-1.933c1.226-1.107,2.251-2.435,3.432-3.6a22.555,22.555,0,0,1,3.057-2.652c2.365-1.61,4.316-1.653,6.326.176a1.534,1.534,0,0,0,.279.184" transform="translate(-119.705 -158.454)" fill="#fff"/>
    <path id="Path_1259" data-name="Path 1259" d="M272.915,212.276c.1.684.214,1.346.288,2.012a156.256,156.256,0,0,1,1.422,20.135,5.956,5.956,0,0,0,.272,1.8,2.862,2.862,0,0,0,4.627,1.546,20.111,20.111,0,0,0,2.574-2.987c.13-.155.184-.38.33-.51a.727.727,0,0,1,.522-.214.634.634,0,0,1,.353.425,4.622,4.622,0,0,1,.056.912,3.067,3.067,0,0,0,2.8,3.259,9.166,9.166,0,0,0,6.591-1.349c1.476-.9,2.852-1.966,4.273-2.957.264-.185.532-.365.961-.659a7.116,7.116,0,0,1-.005.93c-.271,1.717.432,2.963,1.815,3.189a2.57,2.57,0,0,0,3.23-2.319A14.317,14.317,0,0,0,302.81,232c-.675-4.743-1.393-9.478-2.105-14.214a6.3,6.3,0,0,0-.358-1.638c-.768-1.706.524-2.775,1.2-4.01.248-.45.571-.028.74.248.6,1.005,1.193,2.019,1.783,3.033.373.638.749,1.276,1.1,1.926a5.71,5.71,0,0,1,.293.8,2.923,2.923,0,0,1-.448.088c-1.314,0-1.585.322-1.462,1.653.457,4.95.966,9.9,1.313,14.855a6.408,6.408,0,0,1-1.949,4.994,3.782,3.782,0,0,1-3.832.935,3.963,3.963,0,0,1-1.474-1.1,3.18,3.18,0,0,1-.453-.877c-.415-.815-.666-.828-1.4-.293a24.739,24.739,0,0,1-3.6,2.407,14.779,14.779,0,0,1-3.927,1.2,5.777,5.777,0,0,1-5.8-2.29c-.5-.629-.74-.626-1.158.121a3.666,3.666,0,0,1-2.978,2,3.805,3.805,0,0,1-4.386-3.117q-.012-.073-.022-.146c-.067-.325-.083-.659-.153-.982-.116-.557-.409-.666-.866-.323a3.259,3.259,0,0,0-.49.481,14.82,14.82,0,0,1-11.188,4.974,8.969,8.969,0,0,1-6.266-1.986,5.146,5.146,0,0,1-1.993-5.358,34.773,34.773,0,0,1,1.086-3.73,2.892,2.892,0,0,1,.808-1.181,1,1,0,0,1,.926-.063.635.635,0,0,1,.135.989,9.822,9.822,0,0,0-.924,1.58,3.741,3.741,0,0,0,1.216,4.89,8.545,8.545,0,0,0,4.528,1.685,12.167,12.167,0,0,0,11.551-4.885,2.68,2.68,0,0,0,.529-1.592,138.821,138.821,0,0,0-1.541-17.589,2.092,2.092,0,0,1,.2-1.14c.329-.687.749-1.33,1.14-1.984.025-.042.135-.035.33-.077" transform="translate(-119.705 -158.454)" fill="#fff"/>
    <path id="Path_1260" data-name="Path 1260" d="M227.7,230.09a8.442,8.442,0,0,0-.337-.919c-.17-.334-.524-.59-.756-.192a12.2,12.2,0,0,0-.959,2.251c-.051.148.235.506.445.61a.7.7,0,0,0,.669-.132c.369-.529.655-1.114.938-1.618m.8,9.134,1.014-.506c-.206-.329-.337-.8-.634-.956a6.758,6.758,0,0,0-1.982-.662c-.6-.1-.833.344-.5.872a2.846,2.846,0,0,0,2.1,1.253m-1.481-15.572c1.938,1.5,2.973,6.452.541,10.5.557.181,1.126.323,1.662.543a4.532,4.532,0,0,1,2.388,5.948q-.074.174-.163.341a2.769,2.769,0,0,1-3.177,1.258c-2.56-.469-3.853-1.8-4.444-4.588-.271-1.272-.568-1.458-1.783-.956a22.217,22.217,0,0,1-7.143,1.555,11.1,11.1,0,0,1-9.6-3.759,2.011,2.011,0,0,0-.812-.666.964.964,0,0,0-.861.257c-.25.348-.053.668.4.773a3.727,3.727,0,0,1,.65.22,1.757,1.757,0,0,1,1.18,2.187q-.013.044-.029.087a11.141,11.141,0,0,1-1.588,3.086c-2.757,3.507-9.325,6.769-15.414,4.493-2.869-1.072-4.263-3.326-4.816-6.129-.494-2.5.613-4.623,2.047-6.587a.615.615,0,0,1,.216-.214c.2-.083.409-.134.615-.2a1.745,1.745,0,0,1,.039.626c-.184.555-.443,1.084-.638,1.636a7.915,7.915,0,0,0-.448,4.212c.564,2.866,2.681,4.669,5.906,4.786a15.8,15.8,0,0,0,10.7-3.391,7.25,7.25,0,0,0,1.034-1.026c.445-.529.343-.884-.343-1.028a10.532,10.532,0,0,0-1.9-.172c-1.038-.028-2.077-.009-3.312-.009a25.557,25.557,0,0,1,.571-2.889c.088-.285.608-.518.975-.619a5.467,5.467,0,0,0,4-5.853c-.339-2.5-.975-4.973-1.132-7.478a79.273,79.273,0,0,1,.167-7.933c.007-.232.3-.453.46-.68a2.527,2.527,0,0,1,.387.747c.534,4.017,1.024,8.041,1.566,12.057q.311,2.309.791,4.6a7.048,7.048,0,0,0,6.034,5.607,17.577,17.577,0,0,0,6.377-.388,32.378,32.378,0,0,0,3.706-.908,4.119,4.119,0,0,0,2.929-3.37c.446-1.979,1.186-3.892,1.813-5.827a5.85,5.85,0,0,1,.446-.845" transform="translate(-119.705 -158.454)" fill="#fff"/>
    <path id="Path_1261" data-name="Path 1261" d="M239.49,239.522a6.668,6.668,0,0,0,.854-.127,1.827,1.827,0,0,0,.868-3.079c-.7-.719-.966-.768-1.685-.054a6.623,6.623,0,0,0-1.207,1.641c-.561,1.095-.192,1.617,1.17,1.618m-16.409-24.414c2.126,1.371,4.1,2.629,6.052,3.908.325.213.555.525.012.789-.826.4-.863.545-.2,1.191q3.152,3.071,6.319,6.129,2.227,2.156,4.456,4.31c.253.246.518.48.829.77l3.286-3.138a4.711,4.711,0,0,1,.615-.573,3.56,3.56,0,0,0,1.538-3.9c-.466-2.89-.9-5.786-1.378-8.675a4.152,4.152,0,0,1,1.369-3.173c.119.225.253.432.346.655.754,1.812,1.508,3.623,2.239,5.444a3.55,3.55,0,0,1,.116.865,5.3,5.3,0,0,1-.791-.221c-.459-.209-.81.007-.743.559.2,1.643.438,3.279.687,5.117a12.6,12.6,0,0,0,1.153-1.024c2.128-2.442,4.259-4.881,6.345-7.361,1.084-1.286,2.077-2.65,3.114-3.978a1.774,1.774,0,0,1,.337-.411,4.214,4.214,0,0,1,.659-.3c.062.227.221.481.167.677a10.121,10.121,0,0,1-.664,1.863,38.346,38.346,0,0,1-5.688,7.851c-1.515,1.724-3.135,3.354-4.667,5.064a1.982,1.982,0,0,0-.473,1.184c-.076,3.725-.046,7.452-.169,11.172a7.6,7.6,0,0,1-1.667,4.472V230.289c-.072-.026-.146-.051-.22-.076-1.218,1.223-2.442,2.437-3.634,3.685-.091.1.016.46.123.648A6.783,6.783,0,0,1,243.24,240a4.5,4.5,0,0,1-5.029,3.184,2.042,2.042,0,0,1-1.831-1.789,6.524,6.524,0,0,1,1.683-6.289,3.665,3.665,0,0,1,.38-.378,4.475,4.475,0,0,1,.459-.278c.03-.114.061-.228.093-.344a16.13,16.13,0,0,1-1.425-1.146q-6.9-6.908-13.758-13.855a1.947,1.947,0,0,1-.464-1.049c-.13-.9-.172-1.82-.267-2.954" transform="translate(-119.705 -158.454)" fill="#fff"/>
    <path id="Path_1262" data-name="Path 1262" d="M181.6,219.263c-.276.018-.49.04-.706.044-.963.012-1.372.469-1.223,1.472.19,1.286.445,2.562.652,3.845a46.431,46.431,0,0,1-.239,17.26,8.075,8.075,0,0,1-.77,1.982c-.144.283-.524.443-.8.661l-.22-.132c0-.29-.005-.582,0-.872.1-3.952.364-7.9.272-11.852a79.988,79.988,0,0,0-2.239-15.261,2.041,2.041,0,0,1,.174-1.2,20.07,20.07,0,0,1,1.072-1.85c.23-.387.513-.443.754-.035q1.608,2.733,3.186,5.489a1.661,1.661,0,0,1,.083.445" transform="translate(-119.705 -158.454)" fill="#fff"/>
    <path id="Path_1263" data-name="Path 1263" d="M313.675,217.893c-1.9.188-2.051.394-1.711,2.263a58.937,58.937,0,0,1,1.2,11.385,37.075,37.075,0,0,1-1.049,9.471,6.681,6.681,0,0,1-.7,1.6c-.13.22-.478.309-.726.459a2.773,2.773,0,0,1-.223-.792c.091-4,.369-8,.271-12a81.408,81.408,0,0,0-2.225-15.173,2.2,2.2,0,0,1,.183-1.269,18.209,18.209,0,0,1,1.067-1.854c.2-.341.476-.434.7-.051q1.626,2.767,3.212,5.556c.054.1.007.244.007.406" transform="translate(-119.705 -158.454)" fill="#fff"/>
    <path id="Path_1264" data-name="Path 1264" d="M200.514,261.2c1.038-.053,1.979-.065,2.91-.162a1.18,1.18,0,0,0,1.054-1.294v-.006a1.119,1.119,0,0,0-.922-1.286l-.025,0c-1-.1-2.007-.026-3.015-.026Zm-.007,5.021c1.077,0,2.07.037,3.057-.011a1.309,1.309,0,0,0,1.266-1.351v-.021c.053-.879-.343-1.583-1.119-1.655-1.051-.1-2.114-.023-3.2-.023Zm4.6-4.375c1.914,1.467,2.335,3.168,1.321,4.922a2.531,2.531,0,0,1-2.158,1.381c-1.759.062-3.52.053-5.277.077-.35.005-.585-.062-.582-.5.016-3.7.019-7.4.03-11.093,0-.046.042-.09.072-.146,1.824,0,3.655-.049,5.481.018a2.444,2.444,0,0,1,2.258,1.791,2.973,2.973,0,0,1-.578,3.142,3.048,3.048,0,0,1-.568.406" transform="translate(-119.705 -158.454)" fill="#fff"/>
    <path id="Path_1265" data-name="Path 1265" d="M124.307,260.981v7.2h-1.854V256.44a12.558,12.558,0,0,1,1.648.025c.209.028.441.3.559.515,1.109,2.063,2.2,4.138,3.293,6.208a1.9,1.9,0,0,0,.6.731v-7.44h1.875V268.22a13.8,13.8,0,0,1-1.754-.026c-.209-.026-.441-.308-.561-.527-1.081-1.993-2.135-4-3.2-6-.13-.244-.267-.483-.4-.724l-.207.039" transform="translate(-119.705 -158.454)" fill="#fff"/>
    <path id="Path_1266" data-name="Path 1266" d="M167.441,260.934v5.8c0,1.65,0,1.65-1.789,1.425V256.433c.443,0,.872.032,1.293-.007a.809.809,0,0,1,.887.527c1.153,2.216,2.326,4.419,3.5,6.624.07.134.153.262.339.582V256.5h1.916c.016.23.044.455.046.678,0,3.418-.016,6.837.016,10.255.005.652-.214.784-.826.824a1.617,1.617,0,0,1-1.829-1.053c-.923-1.929-1.987-3.79-3-5.677-.118-.218-.251-.429-.376-.641l-.183.053" transform="translate(-119.705 -158.454)" fill="#fff"/>
    <path id="Path_1267" data-name="Path 1267" d="M283.783,263.879h-2.376v-1.9h4.354a27.516,27.516,0,0,0,.028,3.254,2.223,2.223,0,0,1-1.538,2.474,5.938,5.938,0,0,1-4.3.536c-2.161-.6-3.147-2.228-3.551-4.277a8.022,8.022,0,0,1,.566-5.078,4.866,4.866,0,0,1,6.519-2.2l.07.035a3.518,3.518,0,0,1,1.984,2.936c-.306.086-.575.146-.833.237a1.072,1.072,0,0,1-1.541-.613,2.45,2.45,0,0,0-4.231.3,5.624,5.624,0,0,0,.1,5.572c1.049,1.831,3.242,1.476,4.424.362.3-.281.206-.98.318-1.634" transform="translate(-119.705 -158.454)" fill="#fff"/>
    <path id="Path_1268" data-name="Path 1268" d="M225.114,256.473h1.856c.021.257.056.478.056.7,0,3.418-.012,6.837.016,10.255.005.643-.213.78-.828.828a1.625,1.625,0,0,1-1.82-1.077c-.91-1.878-1.935-3.7-2.915-5.547a1.986,1.986,0,0,0-.594-.733v7.132c-.126.093-.165.144-.207.149-1.673.214-1.673.214-1.673-1.423V256.435a12.719,12.719,0,0,1,1.676.025.982.982,0,0,1,.555.5c1.109,2.065,2.2,4.14,3.291,6.211a2.266,2.266,0,0,0,.587.771" transform="translate(-119.705 -158.454)" fill="#fff"/>
    <path id="Path_1269" data-name="Path 1269" d="M161.921,262.33a16.481,16.481,0,0,0-.513-2.4,2.417,2.417,0,0,0-2.4-1.689,2.45,2.45,0,0,0-2.418,1.678,6.381,6.381,0,0,0,.037,4.851,2.448,2.448,0,0,0,2.444,1.636,2.416,2.416,0,0,0,2.319-1.694,16.49,16.49,0,0,0,.532-2.379m2.11.243a22.578,22.578,0,0,1-.768,3.086,4.371,4.371,0,0,1-4.349,2.785,4.429,4.429,0,0,1-4.277-2.917,8.728,8.728,0,0,1-.112-6.071c.742-2.247,2.3-3.242,4.809-3.194a4.461,4.461,0,0,1,4.2,3.414,28.1,28.1,0,0,1,.5,2.9" transform="translate(-119.705 -158.454)" fill="#fff"/>
    <path id="Path_1270" data-name="Path 1270" d="M250.9,262.289a19.648,19.648,0,0,0-.587-2.451,2.361,2.361,0,0,0-2.3-1.6,2.39,2.39,0,0,0-2.384,1.488,6.111,6.111,0,0,0,.028,5.185,2.517,2.517,0,0,0,4.655-.155,19.032,19.032,0,0,0,.587-2.464m-7.911-.028a8.47,8.47,0,0,1,.951-3.834c1.58-2.9,6.32-2.975,7.932-.083a7.961,7.961,0,0,1,.116,7.767c-.928,1.845-2.72,2.558-4.929,2.232a4.593,4.593,0,0,1-3.773-3.739c-.167-.766-.2-1.56-.3-2.342" transform="translate(-119.705 -158.454)" fill="#fff"/>
    <path id="Path_1271" data-name="Path 1271" d="M238.392,268.225c-.856,0-1.545.044-2.225-.023a1,1,0,0,1-.645-.5c-.727-1.372-1.409-2.767-2.11-4.154-.125-.244-.267-.48-.387-.694-2.2,1.232-1.74,3.339-1.734,5.366-.6,0-1.1.007-1.6,0-.531-.007-.418-.418-.42-.726-.007-2.957,0-5.915-.005-8.874v-2.151h2v4.878l.3.209a3.393,3.393,0,0,1,.3-.585c1.035-1.327,2.1-2.632,3.114-3.973a1.255,1.255,0,0,1,1.218-.576c.6.044,1.2.009,1.984.009-1.065,1.283-2.014,2.434-2.971,3.578-.84,1-.845,1-.214,2.128,1.1,1.975,2.2,3.948,3.4,6.088" transform="translate(-119.705 -158.454)" fill="#fff"/>
    <path id="Path_1272" data-name="Path 1272" d="M274.589,256.491v1.894h-3.351c-2.448,0-2.448,0-2.033,2.629h5.018v1.966H271.2c-2.089,0-2.089,0-2.091,2.126a4.016,4.016,0,0,1,0,.46c-.065.524.137.72.684.706,1.351-.032,2.7-.011,4.057-.011h.961a15.119,15.119,0,0,1-.021,1.562.586.586,0,0,1-.42.381c-2.37.025-4.741.016-7.167.016V256.491" transform="translate(-119.705 -158.454)" fill="#fff"/>
    <path id="Path_1273" data-name="Path 1273" d="M214.086,263.562c-.462-1.446-.9-2.806-1.33-4.168l-.153.005c-.427,1.365-.852,2.732-1.3,4.163Zm-.3-7.129,4.057,11.783c-.7,0-1.3.023-1.889-.016-.151-.011-.309-.2-.429-.337a1.128,1.128,0,0,1-.134-.355c-.661-1.97-.661-1.97-2.783-1.97-1.938,0-1.964-.007-2.483,1.8-.192.666-.467,1.019-1.207.9a8.73,8.73,0,0,0-1.246-.011c.362-1.084.685-2.068,1.014-3.047.882-2.629,1.79-5.25,2.636-7.891.213-.668.5-.98,1.223-.868a8.678,8.678,0,0,0,1.241.011" transform="translate(-119.705 -158.454)" fill="#fff"/>
    <path id="Path_1274" data-name="Path 1274" d="M135.266,263.542h2.776c-.455-1.414-.882-2.736-1.307-4.059-.07.005-.139.009-.209.012-.415,1.334-.829,2.666-1.26,4.047m6.484,4.677c-.654,0-1.237.035-1.812-.021a.79.79,0,0,1-.492-.452c-.235-.562-.367-1.168-.619-1.722a.9.9,0,0,0-.626-.466,29.65,29.65,0,0,0-3.061,0,.99.99,0,0,0-.662.518,8.075,8.075,0,0,0-.492,1.523.7.7,0,0,1-.854.633c-.45-.042-.908-.009-1.471-.009.165-.552.29-1.009.439-1.457,1.077-3.212,2.17-6.419,3.226-9.638.167-.51.365-.733.942-.717,1.45.039,1.451.005,1.926,1.374q1.65,4.765,3.295,9.532c.091.262.156.532.26.9" transform="translate(-119.705 -158.454)" fill="#fff"/>
    <path id="Path_1275" data-name="Path 1275" d="M179.868,259.419l-.183.039-1.281,4.117h2.787c-.455-1.432-.889-2.794-1.323-4.156m5,8.686a.974.974,0,0,1-.162.084c-1.914.22-1.968.235-2.474-1.6-.235-.852-.611-1.16-1.479-1.067a13.342,13.342,0,0,1-2.295,0,.746.746,0,0,0-.9.684c-.1.471-.3.921-.406,1.392a.708.708,0,0,1-.863.634c-.452-.033-.91-.007-1.488-.007.165-.518.3-.945.438-1.367,1.075-3.21,2.17-6.414,3.214-9.634a.953.953,0,0,1,1.072-.817l.042.007c1.318.053,1.327.012,1.762,1.27q1.674,4.837,3.335,9.678c.083.235.134.481.2.738" transform="translate(-119.705 -158.454)" fill="#fff"/>
    <path id="Path_1276" data-name="Path 1276" d="M299.135,260.084c0,1.75,0,1.754,1.755,1.687a1.548,1.548,0,0,0,.745-.118,2.73,2.73,0,0,0,1.024-.91,1.585,1.585,0,0,0-1.32-2.3c-2.087-.33-2.2-.242-2.2,1.643m0,8.106h-1.91V256.533c1.757,0,3.484-.03,5.208.014a2.256,2.256,0,0,1,1.975,1.385,4.479,4.479,0,0,1-.1,4.391,2.845,2.845,0,0,1-2.493,1.392,19.223,19.223,0,0,1-1.987.023c-.527-.025-.722.149-.706.692.033,1.219.011,2.442.011,3.76" transform="translate(-119.705 -158.454)" fill="#fff"/>
    <path id="Path_1277" data-name="Path 1277" d="M297.46,212.294c-.464.85-.817,1.578-1.251,2.253a1.591,1.591,0,0,1-.756.459,89.8,89.8,0,0,0-16.023,8.027c-.6.385-1.158.842-1.775,1.193a1.014,1.014,0,0,1-.875.079.98.98,0,0,1-.218-.861,3.4,3.4,0,0,1,1.5-2.119,85.408,85.408,0,0,1,18.02-8.606c.4-.134.808-.248,1.381-.423" transform="translate(-119.705 -158.454)" fill="#fff"/>
    <path id="Path_1278" data-name="Path 1278" d="M258.2,233.3c.6.046,1.2.067,1.791.139a7.411,7.411,0,0,0,4.382-.692c.32-.165.527-.546.787-.828a3.583,3.583,0,0,0-.926-.562c-2.066-.5-2.3-.784-2.149-2.931a6.864,6.864,0,0,1,2.344-4.815,3.576,3.576,0,0,1,.615-.448c1.16-.657,1.615-.4,1.615.9,0,1.573-.053,1.648-1.576,2.142-.6.2-1.119.5-1.051,1.212.074.747.682.944,1.32,1.028a4.738,4.738,0,0,0,.689.007,1.436,1.436,0,0,1,1.685,1.509c.278,2.76-1.608,4.953-4.6,5.336a5.541,5.541,0,0,1-4.012-.87,12.042,12.042,0,0,1-1.014-.882c.033-.083.069-.165.1-.248" transform="translate(-119.705 -158.454)" fill="#fff"/>
    <path id="Path_1279" data-name="Path 1279" d="M256.524,263.173v5h-1.993V256.489h6.843v1.88H256.58v2.843c1.176,0,2.316.04,3.453-.016.706-.037.828.29.761.865-.056.5.264,1.179-.731,1.126-1.139-.06-2.284-.014-3.541-.014" transform="translate(-119.705 -158.454)" fill="#fff"/>
    <path id="Path_1280" data-name="Path 1280" d="M291.112,261.041c.673-1.332,1.339-2.558,1.914-3.827a1.144,1.144,0,0,1,1.344-.791,11.7,11.7,0,0,0,1.4.011c-.735,1.358-1.318,2.667-2.107,3.836a9.224,9.224,0,0,0-1.618,6.484,1.113,1.113,0,0,1,0,.153c0,1.4,0,1.385-1.434,1.332-.473-.018-.615-.192-.606-.641.023-1.2.04-2.4-.007-3.593a3.336,3.336,0,0,0-.344-1.365c-.951-1.831-1.954-3.632-2.934-5.447-.118-.216-.216-.443-.369-.756.729,0,1.362-.04,1.986.021a.925.925,0,0,1,.583.455c.619,1.142,1.2,2.3,1.792,3.46.1.2.228.385.4.669" transform="translate(-119.705 -158.454)" fill="#fff"/>
    <path id="Path_1281" data-name="Path 1281" d="M194.995,215.609c-.378-.367-.666-.8-.815-.759a1.088,1.088,0,0,0-.691.687c-.04.253.293.566.464.852.3-.221.59-.441,1.042-.78m-11.457,10.775c3.846-1.91,7.417-3.945,9.933-7.426-.313-.33-.622-.626-.894-.949a3,3,0,0,1,1.379-4.932c.931-.315,1.954.081,2.014,1.024.1,1.485.487,2.924.52,4.409a1.87,1.87,0,0,1-.1.522c-.316,1.126-.575,1.232-1.578.6-.137.156-.285.318-.423.487a20.848,20.848,0,0,1-8.679,6.3c-1.1.432-1.39.43-2.175-.035" transform="translate(-119.705 -158.454)" fill="#fff"/>
    <path id="Path_1282" data-name="Path 1282" d="M263.943,214.825l.8.879c.241-.265.638-.511.673-.8.028-.237-.374-.525-.587-.792l-.891.715m-9.526,10.81a7.574,7.574,0,0,1,.785-.5,25.287,25.287,0,0,0,8-5.67c.272-.3.517-.631.768-.952a3.772,3.772,0,0,0,.207-.341c-.322-.344-.654-.659-.94-1.012a3,3,0,0,1,1.427-4.837,1.562,1.562,0,0,1,2.133,1.23,3.732,3.732,0,0,1,.051.989,2.375,2.375,0,0,0,.327,1.845c.5.668-.047,2.377-.789,3.01l-.852-.536a17.6,17.6,0,0,1-4.966,4.612,52.718,52.718,0,0,1-5.064,2.451,2.633,2.633,0,0,1-1,.018c-.028-.1-.056-.206-.084-.307" transform="translate(-119.705 -158.454)" fill="#fff"/>
    <path id="Path_1283" data-name="Path 1283" d="M145.956,268.19h-1.97v-.918c0-2.7-.014-5.407.014-8.109.005-.592-.156-.828-.775-.784-.731.049-1.465.011-2.24.011v-1.918h7.953v1.912c-.719,0-1.474.037-2.225-.012-.626-.042-.775.206-.77.791.026,2.7.012,5.4.012,8.109" transform="translate(-119.705 -158.454)" fill="#fff"/>
    <path id="Path_1284" data-name="Path 1284" d="M305.939,258.385v-1.892h7.956v1.877h-2.943v9.8c-.467.023-.84.018-1.209.062-.622.076-.842-.151-.835-.8.033-2.574.019-5.15.012-7.724,0-1.543.128-1.3-1.286-1.321-.534-.009-1.068,0-1.7,0" transform="translate(-119.705 -158.454)" fill="#fff"/>
    <path id="Path_1285" data-name="Path 1285" d="M186.17,268.172v-11.63a8.275,8.275,0,0,1,1.566.035c.17.033.365.476.369.734.028,2.525.018,5.052.018,7.577v1.362h5.1v1.922" transform="translate(-119.705 -158.454)" fill="#fff"/>
    <path id="Path_1286" data-name="Path 1286" d="M237.319,226.238a2.643,2.643,0,0,1-.012-2.579c-.427-.292-.854-.557-1.251-.861a1.932,1.932,0,0,1-.754-2.031,4.17,4.17,0,0,1,2.04-2.913,2.5,2.5,0,0,1,3.01.513c.408.446.467.9-.142,1.165-.64.279-1.341.42-1.989.682-.3.123-.759.371-.777.594-.04.5.43.692.859.583a21.175,21.175,0,0,0,2.01-.689c.422-.153.836-.325,1.272-.494a2.483,2.483,0,0,1-1.458,3.029,5.015,5.015,0,0,0-2.409,2.26l-.4.742" transform="translate(-119.705 -158.454)" fill="#fff"/>
    <path id="Path_1287" data-name="Path 1287" d="M150.467,256.47h2.017v11.639a.742.742,0,0,1-.216.093c-1.8.17-1.8.169-1.8-1.62V257.4" transform="translate(-119.705 -158.454)" fill="#fff"/>
    <path id="Path_1288" data-name="Path 1288" d="M131.577,213.545c-.325-.279-.555-.619-.727-.59a.8.8,0,0,0-.513.587c-.016.223.264.464.413.7.232-.2.464-.39.828-.694m.378,3.5-.668-.365a14.834,14.834,0,0,1-7.95,5.372c-.072-.1-.142-.206-.213-.309a4.975,4.975,0,0,1,.652-.46,19.014,19.014,0,0,0,5.944-4.356c.46-.518.571-.854.005-1.425a2.115,2.115,0,0,1,.273-3.378,1.411,1.411,0,0,1,1.552-.332,1.381,1.381,0,0,1,.7,1.5,3.257,3.257,0,0,0,.213,1.6,2.058,2.058,0,0,1-.51,2.158" transform="translate(-119.705 -158.454)" fill="#fff"/>
    <path id="Path_1289" data-name="Path 1289" d="M133.948,217.238c.334.118.654.128.785.292a4.791,4.791,0,0,1,1.249,3.207c-.033.977-.313,1.3-1.29,1.3a1.209,1.209,0,0,0-1.237.654,1.577,1.577,0,0,1-1.661.7,1.363,1.363,0,0,1-1.207-1.035c-.274-.819-.478-1.662-.715-2.493-.135-.48.035-.857.5-.945.564-.107.62.353.689.782a5.923,5.923,0,0,0,.365,1.543c.111.239.543.33.829.488.153-.307.453-.629.425-.921a13.945,13.945,0,0,0-.441-1.771c-.084-.357-.25-.784.318-.928s.7.211.807.654a6.487,6.487,0,0,0,.483,1.518c.148.276.536.425.817.633.1-.336.351-.713.272-1-.225-.826-.583-1.617-.991-2.685" transform="translate(-119.705 -158.454)" fill="#fff"/>
    <path id="Path_1290" data-name="Path 1290" d="M197.207,222.256c.255.047.559.009.666.137a4.911,4.911,0,0,1,1.332,3.546c-.056.836-.6,1.089-1.293,1.074a1.2,1.2,0,0,0-1.239.662,1.573,1.573,0,0,1-1.666.676,1.353,1.353,0,0,1-1.193-1.038,16.625,16.625,0,0,1-.687-2.5,1.062,1.062,0,0,1,.5-.9c.483-.165.573.293.64.7a6.328,6.328,0,0,0,.406,1.61.938.938,0,0,0,.822.4c.209-.056.446-.532.423-.8a9.187,9.187,0,0,0-.406-1.7c-.118-.416-.364-.861.271-1.065s.687.3.814.713a10.609,10.609,0,0,0,.573,1.646c.1.214.457.311.7.46.121-.274.4-.592.332-.817-.251-.9-.606-1.762-.988-2.817" transform="translate(-119.705 -158.454)" fill="#fff"/>
    <path id="Path_1291" data-name="Path 1291" d="M210.556,240.283a2.021,2.021,0,0,1-.945,1.993q-2.733,1.671-5.44,3.386c-.35.223-.62.32-.917-.042a.641.641,0,0,1,.044-1.005,24.513,24.513,0,0,1,7.259-4.331" transform="translate(-119.705 -158.454)" fill="#fff"/>
    <path id="Path_1292" data-name="Path 1292" d="M239.923,212.418a1.879,1.879,0,0,1-.907,1.979c-1.819,1.125-3.637,2.247-5.442,3.391-.351.221-.64.306-.931-.049a.648.648,0,0,1,.066-1.009,24.688,24.688,0,0,1,7.215-4.312" transform="translate(-119.705 -158.454)" fill="#fff"/>
    <path id="Path_1293" data-name="Path 1293" d="M279.934,230.082c-.8-.346-1.564-.682-2.333-1.009-.432-.185-.518-.453-.235-.835.107-.142.207-.29.318-.43,1.467-1.882.854-1.787,3.395-.81.661.253.738.629.327,1.184-.469.633-.963,1.248-1.471,1.9" transform="translate(-119.705 -158.454)" fill="#fff"/>
    <path id="Path_1294" data-name="Path 1294" d="M297.811,242.8c-.271.381-.478.7-.708.993-1.118,1.46-1.119,1.458-2.8.726-.118-.049-.234-.1-.351-.151-.873-.385-.9-.481-.341-1.251.044-.061.093-.121.139-.181,1.255-1.692,1.618-1.775,3.486-.738a3.023,3.023,0,0,1,.575.6" transform="translate(-119.705 -158.454)" fill="#fff"/>
    <path id="Path_1295" data-name="Path 1295" d="M171.915,240.833a4.139,4.139,0,0,1-.817,1.133c-1.344.914-2.739,1.757-4.136,2.59-.179.107-.481.007-.726,0,.009-.246-.084-.606.042-.72a17.427,17.427,0,0,1,5.354-3.256l.283.25" transform="translate(-119.705 -158.454)" fill="#fff"/>
    <path id="Path_1296" data-name="Path 1296" d="M149.859,240.634a1.207,1.207,0,0,1-.641,1.478c-1.357.845-2.708,1.7-4.08,2.516-.177.1-.469.021-.706.025.039-.286-.028-.692.137-.836a17.572,17.572,0,0,1,5.291-3.182" transform="translate(-119.705 -158.454)" fill="#fff"/>
    <rect id="Rectangle_9" data-name="Rectangle 9" width="192.895" height="2.757" transform="translate(1.295 90.631)" fill="#fff"/>
    <g id="Group_13" data-name="Group 13" clip-path="url(#clip-path)">
      <g id="Group_17" data-name="Group 17">
        <path id="Path_1297" data-name="Path 1297" d="M250.434,158.454,119.705,249.992l64.756,92.482,130.731-91.538Z" transform="translate(-119.705 -158.454)" fill="#fff"/>
      </g>
    </g>
    <path id="Path_1298" data-name="Path 1298" d="M373.056,268.167V216.054h-44.51V268.04a8.413,8.413,0,0,1-6.064-3.411,9.36,9.36,0,0,1-1.908-5.7q-.016-20.779,0-41.561a9.59,9.59,0,0,1,9.715-9.349q15.316-.022,30.632-.005c3.365,0,6.732.062,10.1-.014a9.971,9.971,0,0,1,7.093,2.863A9.67,9.67,0,0,1,381,217.857c-.018,13.571.035,27.14-.032,40.711-.019,3.777-1.537,6.887-5.145,8.664a23.025,23.025,0,0,1-2.764.935" transform="translate(-119.705 -158.454)" fill="#fff"/>
    <path id="Path_17" data-name="Path 17" d="M353.246,242.031c6.347-1.061,10.669-4.8,12.834-10.908a15.545,15.545,0,0,0,.593-7.645H335.321a.519.519,0,0,0-.568.451v4.4a15.767,15.767,0,0,0,.974,3.649,15.981,15.981,0,0,0,17.519,10.051Z" transform="translate(-119.705 -158.454)" fill="#fff"/>
    <path id="Path_18" data-name="Path 18" d="M347.082,246.987h7.331v28.968h-7.331Zm.179,28.968h7.151V276h-7.151Z" transform="translate(-119.705 -158.454)" fill="#fff"/>
    <g id="Group_15" data-name="Group 15" clip-path="url(#clip-path-2)">
      <g id="Group_22" data-name="Group 22">
        <path id="Path_19" data-name="Path 19" d="M347.1,246.992v28.945c.313.026.536.06.761.06h6.533V246.992Z" transform="translate(-119.705 -158.454)" fill="#fff"/>
        <g id="Group_14" data-name="Group 14" clip-path="url(#clip-path-3)">
          <g id="Group_21" data-name="Group 21">
            <path id="Path_1302" data-name="Path 1302" d="M351.992,243.562l-18.524,12.973L349.5,279.427l18.523-12.965Z" transform="translate(-119.705 -158.454)" fill="#fff"/>
          </g>
        </g>
      </g>
    </g>
    <rect id="Rectangle_11" data-name="Rectangle 11" width="7.647" height="29.334" transform="translate(239.703 88.213)" fill="#fff"/>
    <g id="Group_18" data-name="Group 18" clip-path="url(#clip-path-4)">
      <g id="Group_25" data-name="Group 25">
        <path id="Path_22" data-name="Path 22" d="M359.443,246.983v28.933c4.31.552,7.343-2.1,7.345-6.334V247.927c0-.3-.026-.608-.042-.944Z" transform="translate(-119.705 -158.454)" fill="#fff"/>
        <g id="Group_17-2" data-name="Group 17" clip-path="url(#clip-path-5)">
          <g id="Group_24" data-name="Group 24">
            <path id="Path_23" data-name="Path 23" d="M359.443,246.983v28.933c4.31.552,7.343-2.1,7.345-6.334V247.927c0-.3-.026-.608-.042-.944" transform="translate(-119.705 -158.454)" fill="#fff"/>
            <g id="Group_16" data-name="Group 16" clip-path="url(#clip-path-6)">
              <g id="Group_23" data-name="Group 23">
                <path id="Path_1305" data-name="Path 1305" d="M364.374,243.531l-18.564,13,16.051,22.924,18.562-13Z" transform="translate(-119.705 -158.454)" fill="#fff"/>
              </g>
            </g>
          </g>
        </g>
      </g>
    </g>
    <rect id="Rectangle_13" data-name="Rectangle 13" width="7.647" height="29.334" transform="translate(214.963 88.213)" fill="#fff"/>
    <g id="Group_21-2" data-name="Group 21" clip-path="url(#clip-path-7)">
      <g id="Group_28" data-name="Group 28">
        <path id="Path_26" data-name="Path 26" d="M334.763,246.992c-.019.213-.037.325-.037.438,0,7.443-.032,14.887.023,22.33.028,4.112,3.045,6.649,7.234,6.161V246.992Z" transform="translate(-119.705 -158.454)" fill="#fff"/>
        <g id="Group_20" data-name="Group 20" clip-path="url(#clip-path-8)">
          <g id="Group_27" data-name="Group 27">
            <path id="Path_27" data-name="Path 27" d="M334.763,246.992c-.019.213-.037.325-.037.438,0,7.443-.032,14.887.023,22.33.028,4.112,3.045,6.649,7.234,6.161V246.992" transform="translate(-119.705 -158.454)" fill="#fff"/>
            <g id="Group_19" data-name="Group 19" clip-path="url(#clip-path-9)">
              <g id="Group_26" data-name="Group 26">
                <path id="Path_1308" data-name="Path 1308" d="M339.585,243.567l-18.52,12.969,16.029,22.888,18.518-12.966Z" transform="translate(-119.705 -158.454)" fill="#fff"/>
              </g>
            </g>
          </g>
        </g>
      </g>
    </g>
  </g>
</svg>
