<svg id="Layer_1" data-name="Layer 1" xmlns="http://www.w3.org/2000/svg" viewBox="0 0 420.8004 70.35178"><title>Drosos 2</title><path d="M86.963,272.262l-18.488,1.09-.563-.528v-3.449l-.262-.074a15.89163,15.89163,0,0,1-4.962,3.469,14.60078,14.60078,0,0,1-6.309,1.48,15.82448,15.82448,0,0,1-12.473-5.625Q38.99947,263,39,254.074A18.82685,18.82685,0,0,1,44.486,240.5a17.81709,17.81709,0,0,1,13.278-5.662,23.14528,23.14528,0,0,1,5.767.693,17.24607,17.24607,0,0,1,4.307,1.633V224.901a6.14808,6.14808,0,0,0-.563-2.606,4.70333,4.70333,0,0,0-1.5-1.894,7.61759,7.61759,0,0,0-2.906-1.182,30.71106,30.71106,0,0,0-3.506-.506v-2.736L79.649,215l.564.602v49.16a5.57289,5.57289,0,0,0,.465,2.402,3.38786,3.38786,0,0,0,1.512,1.535,6.833,6.833,0,0,0,2.293.602c1.007.125,1.834.203,2.48.227ZM67.838,265.59V244.401a16.68879,16.68879,0,0,0-.729-1.913,7.92989,7.92989,0,0,0-1.291-1.988,6.81621,6.81621,0,0,0-2.001-1.387,6.46467,6.46467,0,0,0-2.825-.599q-3.741,0-6.134,4.236-2.394,4.239-2.395,11.965a31.26859,31.26859,0,0,0,.43,5.453,14.40808,14.40808,0,0,0,1.515,4.406,8.531,8.531,0,0,0,2.787,3.114,7.26058,7.26058,0,0,0,4.096,1.125,7.36965,7.36965,0,0,0,3.779-.879,11.26257,11.26257,0,0,0,2.768-2.344" transform="translate(-38.99779 -215)" style="fill:#fff"/><path d="M126.7892,242.71307a7.67338,7.67338,0,0,1-1.764,5.006,5.70185,5.70185,0,0,1-4.648,2.156,7.64434,7.64434,0,0,1-4.633-1.381,4.71921,4.71921,0,0,1-1.893-4.07,8.57525,8.57525,0,0,1,.188-2.035c.125-.485.236-.94.338-1.364a7.99076,7.99076,0,0,0-3.639,1.19,11.93906,11.93906,0,0,0-3.375,2.973v20.589a5.02078,5.02078,0,0,0,.412,2.172,2.90772,2.90772,0,0,0,1.389,1.352,9.72734,9.72734,0,0,0,2.682.695q1.854.282,2.679.317v2.738h-25.086v-2.738c.623-.051,1.256-.118,1.893-.207a8.81616,8.81616,0,0,0,1.631-.356,2.7442,2.7442,0,0,0,1.65-1.273,4.85048,4.85048,0,0,0,.451-2.25V244.401a4.62418,4.62418,0,0,0-.638-2.418,5.54449,5.54449,0,0,0-1.537-1.708,6.32575,6.32575,0,0,0-1.707-.75,12.116,12.116,0,0,0-2.268-.412v-2.738l17.887-.975.562.563V241.4h.151a22.05814,22.05814,0,0,1,5.494-4.705,11.7874,11.7874,0,0,1,6.056-1.707,7.50327,7.50327,0,0,1,5.606,2.157,7.61144,7.61144,0,0,1,2.119,5.568" transform="translate(-38.99779 -215)" style="fill:#fff"/><path d="M167.6646,240.27588a17.19618,17.19618,0,0,1,4.236,6.187,20.49808,20.49808,0,0,1,1.463,7.799,21.37752,21.37752,0,0,1-1.444,7.859,17.15986,17.15986,0,0,1-4.218,6.317,20.13121,20.13121,0,0,1-7.069,4.312,27.28263,27.28263,0,0,1-9.394,1.5,25.89491,25.89491,0,0,1-8.418-1.312,19.79488,19.79488,0,0,1-6.807-3.938,17.83184,17.83184,0,0,1-4.5-6.207,20.06358,20.06358,0,0,1-1.65-8.265,20.918,20.918,0,0,1,1.443-8.008,17.97527,17.97527,0,0,1,4.332-6.244,19.10155,19.10155,0,0,1,6.844-4.069,29.85053,29.85053,0,0,1,18.338,0,20.02466,20.02466,0,0,1,6.844,4.069m-9.6,25.986a21.91081,21.91081,0,0,0,1.219-5.098,54.85328,54.85328,0,0,0,.017-12.976,22.13834,22.13834,0,0,0-1.125-5.324,8.87781,8.87781,0,0,0-2.494-3.713,6.80917,6.80917,0,0,0-8.287.113,9.5165,9.5165,0,0,0-2.455,3.787,20.74755,20.74755,0,0,0-1.088,5.006,57.26324,57.26324,0,0,0-.301,5.982q0,4.08448.264,6.77a21.21883,21.21883,0,0,0,1.273,5.379,8.54665,8.54665,0,0,0,2.477,3.676,6.70859,6.70859,0,0,0,7.949.093,8.33687,8.33687,0,0,0,2.551-3.695" transform="translate(-38.99779 -215)" style="fill:#fff"/><path d="M195.56261,274.32437a24.04006,24.04006,0,0,1-7.105-1.066,23.2755,23.2755,0,0,1-5.381-2.27l-1.125,2.551h-2.926l-.488-13.988h2.738a18.52151,18.52151,0,0,0,1.875,3.804,20.95265,20.95265,0,0,0,3,3.809,16.91279,16.91279,0,0,0,4.031,2.847,10.46151,10.46151,0,0,0,4.856,1.165,8.082,8.082,0,0,0,5.082-1.332,4.93547,4.93547,0,0,0,1.668-4.106,3.9532,3.9532,0,0,0-.75-2.477,6.45514,6.45514,0,0,0-2.063-1.687,19.09217,19.09217,0,0,0-3.205-1.273q-1.743-.528-4.295-1.274a41.54775,41.54775,0,0,1-4.367-1.519,14.90173,14.90173,0,0,1-3.77-2.418,10.611,10.611,0,0,1-3.713-8.44,10.12857,10.12857,0,0,1,4.444-8.549q4.44451-3.26248,11.644-3.263a26.7854,26.7854,0,0,1,6.282.693,31.76151,31.76151,0,0,1,4.818,1.52l.787-2.213h2.852l.599,12.787h-2.625a15.50286,15.50286,0,0,0-4.5-6.731,10.17129,10.17129,0,0,0-6.863-2.832,7.57465,7.57465,0,0,0-4.537,1.201,3.8972,3.8972,0,0,0-1.651,3.338,4.32451,4.32451,0,0,0,2.417,4.125,32.27489,32.27489,0,0,0,6.755,2.399q6.70047,1.728,9.809,4.707a10.06723,10.06723,0,0,1,3.107,7.594,10.95109,10.95109,0,0,1-4.818,9.523q-4.81942,3.375-12.582,3.375" transform="translate(-38.99779 -215)" style="fill:#fff"/><path d="M255.86378,240.27588a17.2511,17.2511,0,0,1,4.238,6.187,20.51591,20.51591,0,0,1,1.461,7.799,21.35743,21.35743,0,0,1-1.445,7.859,17.12557,17.12557,0,0,1-4.219,6.317,20.08663,20.08663,0,0,1-7.067,4.312,27.28266,27.28266,0,0,1-9.394,1.5,25.89491,25.89491,0,0,1-8.418-1.312,19.795,19.795,0,0,1-6.807-3.938,17.8321,17.8321,0,0,1-4.5-6.207,20.06373,20.06373,0,0,1-1.65-8.265,20.91776,20.91776,0,0,1,1.443-8.008,17.97538,17.97538,0,0,1,4.332-6.244,19.10125,19.10125,0,0,1,6.844-4.069,29.85009,29.85009,0,0,1,18.338,0,20.06239,20.06239,0,0,1,6.844,4.069m-9.6,25.986a21.91282,21.91282,0,0,0,1.219-5.098,54.85328,54.85328,0,0,0,.017-12.976,22.13834,22.13834,0,0,0-1.125-5.324,8.87781,8.87781,0,0,0-2.494-3.713,6.80917,6.80917,0,0,0-8.287.113,9.5165,9.5165,0,0,0-2.455,3.787,20.74707,20.74707,0,0,0-1.088,5.006,57.26324,57.26324,0,0,0-.301,5.982q0,4.08448.264,6.77a21.21755,21.21755,0,0,0,1.273,5.379,8.54665,8.54665,0,0,0,2.477,3.676,6.70858,6.70858,0,0,0,7.949.093,8.33681,8.33681,0,0,0,2.551-3.695" transform="translate(-38.99779 -215)" style="fill:#fff"/><path d="M283.76192,274.32437a24.02964,24.02964,0,0,1-7.105-1.066,23.29739,23.29739,0,0,1-5.383-2.27l-1.125,2.551h-2.922l-.492-13.988h2.742a18.52252,18.52252,0,0,0,1.875,3.804,20.95308,20.95308,0,0,0,3,3.809,16.79311,16.79311,0,0,0,4.031,2.847,10.43959,10.43959,0,0,0,4.852,1.165,8.099,8.099,0,0,0,5.086-1.332,4.93925,4.93925,0,0,0,1.664-4.106,3.95332,3.95332,0,0,0-.75-2.477,6.45524,6.45524,0,0,0-2.063-1.687,18.937,18.937,0,0,0-3.203-1.273q-1.746-.528-4.297-1.274a41.87585,41.87585,0,0,1-4.367-1.519,14.88539,14.88539,0,0,1-3.766-2.418,10.58761,10.58761,0,0,1-3.715-8.44,10.12667,10.12667,0,0,1,4.442-8.549q4.44754-3.26248,11.648-3.263a26.81,26.81,0,0,1,6.282.693,31.87745,31.87745,0,0,1,4.816,1.52l.785-2.213h2.852l.601,12.787h-2.625a15.50278,15.50278,0,0,0-4.5-6.731,10.17489,10.17489,0,0,0-6.863-2.832,7.56385,7.56385,0,0,0-4.535,1.201,3.89393,3.89393,0,0,0-1.653,3.338,4.32371,4.32371,0,0,0,2.418,4.125,32.28459,32.28459,0,0,0,6.754,2.399q6.69748,1.728,9.809,4.707a10.07614,10.07614,0,0,1,3.109,7.594,10.95275,10.95275,0,0,1-4.82,9.523q-4.8165,3.375-12.582,3.375" transform="translate(-38.99779 -215)" style="fill:#fff"/><path d="M354.89864,285.35178a33.2652,33.2652,0,0,1-10.07-3.039,28.13622,28.13622,0,0,1-8.789-6.637,32.45008,32.45008,0,0,1-6.266-10.519,46.862,46.862,0,0,1,0-29.362,32.4504,32.4504,0,0,1,6.266-10.519,28.72973,28.72973,0,0,1,8.789-6.619,32.96774,32.96774,0,0,1,10.07-3.055v3.375q-7.09058,1.3125-10.875,9.131-3.78451,7.81951-3.789,22.369,0,14.54855,3.789,22.367,3.78442,7.8225,10.875,9.133Z" transform="translate(-38.99779 -215)" style="fill:#fff"/><path d="M377.21053,267.12518a6.65174,6.65174,0,0,1-2.117,4.949,7.243,7.243,0,0,1-10.125,0,6.86674,6.86674,0,0,1-.20923-9.70877q.10236-.10689.20923-.20923a7.19582,7.19582,0,0,1,10.125,0,6.71388,6.71388,0,0,1,2.117,4.969m24.114,0a6.65547,6.65547,0,0,1-2.121,4.949,7.24294,7.24294,0,0,1-10.125,0,6.86432,6.86432,0,0,1-.21277-9.70526q.1041-.10868.21277-.21274a7.19577,7.19577,0,0,1,10.125,0,6.718,6.718,0,0,1,2.121,4.969m24.113,0a6.66666,6.66666,0,0,1-2.117,4.949,7.243,7.243,0,0,1-10.125,0,6.85759,6.85759,0,0,1-.22247-9.69553q.10867-.11379.22247-.22247a7.19582,7.19582,0,0,1,10.125,0,6.72931,6.72931,0,0,1,2.117,4.969" transform="translate(-38.99779 -215)" style="fill:#fff"/><path d="M459.7892,250.47678a41.42967,41.42967,0,0,1-2.363,14.68,32.4612,32.4612,0,0,1-6.262,10.519,28.7713,28.7713,0,0,1-8.79706,6.617,32.78532,32.78532,0,0,1-10.066,3.059v-3.375q7.083-1.31855,10.875-9.133,3.78451-7.8165,3.785-22.367,0-14.55148-3.785-22.369-3.792-7.81951-10.875-9.131v-3.375a32.88713,32.88713,0,0,1,10.066,3.055,28.809,28.809,0,0,1,8.79706,6.619,32.4637,32.4637,0,0,1,6.262,10.519,41.4494,41.4494,0,0,1,2.363,14.682" transform="translate(-38.99779 -215)" style="fill:#fff"/></svg>