<svg id="Layer_1" data-name="Layer 1" xmlns="http://www.w3.org/2000/svg" viewBox="0 0 1500.24912 456.5185"><path d="M1231.56284,378.64006H1413.875a19.95117,19.95117,0,0,1,14.91177,6.69641l58.35788,65.65259a14.71423,14.71423,0,0,0,5.08869,3.729c5.363,2.34339,15.98565,4.56873,25.021-8.286a15.0279,15.0279,0,0,0,2.73392-8.63855l-.002-416.06354a18.94264,18.94264,0,0,0-.11548-2.14808C1519.35214,15.02671,1513.88693,0,1503.5069.00028H1370.0807a11.43212,11.43212,0,0,0-1.40146.08569c-5.106.6294-37.221,4.91822-52.113,25.83722-15.93734-20.66062-34.26487-24.3059-42.84932-25.76946a10.83122,10.83122,0,0,0-1.82272-.1535H1135.4185a16.34684,16.34684,0,0,0-8.578,2.37878c-4.363,2.68622-9.78035,8.10342-9.78035,18.43994V314.64018a47.23063,47.23063,0,0,0,17.91678,37.29126,46.10509,46.10509,0,0,0,10.56285,6.19275,48.14782,48.14782,0,0,0,41.17833-2.16333c55.80788-29.686,204.021-116.11206,204.021-116.11206s25.15591-14.31287,0-35.13153c-29.05944-17.78259-131.85167-76.76885-131.85167-76.76885s-13.7168-7.36023-24.402,6.1272a19.772,19.772,0,0,0-4.22374,12.28479v120.813l40.3362-22.55359-1.30116-65.0584,69.1587,39.23035a3.32522,3.32522,0,0,1,.04467,5.75874l-167.65836,98.573s-12.14423,3.90344-14.74656-7.37329c-.43373-25.15589.43372-276.28125.43372-276.28125l108.86435.43372s30.7943,2.16864,51.17927,42.07111c22.9551-30.259,40.05319-39.04223,45.92645-41.33459a10.92346,10.92346,0,0,1,3.93438-.74292l114.52-.42732v342.2912a1,1,0,0,1-1.72757.686l-35.30447-37.44409a19.95138,19.95138,0,0,0-14.51633-6.2644H1292.23438a10.88882,10.88882,0,0,0-6.226,1.95556Z" transform="translate(-19.73916 -0.00001)" style="fill:#fab01c"/><path d="M65.4931,290.95091q-20.3203,0-20.31836,20.874v70.27637H21.23916V307.51143q0-12.38819,4.59278-21.01367A32.68694,32.68694,0,0,1,38.28705,273.277a34.52448,34.52448,0,0,1,17.74316-4.59179h1.94727Q47.54192,241.549,47.541,219.97871q0-25.32643,10.15918-45.36621a84.67,84.67,0,0,1,24.07422-13.916,78.2412,78.2412,0,0,1,28.11035-5.14892q17.811,0,31.31153,7.86279a52.26068,52.26068,0,0,1,20.73437,22.335q7.23486,14.47486,7.23633,32.84179,0,22.407-8.14063,38.687a58.50752,58.50752,0,0,1-22.96191,24.9795q-14.81982,8.69823-33.88574,8.69726Zm7.65332-75.84277a146.009,146.009,0,0,0,2.2959,25.9541,132.76291,132.76291,0,0,0,8.55859,27.623h20.17774q19.06494,0,29.22461-12.94239,10.15577-12.94189,10.1582-37.43408,0-17.95166-9.81055-29.36279Q123.9394,177.537,109.8847,177.53483q-17.95166,0-33.39843,11.68946a41.86581,41.86581,0,0,0-2.85254,12.17627q-.48936,6.19411-.48731,13.70756Z" transform="translate(-19.73916 -0.00001)" style="fill:#fff;stroke:#fff;stroke-miterlimit:10;stroke-width:3px"/><path d="M200.47845,268.68529h94.90723q-5.568-38.269-21.292-65.19678-15.72666-26.92822-44.8086-46.54932l9.1836-21.56982q32.8417,17.39721,53.50781,51.07178,20.66447,33.67895,27.62305,82.24414h31.72851q1.39,0,1.3916,1.11328v19.76074a1.23,1.23,0,0,1-1.3916,1.3916H200.47845Z" transform="translate(-19.73916 -0.00001)" style="fill:#fff;stroke:#fff;stroke-miterlimit:10;stroke-width:3px"/><path d="M399.89441,268.68529q1.5293,0,1.53125,1.11328v19.76074q0,1.39307-1.53125,1.3916H348.40515a1.23,1.23,0,0,1-1.3916-1.3916V269.79857q0-1.11181,1.3916-1.11328Z" transform="translate(-19.73916 -0.00001)" style="fill:#fff;stroke:#fff;stroke-miterlimit:10;stroke-width:3px"/><path d="M448.601,268.68529q1.52921,0,1.53125,1.11328v19.76074q-.00009,1.39307-1.53125,1.3916H397.11127a1.23,1.23,0,0,1-1.39161-1.3916V269.79857q-.00009-1.11181,1.39161-1.11328Z" transform="translate(-19.73916 -0.00001)" style="fill:#fff;stroke:#fff;stroke-miterlimit:10;stroke-width:3px"/><path d="M497.306,268.68529q1.52929,0,1.53125,1.11328v19.76074q0,1.39307-1.53125,1.3916H445.81775a1.23031,1.23031,0,0,1-1.39258-1.3916V269.79857q0-1.11181,1.39258-1.11328Z" transform="translate(-19.73916 -0.00001)" style="fill:#fff;stroke:#fff;stroke-miterlimit:10;stroke-width:3px"/><path d="M546.01312,268.68529q1.5293,0,1.53125,1.11328v19.76074q0,1.39307-1.53125,1.3916H494.52289a1.22972,1.22972,0,0,1-1.39063-1.3916V269.79857q-.00009-1.11181,1.39063-1.11328Z" transform="translate(-19.73916 -0.00001)" style="fill:#fff;stroke:#fff;stroke-miterlimit:10;stroke-width:3px"/><path d="M594.7182,268.68529q1.5293,0,1.53125,1.11328v19.76074q0,1.39307-1.53125,1.3916H543.22992a1.23031,1.23031,0,0,1-1.39258-1.3916V269.79857q0-1.11181,1.39258-1.11328Z" transform="translate(-19.73916 -0.00001)" style="fill:#fff;stroke:#fff;stroke-miterlimit:10;stroke-width:3px"/><path d="M643.42523,268.68529q1.52929,0,1.53125,1.11328v19.76074q0,1.39307-1.53125,1.3916H591.935a1.22972,1.22972,0,0,1-1.39063-1.3916V269.79857q0-1.11181,1.39063-1.11328Z" transform="translate(-19.73916 -0.00001)" style="fill:#fff;stroke:#fff;stroke-miterlimit:10;stroke-width:3px"/><path d="M692.13031,268.68529q1.5293,0,1.53125,1.11328v19.76074q0,1.39307-1.53125,1.3916H640.642a1.23031,1.23031,0,0,1-1.39258-1.3916V269.79857q0-1.11181,1.39258-1.11328Z" transform="translate(-19.73916 -0.00001)" style="fill:#fff;stroke:#fff;stroke-miterlimit:10;stroke-width:3px"/><path d="M689.34711,290.95091a1.22972,1.22972,0,0,1-1.39063-1.3916V269.79857q0-1.11181,1.39063-1.11328H732.6264a55.22673,55.22673,0,0,1-10.99414-19.90039,75.20826,75.20826,0,0,1-3.75586-23.10059q0-33.95288,21.082-53.4375,21.082-19.48169,56.98633-19.48242h37.29492v115.9209H863.437a1.36648,1.36648,0,0,1,1.25195.69531l.14063.69629v19.76074c0,.74316-.4668,1.11328-1.39258,1.11328Zm119.67773-22.26562V174.89084H796.77875q-25.46485,0-39.52149,13.42871-14.05664,13.43118-14.05469,37.36474,0,43.00051,38.96485,43.001ZM761.71039,125.62816a16.72347,16.72347,0,0,1-11.3418-4.03565q-4.66407-4.03493-4.66016-13.08105,0-9.04469,4.66016-13.08106a16.73306,16.73306,0,0,1,11.3418-4.03564q7.23633,0,11.55078,4.38379,4.3125,4.3828,4.31445,12.73291,0,8.21265-4.24414,12.66357Q769.08344,125.63036,761.71039,125.62816Zm49.26367,0q-7.377,0-11.68945-4.45314-4.31544-4.45166-4.31446-12.66356,0-8.20973,4.24414-12.66358,4.24512-4.45167,11.75977-4.45312,7.65234,0,11.82812,4.66211,4.17481,4.66334,4.17578,12.45459,0,7.79517-4.17578,12.45459Q818.62738,125.6301,810.97406,125.62816Z" transform="translate(-19.73916 -0.00001)" style="fill:#fff;stroke:#fff;stroke-miterlimit:10;stroke-width:3px"/><path d="M860.65375,290.95091a1.23031,1.23031,0,0,1-1.39258-1.3916V269.79857q0-1.11181,1.39258-1.11328H915.3432V152.76443h25.32617V290.95091Zm41.05078-165.32275a16.71848,16.71848,0,0,1-11.33985-4.03565q-4.66406-4.03493-4.66211-13.08105,0-9.04469,4.66211-13.08106a16.72807,16.72807,0,0,1,11.33985-4.03564q7.23633,0,11.55078,4.38379,4.3125,4.3828,4.31445,12.73291,0,8.21265-4.24414,12.66357Q909.07758,125.63036,901.70453,125.62816Zm49.26367,0q-7.377,0-11.68945-4.45314-4.31544-4.45166-4.31446-12.66356,0-8.20973,4.24414-12.66358,4.24512-4.45167,11.75977-4.45312,7.65234,0,11.82812,4.66211,4.17481,4.66334,4.17579,12.45459,0,7.79517-4.17579,12.45459Q958.62152,125.6301,950.9682,125.62816Z" transform="translate(-19.73916 -0.00001)" style="fill:#fff;stroke:#fff;stroke-miterlimit:10;stroke-width:3px"/><path d="M983.11468,353.01634l13.49805-1.94824a22.7864,22.7864,0,0,1-7.02734-7.09766,19.42181,19.42181,0,0,1-2.99219-10.85351q0-11.97071,7.72461-18.78711,7.72266-6.82032,21.36133-6.81836,11.12988,0,18.78515,4.31347l-4.3125,12.80274q-5.707-3.48047-14.19531-3.47949a16.10417,16.10417,0,0,0-10.57617,3.54883q-4.31543,3.54932-4.31445,11.06347,0,9.044,8.6289,13.35938,2.78321-.69727,14.19336-2.22657,11.41113-1.53222,14.334-1.53027v14.05469q-6.40137,0-27.06641,2.64453-20.666,2.64111-28.041,4.17383ZM997.16937,74.41722h25.32813V290.95091H997.16937Z" transform="translate(-19.73916 -0.00001)" style="fill:#fff;stroke:#fff;stroke-miterlimit:10;stroke-width:3px"/></svg>