<svg id="Layer_1" data-name="Layer 1" xmlns="http://www.w3.org/2000/svg" viewBox="0 0 56.7 62.6"><g id="Group_650" data-name="Group 650"><path id="Path_1399" data-name="Path 1399" d="M123,113.2a2.1,2.1,0,0,1-.9-2.6h0a1.7,1.7,0,0,1,2.2-1.1h.1a2,2,0,0,1,1,2.6h0c-.1.1-.1.1-.1.2h0A1.7,1.7,0,0,1,123,113.2Z" transform="translate(-71.3 -68.4)" style="fill:none;stroke:#0f9bbd;stroke-miterlimit:10"/><path id="Path_1400" data-name="Path 1400" d="M117.3,124.1a1.7,1.7,0,0,1-2.4-.1c0-.1-.1-.1-.1-.2h0a2.1,2.1,0,0,1,.2-2.8h0a1.7,1.7,0,0,1,2.4.1v.2h0a2,2,0,0,1,.2,2.2h0A2.1,2.1,0,0,1,117.3,124.1Z" transform="translate(-71.3 -68.4)" style="fill:none;stroke:#0f9bbd;stroke-miterlimit:10"/><path id="Path_1401" data-name="Path 1401" d="M125.9,99.7a1.9,1.9,0,0,1-1.9-1.8h0a1.8,1.8,0,0,1,1.6-2.1h0a1.9,1.9,0,0,1,1.9,1.8h0a1.7,1.7,0,0,1-.2,1.2h0A2.1,2.1,0,0,1,125.9,99.7Z" transform="translate(-71.3 -68.4)" style="fill:none;stroke:#0f9bbd;stroke-miterlimit:10"/><path id="Path_1402" data-name="Path 1402" d="M105.2,130.4a1.7,1.7,0,0,1-2.1-1.4H103a2.1,2.1,0,0,1,1.4-2.4h0a1.8,1.8,0,0,1,2.1,1.5h.1a3.2,3.2,0,0,1-.2,1.4h0A1.8,1.8,0,0,1,105.2,130.4Z" transform="translate(-71.3 -68.4)" style="fill:none;stroke:#0f9bbd;stroke-miterlimit:10"/><path id="Path_1403" data-name="Path 1403" d="M122.8,86.1a1.6,1.6,0,0,1-2.4-.4c0-.1-.1-.1-.1-.2h0a2.1,2.1,0,0,1,.5-2.7h0a1.6,1.6,0,0,1,2.4.4c0,.1.1.1.1.2h0a2,2,0,0,1,0,2.1h0A1.5,1.5,0,0,1,122.8,86.1Z" transform="translate(-71.3 -68.4)" style="fill:none;stroke:#0f9bbd;stroke-miterlimit:10"/><path id="Path_1404" data-name="Path 1404" d="M91.7,129.8a2,2,0,0,1-1.2-2.4h0a1.8,1.8,0,0,1,2.1-1.4h.1a2.1,2.1,0,0,1,1.3,2.5h0c-.1.1-.1.3-.2.4h0A1.7,1.7,0,0,1,91.7,129.8Z" transform="translate(-71.3 -68.4)" style="fill:none;stroke:#0f9bbd;stroke-miterlimit:10"/><path id="Path_1405" data-name="Path 1405" d="M111.8,76.5h0a2.2,2.2,0,0,1-.7-2.8h0a1.8,1.8,0,0,1,2.3-.8h.2a2.1,2.1,0,0,1,.7,2.7h0a1.8,1.8,0,0,1-2.3.8Z" transform="translate(-71.3 -68.4)" style="fill:none;stroke:#0f9bbd;stroke-miterlimit:10"/><path id="Path_1406" data-name="Path 1406" d="M82.6,122.3a1.5,1.5,0,0,1-2.3.3l-.2-.2h0a2.1,2.1,0,0,1,0-2.8h0a1.6,1.6,0,0,1,2.3-.2h.2a2.3,2.3,0,0,1,.3,2.5h0Z" transform="translate(-71.3 -68.4)" style="fill:none;stroke:#0f9bbd;stroke-miterlimit:10"/><path id="Path_1407" data-name="Path 1407" d="M100.5,72.9a2,2,0,0,1-1.7-2.1h0a1.9,1.9,0,0,1,1.8-1.9h0a1.9,1.9,0,0,1,1.8,2.1h0a1.6,1.6,0,0,1-.3.9h0A1.8,1.8,0,0,1,100.5,72.9Z" transform="translate(-71.3 -68.4)" style="fill:none;stroke:#0f9bbd;stroke-miterlimit:10"/><path id="Path_1408" data-name="Path 1408" d="M75.2,111.1A1.8,1.8,0,0,1,73,110v-.2h0a2.1,2.1,0,0,1,1.2-2.5h0a1.8,1.8,0,0,1,2.2,1.1v.2h0a2.2,2.2,0,0,1-.1,1.6h0A2.2,2.2,0,0,1,75.2,111.1Z" transform="translate(-71.3 -68.4)" style="fill:none;stroke:#0f9bbd;stroke-miterlimit:10"/><path id="Path_1409" data-name="Path 1409" d="M89,75.5a1.7,1.7,0,0,1-2.3-.8.3.3,0,0,0-.1-.2h0a2.1,2.1,0,0,1,.9-2.6h0a1.8,1.8,0,0,1,2.3.7.3.3,0,0,0,.1.2h0a2.5,2.5,0,0,1-.1,1.9h0A2,2,0,0,1,89,75.5Z" transform="translate(-71.3 -68.4)" style="fill:none;stroke:#0f9bbd;stroke-miterlimit:10"/><path id="Path_1410" data-name="Path 1410" d="M73.3,97.3A2.2,2.2,0,0,1,71.8,95h0a2,2,0,0,1,2-1.7.1.1,0,0,1,.1.1h0a1.9,1.9,0,0,1,1.5,2.2h0a6.4,6.4,0,0,1-.2.7h0A1.9,1.9,0,0,1,73.3,97.3Z" transform="translate(-71.3 -68.4)" style="fill:none;stroke:#0f9bbd;stroke-miterlimit:10"/><path id="Path_1411" data-name="Path 1411" d="M80,83.7a1.7,1.7,0,0,1-2.3.5h-.2a2.2,2.2,0,0,1-.4-2.8h0a1.6,1.6,0,0,1,2.3-.5h.2a2.3,2.3,0,0,1,.5,2.6h0C80.1,83.6,80,83.6,80,83.7Z" transform="translate(-71.3 -68.4)" style="fill:none;stroke:#0f9bbd;stroke-miterlimit:10"/><path id="Path_1412" data-name="Path 1412" d="M118.8,110.8a1.7,1.7,0,0,1-.8-2.1h0a1.3,1.3,0,0,1,1.8-.9h.1a1.8,1.8,0,0,1,.8,2.2h-.1A1.4,1.4,0,0,1,118.8,110.8Z" transform="translate(-71.3 -68.4)" style="fill:none;stroke:#0f9bbd;stroke-miterlimit:10"/><path id="Path_1413" data-name="Path 1413" d="M114.1,119.7a1.4,1.4,0,0,1-2-.1H112a1.8,1.8,0,0,1,.2-2.3h0a1.4,1.4,0,0,1,2,.1.1.1,0,0,0,.1.1h0a1.9,1.9,0,0,1,.1,1.9h0Z" transform="translate(-71.3 -68.4)" style="fill:none;stroke:#0f9bbd;stroke-miterlimit:10"/><path id="Path_1414" data-name="Path 1414" d="M121.1,99.7a1.6,1.6,0,0,1-1.6-1.5h0a1.6,1.6,0,0,1,1.4-1.7h0a1.5,1.5,0,0,1,1.6,1.4h0a2.9,2.9,0,0,1-.2.9h0A1.6,1.6,0,0,1,121.1,99.7Z" transform="translate(-71.3 -68.4)" style="fill:none;stroke:#0f9bbd;stroke-miterlimit:10"/><path id="Path_1415" data-name="Path 1415" d="M104.1,124.9a1.5,1.5,0,0,1-1.7-1.2h0a1.6,1.6,0,0,1,1.2-1.9h0a1.5,1.5,0,0,1,1.7,1.2h0a1.4,1.4,0,0,1-.2,1.1h0A1.4,1.4,0,0,1,104.1,124.9Z" transform="translate(-71.3 -68.4)" style="fill:none;stroke:#0f9bbd;stroke-miterlimit:10"/><path id="Path_1416" data-name="Path 1416" d="M118.5,88.6a1.3,1.3,0,0,1-1.9-.3c0-.1-.1-.1-.1-.2h0a1.7,1.7,0,0,1,.5-2.2h0a1.3,1.3,0,0,1,1.9.4h.1a1.7,1.7,0,0,1,0,1.7h0A1.2,1.2,0,0,1,118.5,88.6Z" transform="translate(-71.3 -68.4)" style="fill:none;stroke:#0f9bbd;stroke-miterlimit:10"/><path id="Path_1417" data-name="Path 1417" d="M93.2,124.4a1.6,1.6,0,0,1-1-2h0a1.3,1.3,0,0,1,1.7-1.1H94a1.7,1.7,0,0,1,1,2h0c-.1.1-.1.3-.2.4h0A1.4,1.4,0,0,1,93.2,124.4Z" transform="translate(-71.3 -68.4)" style="fill:none;stroke:#0f9bbd;stroke-miterlimit:10"/><path id="Path_1418" data-name="Path 1418" d="M109.6,80.8h-.1a1.7,1.7,0,0,1-.5-2.2h0a1.4,1.4,0,0,1,1.8-.7h.3a1.7,1.7,0,0,1,.5,2.2h0a1.4,1.4,0,0,1-1.8.7Z" transform="translate(-71.3 -68.4)" style="fill:none;stroke:#0f9bbd;stroke-miterlimit:10"/><path id="Path_1419" data-name="Path 1419" d="M85.7,118.3a1.4,1.4,0,0,1-1.9.2l-.2-.2h0a1.8,1.8,0,0,1,0-2.3h0a1.4,1.4,0,0,1,1.9-.2l.2.2h0a1.6,1.6,0,0,1,.2,2h0Z" transform="translate(-71.3 -68.4)" style="fill:none;stroke:#0f9bbd;stroke-miterlimit:10"/><path id="Path_1420" data-name="Path 1420" d="M100.3,77.8a1.6,1.6,0,0,1-1.4-1.7h0a1.7,1.7,0,0,1,1.5-1.6h0a1.7,1.7,0,0,1,1.5,1.7h0c-.1.3-.1.6-.2.8h0A1.6,1.6,0,0,1,100.3,77.8Z" transform="translate(-71.3 -68.4)" style="fill:none;stroke:#0f9bbd;stroke-miterlimit:10"/><path id="Path_1421" data-name="Path 1421" d="M79.6,109.1a1.6,1.6,0,0,1-1.8-.9V108h0a1.6,1.6,0,0,1,.9-2h0a1.3,1.3,0,0,1,1.8.9h.1a1.9,1.9,0,0,1-.2,1.3h0C80.3,108.7,80,108.9,79.6,109.1Z" transform="translate(-71.3 -68.4)" style="fill:none;stroke:#0f9bbd;stroke-miterlimit:10"/><path id="Path_1422" data-name="Path 1422" d="M90.9,79.9a1.3,1.3,0,0,1-1.8-.6H89a1.6,1.6,0,0,1,.7-2.2h0a1.4,1.4,0,0,1,1.9.6v.2h0a1.6,1.6,0,0,1,0,1.5h0A1.3,1.3,0,0,1,90.9,79.9Z" transform="translate(-71.3 -68.4)" style="fill:none;stroke:#0f9bbd;stroke-miterlimit:10"/><path id="Path_1423" data-name="Path 1423" d="M78.1,97.8a1.7,1.7,0,0,1-1.2-1.9h0a1.5,1.5,0,0,1,1.6-1.3h.1a1.6,1.6,0,0,1,1.2,1.8h0c-.1.2-.1.4-.2.6h0A1.6,1.6,0,0,1,78.1,97.8Z" transform="translate(-71.3 -68.4)" style="fill:none;stroke:#0f9bbd;stroke-miterlimit:10"/><path id="Path_1424" data-name="Path 1424" d="M83.5,86.6a1.3,1.3,0,0,1-1.9.5h-.1a1.7,1.7,0,0,1-.3-2.3h0a1.4,1.4,0,0,1,1.9-.4.1.1,0,0,1,.1.1h0a1.7,1.7,0,0,1,.4,2.1h-.1Z" transform="translate(-71.3 -68.4)" style="fill:none;stroke:#0f9bbd;stroke-miterlimit:10"/><path id="Path_1425" data-name="Path 1425" d="M115.1,108.8a1.4,1.4,0,0,1-.6-1.8h0a1.1,1.1,0,0,1,1.4-.7h.1a1.5,1.5,0,0,1,.7,1.8h0a.1.1,0,0,0-.1.1h0A1.2,1.2,0,0,1,115.1,108.8Z" transform="translate(-71.3 -68.4)" style="fill:none;stroke:#0f9bbd;stroke-miterlimit:10"/><path id="Path_1426" data-name="Path 1426" d="M111.3,116h0a1.1,1.1,0,0,1-1.5-.1h-.2a1.5,1.5,0,0,1,.2-1.9h0a1.1,1.1,0,0,1,1.6.1h.1a1.6,1.6,0,0,1,.1,1.5h0Z" transform="translate(-71.3 -68.4)" style="fill:none;stroke:#0f9bbd;stroke-miterlimit:10"/><path id="Path_1427" data-name="Path 1427" d="M117,99.8a1.3,1.3,0,0,1-1.3-1.2h0a1.4,1.4,0,0,1,1.1-1.5h0a1.2,1.2,0,0,1,1.3,1.2h0a1.1,1.1,0,0,1-.2.8h0A1.1,1.1,0,0,1,117,99.8Z" transform="translate(-71.3 -68.4)" style="fill:none;stroke:#0f9bbd;stroke-miterlimit:10"/><path id="Path_1428" data-name="Path 1428" d="M103.3,120.2a1.2,1.2,0,0,1-1.4-1h0a1.2,1.2,0,0,1,.9-1.5h0a1.2,1.2,0,0,1,1.4,1h0a2.8,2.8,0,0,1-.1.9h0A1.8,1.8,0,0,1,103.3,120.2Z" transform="translate(-71.3 -68.4)" style="fill:none;stroke:#0f9bbd;stroke-miterlimit:10"/><path id="Path_1429" data-name="Path 1429" d="M114.9,90.8a1,1,0,0,1-1.5-.3h-.1a1.3,1.3,0,0,1,.4-1.8h0a1,1,0,0,1,1.5.3h.1a1.2,1.2,0,0,1,0,1.3h0A1,1,0,0,1,114.9,90.8Z" transform="translate(-71.3 -68.4)" style="fill:none;stroke:#0f9bbd;stroke-miterlimit:10"/><path id="Path_1430" data-name="Path 1430" d="M94.4,119.8a1.4,1.4,0,0,1-.8-1.7h0a1.2,1.2,0,0,1,1.4-.9h0a1.4,1.4,0,0,1,.8,1.7h0a.4.4,0,0,1-.1.3h0A1.1,1.1,0,0,1,94.4,119.8Z" transform="translate(-71.3 -68.4)" style="fill:none;stroke:#0f9bbd;stroke-miterlimit:10"/><path id="Path_1431" data-name="Path 1431" d="M107.7,84.4h-.1a1.5,1.5,0,0,1-.4-1.8h0a1.2,1.2,0,0,1,1.5-.6h.2a1.3,1.3,0,0,1,.4,1.8h0a1.1,1.1,0,0,1-1.5.6Z" transform="translate(-71.3 -68.4)" style="fill:none;stroke:#0f9bbd;stroke-miterlimit:10"/><path id="Path_1432" data-name="Path 1432" d="M88.3,114.8a1.1,1.1,0,0,1-1.5.2c-.1-.1-.1-.1-.1-.2h0a1.4,1.4,0,0,1-.1-1.8h0a1.1,1.1,0,0,1,1.6-.2.1.1,0,0,0,.1.1h0a1.5,1.5,0,0,1,.2,1.7h0Z" transform="translate(-71.3 -68.4)" style="fill:none;stroke:#0f9bbd;stroke-miterlimit:10"/><path id="Path_1433" data-name="Path 1433" d="M100.2,82a1.2,1.2,0,0,1-1.1-1.4h0a1.2,1.2,0,0,1,1.2-1.2h0a1.1,1.1,0,0,1,1.1,1.3h0c0,.2,0,.5-.1.6h0A1.2,1.2,0,0,1,100.2,82Z" transform="translate(-71.3 -68.4)" style="fill:none;stroke:#0f9bbd;stroke-miterlimit:10"/><path id="Path_1434" data-name="Path 1434" d="M83.4,107.3a1.2,1.2,0,0,1-1.5-.7h0a1.4,1.4,0,0,1,.8-1.7h0a1.1,1.1,0,0,1,1.4.8.1.1,0,0,1,.1.1h0a1.7,1.7,0,0,1-.1,1h0A1.3,1.3,0,0,1,83.4,107.3Z" transform="translate(-71.3 -68.4)" style="fill:none;stroke:#0f9bbd;stroke-miterlimit:10"/><path id="Path_1435" data-name="Path 1435" d="M92.6,83.7h0a1.2,1.2,0,0,1-1.6-.5h0a1.3,1.3,0,0,1,.6-1.7h0a1.1,1.1,0,0,1,1.5.5h0a1.3,1.3,0,0,1,0,1.2h0A1.2,1.2,0,0,1,92.6,83.7Z" transform="translate(-71.3 -68.4)" style="fill:none;stroke:#0f9bbd;stroke-miterlimit:10"/><path id="Path_1436" data-name="Path 1436" d="M82.2,98.2a1.3,1.3,0,0,1-1-1.5h0a1.1,1.1,0,0,1,1.3-1.1h.1a1.2,1.2,0,0,1,.9,1.5h0c0,.2,0,.3-.1.4h0A1.1,1.1,0,0,1,82.2,98.2Z" transform="translate(-71.3 -68.4)" style="fill:none;stroke:#0f9bbd;stroke-miterlimit:10"/><path id="Path_1437" data-name="Path 1437" d="M86.6,89.2a1.1,1.1,0,0,1-1.6.3h-.1a1.4,1.4,0,0,1-.2-1.8h0a1.1,1.1,0,0,1,1.5-.4h.1a1.6,1.6,0,0,1,.4,1.8h0C86.6,89.1,86.6,89.1,86.6,89.2Z" transform="translate(-71.3 -68.4)" style="fill:none;stroke:#0f9bbd;stroke-miterlimit:10"/></g></svg>